<?xml version="1.0" encoding="utf-8"?>
<!-- Generator: Adobe Illustrator 28.0.0, SVG Export Plug-In . SVG Version: 6.00 Build 0)  -->
<svg version="1.1" id="Layer_1" xmlns="http://www.w3.org/2000/svg" xmlns:xlink="http://www.w3.org/1999/xlink" x="0px" y="0px"
	 viewBox="0 0 260.7 208.6" style="enable-background:new 0 0 260.7 208.6;" xml:space="preserve">
<style type="text/css">
	.st0{fill:#DBA710;}
</style>
<g>
	<path class="st0" d="M234.7,20.9C234.7,20.9,234.7,20.9,234.7,20.9H130.4c0.7,0-25.8-20.9-26.1-20.9H26.1C11.7,0,0.1,11.7,0.1,26.1
		c0,0,0,0,0,0L0,182.5c0,14.4,11.7,26.1,26,26.1h208.6c14.4,0,26.1-11.7,26.1-26v0V47C260.7,32.6,249.1,20.9,234.7,20.9z
		 M229.8,135.2v28.2c0,17.2-30.7,31.1-68.5,31.1s-68.6-13.9-68.6-31.1v-28.2c0,17.2,30.7,31.1,68.6,31.1
		C199.2,166.2,229.8,152.3,229.8,135.2L229.8,135.2z M229.8,117.6c0,17.2-30.7,31.1-68.5,31.1s-68.6-13.9-68.6-31V89.4
		c0,17.2,30.7,31.1,68.6,31.1c37.9,0,68.5-13.9,68.5-31.1V117.6z M161.3,102.9c-37.9,0-68.5-13.3-68.5-29.6s30.7-29.6,68.5-29.6
		c37.9,0,68.5,13.3,68.5,29.6C229.8,89.7,199.2,102.9,161.3,102.9z"/>
</g>
</svg>
