<?xml version="1.0" encoding="utf-8"?>
<!-- Generator: Adobe Illustrator 28.0.0, SVG Export Plug-In . SVG Version: 6.00 Build 0)  -->
<svg version="1.1" id="Layer_1" xmlns="http://www.w3.org/2000/svg" xmlns:xlink="http://www.w3.org/1999/xlink" x="0px" y="0px"
	 viewBox="0 0 260.9 208.4" style="enable-background:new 0 0 260.9 208.4;" xml:space="preserve">
<style type="text/css">
	.st0{fill:#42A5F5;}
</style>
<path class="st0" d="M235,20.9H130.7L104.2,0H26C11.7,0,0.1,11.6,0.1,26c0,0,0,0,0,0v0.1L0,182.4c0,14.4,11.6,26,25.9,26
	c0,0,0,0,0.1,0h208.5c14.4,0,26-11.6,26-26v-0.1L260.9,47C261,32.6,249.4,21,235,20.9C235,20.9,235,20.9,235,20.9z M234.9,182.4H26
	L26.4,47l0,0l0,0h111.1l0,0h97.3L234.9,182.4z"/>
</svg>
