<?xml version="1.0" encoding="utf-8"?>
<!-- Generator: Adobe Illustrator 28.0.0, SVG Export Plug-In . SVG Version: 6.00 Build 0)  -->
<svg version="1.1" id="Layer_1" xmlns="http://www.w3.org/2000/svg" xmlns:xlink="http://www.w3.org/1999/xlink" x="0px" y="0px"
	 viewBox="0 0 260.9 208.4" style="enable-background:new 0 0 260.9 208.4;" xml:space="preserve">
<style type="text/css">
	.st0{fill:#D5843D;}
</style>
<path id="folder" class="st0" d="M235,20.9H130.7L104.2,0H26C11.7,0,0.1,11.6,0.1,26c0,0,0,0,0,0v0.1L0,182.4
	c0,14.4,11.6,26,25.9,26c0,0,0,0,0.1,0h208.5c14.4,0,26-11.6,26-26v-0.1L260.9,47C261,32.6,249.4,21,235,20.9
	C235,20.9,235,20.9,235,20.9z M234.9,182.4H26L26.5,47l0,0l0,0h111.1l0,0h97.3L234.9,182.4z"/>
<g id="icon">
	<g>
		<polygon class="st0" points="89.2,186.2 37.8,125.7 89.2,65.1 107.5,80.6 69.3,125.7 107.5,170.7 		"/>
	</g>
	<g>
		<polygon class="st0" points="197.2,188 178.9,172.5 217.1,127.5 178.9,82.5 197.2,66.9 248.6,127.4 		"/>
	</g>
</g>
<polygon class="st0" points="136.1,187.6 113,187.6 148.6,63.8 171.7,63.8 "/>
</svg>
