<?xml version="1.0" encoding="utf-8"?>
<!-- Generator: Adobe Illustrator 28.0.0, SVG Export Plug-In . SVG Version: 6.00 Build 0)  -->
<svg version="1.1" id="Layer_1" xmlns="http://www.w3.org/2000/svg" xmlns:xlink="http://www.w3.org/1999/xlink" x="0px" y="0px"
	 viewBox="0 0 260.7 208.6" style="enable-background:new 0 0 260.7 208.6;" xml:space="preserve">
<style type="text/css">
	.st0{fill:#D5843D;}
	.st1{fill:#FFFFFF;}
</style>
<path id="folder" class="st0" d="M234.7,20.9H130.4c0.7,0-25.8-20.9-26.1-20.9H26.1C11.7,0,0.1,11.7,0.1,26.1c0,0,0,0,0,0l0,0
	L0,182.5c0,14.4,11.7,26.1,26,26.1h208.6c14.4,0,26.1-11.7,26.1-26v0V47C260.7,32.6,249.1,20.9,234.7,20.9
	C234.7,20.9,234.7,20.9,234.7,20.9z"/>
<g id="icon">
	<g>
		<polygon class="st1" points="89.2,186.2 37.8,125.7 89.2,65.1 107.5,80.6 69.3,125.7 107.5,170.7 		"/>
	</g>
	<g>
		<polygon class="st1" points="197.2,188 178.9,172.5 217.1,127.5 178.9,82.5 197.2,66.9 248.6,127.4 		"/>
	</g>
</g>
<polygon class="st1" points="136.1,187.6 113,187.6 148.6,63.8 171.7,63.8 "/>
</svg>
