<?xml version="1.0" encoding="utf-8"?>
<!-- Generator: Adobe Illustrator 28.0.0, SVG Export Plug-In . SVG Version: 6.00 Build 0)  -->
<svg version="1.1" id="Layer_1" xmlns="http://www.w3.org/2000/svg" xmlns:xlink="http://www.w3.org/1999/xlink" x="0px" y="0px"
	 viewBox="0 0 288 230.4" style="enable-background:new 0 0 288 230.4;" xml:space="preserve">
<style type="text/css">
	.st0{fill:#019639;}
	.st1{fill:none;}
</style>
<g>
	<path class="st0" d="M112.6,148c-3.4,2-4.6,6.4-2.7,9.8l12,20.9c2,3.4,6.4,4.6,9.8,2.7l16.7-7.2l0.3,0.2h0.1l0.6,0.4l0.9,0.7
		l0.6,0.3l0.7,0.4h0.1l0.3,0.2l0.8,0.6h0.1l0.3,0.2c0.9,0.6,1.8,1.2,2.8,1.8l0.4,0.3c1.2,0.7,2.4,1.3,3.6,2l0.1,0.1
		c1.9,1,3.8,1.8,5.7,2.5l2.1,18c0,4,3.2,7.2,7.2,7.2h24.1c4,0,7.2-3.2,7.2-7.2l2.1-18l0.3-0.1l0.3-0.1c0.7-0.2,1.3-0.4,2-0.8
		l0.4-0.1c0.6-0.2,1.2-0.6,1.8-0.8l0.1-0.1l0.2-0.1l0.7-0.3l1.4-0.8l1.1-0.6l0.6-0.3l0.2-0.1h0.1l0.1-0.1c0.8-0.4,1.7-0.9,2.4-1.4
		l0.2-0.1l0.3-0.2c0.7-0.3,1.3-0.9,2-1.3l0.2-0.1c0.8-0.6,1.5-1.1,2.2-1.7l0.3-0.2l0.4-0.4l16.7,7.2c3.4,2,7.8,0.8,9.8-2.7l12-20.9
		c2-3.4,0.8-7.8-2.7-9.8l-14.6-10.8c0-0.2,0.1-0.6,0.1-0.7v-0.2c0.1-1,0.2-1.9,0.3-2.9v-0.1c0.1-1,0.2-2,0.2-3v-0.1
		c0.1-0.9,0.1-1.9,0.1-2.9v-3.1c0-0.6-0.1-1-0.1-1.5v-0.2c0-0.1,0-0.1,0-0.4s-0.1-0.7-0.1-0.9v-1.8c-0.1-0.7-0.2-1.4-0.3-2.1
		c0-0.1,0-0.1-0.2-0.4l14.6-10.8c3.4-2,4.6-6.4,2.7-9.8l-12-20.9c-2-3.4-6.4-4.6-9.8-2.7l-16.7,7.2l-0.3-0.2l-0.1-0.1l-0.7-0.6
		l-0.7-0.6l-0.6-0.4l-0.2-0.2l-0.4-0.3l-0.2-0.2l-0.7-0.4l-0.2-0.1l-0.3-0.2l-1-0.7l-0.1-0.1c-0.6-0.3-1.1-0.7-1.7-1l-0.4-0.2
		c-1.2-0.7-2.5-1.3-3.8-2h-0.1c-1.7-0.8-3.3-1.5-5.1-2.2h-0.1l-0.7-0.2l-2.1-18c0-4-3.2-7.2-7.2-7.2h-24.1h-0.1
		c-4,0.1-7.2,3.4-7.1,7.4l-2.1,18l-0.3,0.1l-0.3,0.1c-0.7,0.2-1.3,0.6-2,0.8l-0.3,0.1l-1.8,0.8l-0.2,0.1l-0.2,0.1l-0.7,0.3l-1.4,0.8
		l-1,0.6l-0.7,0.3l-0.1,0.1l-0.2,0.1c-0.8,0.4-1.5,1-2.3,1.4l-0.2,0.2l-0.2,0.2H154c-0.7,0.4-1.3,0.9-2,1.3l-0.2,0.2
		c-0.7,0.4-1.4,1-2.1,1.5l-0.3,0.3l-0.4,0.3l-16.9-7.1c-3.4-2-7.8-0.8-9.8,2.7L110,96.6c-2,3.4-0.8,7.8,2.7,9.8l14.6,10.8
		c-0.1,0.2-0.1,0.3-0.1,0.6l-0.1,0.6c-0.1,0.8-0.2,1.5-0.3,2.4v0.4c-0.1,0.8-0.2,1.4-0.2,2.2v0.9c-0.1,0.9-0.1,1.7-0.1,2.5v1.3
		c0,0.3-0.1,0.6,0,1c0.1,0.4,0,1,0.1,1.3s0.1,0.8,0.1,1.1v0.2c0,0.2-0.1,0.2,0,0.6c0.1,0.3,0.1,0.6,0.1,0.8c0.1,0.4,0.1,1,0.2,1.5
		c0.1,0.8,0.2,1.5,0.3,2.3v0.1L112.6,148z M187.6,101.9c13.9,0,25.2,11.3,25.2,25.2s-11.3,25.2-25.2,25.2s-25.2-11.3-25.2-25.2
		S173.7,101.9,187.6,101.9z"/>
</g>
<g>
	<path class="st1" d="M241.9,38.6H144H46c-12.8,0-23.3,10-24.3,22.6c0,0.6-0.1,1.3-0.1,1.9l0,63.6l0,63.6c0,0.6,0,1.3,0.1,1.9
		c1,12.6,11.5,22.6,24.3,22.6h98h97.9c13.5,0,24.5-11,24.5-24.4v-0.2V63.2V63C266.4,49.6,255.4,38.6,241.9,38.6z"/>
	<path class="st0" d="M286.7,43.4c-0.6-1.8-1.3-3.5-2.2-5.2c-0.9-1.6-1.9-3.2-3.1-4.6c-0.6-0.7-1.2-1.4-1.9-2
		c-0.6-0.7-1.3-1.3-2-1.9c-3.2-2.6-7-4.6-11.1-5.7c-2.3-0.6-4.7-0.9-7.2-0.9H144.1c0.2,0-2.5-2.3-6.3-5.4c-0.8-0.6-1.6-1.3-2.4-2
		c-0.4-0.3-0.8-0.7-1.3-1c-0.9-0.7-1.8-1.4-2.7-2.1c-0.5-0.4-0.9-0.7-1.4-1.1C122.8,5.8,115.4,0,115.2,0H28.8
		C21.4,0,14.6,2.8,9.5,7.5c-0.3,0.3-0.7,0.6-1,1c-0.6,0.7-1.3,1.3-1.9,2c-0.3,0.4-0.6,0.7-0.9,1.1c-0.6,0.7-1.1,1.5-1.5,2.3
		c-2.6,4.4-4.1,9.5-4.1,14.9L0,201.6c0,15.9,12.9,28.8,28.7,28.8h230.4c15.9,0,28.8-12.9,28.8-28.7V51.9
		C288,48.9,287.5,46.1,286.7,43.4z M266.4,63.2v127.1v0.2c0,13.4-11,24.4-24.5,24.4H144H46c-12.8,0-23.3-10-24.3-22.6
		c0-0.6-0.1-1.3-0.1-1.9l0-63.6l0-63.6c0-0.6,0-1.3,0.1-1.9c1-12.6,11.5-22.6,24.3-22.6h98h97.9c13.5,0,24.5,11,24.5,24.4V63.2z"/>
</g>
</svg>
