<?xml version="1.0" encoding="utf-8"?>
<!-- Generator: Adobe Illustrator 28.0.0, SVG Export Plug-In . SVG Version: 6.00 Build 0)  -->
<svg version="1.1" id="Layer_1" xmlns="http://www.w3.org/2000/svg" xmlns:xlink="http://www.w3.org/1999/xlink" x="0px" y="0px"
	 viewBox="0 0 288 230.6" style="enable-background:new 0 0 288 230.6;" xml:space="preserve">
<style type="text/css">
	.st0{fill:#666699;}
</style>
<path class="st0" d="M259.3,23.1H144.1c0.8,0-28.5-23.1-28.8-23.1H28.8C12.9,0,0.1,12.9,0.1,28.8L0,201.6
	c0,15.9,12.9,28.8,28.7,28.8h230.4c15.9,0,28.8-12.9,28.8-28.7V51.9C288,36,275.2,23.1,259.3,23.1z M266.4,63.2v127.1v0.2
	c0,13.4-11,24.4-24.5,24.4H144H46c-12.8,0-23.3-10-24.3-22.6c0-0.6-0.1-1.3-0.1-1.9l0-63.6l0-63.6c0-0.6,0-1.3,0.1-1.9
	c1-12.6,11.5-22.6,24.3-22.6h98h97.9c13.5,0,24.5,11,24.5,24.4V63.2z"/>
<path class="st0" d="M68.8,211.9l62.8-70.1l50.8,45.6c3.6,3.4,9.4,3.1,12.8-0.7L264,110c3.4-3.8,3.1-9.5-0.7-12.9
	c-3.8-3.4-9.5-3.1-12.9,0.7l-62.8,70.1l-50.8-45.6c-3.6-3.4-9.4-3.1-12.8,0.7l-68.9,76.8c-3.4,3.8-3.1,9.5,0.7,12.9
	C59.6,215.9,65.3,215.6,68.8,211.9z"/>
</svg>
