<?xml version="1.0" encoding="utf-8"?>
<!-- Generator: Adobe Illustrator 28.0.0, SVG Export Plug-In . SVG Version: 6.00 Build 0)  -->
<svg version="1.1" id="Layer_1" xmlns="http://www.w3.org/2000/svg" xmlns:xlink="http://www.w3.org/1999/xlink" x="0px" y="0px"
	 viewBox="0 0 288 230.6" style="enable-background:new 0 0 288 230.6;" xml:space="preserve">
<style type="text/css">
	.st0{fill:#666699;}
	.st1{fill:#FFFFFF;}
</style>
<path class="st0" d="M257.8,23.8H144L114.4,0H30.2C13.5,0,0,13.5,0,30.2v170.3c0,16.7,13.6,30.2,30.2,30.2h227.7
	c16.7,0,30.2-13.5,30.2-30.2V53.9C288.1,37.2,274.6,23.8,257.8,23.8z"/>
<path class="st1" d="M68.8,211.9l62.8-70.1l50.8,45.6c3.6,3.4,9.4,3.1,12.8-0.7L264,110c3.4-3.8,3.1-9.5-0.7-12.9
	c-3.8-3.4-9.5-3.1-12.9,0.7l-62.8,70.1l-50.8-45.6c-3.6-3.4-9.4-3.1-12.8,0.7l-68.9,76.8c-3.4,3.8-3.1,9.5,0.7,12.9
	C59.6,215.9,65.3,215.6,68.8,211.9z"/>
</svg>
