<?xml version="1.0" encoding="utf-8"?>
<!-- Generator: Adobe Illustrator 28.0.0, SVG Export Plug-In . SVG Version: 6.00 Build 0)  -->
<svg version="1.1" id="Layer_1" xmlns="http://www.w3.org/2000/svg" xmlns:xlink="http://www.w3.org/1999/xlink" x="0px" y="0px"
	 viewBox="0 0 288 230" style="enable-background:new 0 0 288 230;" xml:space="preserve">
<style type="text/css">
	.st0{fill-rule:evenodd;clip-rule:evenodd;fill:#F97E2F;}
	.st1{fill:#F97E2F;}
</style>
<path class="st0" d="M265.8,129.3c-0.8-3.4-2.5-6-5.8-7.7c-6-3.1-12.4-4.7-18.9-6.1c-13.8-3.2-27.6-5.2-41.8-6.7
	c-1.5-0.1-3.2-0.5-4.8-0.6c0.6-4.5,2.1-6,7.7-7.2c0.6,1.3,1.1,2.7,1.8,3.9c0.2,0.5,0.8,1.1,1.3,1.1c8,0.1,15.8-1.3,22.1-7.1
	c4.8-4.5,7.1-10.4,8.3-16.6c0.5-2.4,0.8-4.6,1.2-7c1.1-7.2,4.8-13,9.7-18.2c0.2-0.2,0.5-0.6,0.7-1.1c-3.8-1.2-7.7-1.3-11.2-0.6
	c-14.3,2.6-24.9,10-31.6,23.1l-0.2,0.2c-2.5-0.6-4.8-1.2-7.2-1.9c-0.5-0.1-0.7-0.8-1.1-1.4c-3.9-11.1-10.6-19.7-21.7-24.4
	c-3.3-1.4-7-1.2-10.5-2.1c-0.1,0-0.2,0.2-0.6,0.2h-10.5c-2.4,0-4.6,0.1-7,0.6c-27.4,5.8-49,27-53.9,55c-5.3,29.7,2.7,55.7,22.3,78.5
	c2.8,3.4,6.5,6.1,10.6,8.3c7.7,3.8,15.8,1.1,19.7-6.5l0.2-0.6c1.8,4.4,3.4,8.5,4.8,12.9c1.4,4.1,6.5,6,9.6,5.9
	c0.6,0,1.3,0.5,1.8,0.1c2.7-2,4.8,1.3,7.3,1.3h3.9c2.7-1.4,5.3-2.5,7.1-4.8c0.2-0.2,1.2-0.5,1.9-0.2c3.4,0.5,6.7-0.5,9.7-2.5
	c2.5-1.5,4-3.9,4.4-7c3.2-0.8,5.1-3.3,5.2-7c0-2-0.1-4.1-1.1-5.9c-2.6-5.3-5.7-10.4-8.4-15.6l-0.2-0.6l0.6,0.2
	c4.1,2,8.5,2.8,13.1,2.6c2.8-0.2,4.7-1.2,6.1-3.4c3.5,2.6,7.8,3.8,12.3,3.4c4.5-0.2,8.6-1.3,11-5.7c3.2,0,6.4,0.2,9.6-0.1
	c2.1-0.2,4.5-1.3,6.4-2.4c3.2-1.8,5.3-4.4,4.6-8.4c3.2-0.2,6.1-1.1,8.6-3.1c2-1.5,2.8-3.8,3.5-6.1c0.1-0.6,0.2-1.2,0.2-1.8v-4.8
	C266.2,130.8,266.2,130,265.8,129.3L265.8,129.3z M157.5,96.4c-5.2,0-9.2-4.1-9.2-9.3s4.1-9.3,9.3-9.3s9.2,4.1,9.2,9.3
	C166.7,92.4,162.7,96.4,157.5,96.4z M185.7,103.8c-1.2-2.8-2.1-5.8-1.8-9c-0.2-4.8,1.4-9.1,4.4-12.9c0.5-0.5,1.5-0.6,2.4-0.6
	c9.1,0.6,16.9,4.4,24.2,9.6c1.4,1.2,2.8,2.4,4.1,3.8c-2.8-0.6-5.7-1.3-8.5-1.9C206.1,92,202,92.2,198,94c-4.4,1.9-9,1.9-13.6,1.5
	c2.5,2.4,5.4,2.1,8.5,1.8c2.5-0.5,5.1-1.2,7.7-1.8l0.1,1.4C200.8,97.1,185.7,103.8,185.7,103.8z"/>
<path class="st1" d="M259.3,23.1H144.1c0.8,0-28.5-23.1-28.8-23.1H28.8C12.9,0,0.1,12.9,0.1,28.8L0,201.6
	c0,15.9,12.9,28.8,28.7,28.8h230.4c15.9,0,28.8-12.9,28.8-28.7V51.9C288,36,275.2,23.1,259.3,23.1z M266.4,63.2v127.1v0.2
	c0,13.4-11,24.4-24.5,24.4H144H46c-12.8,0-23.3-10-24.3-22.6c0-0.6-0.1-1.3-0.1-1.9l0-63.6l0-63.6c0-0.6,0-1.3,0.1-1.9
	c1-12.6,11.5-22.6,24.3-22.6h98h97.9c13.5,0,24.5,11,24.5,24.4V63.2z"/>
</svg>
