<?xml version="1.0" encoding="utf-8"?>
<!-- Generator: Adobe Illustrator 28.0.0, SVG Export Plug-In . SVG Version: 6.00 Build 0)  -->
<svg version="1.1" id="Layer_1" xmlns="http://www.w3.org/2000/svg" xmlns:xlink="http://www.w3.org/1999/xlink" x="0px" y="0px"
	 viewBox="0 0 288 230.4" style="enable-background:new 0 0 288 230.4;" xml:space="preserve">
<style type="text/css">
	.st0{fill:#666699;}
	.st1{fill:#FFFFFF;}
</style>
<g>
	<ellipse class="st0" cx="187.6" cy="127.1" rx="25.2" ry="25.2"/>
	<path class="st0" d="M258.9,23.3H143.7c0.8,0-28.5-23.1-28.8-23.1H28.5C12.6,0.2-0.2,13.1-0.2,29l-0.1,172.8
		c0,15.9,12.9,28.8,28.7,28.8h230.4c15.9,0,28.8-12.9,28.8-28.7V52.1C287.6,36.2,274.8,23.3,258.9,23.3z M247.7,117.3
		c0.1,0.7,0.2,1.4,0.3,2.1v1.8c0,0.2,0.1,0.6,0.1,0.9s0,0.3,0,0.4v0.2c0,0.6,0.1,1,0.1,1.5v3.1c0,1,0,2-0.1,2.9v0.1c0,1-0.1,2-0.2,3
		v0.1c-0.1,1-0.2,1.9-0.3,2.9v0.2c0,0.1-0.1,0.4-0.1,0.7l14.6,10.8c3.4,2,4.6,6.4,2.7,9.8l-12,20.9c-2,3.4-6.4,4.6-9.8,2.7
		l-16.7-7.2l-0.4,0.4l-0.3,0.2c-0.7,0.6-1.4,1.1-2.2,1.7l-0.2,0.1c-0.7,0.4-1.3,1-2,1.3l-0.3,0.2l-0.2,0.1c-0.8,0.6-1.7,1-2.4,1.4
		l-0.1,0.1h-0.1l-0.2,0.1l-0.6,0.3l-1.1,0.6l-1.4,0.8l-0.7,0.3l-0.2,0.1l-0.1,0.1c-0.6,0.2-1.2,0.6-1.8,0.8l-0.4,0.1
		c-0.7,0.3-1.3,0.6-2,0.8l-0.3,0.1l-0.3,0.1l-2.1,18c0,4-3.2,7.2-7.2,7.2h-24.1c-4,0-7.2-3.2-7.2-7.2l-2.1-18
		c-2-0.8-3.9-1.5-5.7-2.5l-0.1-0.1c-1.2-0.7-2.4-1.3-3.6-2l-0.4-0.3c-1-0.6-1.9-1.2-2.8-1.8l-0.3-0.2h-0.1l-0.8-0.6l-0.3-0.2h-0.1
		l-0.7-0.4l-0.6-0.3l-0.9-0.7l-0.6-0.4h-0.1l-0.3-0.2l-16.7,7.2c-3.4,2-7.8,0.8-9.8-2.7l-12-20.9c-2-3.4-0.8-7.8,2.7-9.8l14.6-10.8
		v-0.1c-0.1-0.8-0.2-1.5-0.3-2.3c-0.1-0.6-0.1-1.1-0.2-1.5c0-0.2,0-0.4-0.1-0.8c-0.1-0.3,0-0.3,0-0.6v-0.2c0-0.3,0-0.8-0.1-1.1
		s0-0.9-0.1-1.3c-0.1-0.4,0-0.7,0-1V127c0-0.9,0-1.7,0.1-2.5v-0.9c0-0.8,0.1-1.4,0.2-2.2V121c0.1-0.9,0.2-1.7,0.3-2.4l0.1-0.6
		c0-0.2,0-0.3,0.1-0.6l-14.6-10.8c-3.4-2-4.6-6.4-2.7-9.8l12.3-20.9c2-3.4,6.4-4.6,9.8-2.7l16.9,7.1l0.4-0.3l0.3-0.3
		c0.7-0.6,1.4-1.1,2.1-1.5l0.2-0.2c0.7-0.4,1.3-0.9,2-1.3h0.1l0.2-0.2l0.2-0.2c0.8-0.4,1.5-1,2.3-1.4l0.2-0.1l0.1-0.1l0.7-0.3l1-0.6
		l1.4-0.8l0.7-0.3l0.2-0.1l0.2-0.1l1.8-0.8l0.3-0.1c0.7-0.2,1.3-0.6,2-0.8l0.3-0.1l0.3-0.1l2.1-18c-0.1-4,3.1-7.3,7.1-7.4h0.1h24.1
		c4,0,7.2,3.2,7.2,7.2l2.1,18l0.7,0.2h0.1c1.8,0.7,3.4,1.4,5.1,2.2h0.1c1.2,0.7,2.5,1.3,3.8,2l0.4,0.2c0.6,0.3,1.1,0.7,1.7,1
		l0.1,0.1l1,0.7l0.3,0.2l0.2,0.1l0.7,0.4l0.2,0.2l0.4,0.3l0.2,0.2l0.6,0.4l0.7,0.6l0.7,0.6l0.1,0.1l0.3,0.2l16.7-7.2
		c3.4-2,7.8-0.8,9.8,2.7l12,20.9c2,3.4,0.8,7.8-2.7,9.8l-14.6,10.8C247.7,117.2,247.7,117.2,247.7,117.3z"/>
	<path class="st1" d="M264.7,96.2l-12-20.9c-2-3.4-6.4-4.6-9.8-2.7l-16.7,7.2l-0.3-0.2l-0.1-0.1l-0.7-0.6l-0.7-0.6l-0.6-0.4
		l-0.2-0.2l-0.4-0.3l-0.2-0.2l-0.7-0.4l-0.2-0.1l-0.3-0.2l-1-0.7l-0.1-0.1c-0.6-0.3-1.1-0.7-1.7-1l-0.4-0.2c-1.2-0.7-2.5-1.3-3.8-2
		h-0.1c-1.7-0.8-3.3-1.5-5.1-2.2h-0.1l-0.7-0.2l-2.1-18c0-4-3.2-7.2-7.2-7.2h-24.1h-0.1c-4,0.1-7.2,3.4-7.1,7.4l-2.1,18l-0.3,0.1
		l-0.3,0.1c-0.7,0.2-1.3,0.6-2,0.8l-0.3,0.1l-1.8,0.8l-0.2,0.1l-0.2,0.1l-0.7,0.3l-1.4,0.8l-1,0.6l-0.7,0.3l-0.1,0.1l-0.2,0.1
		c-0.8,0.4-1.5,1-2.3,1.4l-0.2,0.2l-0.2,0.2H154c-0.7,0.4-1.3,0.9-2,1.3l-0.2,0.2c-0.7,0.4-1.4,1-2.1,1.5l-0.3,0.3L149,80l-16.9-7.1
		c-3.4-2-7.8-0.8-9.8,2.7l-12.3,21c-2,3.4-0.8,7.8,2.7,9.8l14.6,10.8c-0.1,0.2-0.1,0.3-0.1,0.6l-0.1,0.6c-0.1,0.8-0.2,1.5-0.3,2.4
		v0.4c-0.1,0.8-0.2,1.4-0.2,2.2v0.9c-0.1,0.9-0.1,1.7-0.1,2.5v1.3c0,0.3-0.1,0.6,0,1s0,1,0.1,1.3s0.1,0.8,0.1,1.1v0.2
		c0,0.2-0.1,0.2,0,0.6c0.1,0.3,0.1,0.6,0.1,0.8c0.1,0.4,0.1,1,0.2,1.5c0.1,0.8,0.2,1.5,0.3,2.3v0.1l-14.7,11c-3.4,2-4.6,6.4-2.7,9.8
		l12,20.9c2,3.4,6.4,4.6,9.8,2.7l16.7-7.2l0.3,0.2h0.1l0.6,0.4l0.9,0.7l0.6,0.3l0.7,0.4h0.1l0.3,0.2l0.8,0.6h0.1l0.3,0.2
		c0.9,0.6,1.8,1.2,2.8,1.8l0.4,0.3c1.2,0.7,2.4,1.3,3.6,2l0.1,0.1c1.9,1,3.8,1.8,5.7,2.5l2.1,18c0,4,3.2,7.2,7.2,7.2h24.1
		c4,0,7.2-3.2,7.2-7.2l2.1-18l0.3-0.1l0.3-0.1c0.7-0.2,1.3-0.4,2-0.8l0.4-0.1c0.6-0.2,1.2-0.6,1.8-0.8l0.1-0.1l0.2-0.1l0.7-0.3
		l1.4-0.8l1.1-0.6l0.6-0.3l0.2-0.1h0.1l0.1-0.1c0.8-0.4,1.7-0.9,2.4-1.4l0.2-0.1l0.3-0.2c0.7-0.3,1.3-0.9,2-1.3l0.2-0.1
		c0.8-0.6,1.5-1.1,2.2-1.7l0.3-0.2l0.4-0.4l16.7,7.2c3.4,2,7.8,0.8,9.8-2.7l12-20.9c2-3.4,0.8-7.8-2.7-9.8L247,137.2
		c0-0.2,0.1-0.6,0.1-0.7v-0.2c0.1-1,0.2-1.9,0.3-2.9v-0.1c0.1-1,0.2-2,0.2-3v-0.1c0.1-0.9,0.1-1.9,0.1-2.9v-3.1c0-0.6-0.1-1-0.1-1.5
		v-0.2c0-0.1,0-0.1,0-0.4s-0.1-0.7-0.1-0.9v-1.8c-0.1-0.7-0.2-1.4-0.3-2.1c0-0.1,0-0.1-0.2-0.4l14.6-10.8
		C265.5,104,266.7,99.6,264.7,96.2z M187.6,152.3c-13.9,0-25.2-11.3-25.2-25.2s11.3-25.2,25.2-25.2s25.2,11.3,25.2,25.2
		S201.5,152.3,187.6,152.3z"/>
</g>
</svg>
