<?xml version="1.0" encoding="utf-8"?>
<!-- Generator: Adobe Illustrator 28.0.0, SVG Export Plug-In . SVG Version: 6.00 Build 0)  -->
<svg version="1.1" id="Layer_1" xmlns="http://www.w3.org/2000/svg" xmlns:xlink="http://www.w3.org/1999/xlink" x="0px" y="0px"
	 viewBox="0 0 288 230.4" style="enable-background:new 0 0 288 230.4;" xml:space="preserve">
<style type="text/css">
	.st0{fill:#38EF7D;}
</style>
<path class="st0" d="M259.3,23.1H144.1c0.8,0-28.5-23.1-28.8-23.1H28.8C12.9,0,0.1,12.9,0.1,28.8L0,201.6
	c0,15.9,12.9,28.8,28.7,28.8h230.4c15.9,0,28.8-12.9,28.8-28.7V51.9C288,36,275.2,23.1,259.3,23.1z M266.4,63.2v127.1v0.2
	c0,13.4-11,24.4-24.5,24.4H144H46c-12.8,0-23.3-10-24.3-22.6c0-0.6-0.1-1.3-0.1-1.9v-63.6V63.2c0-0.6,0-1.3,0.1-1.9
	c1-12.6,11.5-22.6,24.3-22.6h98h97.9c13.5,0,24.5,11,24.5,24.4V63.2z"/>
<path class="st0" d="M263.7,104.9c-9.8-38.1-44.3-66.3-85.5-66.3c-48.8,0-88.4,39.5-88.4,88.3c0,46.2,35.4,84.2,80.7,88.1h15.2
	c37.8-3.2,68.9-30.3,78.1-66.1c1.8-7,2.8-14.3,2.8-21.8C266.4,119.3,265.5,111.9,263.7,104.9z M136.7,145.9
	c2.9,3.8,6.8,5.4,12.2,5.4c2.4,0,5-0.4,7.3-1.3c2.8-1.2,5.4-2.7,8-4.2l9,12.9c-7.1,6-16.2,9.2-25.4,9c-6.9,0.2-13.8-1.4-19.9-4.8
	c-5.7-3.2-10.1-8.2-12.9-14.1c-3.1-6.8-4.5-14.1-4.4-21.5c-0.1-7.4,1.4-14.8,4.4-21.5c2.8-6.1,7.2-11.2,12.9-14.8
	c5.5-3.5,12.2-5.1,19.6-5.1c4.7-0.1,9.3,0.6,13.8,2.2c4.3,1.7,8.3,4.1,11.9,7.1l-9,12.2c-2.2-1.8-4.7-3.1-7.3-4.2
	c-2.4-1-5-1.4-7.7-1.3c-10.9,0-16.3,8.3-16.4,25.4C132.5,135.9,134.1,142,136.7,145.9z M224.7,165.9c-3.2,9.9-8,17.3-14.8,22.7
	s-15.8,8.3-27,9.3l-2.2-15.1c7.4-0.9,12.9-2.6,16.4-5.1c1.4-1.2,2.7-2.6,3.9-3.9l-26.6-85.4h22.2l15.4,63.9l16.4-63.9H250
	L224.7,165.9z"/>
</svg>
