<?xml version="1.0" encoding="utf-8"?>
<!-- Generator: Adobe Illustrator 28.0.0, SVG Export Plug-In . SVG Version: 6.00 Build 0)  -->
<svg version="1.1" id="Layer_1" xmlns="http://www.w3.org/2000/svg" xmlns:xlink="http://www.w3.org/1999/xlink" x="0px" y="0px"
	 viewBox="0 0 288 230.4" style="enable-background:new 0 0 288 230.4;" xml:space="preserve">
<style type="text/css">
	.st0{fill:#FFF200;}
</style>
<path class="st0" d="M259.3,23.1H144.1c0.8,0-28.5-23.1-28.8-23.1H28.8C12.9,0,0.1,12.9,0.1,28.8L0,201.6
	c0,15.9,12.9,28.8,28.7,28.8h230.4c15.9,0,28.8-12.9,28.8-28.7V51.9C288,36,275.2,23.1,259.3,23.1z M266.4,63.2v127.1v0.2
	c0,13.4-11,24.4-24.5,24.4H144H46c-12.8,0-23.3-10-24.3-22.6c0-0.6-0.1-1.3-0.1-1.9l0-63.6l0-63.6c0-0.6,0-1.3,0.1-1.9
	c1-12.6,11.5-22.6,24.3-22.6h98h97.9c13.5,0,24.5,11,24.5,24.4V63.2z"/>
<path class="st0" d="M186.2,161.3c44.2,0,80.1-16.3,80.1-36.4V92c0,20.1-35.8,36.4-80.1,36.4c-44.3,0-80.2-16.3-80.2-36.4v33.1
	C106,145.1,142,161.3,186.2,161.3z"/>
<path class="st0" d="M186.2,214.9c44.2,0,80.1-16.3,80.1-36.4v-33c0,20-35.8,36.2-80.1,36.4c-44.3,0-80.2-16.3-80.2-36.4v33
	C106,198.6,142,214.9,186.2,214.9z"/>
<ellipse class="st0" cx="186.2" cy="73.2" rx="80.1" ry="34.6"/>
</svg>
