<?xml version="1.0" encoding="utf-8"?>
<!-- Generator: Adobe Illustrator 28.0.0, SVG Export Plug-In . SVG Version: 6.00 Build 0)  -->
<svg version="1.1" id="Layer_1" xmlns="http://www.w3.org/2000/svg" xmlns:xlink="http://www.w3.org/1999/xlink" x="0px" y="0px"
	 viewBox="0 0 288 230.1" style="enable-background:new 0 0 288 230.1;" xml:space="preserve">
<style type="text/css">
	.st0{fill:#DB5555;}
	.st1{fill:#FFFFFF;}
</style>
<path class="st0" d="M259.3,23h-115c0.8,0-28.4-23-28.8-23H29.3c0,0.1,0,0.2,0,0.3h-0.7C12.9,0.3,0.1,13.1,0.1,29v0.1L0,201.4
	c0,15.9,12.8,28.7,28.6,28.7c0,0,0,0,0.1,0h229.9c2,0,4-0.2,5.8-0.6c13.5-2.4,23.6-14.1,23.6-28.2V51.8C288,35.9,275.2,23,259.3,23z
	"/>
<path class="st1" d="M168.8,209.6l2,2c4.4,4.4,11.6,4.4,16,0l2-2l72.2-72.2l2.5-2.5c-0.1,0-0.1,0-0.1,0s0,0,0.1,0
	c4.3-4.4,4.3-11.6-0.1-16l-2.5-2.5l-73.7-73.7l-0.7-0.7c-4.4-4.4-11.6-4.4-16,0l-0.7,0.7L154.3,58l20.2,20.3c2.8-1,5.8-1,8.6,0
	c7,2.3,10.8,10,8.5,17l19.5,19.5c3.1-1.1,6.4-1,9.5,0.2c6.9,2.7,10.2,10.6,7.4,17.5c-2.7,6.9-10.6,10.2-17.5,7.4
	c-6.9-2.7-10.2-10.6-7.4-17.5l-18.2-18.1v47.8c3,1.5,5.3,3.9,6.5,7c2.8,6.9-0.4,14.8-7.3,17.6c-6.9,2.8-14.8-0.4-17.6-7.3
	c-2.8-6.9,0.4-14.8,7.3-17.6v-48.4c-6.9-2.8-10.2-10.7-7.4-17.6l-20-20l-52.6,52.7c-4.4,4.4-4.4,11.6,0,16L168.8,209.6z"/>
</svg>
