<?xml version="1.0" encoding="utf-8"?>
<!-- Generator: Adobe Illustrator 28.0.0, SVG Export Plug-In . SVG Version: 6.00 Build 0)  -->
<svg version="1.1" id="Layer_1" xmlns="http://www.w3.org/2000/svg" xmlns:xlink="http://www.w3.org/1999/xlink" x="0px" y="0px"
	 viewBox="0 0 288 230" style="enable-background:new 0 0 288 230;" xml:space="preserve">
<style type="text/css">
	.st0{fill:#FF4785;}
</style>
<g id="icomoon-ignore">
</g>
<path class="st0" d="M141,192.2l23.6,22.7l28.6-28.4c10.4-10.4,25.4-24.1,38.9-38.2c12.4-12.8,23.5-25.8,28.9-36.6
	c19.3-38.3-15.8-77.1-53.8-72.8c-20.3,2.4-29.5,14.2-42.6,27.9c-15.8-15.4-26-27.4-50.2-27.8c-27.2-0.4-50.7,18.8-49.6,48.7
	C66.2,130.4,112.5,164.9,141,192.2z"/>
<path class="st0" d="M259.3,23.1H144.1c0.8,0-28.5-23.1-28.8-23.1H28.8C12.9,0,0.1,12.9,0.1,28.8L0,201.6
	c0,15.9,12.9,28.8,28.7,28.8h230.4c15.9,0,28.8-12.9,28.8-28.7V51.9C288,36,275.2,23.1,259.3,23.1z M266.4,63.2v127.1v0.2
	c0,13.4-11,24.4-24.5,24.4H144H46c-12.8,0-23.3-10-24.3-22.6c0-0.6-0.1-1.3-0.1-1.9l0-63.6l0-63.6c0-0.6,0-1.3,0.1-1.9
	c1-12.6,11.5-22.6,24.3-22.6h98h97.9c13.5,0,24.5,11,24.5,24.4V63.2z"/>
</svg>
