<?xml version="1.0" encoding="utf-8"?>
<!-- Generator: Adobe Illustrator 28.0.0, SVG Export Plug-In . SVG Version: 6.00 Build 0)  -->
<svg version="1.1" id="Layer_1" xmlns="http://www.w3.org/2000/svg" xmlns:xlink="http://www.w3.org/1999/xlink" x="0px" y="0px"
	 viewBox="0 0 260.7 208.6" style="enable-background:new 0 0 260.7 208.6;" xml:space="preserve">
<style type="text/css">
	.st0{fill:#F445CF;}
	.st1{fill:#FFFFFF;}
</style>
<path class="st0" d="M234.7,20.9H130.4c0.7,0-25.8-20.9-26.1-20.9H26.1C11.7,0,0.1,11.7,0.1,26.1c0,0,0,0,0,0l0,0L0,182.5
	c0,14.4,11.7,26.1,26,26.1h208.6c14.4,0,26.1-11.7,26.1-26v0V47C260.7,32.6,249.1,20.9,234.7,20.9C234.7,20.9,234.7,20.9,234.7,20.9
	z"/>
<path class="st1" d="M219.4,121.6c6.1-6,33.1-36-0.9-66.5c0,0-28.1-22.5-58.8,7.2c-34.7-34-62-0.3-62-0.3
	c-24.6,32.7,3.7,58.7,10.2,64l-2.9,3.6c-3.2,3.9-2,10.2,2.7,14c2.3,1.9,5,2.8,7.5,2.8c0.1,3,1.6,6.1,4.4,8.4
	c2.2,1.8,4.9,2.7,7.4,2.8c-0.1,3.2,1.5,6.6,4.4,9c2.2,1.8,4.7,2.6,7.1,2.8c0,3.1,1.6,6.4,4.5,8.8c4.7,3.8,11.1,3.7,14.3-0.2l3.2-3.9
	l3.6,4.2c4.3,5.1,12.3,5.4,17.9,0.7c3.2-2.7,4.9-6.5,4.9-10.2c2.4-0.4,4.8-1.4,6.9-3.2c2.7-2.3,4.3-5.4,4.8-8.5
	c2.5-0.3,5-1.4,7.1-3.2c3.1-2.7,4.8-6.3,4.9-10c2.8-0.2,5.7-1.2,8-3.2c5.5-4.7,6.5-12.6,2.2-17.7L219.4,121.6z M105.1,68
	c13.1-15.4,28.3-12.1,38.4-7.2l0,0c0,0,0,0,0,0c1.4,0.7,8.2,5.3,9.8,7.7c0.1,0.1,0.1,0.2,0.2,0.3l-23.1,24.3c0,0-11,7,0,13.7
	c0,0,0.3,0.2,0.8,0.6c-3.8-1.2-7.8-0.4-10.1,2.5l-7.2,8.8C83.7,94.4,105.1,68,105.1,68z M113.2,137.8c-2.2-1.6-2.6-4.7-1-6.9
	l10.8-14.4c1.6-2.2,4.7-2.6,6.9-1c2.2,1.6,2.6,4.7,1,6.9l-10.8,14.4C118.4,139,115.4,139.4,113.2,137.8z M125.1,149
	c-2.2-1.6-2.6-4.7-1-6.9l10.8-14.4c1.6-2.2,4.7-2.6,6.9-1c2.2,1.6,2.6,4.7,1,6.9L132,148C130.4,150.2,127.3,150.6,125.1,149z
	 M143.8,159.9c-1.6,2.2-4.7,2.6-6.9,1c-2.2-1.6-2.6-4.7-1-6.9l10.8-14.4c1.6-2.2,4.7-2.6,6.9-1c2.2,1.6,2.6,4.7,1,6.9L143.8,159.9
	L143.8,159.9z M155.4,171.4c-1.6,2.2-4.7,2.6-6.9,1c-2.2-1.6-2.6-4.7-1-6.9l10.7-14.4l0,0c1.6-2.2,4.7-2.6,6.9-1
	c2.2,1.6,2.6,4.7,1,6.9L155.4,171.4z M175.5,172.8c-2.2,2-5.8,1.4-8.1-1.2l-2.6-2.9l6.8-8.3l3.7,4.2
	C177.5,167.2,177.6,170.9,175.5,172.8z M213.6,131.4c-0.4,3-3.2,3.8-3.2,3.8c-2.9,0.8-4.5-1.1-4.5-1.1l-18.6-21.9l0,0
	c-0.9-0.9-2.1-1.5-3.4-1.5c-1,0-2,0.3-2.7,0.9c-0.4,0.2-0.8,0.6-1,1c-0.6,0.8-1,1.8-1,2.9c0,1.4,0.6,2.6,1.5,3.4c0,0,0,0,0,0
	l18.4,20.6c1.3,1.5,1.9,3.4,1.8,5.1c0,0,0,0,0,0.1c-0.3,2.1-2.5,2.9-2.5,2.9c-1.9,0.5-3.1-0.5-3.5-0.9l-18.6-21.9l0,0
	c-0.9-1-2.2-1.7-3.7-1.7c-2.7,0-4.8,2.2-4.8,4.8c0,1.4,0.6,2.6,1.5,3.5l18.4,21.7c0,0.1,0.1,0.1,0.2,0.2c1.1,1.1,1.1,2.4,1.1,2.4
	c0,3.5-2.7,4.1-2.7,4.1c-2.5,0.7-4-0.9-4-0.9l-7.2-8.5c-0.6-2.3-2-4.5-4.1-6.2c-2.2-1.8-4.7-2.6-7.1-2.7c0-3.1-1.6-6.4-4.5-8.8
	c-2.2-1.8-4.9-2.7-7.4-2.8c0.1-3.2-1.5-6.6-4.5-9c-2.3-1.9-5-2.8-7.5-2.8c-0.1-2.9-1.5-5.9-4.1-8.1c8.4,3.9,31.7,1.4,42.4-10
	c0,0,4.4-4.8,9.1-1.2l24.6,27.6C213.2,127.8,213.7,129.7,213.6,131.4z M213.7,114.9L195,92.9c-6.4-7.9-9.5-7.3-14.6-5
	c0,0-3.7,2.4-3.9,2.6c-8.7,5.6-29.7,19.4-40.3,8.3c0,0,22.3-23.3,35.3-35.4c0,0,0.1,0,0.1,0s0-0.1,0.1-0.1c1.3-1.2,7.3-5.4,10-6.3
	c9.3-2.7,29.8-5.4,41.5,17.1C223.3,74,234.3,94,213.7,114.9z"/>
</svg>
