<?xml version="1.0" encoding="utf-8"?>
<!-- Generator: Adobe Illustrator 28.0.0, SVG Export Plug-In . SVG Version: 6.00 Build 0)  -->
<svg version="1.1" id="Layer_1" xmlns="http://www.w3.org/2000/svg" xmlns:xlink="http://www.w3.org/1999/xlink" x="0px" y="0px"
	 viewBox="0 0 1024 1024" style="enable-background:new 0 0 1024 1024;" xml:space="preserve">
<style type="text/css">
	.st0{fill:#F445CF;}
</style>
<g id="icomoon-ignore">
</g>
<g>
	<path class="st0" d="M557,600c-8.6-6.3-20.8-4.7-27.1,3.9l-42.4,56.6c-6.3,8.6-4.7,20.8,3.9,27.1s20.8,4.7,27.1-3.9l42.4-56.6
		C567.2,618.4,565.6,606.3,557,600z"/>
	<path class="st0" d="M603.3,646.7c-8.6-6.3-20.8-4.7-27.1,3.9l-42.4,56.6c-6.3,8.6-4.7,20.8,3.9,27.1s20.8,4.7,27.1-3.9l42.4-56.6
		C613.5,665.2,612,653,603.3,646.7z"/>
	<path class="st0" d="M475.7,534c9-11.4,24.7-14.5,39.7-9.8c-2-1.6-3.1-2.4-3.1-2.4c-43.2-26.3,0-53.8,0-53.8l90.7-95.4
		c-0.4-0.4-0.4-0.8-0.8-1.2c-6.3-9.4-33-27.5-38.5-30.2c-39.7-19.2-99.4-32.2-150.8,28.3l0,0c0,0-84.1,103.7,34.6,199.1L475.7,534z"
		/>
	<path class="st0" d="M648.5,691.9c-8.6-6.3-20.8-4.7-27.1,3.9l-42,56.6c-6.3,8.6-4.7,20.8,3.9,27.1s20.8,4.7,27.1-3.9l42-56.6
		C658.7,710.4,657.1,698.2,648.5,691.9z"/>
	<path class="st0" d="M510.2,556c-8.6-6.3-20.8-4.7-27.1,3.9l-42.4,56.6c-6.3,8.6-4.7,20.8,3.9,27.1c8.6,6.3,20.4,4.7,27.1-3.9
		l42.4-56.6C520.4,574.5,518.9,562.3,510.2,556z"/>
	<path class="st0" d="M921.9,184.4L921.9,184.4l-409.7,0c2.7,0-101.3-82.1-102.5-82.1H102.5c-56.6,0-102.1,46-102.1,102.5L0,819.2
		c0,56.6,46,102.5,102.1,102.5h819.4c56.6,0,102.5-46,102.5-102.1V286.9C1024,230.4,978.4,184.4,921.9,184.4z M861.8,579.9l5.5,5.5
		c16.9,20,13,51.1-8.6,69.5c-9,7.9-20.4,11.8-31.4,12.6c-0.4,14.5-7.1,28.7-19.2,39.3c-8.2,7.1-18.1,11.4-27.9,12.6
		c-2,12.2-8.2,24.4-18.9,33.4c-8.2,7.1-17.7,11-27.1,12.6c0,14.5-6.7,29.5-19.2,40.1c-22,18.5-53.4,17.3-70.3-2.7l-14.1-16.5
		l-12.6,15.3c-12.6,15.3-37.7,15.7-56.2,0.8c-11.4-9.4-17.7-22.4-17.7-34.6c-9.4-0.8-19.2-3.9-27.9-11
		c-11.4-9.4-17.7-22.8-17.3-35.4c-9.8-0.4-20.4-3.9-29.1-11c-11-9-16.9-21.2-17.3-33c-9.8,0-20.4-3.5-29.5-11
		c-18.5-14.9-23.2-39.7-10.6-55l11.4-14.1c-25.5-20.8-136.7-122.9-40.1-251.4c0,0,107.2-132.4,243.5,1.2
		c120.6-116.7,231-28.3,231-28.3C991.8,438.5,885.7,556.4,861.8,579.9z"/>
	<path class="st0" d="M713.7,326.2c-10.6,3.5-34.2,20-39.3,24.7c-0.4,0-0.4,0.4-0.4,0.4h-0.4c-51.1,47.5-138.7,139-138.7,139
		c41.6,43.6,124.1-10.6,158.3-32.6c0.8-0.8,15.3-10.2,15.3-10.2c20-9,32.2-11.4,57.3,19.6l73.5,86.4l0,0
		c80.9-82.1,37.7-160.7,37.3-160.3C830.7,305,750.2,315.6,713.7,326.2z"/>
	<path class="st0" d="M674,732.4L647.3,765l10.2,11.4c9,10.2,23.2,12.6,31.8,4.7h0c8.2-7.5,7.9-22-0.8-32.2L674,732.4z"/>
	<path class="st0" d="M736.1,490.4c-18.5-14.1-35.7,4.7-35.7,4.7c-42,44.8-133.5,54.6-166.5,39.3c10.2,8.6,15.7,20.4,16.1,31.8
		c9.8,0,20.4,3.5,29.5,11c11.8,9.4,18.1,22.8,17.7,35.4c9.8,0.4,20.4,3.9,29.1,11c11.4,9.4,17.7,22.4,17.7,34.6
		c9.4,0.4,19.2,3.5,27.9,10.6c8.2,6.7,13.7,15.3,16.1,24.4l28.3,33.4c0,0,5.9,6.3,15.7,3.5c0,0,10.6-2.4,10.6-16.1
		c0,0,0-5.1-4.3-9.4c-0.4-0.4-0.8-0.4-0.8-0.8L665,618.4c-3.5-3.5-5.9-8.2-5.9-13.7c0-10.2,8.2-18.9,18.9-18.9
		c5.9,0,11,2.7,14.5,6.7l73.1,86c1.6,1.6,6.3,5.5,13.7,3.5c0,0,8.6-3.1,9.8-11.4c0-0.4,0-0.4,0-0.4c0.4-6.7-2-14.1-7.1-20
		l-72.3-80.9c-3.5-3.1-5.9-7.9-5.9-13.4c0-4.3,1.6-8.2,3.9-11.4c0.8-1.6,2.4-3.1,3.9-3.9c2.7-2.4,6.7-3.5,10.6-3.5
		c5.1,0,9.8,2.4,13.4,5.9l73.1,86c0,0,6.3,7.5,17.7,4.3c0,0,11-3.1,12.6-14.9l0,0c0.4-6.7-1.6-14.1-6.3-19.6L736.1,490.4z"/>
</g>
</svg>
