<?xml version="1.0" encoding="utf-8"?>
<!-- Generator: Adobe Illustrator 28.0.0, SVG Export Plug-In . SVG Version: 6.00 Build 0)  -->
<svg version="1.1" id="Layer_1" xmlns="http://www.w3.org/2000/svg" xmlns:xlink="http://www.w3.org/1999/xlink" x="0px" y="0px"
	 viewBox="0 0 288 230" style="enable-background:new 0 0 288 230;" xml:space="preserve">
<style type="text/css">
	.st0{fill:#7985C1;}
</style>
<path class="st0" d="M154.7,153.7l-22.4-22.2l0.3-0.3c15-16.6,26.1-36.3,32.8-57.6h25.9V55.9h-61.8V38.3h-17.7v17.7H49.9v17.7h98.6
	c-6.1,17.4-15.6,33.5-28,47.2c-8.1-8.9-14.9-18.8-20.4-29.5H82.5c6.6,14.7,15.5,28.3,26.3,40.2l-44.9,44.3l12.6,12.6l44.1-44.1
	l27.5,27.5L154.7,153.7 M204.5,108.9h-17.7l-39.8,106h17.7l9.9-26.5h41.9l10,26.5h17.7l-39.8-106 M181.2,170.7l14.3-38.2l14.3,38.2
	H181.2z"/>
<path class="st0" d="M259.3,23.1H144.1c0.8,0-28.5-23.1-28.8-23.1H28.8C12.9,0,0.1,12.9,0.1,28.8L0,201.6
	c0,15.9,12.9,28.8,28.7,28.8h230.4c15.9,0,28.8-12.9,28.8-28.7V51.9C288,36,275.2,23.1,259.3,23.1z M266.4,63.2v127.1v0.2
	c0,13.4-11,24.4-24.5,24.4H144H46c-12.8,0-23.3-10-24.3-22.6c0-0.6-0.1-1.3-0.1-1.9l0-63.6l0-63.6c0-0.6,0-1.3,0.1-1.9
	c1-12.6,11.5-22.6,24.3-22.6h98h97.9c13.5,0,24.5,11,24.5,24.4V63.2z"/>
</svg>
