<?xml version="1.0" encoding="utf-8"?>
<!-- Generator: Adobe Illustrator 28.0.0, SVG Export Plug-In . SVG Version: 6.00 Build 0)  -->
<svg version="1.1" id="Layer_1" xmlns="http://www.w3.org/2000/svg" xmlns:xlink="http://www.w3.org/1999/xlink" x="0px" y="0px"
	 viewBox="0 0 288 230" style="enable-background:new 0 0 288 230;" xml:space="preserve">
<style type="text/css">
	.st0{fill:none;}
	.st1{fill:#2E76FF;}
</style>
<path class="st0" d="M108,109.1c9.7,0,17.6-7.9,17.6-17.7c0-9.7-7.9-17.6-17.6-17.6c-9.7,0-17.6,7.8-17.6,17.6
	C90.3,101.2,98.3,109.1,108,109.1z"/>
<path class="st1" d="M266.4,190.5v-0.2v-10.8h-0.1c0,19.4-15.8,35.1-35.3,35.3h-21.6v0.1h32.5C255.4,214.9,266.4,203.9,266.4,190.5z
	"/>
<path class="st1" d="M241.9,38.6h-10.7h-21.8H144H90.3c-19.5,0-35.3,15.8-35.3,35.3v105.6c0.1,19.5,15.9,35.3,35.3,35.3h119.1h21.6
	c19.5-0.1,35.3-15.9,35.3-35.3h0.1V73.2v-9.9V63C266.4,49.6,255.4,38.6,241.9,38.6z M108,73.9c9.6,0,17.6,7.8,17.6,17.6
	c0,9.7-7.8,17.7-17.6,17.7c-9.7,0-17.7-7.9-17.6-17.7C90.4,81.7,98.3,73.9,108,73.9z M248.8,179.5c0,9.6-7.8,17.6-17.6,17.6h-21.8
	H93.9c-7.9,0-11.4-9.7-6.2-15l31.7-31.7c3.2-3.3,8.6-3.5,12-0.3c0,0,0.1,0.1,0.3,0.3l5.3,5.3c3.2,3.3,8.6,3.5,12,0.3
	c0.1-0.1,0.1-0.1,0.3-0.3l58.1-58.1c0.6-0.7,1.3-1.2,2.1-1.6c3.1-1.7,7.2-1.2,10,1.4c0.1,0.1,0.1,0.1,0.3,0.3l26.4,26.5
	c1.8,1.5,2.8,3.8,2.7,6.2V179.5z"/>
<path class="st1" d="M266.4,179.5V73.9c0-0.2,0-0.5,0-0.7L266.4,179.5L266.4,179.5z"/>
<path class="st1" d="M259.3,23.1H144.1c0.8,0-28.5-23.1-28.8-23.1H28.8C12.9,0,0.1,12.9,0.1,28.8L0,201.6
	c0,15.9,12.9,28.8,28.7,28.8h230.4c15.9,0,28.8-12.9,28.8-28.7V51.9C288,36,275.2,23.1,259.3,23.1z M266.4,63.2v127.1v0.2
	c0,13.4-11,24.4-24.5,24.4H144H46c-12.8,0-23.3-10-24.3-22.6c0-0.6-0.1-1.3-0.1-1.9l0-63.6l0-63.6c0-0.6,0-1.3,0.1-1.9
	c1-12.6,11.5-22.6,24.3-22.6h98h97.9c13.5,0,24.5,11,24.5,24.4V63.2z"/>
</svg>
