<?xml version="1.0" encoding="utf-8"?>
<!-- Generator: Adobe Illustrator 28.0.0, SVG Export Plug-In . SVG Version: 6.00 Build 0)  -->
<svg version="1.1" id="Layer_1" xmlns="http://www.w3.org/2000/svg" xmlns:xlink="http://www.w3.org/1999/xlink" x="0px" y="0px"
	 viewBox="0 0 288 230.4" style="enable-background:new 0 0 288 230.4;" xml:space="preserve">
<style type="text/css">
	.st0{fill:#99425B;}
	.st1{fill:#FFFFFF;}
</style>
<path class="st0" d="M259.3,23.1H144.1c0.8,0-28.5-23.1-28.8-23.1H28.8C12.9,0,0.1,12.9,0.1,28.8L0,201.6
	c0,15.9,12.9,28.8,28.7,28.8h230.4c15.9,0,28.8-12.9,28.8-28.8V51.9C288,36,275.2,23.1,259.3,23.1z"/>
<path class="st1" d="M110.1,208.6c28.5,19.7,59.2-12.2,91.7-20.2c11.8-2.8,24.7-2.5,35-8.4c7.6-4.4,12.8-11.9,14.4-20.4
	c1.4-8.1-0.5-16.6-5.4-23.3c2.6-3.1,4-7,4-11c0-9.6-7.8-17.2-17.2-17.2c-0.6,0-1.2,0-1.8,0.1l23.5-69.6H153.9l23.7,69.6h-1
	c-7.4,0-14,4.8-16.3,11.9c-2.8,9.1,2.1,18.8,11.1,21.6c-3.6,6.3-8.3,12-13.6,17.1c-6.9,6.6-15,11.8-24.1,15
	c-10.5-5.4-15.4-17.5-11-27.9c0.5-1.2,1-2.5,1.6-3.6c4-0.9,7.6-3.4,10.1-6.9c5.6-7.8,3.6-18.4-4.1-23.9c-7.8-5.6-18.5-3.6-23.9,4.1
	c-5.6,7.8-3.6,18.5,4.1,23.9c-4.3,9.7-10.6,19.8-12.5,31.6C95.6,185.2,97.9,200,110.1,208.6z M204.2,72.5l18.9,38.4
	c-4.4,3-7.2,7.8-7.6,13.1c-7.2-0.4-14.5-0.4-21.7,0c-0.4-5.6-3.5-10.6-8.3-13.5L204.2,72.5z"/>
</svg>
