<?xml version="1.0" encoding="utf-8"?>
<!-- Generator: Adobe Illustrator 28.0.0, SVG Export Plug-In . SVG Version: 6.00 Build 0)  -->
<svg version="1.1" id="Layer_1" xmlns="http://www.w3.org/2000/svg" xmlns:xlink="http://www.w3.org/1999/xlink" x="0px" y="0px"
	 viewBox="0 0 288 230.4" style="enable-background:new 0 0 288 230.4;" xml:space="preserve">
<style type="text/css">
	.st0{fill:#306EB5;}
	.st1{fill:#FFFFFF;}
</style>
<path class="st0" d="M259.2,23.1H144c0.8,0-28.5-23.1-28.8-23.1H28.8C12.9,0,0.1,12.9,0.1,28.8c0,0,0,0,0,0l0,0L0,201.6
	c0,15.9,12.9,28.8,28.8,28.8h230.4c15.9,0,28.8-12.9,28.8-28.8v0V51.9C288,36,275.1,23.1,259.2,23.1
	C259.2,23.1,259.2,23.1,259.2,23.1z"/>
<g>
	<path class="st1" d="M178.5,214.9c-6.8,0-13.6-0.8-20.2-2.3c-47.4-11.1-76.8-58.5-65.8-105.9S150.9,29.9,198.3,41
		s76.8,58.5,65.8,105.9c-3,12.9-8.9,25-17.2,35.3c-3.1,3.8-8.6,4.4-12.4,1.3c-3.8-3.1-4.4-8.6-1.3-12.4c24.4-30.3,19.6-74.6-10.7-99
		s-74.6-19.6-99,10.7s-19.6,74.6,10.7,99c20.6,16.6,48.8,20.3,72.9,9.4l-46.4-63.7v25.8c-0.2,4.9-4.3,8.7-9.1,8.5
		c-4.6-0.2-8.3-3.9-8.5-8.5v-52.9c0-4.9,4-8.8,8.8-8.8c2.8,0,5.5,1.3,7.1,3.6l68.2,93.9c2.9,3.9,2,9.4-1.9,12.3
		c-0.2,0.1-0.4,0.3-0.6,0.4C210.9,210.3,194.8,214.9,178.5,214.9z"/>
	<path class="st1" d="M204.8,135.5c-4.9,0-8.8-3.9-8.8-8.8c0,0,0,0,0,0v-26.4c0-4.9,3.9-8.8,8.8-8.8c4.9,0,8.8,3.9,8.8,8.8
		c0,0,0,0,0,0v26.4C213.6,131.6,209.6,135.5,204.8,135.5C204.8,135.5,204.8,135.5,204.8,135.5z"/>
</g>
</svg>
