<?xml version="1.0" encoding="utf-8"?>
<!-- Generator: Adobe Illustrator 28.0.0, SVG Export Plug-In . SVG Version: 6.00 Build 0)  -->
<svg version="1.1" id="Layer_1" xmlns="http://www.w3.org/2000/svg" xmlns:xlink="http://www.w3.org/1999/xlink" x="0px" y="0px"
	 viewBox="0 0 288 230.1" style="enable-background:new 0 0 288 230.1;" xml:space="preserve">
<style type="text/css">
	.st0{fill:#A4C639;}
</style>
<path class="st0" d="M259.3,23.1H144.1c0.8,0-28.5-23.1-28.8-23.1H28.8C12.9,0,0.1,12.9,0.1,28.8L0,201.6
	c0,15.9,12.9,28.8,28.7,28.8h230.4c15.9,0,28.8-12.9,28.8-28.7V51.9C288,36,275.2,23.1,259.3,23.1z M266.4,63.2v127.1v0.2
	c0,13.4-11,24.4-24.5,24.4H144H46c-12.8,0-23.3-10-24.3-22.6c0-0.6-0.1-1.3-0.1-1.9l0-63.6l0-63.6c0-0.6,0-1.3,0.1-1.9
	c1-12.6,11.5-22.6,24.3-22.6h98h97.9c13.5,0,24.5,11,24.5,24.4V63.2z"/>
<g>
	<path class="st0" d="M188.3,214.9c-2.4,0-4.7-0.6-6.8-1.8L160,200.5c-3.2-1.8-1.6-2.5-0.6-2.8c3.4-1.1,6.7-2.5,9.8-4.4
		c0.5-0.3,1.1-0.3,1.6,0l16.6,9.8c0.6,0.3,1.4,0.3,2,0l64.5-37.3c0.6-0.4,1-1,1-1.8V89.4c0-0.7-0.4-1.4-1-1.8l-64.7-37.3
		c-0.6-0.4-1.4-0.4-2,0l-64.5,37.3c-0.6,0.4-1,1-1,1.8V164c0,0.7,0.4,1.3,1,1.7l17.7,10.2c9.6,4.8,15.5-0.9,15.5-6.3V95.8
		c0-1,0.8-1.9,1.9-1.9l0,0h8.2c1,0,1.9,0.8,1.9,1.9l0,0v73.7c0,12.6-7,20.1-18.9,20.1c-5.2,0.1-10.4-1.3-14.9-4l-17-9.8
		c-4.3-2.4-6.9-6.9-7-11.8V89.4c0-4.9,2.6-9.3,6.8-11.8l64.6-37.3c4.2-2.3,9.4-2.3,13.6,0l64.5,37.3c4.2,2.4,6.8,6.9,6.8,11.8V164
		c0,4.9-2.6,9.3-6.8,11.8L195,213.1C193,214.3,190.7,214.9,188.3,214.9z"/>
	<path class="st0" d="M176,139.3c0-1,0.8-1.9,1.9-1.9l0,0h8.4c0.9,0,1.7,0.7,1.9,1.6c1.3,8.5,5,12.6,22.1,12.6
		c13.6,0,19.4-3.1,19.4-10.3c0-4.2-1.6-7.2-22.8-9.3c-17.7-1.8-28.6-5.7-28.6-19.8c0-13,11-20.8,29.4-20.8
		c20.7,0,30.9,7.2,32.2,22.6c0.1,1-0.7,1.9-1.8,2c0,0,0,0,0,0h-8.4c-0.9,0-1.6-0.6-1.8-1.4c-2-8.9-6.9-11.8-20.1-11.8
		c-14.9,0-16.6,5.2-16.6,9.1s2,6.3,22.1,8.8c20.1,2.5,29,6.2,29,20.1c0,14-11.7,22.2-32.2,22.2C181.9,162.9,176,149.9,176,139.3z"/>
</g>
</svg>
