<?xml version="1.0" encoding="utf-8"?>
<!-- Generator: Adobe Illustrator 28.0.0, SVG Export Plug-In . SVG Version: 6.00 Build 0)  -->
<svg version="1.1" id="Layer_1" xmlns="http://www.w3.org/2000/svg" xmlns:xlink="http://www.w3.org/1999/xlink" x="0px" y="0px"
	 viewBox="0 0 288 230.4" style="enable-background:new 0 0 288 230.4;" xml:space="preserve">
<style type="text/css">
	.st0{fill:#2E76FF;}
	.st1{fill:#FFFFFF;}
</style>
<path class="st0" d="M259.3,23.1H144.1c0.8,0-28.5-23.1-28.8-23.1H28.8C12.9,0,0.1,12.9,0.1,28.8L0,201.6
	c0,15.9,12.9,28.8,28.7,28.8h230.4c15.9,0,28.8-12.9,28.8-28.7V51.9C288,36,275.2,23.1,259.3,23.1z"/>
<g>
	<path class="st1" d="M84.3,184.9c14,0,23.5-10.3,23.5-23.7s-9.5-23.9-23.5-23.9s-23.5,10.5-23.5,23.9
		C60.8,174.6,70.3,184.9,84.3,184.9z"/>
	<polygon class="st1" points="251.7,38.6 226.8,38.6 160.1,214.9 185,214.9 	"/>
</g>
</svg>
