<?xml version="1.0" encoding="utf-8"?>
<!-- Generator: Adobe Illustrator 28.0.0, SVG Export Plug-In . SVG Version: 6.00 Build 0)  -->
<svg version="1.1" id="Layer_1" xmlns="http://www.w3.org/2000/svg" xmlns:xlink="http://www.w3.org/1999/xlink" x="0px" y="0px"
	 viewBox="0 0 288 230.4" style="enable-background:new 0 0 288 230.4;" xml:space="preserve">
<style type="text/css">
	.st0{fill:#4D5356;}
	.st1{fill:#FFFFFF;}
</style>
<path class="st0" d="M259.2,23.1H144c0.8,0-28.5-23.1-28.8-23.1H28.8C12.9,0,0.1,12.9,0.1,28.8c0,0,0,0,0,0l0,0L0,201.6
	c0,15.9,12.9,28.8,28.8,28.8h230.4c15.9,0,28.8-12.9,28.8-28.8v0V51.9C288,36,275.1,23.1,259.2,23.1
	C259.2,23.1,259.2,23.1,259.2,23.1z"/>
<g>
	<path class="st1" d="M137.6,171.6c2.9,3.5,8.2,4,11.7,1.1c0.4-0.3,0.8-0.7,1.1-1.1l48.1-50.5c4-4,0-10.4-6.4-10.4h-32
		c0,0,1.6-36.9,0-56.1c-0.8-8.8-7.2-16-16-16c-8.8,0-15.2,7.2-16,16c-1.6,18.4,0,56.1,0,56.1h-32c-6.4,0-10.4,6.4-6.4,11.2
		L137.6,171.6z"/>
	<path class="st1" d="M200.1,190.9H87.9c-8.8,0-16,7.2-16,16l0,0c-0.3,4.2,2.9,7.8,7.1,8c0.3,0,0.6,0,0.9,0h128.2
		c4.2,0.2,7.8-2.9,8-7.1c0-0.3,0-0.6,0-0.9l0,0C216.1,198,208.9,190.9,200.1,190.9z"/>
</g>
</svg>
