<?xml version="1.0" encoding="utf-8"?>
<!-- Generator: Adobe Illustrator 28.0.0, SVG Export Plug-In . SVG Version: 6.00 Build 0)  -->
<svg version="1.1" id="Layer_1" xmlns="http://www.w3.org/2000/svg" xmlns:xlink="http://www.w3.org/1999/xlink" x="0px" y="0px"
	 viewBox="0 0 288 230.4" style="enable-background:new 0 0 288 230.4;" xml:space="preserve">
<style type="text/css">
	.st0{fill:#6BA0B6;}
	.st1{fill:#FFFFFF;}
</style>
<path class="st0" d="M259.2,23.1H144c0.8,0-28.5-23.1-28.8-23.1H28.8C12.9,0,0.1,12.9,0.1,28.8c0,0,0,0,0,0l0,0L0,201.6
	c0,15.9,12.9,28.8,28.8,28.8h230.4c15.9,0,28.8-12.9,28.8-28.8v0V51.9C288,36,275.1,23.1,259.2,23.1
	C259.2,23.1,259.2,23.1,259.2,23.1z"/>
<path class="st1" d="M120.7,71v34.7c0.1,3.9-1.9,7.5-5.3,9.6c-3.5,2.2-8.4,3.4-14.9,3.4V135c6.4,0,11.3,1.1,14.9,3.4
	c3.4,2,5.4,5.7,5.3,9.6v34.7c0,10.3,4,18.3,12,23.8c8,5.6,19.3,8.4,33.8,8.4v-16.4c-7,0-12.3-1.2-16.1-3.7
	c-3.6-2.2-5.8-6.1-5.7-10.4v-35.6c0-9.4-3.7-16.7-11-22c7.1-4.7,11.2-12.7,11-21.2V69c-0.1-4.2,2.1-8.2,5.7-10.4
	c3.8-2.4,9.2-3.6,16.1-3.6V38.7c-14.6,0-25.9,2.8-33.8,8.5S120.7,60.7,120.7,71z"/>
<path class="st1" d="M251.7,115.2c-3.4-2-5.4-5.7-5.3-9.6V71c0-10.3-4-18.3-12-23.8c-8-5.6-19.3-8.5-33.9-8.5V55
	c7,0,12.3,1.3,16.1,3.6c3.7,2.1,5.9,6.1,5.7,10.4v36.7c-0.3,8.5,3.9,16.5,11,21.2c-7.3,5.2-11,12.6-11,22v35.5
	c0.1,4.2-2.1,8.2-5.7,10.4c-3.8,2.5-9.2,3.8-16.1,3.7v16.4c14.6,0,25.8-2.8,33.9-8.4s12-13.6,12-23.8v-34.7
	c-0.1-3.9,1.9-7.6,5.3-9.6c3.5-2.2,8.4-3.4,14.9-3.4v-16.4C260.2,118.6,255.2,117.4,251.7,115.2z"/>
</svg>
