<?xml version="1.0" encoding="utf-8"?>
<!-- Generator: Adobe Illustrator 28.0.0, SVG Export Plug-In . SVG Version: 6.00 Build 0)  -->
<svg version="1.1" id="Layer_1" xmlns="http://www.w3.org/2000/svg" xmlns:xlink="http://www.w3.org/1999/xlink" x="0px" y="0px"
	 viewBox="0 0 288 230.4" style="enable-background:new 0 0 288 230.4;" xml:space="preserve">
<style type="text/css">
	.st0{fill:#80CCC5;}
	.st1{fill:#FFFFFF;}
</style>
<path class="st0" d="M259.3,23.1H144.1c0.8,0-28.5-23.1-28.8-23.1H28.8C12.9,0,0.1,12.9,0.1,28.8L0,201.6
	c0,15.9,12.9,28.8,28.7,28.8h230.4c15.9,0,28.8-12.9,28.8-28.7V51.9C288,36,275.2,23.1,259.3,23.1z"/>
<g>
	<path class="st1" d="M156.5,41.4c-50.6,11.4-83,58.9-72.3,106s60.3,76.1,110.9,64.7c8.5-1.9,13.8-9.8,12.1-17.7
		c-0.8-3.6-3-6.7-6.1-8.6c-3-2-5.2-5-5.9-8.6c-1.8-7.9,3.6-15.8,12.1-17.7l18-4c28.1-6.3,46.1-32.7,40.2-58.9
		C255.8,54.7,207.1,30,156.5,41.4z M119.8,139.4c-8.5,1.9-16.7-2.9-18.5-10.8c-1.8-7.9,3.6-15.8,12.1-17.7
		c8.5-1.9,16.7,2.9,18.5,10.8C133.7,129.6,128.2,137.5,119.8,139.4L119.8,139.4z M141.8,94.6c-8.4,1.9-16.7-2.9-18.5-10.8
		c-1.8-7.9,3.6-15.8,12.1-17.7c8.5-1.9,16.7,2.9,18.5,10.8S150.3,92.7,141.8,94.6L141.8,94.6z M192.7,83.1
		c-8.5,1.9-16.7-2.9-18.5-10.8s3.6-15.8,12.1-17.7c8.4-1.9,16.7,2.9,18.5,10.8C206.5,73.3,201.1,81.2,192.7,83.1z M231.8,114.2
		c-8.5,1.9-16.7-2.9-18.5-10.8s3.6-15.8,12.1-17.7c8.5-1.9,16.7,2.9,18.5,10.8C245.6,104.4,240.2,112.3,231.8,114.2L231.8,114.2z"/>
</g>
</svg>
