<?xml version="1.0" encoding="utf-8"?>
<!-- Generator: Adobe Illustrator 28.0.0, SVG Export Plug-In . SVG Version: 6.00 Build 0)  -->
<svg version="1.1" id="Layer_1" xmlns="http://www.w3.org/2000/svg" xmlns:xlink="http://www.w3.org/1999/xlink" x="0px" y="0px"
	 viewBox="0 0 288 230.4" style="enable-background:new 0 0 288 230.4;" xml:space="preserve">
<style type="text/css">
	.st0{fill:#F97E2F;}
	.st1{fill:#FFFFFF;}
</style>
<path class="st0" d="M259.3,23.1H144.1c0.8,0-28.5-23.1-28.8-23.1H28.8C12.9,0,0.1,12.9,0.1,28.8L0,201.6
	c0,15.9,12.9,28.8,28.7,28.8h230.4c15.9,0,28.8-12.9,28.8-28.7V51.9C288,36,275.2,23.1,259.3,23.1z"/>
<g>
	<g id="icon">
		<g>
			<polygon class="st1" points="81.3,196.8 21.7,126.5 81.3,56.2 102.6,74.2 58.2,126.5 102.6,178.8 			"/>
		</g>
		<g>
			<polygon class="st1" points="206.7,198.9 185.5,180.9 229.8,128.6 185.5,76.4 206.7,58.3 266.4,128.5 			"/>
		</g>
	</g>
	<polygon class="st1" points="135.5,198.6 108.7,198.6 150.1,54.5 177,54.5 	"/>
</g>
</svg>
