<?xml version="1.0" encoding="utf-8"?>
<!-- Generator: Adobe Illustrator 28.0.0, SVG Export Plug-In . SVG Version: 6.00 Build 0)  -->
<svg version="1.1" id="Layer_1" xmlns="http://www.w3.org/2000/svg" xmlns:xlink="http://www.w3.org/1999/xlink" x="0px" y="0px"
	 viewBox="0 0 288 230.3" style="enable-background:new 0 0 288 230.3;" xml:space="preserve">
<style type="text/css">
	.st0{fill:#2E76FF;}
</style>
<path class="st0" d="M259.3,23.1H144.1c0.8,0-28.5-23.1-28.8-23.1H28.8C12.9,0,0.1,12.9,0.1,28.8L0,201.6
	c0,15.9,12.9,28.8,28.7,28.8h230.4c15.9,0,28.8-12.9,28.8-28.7V51.9C288,36,275.2,23.1,259.3,23.1z M266.4,63.2v127.1v0.2
	c0,13.4-11,24.4-24.5,24.4H144H46c-12.8,0-23.3-10-24.3-22.6c0-0.6-0.1-1.3-0.1-1.9l0-63.6l0-63.6c0-0.6,0-1.3,0.1-1.9
	c1-12.6,11.5-22.6,24.3-22.6h98h97.9c13.5,0,24.5,11,24.5,24.4V63.2z"/>
<path class="st0" d="M90.4,100.1l28.8,26.2l-28.8,26.2c0,0-3,2.2,0,6.1l13.4,12.4c0,0,3.1,3.4,7.9-0.5l30.6-23.2l71.7,65l0.2,0.2
	c1.7,1.9,4.2,2.6,6.7,2.1l41.2-20.3c5.4-3.6,4.6-8,4.5-8.1V65.1c0-5.2-5.5-7.2-5.5-7.2l-35.7-17.2c-7.7-4.9-12.9,0.9-12.9,0.9
	l-70.3,64l-31.7-24c-3.6-3.1-7.1,0.5-7.1,0.5L91.3,92.9C86,97,90.4,100.1,90.4,100.1z M214.4,40.7c-0.6,0.2-1.2,0.6-1.7,0.9
	C213.1,41.2,213.7,41,214.4,40.7z M222.4,86.5v79.8l-52.4-39.7L222.4,86.5z"/>
</svg>
