<?xml version="1.0" encoding="utf-8"?>
<!-- Generator: Adobe Illustrator 28.0.0, SVG Export Plug-In . SVG Version: 6.00 Build 0)  -->
<svg version="1.1" id="Layer_1" xmlns="http://www.w3.org/2000/svg" xmlns:xlink="http://www.w3.org/1999/xlink" x="0px" y="0px"
	 viewBox="0 0 415.2 434.2" style="enable-background:new 0 0 415.2 434.2;" xml:space="preserve">
<style type="text/css">
	.st0{fill:#3354EA;}
	.st1{fill:#09239D;}
</style>
<g>
	<path class="st0" d="M196.4,98.3c-81.6,21.7-118,73.8-97.3,139.2c12.9,40.9,57.7,52.6,85,45.3c64.4-17.2,49.3-67.5,48.7-69.6
		l-13.1,3.2c0.1,0.3,8.1,32.1-42.1,45.5c-23.6,6.3-58-4.7-65.3-27.9c-16.3-51.6,18.5-95.5,90.9-114.8c95-25.3,170.7,3.4,192.7,73.2
		c23.1,73.2-21.4,175.5-149.5,221.1l7.2,20.7c137.4-48.9,182.2-160.4,155.3-245.2C382.7,106.4,299.3,70.9,196.4,98.3L196.4,98.3z"/>
	<g>
		<path class="st1" d="M294.4,224.3c-6.5-42.9-46.1-61-72.2-57.6c-61.6,8-54.3,60.6-54,62.9l12.5-1.3c0-0.3-3.2-33.4,44.8-39.7
			c22.6-2.9,52.8,13.1,56.5,37.3c8.2,54.1-29.7,93.2-98.8,102.2C92.3,340,26.5,300.3,15.4,227.1C3.8,150.4,58.3,54.1,182.3,26.7
			l-3.9-21.8C45.4,34.2-10.5,139.7,3,228.7C16.1,315.2,88.1,362.9,186.4,350C264.4,339.9,304.8,292.9,294.4,224.3L294.4,224.3z"/>
		<path class="st1" d="M184.7,4l20.5-4l4,20.6l-20.6,4L184.7,4z M215,1.1l19.6-0.8l0.8,19.6l-19.6,0.8L215,1.1z M245.7,1.6L265.1,4
			l-2.4,19.5l-19.5-2.4L245.7,1.6z"/>
	</g>
</g>
</svg>
