<?xml version="1.0" encoding="utf-8"?>
<!-- Generator: Adobe Illustrator 28.0.0, SVG Export Plug-In . SVG Version: 6.00 Build 0)  -->
<svg version="1.1" id="Layer_1" xmlns="http://www.w3.org/2000/svg" xmlns:xlink="http://www.w3.org/1999/xlink" x="0px" y="0px"
	 viewBox="0 0 374 355.3" style="enable-background:new 0 0 374 355.3;" xml:space="preserve">
<style type="text/css">
	.st0{fill:#F34437;}
</style>
<g>
	<g>
		<path class="st0" d="M71.4,24.3c0,11.1,0,21.7,0,32.3C58.2,59.7,53.3,65.3,52.3,79c-1.3,16.2-0.3,32.5-0.6,48.7
			c-0.1,6.8-0.6,13.5-1.9,20.2c-2.3,11.7-6.4,22.5-17.3,29.5c15.9,11.3,18.1,28.2,18.9,45.4c0.7,14.4,0.2,28.8,0.3,43.2
			c0,4.7,0.2,9.4,1,14c2.2,13,5.7,16.4,18.7,18.7c0,10.6,0,21.2,0,31.9c-20.2,1.4-38.9-6.7-45.6-24.3c-4.1-10.7-5.4-21.9-5.7-33.3
			c-0.3-15.2-0.1-30.5-0.2-45.8c0-4.4-0.1-8.8-0.7-13.2c-1.8-12.7-5.8-17.5-17.9-20.8c0-10.4,0-20.8,0-31.2
			c11.7-3.2,16-8.4,17.8-20.8c0.7-5,0.8-10,0.8-15.1c0.2-17-0.6-33.9,0.6-50.9c0.5-7.4,1.7-14.6,4-21.7c5-15.9,16.1-24.7,32.2-27.8
			C61.4,24.8,66.2,24.5,71.4,24.3z"/>
		<path class="st0" d="M302.7,56.6c0-10.6,0-21.3,0-31.9c23.9-3,43.2,11.2,48.5,35.4c2.2,10.2,2.6,20.5,2.7,30.8
			c0.1,14.6,0.1,29.3,0.2,43.9c0,3.8,0.7,7.6,1.7,11.3c2.3,8.6,6.9,15,16.9,15.5c0,10.6,0,21,0,31.4c-0.6,0.9-1.5,0.8-2.4,0.9
			c-5.3,0.6-9.1,3.5-11.7,8c-3.1,5.5-4.3,11.5-4.4,17.7c-0.2,15-0.1,30-0.3,45c-0.1,11.3-0.5,22.6-3.3,33.7
			c-5.1,20.2-17.8,30.8-38.7,32.3c-2.9,0.2-5.9,0.4-9.1,0.6c0-10.9,0-21.6,0-32.5c0.9-0.1,1.9-0.3,2.8-0.4c6.9-0.7,11.5-4.4,14-10.9
			c2.1-5.6,2.7-11.5,2.7-17.4c0.1-14.8,0-29.5,0.1-44.3c0.1-9.5,1.2-18.9,4.3-27.9c2.7-8,7-14.9,14.3-19.3c-0.1-0.4,0-0.8-0.1-0.9
			c-11.3-7.8-14.9-19.7-17-32.3c-2.3-13.8-1.3-27.7-1.5-41.6c-0.2-8.1,0.4-16.2-0.5-24.3C320.2,64.7,316.5,60.2,302.7,56.6z"/>
		<path class="st0" d="M200.4,254.2c-10.9,0-21.1,0-31.3,0c-2.1,0-2.2-1.4-2.6-2.9c-2.6-9.5-5.2-18.9-7.9-28.4
			c-0.3-1.2-0.7-2.3-1.1-3.8c-6.3,0-12.6,0-18.8,0c-8.6,0-17.2,0.1-25.8-0.1c-2.6-0.1-3.6,0.8-4.3,3.2c-2.7,10.6-5.7,21.1-8.6,31.7
			c-11,0-21.7,0-32.9,0c2.8-9.1,5.6-18,8.4-26.8c13.2-42.2,26.4-84.3,39.6-126.5c0.8-2.6,1.8-3.7,4.7-3.6
			c10.8,0.2,21.6,0.1,32.6,0.1C168.4,149.4,184.3,201.5,200.4,254.2z M116.3,191.9c11.6,0,22.8,0,34.2,0
			c-5.3-21.5-12.3-42.2-17-63.6C128.4,149.6,121.6,170.4,116.3,191.9z"/>
		<path class="st0" d="M202,213.4c7.6,6.9,15.5,11.8,24.7,14.1c7.5,1.9,15,2.4,22.6,0.4c13.6-3.7,17.1-17,7.1-27
			c-4.3-4.3-9.6-7.2-15-9.9c-7.5-3.8-15.3-7.2-22.1-12.5c-17.8-13.8-23.5-39.4-13.1-59.5c7-13.4,18.7-20.1,33-22.8
			c15.1-2.8,30.1-1.9,44.8,2.8c3,1,4.5,2.3,4.4,5.9c-0.4,9.2-0.1,18.4-0.1,28.2c-5-3-9.4-5.8-14.4-7.4c-9.1-3-18.4-4.6-27.9-1.7
			c-6,1.8-10.7,5-12.2,11.5c-1.5,6.6,1.5,11.5,6.2,15.6c4.7,4.1,10.1,6.9,15.6,9.6c6.1,3,12,6.1,17.6,9.9
			c15.4,10.3,21.8,24.9,20.8,43.2c-0.9,15.5-6.7,28-20.6,36c-6.8,3.9-14.4,5.8-22.1,6.5c-15,1.5-29.7,0.6-43.8-5.3
			c-4-1.6-5.8-3.6-5.6-8.3C202.3,233.2,202,223.7,202,213.4z"/>
	</g>
</g>
</svg>
