<?xml version="1.0" encoding="utf-8"?>
<!-- Generator: Adobe Illustrator 28.0.0, SVG Export Plug-In . SVG Version: 6.00 Build 0)  -->
<svg version="1.1" id="Layer_1" xmlns="http://www.w3.org/2000/svg" xmlns:xlink="http://www.w3.org/1999/xlink" x="0px" y="0px"
	 viewBox="0 0 203.7 228.2" style="enable-background:new 0 0 203.7 228.2;" xml:space="preserve">
<style type="text/css">
	.st0{fill:#A4C639;}
</style>
<g>
	<path class="st0" d="M69.7,138.6c7.9,0,14.2,6.4,14.2,14.2v61.1c0,7.9-6.4,14.2-14.2,14.2c-7.9,0-14.2-6.4-14.2-14.2v-61.1
		C55.5,145,61.9,138.6,69.7,138.6L69.7,138.6z"/>
	<path class="st0" d="M37.2,65.1c0,0.5-0.1,1.1-0.1,1.6v92.6c0,10,7.9,18,17.7,18h94.1c9.8,0,17.7-8,17.7-18V66.8
		c0-0.6,0-1.1-0.1-1.6L37.2,65.1z"/>
</g>
<g>
	<path class="st0" d="M42.6,1.5l15,26 M161.1,1.5l-15,26"/>
	<path class="st0" d="M57.6,29c-0.5,0-1-0.3-1.3-0.8l-15-26c-0.4-0.7-0.2-1.6,0.5-2c0.7-0.4,1.6-0.2,2,0.5l15,26
		c0.4,0.7,0.2,1.6-0.5,2C58.1,29,57.9,29,57.6,29z M146.1,29c-0.3,0-0.5-0.1-0.7-0.2c-0.7-0.4-1-1.3-0.5-2l15-26
		c0.4-0.7,1.3-1,2-0.5s1,1.3,0.5,2l-15,26C147.1,28.8,146.6,29,146.1,29z"/>
</g>
<g>
	<path class="st0" d="M134,138.6L134,138.6c-7.9,0-14.2,6.4-14.2,14.2v61.1c0,7.9,6.4,14.2,14.2,14.2c7.9,0,14.2-6.4,14.2-14.2
		v-61.1C148.2,145,141.8,138.6,134,138.6z"/>
	<path class="st0" d="M14.2,73.4C6.4,73.4,0,79.7,0,87.6v61.1c0,7.9,6.4,14.2,14.2,14.2c7.9,0,14.2-6.4,14.2-14.2V87.6
		C28.5,79.7,22.1,73.4,14.2,73.4z"/>
	<path class="st0" d="M109,4.2H94.7C62.8,7.3,38,30.6,37.6,59.1h128.4C165.7,30.6,140.9,7.3,109,4.2z M82.7,33.6
		c0,4-3.3,7.2-7.3,7.2c-4.1,0-7.4-3.2-7.4-7.2v0c0-4,3.3-7.2,7.3-7.2C79.4,26.4,82.7,29.6,82.7,33.6L82.7,33.6z M137.7,33.6
		c0,4-3.3,7.2-7.3,7.2c-4.1,0-7.4-3.2-7.4-7.2v0c0-4,3.3-7.2,7.3-7.2C134.4,26.4,137.7,29.6,137.7,33.6L137.7,33.6z"/>
	<path class="st0" d="M189.5,73.4c-7.9,0-14.2,6.4-14.2,14.2v61.1c0,7.9,6.4,14.2,14.2,14.2c7.9,0,14.2-6.4,14.2-14.2V87.6
		C203.7,79.7,197.3,73.4,189.5,73.4z"/>
</g>
</svg>
