<?xml version="1.0" encoding="utf-8"?>
<!-- Generator: Adobe Illustrator 28.0.0, SVG Export Plug-In . SVG Version: 6.00 Build 0)  -->
<svg version="1.1" id="Layer_1" xmlns="http://www.w3.org/2000/svg" xmlns:xlink="http://www.w3.org/1999/xlink" x="0px" y="0px"
	 viewBox="0 0 190.5 198" style="enable-background:new 0 0 190.5 198;" xml:space="preserve">
<style type="text/css">
	.st0{fill:#666699;}
	.st1{fill:#E40046;}
</style>
<g>
	<g>
		<path class="st0" d="M189.8,183.9c0-0.1-0.1-0.2-0.1-0.3v-0.1L117,6.4c-1.7-4-5.6-6.5-9.8-6.4l0,0c-4.1,0.2-7.6,2.6-9.2,6.4
			L60.1,97.2c-2.3,5.1-0.1,11.2,5.1,13.6c2.5,1.2,5.3,1.3,7.9,0.3c2.4-0.9,4.3-2.6,5.5-4.8c0.2-0.3,0.4-0.7,0.5-1l28.2-67.8
			l63.2,154c1,2.6,3,4.6,5.5,5.7c1.3,0.6,2.7,0.9,4.1,0.9c1.3,0,2.6-0.2,3.8-0.7c2.6-1,4.6-3,5.7-5.5
			C190.8,189.3,190.8,186.5,189.8,183.9z"/>
		<path class="st0" d="M58.1,129.8c-1.5-0.7-3-1-4.7-0.9c-4.1,0.2-7.7,2.8-9.1,6.5l-20,48.2c-2.3,5.2,0.1,11.3,5.4,13.6
			c1.3,0.6,2.7,0.9,4.1,0.9c1.3,0,2.6-0.2,3.8-0.7c2.5-1,4.5-2.9,5.6-5.4l20.2-48.6c1.1-2.5,1.2-5.3,0.1-7.9
			C62.5,132.9,60.6,130.9,58.1,129.8z"/>
	</g>
	<g>
		<path class="st1" d="M83.8,127.9H10.6c-2.8-0.1-5.4,1-7.4,2.9c-2,1.9-3.1,4.5-3.1,7.3c-0.1,2.8,1,5.4,2.9,7.4s4.5,3.1,7.3,3.1
			h73.3c0.1,0,0.2,0,0.2,0c2.7,0,5.2-1,7.1-2.9c2-1.9,3.1-4.5,3.1-7.3c0.1-2.8-1-5.4-2.9-7.4C89.2,129,86.6,127.9,83.8,127.9z"/>
		<path class="st1" d="M104.4,98c-1.9-2-4.5-3.1-7.3-3.1H23.9c-2.8-0.1-5.4,1-7.4,2.9s-3.1,4.5-3.1,7.3c-0.1,2.8,1,5.4,2.9,7.4
			s4.5,3.1,7.3,3.1h73.1c0.1,0,0.2,0,0.2,0c2.7,0,5.2-1,7.1-2.9c2-1.9,3.1-4.5,3.2-7.2C107.4,102.6,106.4,100,104.4,98z"/>
	</g>
</g>
</svg>
