<?xml version="1.0" encoding="utf-8"?>
<!-- Generator: Adobe Illustrator 28.0.0, SVG Export Plug-In . SVG Version: 6.00 Build 0)  -->
<svg version="1.1" id="Layer_1" xmlns="http://www.w3.org/2000/svg" xmlns:xlink="http://www.w3.org/1999/xlink" x="0px" y="0px"
	 viewBox="0 0 190.5 198" style="enable-background:new 0 0 190.5 198;" xml:space="preserve">
<style type="text/css">
	.st0{fill:#191919;stroke:#191919;stroke-width:8;stroke-linecap:round;stroke-linejoin:round;}
	.st1{fill:#191919;stroke:#191919;stroke-width:8;stroke-miterlimit:1.5;}
	.st2{fill:#E40046;stroke:#E40046;stroke-width:8;stroke-linecap:round;stroke-linejoin:round;}
</style>
<g>
	<path class="st0" d="M107.3,4c-2.5,0.1-4.7,1.6-5.7,3.9L63.8,98.8c-1.5,3.2-0.1,6.9,3.1,8.4s6.9,0.1,8.4-3.1c0,0,0-0.1,0.1-0.1
		l0.1-0.3l31.9-76.7L174.3,190c1.3,3.3,4.9,4.9,8.2,3.6c3.3-1.3,4.9-4.9,3.6-8.2l0,0l-0.1-0.2L113.3,7.9
		C112.3,5.5,109.9,3.9,107.3,4L107.3,4z"/>
	<path class="st1" d="M53.7,132.9c-2.5,0.1-4.8,1.6-5.7,4l-20.1,48.3c-1.4,3.2,0.1,6.9,3.3,8.3c3.2,1.4,6.9-0.1,8.3-3.3l0,0l0.1-0.2
		l20.1-48.3c1.4-3.2-0.1-6.9-3.3-8.3C55.6,133,54.7,132.8,53.7,132.9L53.7,132.9z"/>
	<path class="st2" d="M10.5,131.9c-3.5-0.1-6.4,2.7-6.4,6.2c-0.1,3.5,2.7,6.4,6.2,6.4l0,0h73.3c3.5,0.1,6.4-2.7,6.4-6.2
		c0.1-3.5-2.7-6.4-6.2-6.4H10.5z"/>
	<path class="st2" d="M23.8,98.9c-3.5-0.1-6.4,2.7-6.4,6.2c-0.1,3.5,2.7,6.4,6.2,6.4h73.2c3.5,0.1,6.4-2.7,6.5-6.2
		c0.1-3.5-2.7-6.4-6.2-6.4L23.8,98.9L23.8,98.9z"/>
</g>
</svg>
