<?xml version="1.0" encoding="utf-8"?>
<!-- Generator: Adobe Illustrator 28.0.0, SVG Export Plug-In . SVG Version: 6.00 Build 0)  -->
<svg version="1.1" id="Layer_1" xmlns="http://www.w3.org/2000/svg" xmlns:xlink="http://www.w3.org/1999/xlink" x="0px" y="0px"
	 viewBox="0 0 20 7.7" style="enable-background:new 0 0 20 7.7;" xml:space="preserve">
<style type="text/css">
	.st0{fill:#CC3E44;}
</style>
<g>
	<path class="st0" d="M0,7.5l2.6-7.3H4l2.6,7.3H5.2l-0.7-2H1.7L1,7.5H0z M2,4.6h2.1l-1-2.9L2,4.6z M7,7.4V6.2c1,0.3,1.7,0.5,2.4,0.5
		c0.5,0,0.9-0.1,1.1-0.3c0.3-0.2,0.4-0.4,0.4-0.7c0-0.3-0.1-0.5-0.2-0.6c-0.2-0.2-0.5-0.4-1-0.6L9.1,4.3C8.3,3.9,7.8,3.5,7.4,3.2
		C7.2,2.9,7,2.5,7,2c0-0.6,0.2-1.1,0.8-1.4C8.3,0.2,9,0,9.9,0c0.7,0,1.5,0.1,2.3,0.3v1.2C11.3,1.2,10.6,1,10.1,1
		c-0.4,0-0.7,0.1-1,0.2C8.9,1.4,8.8,1.6,8.8,1.8S8.8,2.2,9,2.3c0.2,0.1,0.5,0.3,1,0.6l0.6,0.3C11.4,3.6,12,4,12.3,4.3
		s0.5,0.7,0.5,1.2c0,0.6-0.3,1.2-0.9,1.6c-0.5,0.4-1.4,0.6-2.4,0.6C8.8,7.7,7.9,7.6,7,7.4z M13.3,7.5V0.3h1.8l1.6,5.1l1.7-5.1H20
		v7.2h-1.3V1.9l-1.6,5H16l-1.6-5.1v5.6H13.3L13.3,7.5z"/>
</g>
</svg>
