<?xml version="1.0" encoding="utf-8"?>
<!-- Generator: Adobe Illustrator 28.0.0, SVG Export Plug-In . SVG Version: 6.00 Build 0)  -->
<svg version="1.1" id="Layer_1" xmlns="http://www.w3.org/2000/svg" xmlns:xlink="http://www.w3.org/1999/xlink" x="0px" y="0px"
	 viewBox="0 0 72 27.7" style="enable-background:new 0 0 72 27.7;" xml:space="preserve">
<style type="text/css">
	.st0{fill:#DB5555;}
</style>
<g>
	<path class="st0" d="M0,27L9.4,0.7h5L23.8,27h-5l-2.5-7.2H6.1L3.6,27H0z M7.2,16.6h7.6L11.2,6.1L7.2,16.6z M25.2,26.6v-4.3
		c3.6,1.1,6.1,1.8,8.6,1.8c1.8,0,3.2-0.4,4-1.1c1.1-0.7,1.4-1.4,1.4-2.5c0-1.1-0.4-1.8-0.7-2.2c-0.7-0.7-1.8-1.4-3.6-2.2l-2.2-0.7
		c-2.9-1.4-4.7-2.9-6.1-4c-0.7-1.1-1.4-2.5-1.4-4.3c0-2.2,0.7-4,2.9-5C29.9,0.7,32.4,0,35.6,0c2.5,0,5.4,0.4,8.3,1.1v4.3
		c-3.2-1.1-5.8-1.8-7.6-1.8c-1.4,0-2.5,0.4-3.6,0.7C32,5,31.7,5.8,31.7,6.5s0,1.4,0.7,1.8c0.7,0.4,1.8,1.1,3.6,2.2l2.2,1.1
		c2.9,1.4,5,2.9,6.1,4c1.1,1.1,1.8,2.5,1.8,4.3c0,2.2-1.1,4.3-3.2,5.8c-1.8,1.4-5,2.2-8.6,2.2C31.7,27.7,28.4,27.4,25.2,26.6z
		 M47.9,27V1.1h6.5l5.8,18.4l6.1-18.4H72V27h-4.7V6.8l-5.8,18h-4L51.8,6.5v20.2h-4V27z"/>
</g>
</svg>
