<?xml version="1.0" encoding="utf-8"?>
<!-- Generator: Adobe Illustrator 28.0.0, SVG Export Plug-In . SVG Version: 6.00 Build 0)  -->
<svg version="1.1" id="Layer_1" xmlns="http://www.w3.org/2000/svg" xmlns:xlink="http://www.w3.org/1999/xlink" x="0px" y="0px"
	 viewBox="0 0 245.4 175.7" style="enable-background:new 0 0 245.4 175.7;" xml:space="preserve">
<style type="text/css">
	.st0{fill:#2E76FF;}
</style>
<g>
	<g>
		<g>
			<path class="st0" d="M0,50.5c0.4-0.1,0.4-0.4,0.6-0.7c2.2-5.4,6.1-8.1,12-8c14.6,0.1,29.2,0,43.8,0c1.6,0,2.9-0.4,4.2-1.2
				c18.8-12.1,37.7-24.1,56.5-36.2c0.9-0.6,1.8-1.3,2.7-2c6.5-5.1,16.3-1.6,18.1,6.5c0.3,1.3,0.4,2.7,0.4,4c0,50-0.1,99.9,0.1,149.9
				c0,9-7.7,15.1-15.7,12.2c-1.8-0.7-3.2-2.1-4.8-3.1c-19.3-12.4-38.6-24.7-57.9-37.1c-1.1-0.7-2.2-0.8-3.4-0.8
				c-13.6,0-27.1-0.3-40.7,0.1C8.5,134.3,3,132.4,0,125.3C0,100.3,0,75.4,0,50.5z"/>
			<path class="st0" d="M245.4,88c-2.2,38.6-19.4,67.5-55.1,84.3c-4.2,2-8.4,1.9-12.2-0.9c-3.8-2.8-5.3-6.6-4.7-11.3
				c0.4-3.1,2.2-5.4,4.7-7.2c3-2.1,6.4-3.6,9.5-5.5c19.6-11.6,31.2-28.7,34-51.2c2.8-22.8-4.6-42.4-21.1-58.5
				c-5.2-5.1-11.4-8.9-17.9-12.2c-2.1-1-4.1-2.1-5.8-3.7c-3.9-3.7-4.7-9.2-2.1-13.8c2.7-4.7,7.8-7,13-5.5c5.1,1.5,9.8,4.1,14.3,7
				c21.6,13.8,35,33.5,41,58.3C244.6,74.5,245.2,81.2,245.4,88z"/>
			<path class="st0" d="M176,91.6c0.1-11.2-2.7-17.5-9.4-21.8c-2.8-1.8-5.7-3.5-8.1-6c-3.8-3.9-4.4-9.1-1.7-13.5
				c2.8-4.5,8.3-6.7,13.3-5c8.8,3,15.7,8.5,20.7,16.2c9.3,14.1,11.1,29.2,4.4,44.8c-4.7,11.1-12.6,19.5-24.1,24
				c-4.5,1.8-8.7,1.1-12.2-2.2c-3.4-3.1-4.5-7.1-3.3-11.5c0.7-2.8,2.8-4.6,4.9-6.3c1.8-1.4,3.7-2.8,5.7-4C173,102.1,176,96,176,91.6
				z"/>
		</g>
	</g>
</g>
</svg>
