<?xml version="1.0" encoding="utf-8"?>
<!-- Generator: Adobe Illustrator 28.0.0, SVG Export Plug-In . SVG Version: 6.00 Build 0)  -->
<svg version="1.1" id="Layer_1" xmlns="http://www.w3.org/2000/svg" xmlns:xlink="http://www.w3.org/1999/xlink" x="0px" y="0px"
	 viewBox="0 0 421.5 512" style="enable-background:new 0 0 421.5 512;" xml:space="preserve">
<style type="text/css">
	.st0{fill:#FBC02D;}
</style>
<g>
	<path class="st0" d="M156.2,36.7c-16.6,12.1-34,23-52.1,32.9l0.2,3.3c1.3,0,2.9-0.9,5.1-2c2.2-0.2,3.6,0.7,3.6,2.9l3.6-2l1.8-0.2
		l0.2,1.6c0.2,1.6-12.1,11.2-36.4,28.4l2,3.1l-1.8,0.2l-3.8-1.3c0,1.1-1.6,1.8-5.1,2l0.2,1.8l4,4.5c-1.8,0-3.7-0.4-5.4-1.1
		c-7.8,0.7-15.6,6.5-23.2,17.2l2,3.1c6.7-6,10.5-9.2,11.6-9.2l0.5,4.9c-1.1,0-2.9,0.9-5.1,2l4.3,6.3c7.8-8.6,16.7-16,26.6-22.1
		c4.9,1.3,7.4,2.7,7.4,4.5l3.6-0.2c26.2-19.4,52.1-33.3,77.8-42l0.2,3.4c-4.7,7.1-8,10.7-9.8,11c0.2,2.3,1.1,4.6,2.5,6.5
		c0.4,4.5-11.2,33.8-34.9,88.3C81.6,310.7,36.4,404.2,0,464.8c0,1.1,0.9,2.9,2,4.9c8.9-2.2,14.8-4.2,17.2-6.5l2-0.2l0.2,3.4l3.4-0.2
		l3.6-2c0,1.1,1.3,1.6,3.6,1.3l0.2,3.4c0.2,3.4-1.6,8.5-5.8,15.4c-3.8,4.2-7.6,13-11.8,26.1l0.2,1.6l3.3-0.2
		c14.5-16.3,25.7-32.4,33.3-48c42.7-12.5,75.1-24.8,97.7-36.9c22.6-2,40-7.8,51.6-17.7l-0.2-1.8l-8.4,2.4l-2,0.2l-0.2-1.8
		c16.5-2.5,28.2-6.3,34.4-11.2c32.4-25,56.8-42.7,73.3-53.2c51.2-37.5,75.3-73.8,72.4-108.2c-0.2-3.6-11.6-17.7-33.8-42.2
		c-0.5-4.7,7.4-11.4,23-20.3l44.5-39.1c9.8-12.7,15.9-33.3,17.9-61.7l-0.7-6.7c-1.8-19.9-16.1-36-43.4-48.3
		C361.4,6.5,332.6,0.7,291,0C256.8,3.1,211.7,15.2,156.2,36.7L156.2,36.7z M395.8,39.6l-1.3,3.3l-49.6-20.8
		C377.9,23.5,394.9,29.3,395.8,39.6L395.8,39.6z M195.1,177.2c3.4-18.3,7.1-28.8,11.4-31.3l37.1-83.4c-0.4-5.1,7.4-9.2,23.7-11.8
		l5.4-0.5l0.5,4.7c16.1-2.5,25.9-3.8,29.7-4.2c29.5-2.5,44.7,3.3,46,17.9l3.4-0.2l-0.7-8.5l3.6-0.2c8.7,4.7,13.4,10.5,13.9,17.4
		c0.5,4.7-2,10.5-7.6,17.4c-2.2,0.2-3.6-1.3-3.8-4.7l-3.6,0.2l-0.9,10.1c-15,22.4-25.7,33.8-32.4,34.4c-6,8.3-9.8,12.5-11.4,12.7
		c-4.7,5.6-17.4,15.2-38.4,28.6c-6.9,0.7-32.6,10.5-77.1,29.9c-2.2-1.1-4.7-1.4-7.1-1.1l-0.2-3.1
		C185.9,195.1,188.6,187.1,195.1,177.2L195.1,177.2z M400.5,74.4l0.2,3.1c-1.8,0.2-5.1-5.1-10.1-15.9l-0.2-3.1
		C393.6,58.1,396.9,63.5,400.5,74.4z M74.2,114.2l0.2,1.6c-1.1,0-2.9,0.9-5.1,2l-1.8,0.2l-0.2-3.1L74.2,114.2z M182.1,111.5l0.4,4.9
		c-1.6,0.2-3.8,2.5-6.5,7.2l-0.2-3.4c3.1-3.8,4.7-6.7,4.7-8.7H182.1z M165.6,146.4l0.7,6.7l-1.8,0.2l-0.7-6.7L165.6,146.4z
		 M161.4,158.5c-0.4,5.6-1.8,8.5-4.7,8.7l-1.8,0.2c2-3.8,3.1-6.5,2.9-8.5L161.4,158.5z M154,175.9l0.2,1.6l-3.1,5.4l-3.4,0.2
		l-0.2-1.6c3.3-0.2,4.9-2,4.7-5.4L154,175.9z M146.4,191.5l-0.9,8.3l-1.8,0.2l-0.7-8.3L146.4,191.5z M327.6,197.5l7.4,4.5
		c0.4,1.7-0.7,3.4-2.4,3.7c-0.2,0.1-0.5,0.1-0.7,0.1c-3.1-2-5.6-2.9-7.4-2.9L324,198L327.6,197.5z M185.7,216.5l0.2,3.1l-6.9,0.7
		l-0.2-3.1L185.7,216.5z M300.1,228.1c4.9,2.2,7.4,4.5,7.6,6.3l0.2,1.6c-4.7,0.4-8.9-2-13-7.4L300.1,228.1z M152.6,264.3
		c20.1-1.8,51.9-11.2,95-28.2l10.5-0.9c21.9-1.8,38.2,2.2,48.9,12.5l0.7,6.7c-8,23.2-17,36.7-26.6,40.9L236.5,331
		c-33.3,21.9-51.2,32.9-53.9,33.1c-53,29.3-86,44.2-98.8,45.4l-2,0.2C83.6,403.4,107.1,355.1,152.6,264.3L152.6,264.3z M200.9,245.3
		l0.2,1.6l-7.1,0.7l-0.2-1.6L200.9,245.3z M361.4,238.2l1.1,13.2c-1.6,3.6-3.1,5.4-4.9,5.4l-2-23.2
		C359.4,235.1,361.2,236.6,361.4,238.2L361.4,238.2z M89.4,353.5c-2.2,11.4-4.7,17.2-7.2,17.4l-0.2-1.5
		C81.6,363.6,84,358.4,89.4,353.5L89.4,353.5z M134.1,416.5c13-2.5,48.5-21.2,106.8-55.9l0.2,3.1c0.2,1.3-4.9,5.6-15,13
		c-29.7,14.5-47.1,24.6-52.3,29.7c-32.2,11.2-48,18.1-47.8,20.8c-28.6,11.4-47.4,19.7-56.3,24.8c-2,0.2-5.1-0.7-9.2-2.5
		c-0.5-5.8,2-10.5,7.8-14.3c4.9-0.5,9.8,0.3,14.3,2.2c5.4-2.7,14.5-5.8,27.7-8.9l-0.2-3.4l-10.5,0.9c1.3-1.8,11.4-6.5,30.6-14.3
		l5.4-0.5l0.2,1.6c-8.9,0.7-14.1,3.6-15.2,8.3c0.2,2,1.3,3.1,3.6,2.9C130.7,419.7,134,417.2,134.1,416.5L134.1,416.5z M79.1,376.1
		l0.2,1.6c0.4,1.7-0.7,3.4-2.4,3.7c-0.2,0.1-0.5,0.1-0.7,0.1l-0.2-1.5C75.8,377.9,76.9,376.6,79.1,376.1L79.1,376.1z M162.7,398.9
		c-4.2,0.5-12.1,3.8-23.9,10.5l-1.8,0.2l-0.2-3.4c8.3-0.6,16.1-4.1,21.9-10.1C161.1,395.7,162.4,396.8,162.7,398.9L162.7,398.9z
		 M76,423.1l5.4-0.5l0.2,1.8c-1.3,0-2.9,0.9-5.1,2l-3.3,0.2C72.9,425.1,73.8,423.7,76,423.1L76,423.1z M40.5,442.9l3.8,1.6
		c-1.3,10.1-4.2,15.2-9.4,15.6c-3.4-1.6-7.2-2.4-11-2.2l-0.4-4.9c-0.2-2,0.9-3.1,3.4-3.8c2.2-0.2,3.6,1.3,3.8,4.7
		C36.6,446.5,40,442.9,40.5,442.9L40.5,442.9z"/>
</g>
</svg>
