<?xml version="1.0" encoding="utf-8"?>
<!-- Generator: Adobe Illustrator 28.0.0, SVG Export Plug-In . SVG Version: 6.00 Build 0)  -->
<svg version="1.1" id="Layer_1" xmlns="http://www.w3.org/2000/svg" xmlns:xlink="http://www.w3.org/1999/xlink" x="0px" y="0px"
	 viewBox="0 0 698.2 700" style="enable-background:new 0 0 698.2 700;" xml:space="preserve">
<style type="text/css">
	.st0{fill:#32B0E7;}
</style>
<path class="st0" d="M563.9,427.8H233.3l77.8-194.4h128.3l27.2-58.3H350l-38.9-58.3L350,58.3h116.7L439.5,0H311.1l-85.6,116.7
	l35,58.3L27.2,466.7c-17,22.4-26.5,49.6-27.2,77.8c-0.4,57.4,40.7,106.7,97.2,116.6c0,0,408.3,38.9,466.7,38.9
	c75.2-1,135.3-62.8,134.3-138C697.2,488.3,637.6,428.8,563.9,427.8z M116.7,602.8c-32.2,0.7-58.9-24.9-59.5-57.1
	c-0.7-32.2,24.9-58.9,57.1-59.5c0.8,0,1.6,0,2.4,0c32.2,0.7,57.8,27.3,57.1,59.5C173.2,576.9,148,602.1,116.7,602.8z M563.9,641.7
	c-43,0-77.8-34.8-77.8-77.8c0-43,34.8-77.8,77.8-77.8c43,0,77.8,34.8,77.8,77.8c0,0,0,0,0,0C641.6,606.8,606.8,641.6,563.9,641.7z"
	/>
</svg>
