<?xml version="1.0" encoding="utf-8"?>
<!-- Generator: Adobe Illustrator 28.0.0, SVG Export Plug-In . SVG Version: 6.00 Build 0)  -->
<svg version="1.1" id="Layer_1" xmlns="http://www.w3.org/2000/svg" xmlns:xlink="http://www.w3.org/1999/xlink" x="0px" y="0px"
	 viewBox="0 0 550 700" style="enable-background:new 0 0 550 700;" xml:space="preserve">
<style type="text/css">
	.st0{fill:#999999;}
</style>
<g>
	<g>
		<path class="st0" d="M198,306H66c-18.2,0-33-14.8-33-33V75c0-18.2,14.8-33,33-33h132c18.2,0,33,14.8,33,33v198
			C231,291.2,216.2,306,198,306z M99,240h66V108H99V240z"/>
	</g>
	<g>
		<path class="st0" d="M484,306H352c-18.2,0-33-14.8-33-33s14.8-33,33-33h33V108h-33c-18.2,0-33-14.8-33-33s14.8-33,33-33h66
			c18.2,0,33,14.8,33,33v165h33c18.2,0,33,14.8,33,33S502.2,306,484,306z"/>
	</g>
	<g>
		<path class="st0" d="M484,658H352c-18.2,0-33-14.8-33-33V427c0-18.2,14.8-33,33-33h132c18.2,0,33,14.8,33,33v198
			C517,643.2,502.2,658,484,658z M385,592h66V460h-66V592z"/>
	</g>
	<g>
		<path class="st0" d="M198,658H66c-18.2,0-33-14.8-33-33s14.8-33,33-33h33V460H66c-18.2,0-33-14.8-33-33s14.8-33,33-33h66
			c18.2,0,33,14.8,33,33v165h33c18.2,0,33,14.8,33,33S216.2,658,198,658z"/>
	</g>
</g>
</svg>
