<?xml version="1.0" encoding="utf-8"?>
<!-- Generator: Adobe Illustrator 28.0.0, SVG Export Plug-In . SVG Version: 6.00 Build 0)  -->
<svg version="1.1" id="Layer_1" xmlns="http://www.w3.org/2000/svg" xmlns:xlink="http://www.w3.org/1999/xlink" x="0px" y="0px"
	 viewBox="0 0 122.5 108.3" style="enable-background:new 0 0 122.5 108.3;" xml:space="preserve">
<style type="text/css">
	.st0{fill-rule:evenodd;clip-rule:evenodd;fill:#F4BF75;}
</style>
<g>
	<path class="st0" d="M122.3,55.9c-0.6-2.4-1.7-4.2-4-5.3c-4.2-2.1-8.6-3.3-13.1-4.3c-9.6-2.2-19.2-3.6-29-4.7
		c-1.1-0.1-2.2-0.3-3.4-0.4c0.4-3.1,1.5-4.2,5.3-5c0.4,0.9,0.7,1.9,1.2,2.7c0.2,0.3,0.6,0.7,0.9,0.7c5.6,0.1,11-0.9,15.3-4.9
		c3.4-3.1,4.9-7.2,5.7-11.6c0.3-1.6,0.6-3.2,0.8-4.8c0.7-5,3.4-9,6.7-12.6c0.2-0.2,0.3-0.4,0.5-0.7c-2.6-0.8-5.3-0.9-7.8-0.4
		c-9.9,1.8-17.3,7-22,16.1l-0.2,0.2c-1.7-0.4-3.4-0.8-5-1.3c-0.3-0.1-0.5-0.6-0.7-1c-2.7-7.7-7.4-13.7-15.1-17
		c-2.3-1-4.8-0.8-7.3-1.5c-0.1,0-0.2,0.2-0.4,0.2h-7.3c-1.6,0-3.2,0.1-4.8,0.4C19.6,4.7,4.6,19.5,1.1,38.9
		c-3.7,20.7,1.9,38.7,15.5,54.5c2,2.4,4.5,4.3,7.4,5.7c5.3,2.6,11,0.7,13.7-4.5l0.2-0.4c1.2,3,2.4,5.9,3.4,8.9
		c1,2.9,4.5,4.2,6.6,4.1c0.4,0,0.9,0.3,1.2,0.1c1.9-1.4,3.4,0.9,5.1,0.9h2.7c1.9-1,3.7-1.7,4.9-3.4c0.2-0.2,0.8-0.3,1.3-0.2
		c2.4,0.3,4.7-0.3,6.7-1.7c1.7-1.1,2.8-2.7,3-4.8c2.2-0.6,3.5-2.3,3.6-4.8c0-1.4-0.1-2.9-0.7-4.1c-1.8-3.7-3.9-7.2-5.8-10.8L69.7,78
		l0.4,0.2c2.9,1.4,5.9,2,9.1,1.8c2-0.2,3.3-0.8,4.3-2.4c2.5,1.8,5.4,2.6,8.5,2.4c3.1-0.2,6-0.9,7.6-3.9c2.2,0,4.4,0.2,6.6-0.1
		c1.5-0.2,3.1-0.9,4.4-1.6c2.2-1.2,3.7-3,3.2-5.8c2.2-0.2,4.3-0.7,6-2.1c1.4-1.1,2-2.6,2.5-4.3c0.1-0.4,0.2-0.8,0.2-1.2v-3.4
		C122.5,56.9,122.5,56.4,122.3,55.9L122.3,55.9z M47,33c-3.6,0-6.4-2.9-6.4-6.5c0-3.6,2.9-6.5,6.5-6.5c3.6,0,6.4,2.9,6.4,6.5
		C53.4,30.2,50.6,33,47,33z M66.6,38.2c-0.8-2-1.5-4-1.2-6.2c-0.2-3.4,1-6.3,3-8.9c0.3-0.3,1.1-0.4,1.6-0.4c6.3,0.4,11.7,3,16.8,6.6
		c1,0.8,2,1.6,2.9,2.6c-2-0.4-3.9-0.9-5.9-1.3c-3-0.6-5.9-0.4-8.7,0.8c-3,1.3-6.2,1.3-9.4,1.1c1.7,1.6,3.8,1.5,5.9,1.2
		c1.7-0.3,3.5-0.8,5.3-1.2l0.1,1L66.6,38.2z"/>
</g>
</svg>
