<?xml version="1.0" encoding="utf-8"?>
<!-- Generator: Adobe Illustrator 28.0.0, SVG Export Plug-In . SVG Version: 6.00 Build 0)  -->
<svg version="1.1" id="Layer_1" xmlns="http://www.w3.org/2000/svg" xmlns:xlink="http://www.w3.org/1999/xlink" x="0px" y="0px"
	 viewBox="0 0 1152 1024" style="enable-background:new 0 0 1152 1024;" xml:space="preserve">
<style type="text/css">
	.st0{fill:#DB5555;}
</style>
<path class="st0" d="M251.6,685.9v-86.7l175.9-77.1c8.7-3.9,17.6-7.1,26.8-9.6c7.3-2.1,14.8-3.8,22.3-5.1c-5.5-0.8-13-2.4-22.3-4.8
	c-9.2-2.3-18.1-5.4-26.8-9.2l-175.9-77.1V329L544,461.3V128C544,57.3,486.7,0,416,0c-59.7,0-109.5,41.1-123.6,96.4
	c-1.5,0-2.9-0.4-4.4-0.4c-70.2-0.4-127.6,56.1-128,126.4c-0.1,10,1.1,20,3.3,29.7c-60,24.6-99.3,83-99.3,147.9
	c0,25.2,6.3,48.6,16.7,69.8C32.7,497.4,0,548.7,0,608c0,64.7,39,123,98.8,147.8C97,765.1,96,774.5,96,784
	c-1.2,78.4,61.4,142.8,139.8,144c9.5,0.1,19-0.7,28.3-2.4c19.2,57,72.4,98.4,135.9,98.4c79.5,0,144-64.5,144-144V553.1L251.6,685.9z
	"/>
<path class="st0" d="M900.4,685.9v-86.7l-175.9-77.1c-8.7-3.9-17.6-7.1-26.8-9.6c-7.3-2.1-14.8-3.8-22.3-5.1
	c5.5-0.8,13-2.4,22.3-4.8c9.2-2.3,18.1-5.4,26.8-9.2l175.9-77.1V329L608,461.3V128C608,57.3,665.3,0,736,0
	c59.7,0,109.5,41.1,123.6,96.4c1.5,0,2.9-0.4,4.4-0.4c70.2-0.4,127.6,56.1,128,126.4c0.1,10-1.1,20-3.3,29.7
	c60.1,24.6,99.3,83,99.3,147.9c0,25.2-6.3,48.6-16.7,69.8c48,27.6,80.7,78.8,80.7,138.2c0,64.7-39,123-98.8,147.8
	c1.9,9.3,2.8,18.7,2.8,28.2c1.2,78.4-61.4,142.8-139.8,144c-9.5,0.1-19-0.7-28.3-2.4c-19.2,57-72.4,98.4-135.9,98.4
	c-79.5,0-144-64.5-144-144V553.1L900.4,685.9z"/>
</svg>
