<?xml version="1.0" encoding="utf-8"?>
<!-- Generator: Adobe Illustrator 28.0.0, SVG Export Plug-In . SVG Version: 6.00 Build 0)  -->
<svg version="1.1" id="Layer_1" xmlns="http://www.w3.org/2000/svg" xmlns:xlink="http://www.w3.org/1999/xlink" x="0px" y="0px"
	 viewBox="0 0 125.3 130" style="enable-background:new 0 0 125.3 130;" xml:space="preserve">
<style type="text/css">
	.st0{fill:#FFD539;}
</style>
<path class="st0" d="M125.3,53.1c0.1-3.6-2.7-6.6-6.3-6.7c-3.1-0.1-5.9,2.1-6.6,5.1c-10-5.2-21.6-15.9-18.8-31.3
	c2.6-3.4,5.6-6.4,9.1-8.9c-7.6-0.9-15.6,0.5-23.3,3.4c-0.1-4.5,0.5-8.9,1.6-13.3C73.3,3.7,66.3,7.6,60.5,13c-1.7-4.2-2.8-8.5-3.3-13
	C51,4.4,46,10.8,42.2,18.1c-3.1-3.3-5.7-7-7.8-11c-4.2,6.3-6.7,14.1-7.5,22.3c-4-2-7.7-4.4-11-7.4c-1.7,7.4-1.1,15.6,1,23.5
	c-4.5-0.4-9-1.4-13.2-3c1.1,7.5,4.5,15,9.3,21.6C8.8,65.3,4.4,65.9,0,65.9c3.7,6.7,9.6,12.4,16.5,16.9c-3.6,2.7-7.6,5-11.9,6.6
	c5.9,4.9,13.3,8.1,21.3,9.8c-2.4,3.7-5.2,7.2-8.5,10.1c7.6,2.4,15.6,2.9,23.4,1.5c-0.8,4.4-2.3,8.7-4.3,12.7
	c7.6-0.3,15.3-2.9,22.5-7c0.8,4.5,1,9,0.5,13.5c15.3-6.6,27.3-23.7,31.5-40.7c1.1-3.1,1.8-7.5,1.8-13.6c0-1.6,0-3.2-0.1-4.8
	c9.4-1.5,18.4-4.7,26.6-9.4c1.9-1.1,3.8-2.8,4.4-4.1C124.7,56.2,125.3,54.7,125.3,53.1L125.3,53.1z M96.7,67.9
	c-1.3,0.3-2.7,0.6-4.2,0.8c-0.3-6.3-1.1-11.8-1.8-16.7c2.4,0.4,4.6-1.1,5.1-3.5s-1.1-4.6-3.5-5.1c-0.6-0.1-1.1-0.1-1.7,0
	c1.4,0.4,2.3,1.9,1.9,3.3c-0.3,1.1-1.2,1.8-2.3,2c-1.4-9.5-2.4-16.9,0.7-23.9c0,7.8,3.3,14.9,9.4,20.8c5.5,5.3,12.2,9.1,19.5,11.2
	c0.3,0.4,0.4,0.9-0.1,1.6c-0.5,0.4-1.1,0.8-1.6,1.1C111.4,63.4,104.2,66.2,96.7,67.9z"/>
</svg>
