<?xml version="1.0" encoding="utf-8"?>
<!-- Generator: Adobe Illustrator 28.0.0, SVG Export Plug-In . SVG Version: 6.00 Build 0)  -->
<svg version="1.1" id="Layer_1" xmlns="http://www.w3.org/2000/svg" xmlns:xlink="http://www.w3.org/1999/xlink" x="0px" y="0px"
	 viewBox="0 0 263.2 263.2" style="enable-background:new 0 0 263.2 263.2;" xml:space="preserve">
<style type="text/css">
	.st0{fill:#FFF200;}
</style>
<g>
	<g>
		<path class="st0" d="M2.4,148.8c0-1,0-2,0-3c0.3-0.1,0.6-0.2,0.9-0.3c-0.3-0.2-0.6-0.5-0.9-0.7c0-9.3,0-18.7,0-28
			c0.3-0.2,0.6-0.5,0.9-0.7c-0.3-0.1-0.6-0.2-0.9-0.3c0-1,0-2,0-3c1.7-1.1,1.7-1.1,2-3.1C10,77.6,25.5,51.3,50.7,30.9
			C67.9,17,87.7,8.3,109.6,4.8c0.9-0.1,3.2,0.5,1.8-1.9c1.3,0,2.7,0,4,0c0,0.3,0,0.7,0.1,0.7c0.6,0.2,0.8-0.2,0.9-0.7c9,0,18,0,27,0
			c0.3,0.2,0.6,0.5,0.9,0.7c0-0.2,0-0.5,0.1-0.7c1.7,0,3.3,0,5,0c0.8,1.7,0.8,1.7,2.8,2.1c32.9,6.1,59.8,22.1,80,48.8
			c14.7,19.3,23.3,41.1,25.4,65.4c0.1,1-0.8,3.1,1.8,2.7c0,6,0,12,0,18c-2-0.8-1.5,0.9-1.6,1.7c-0.5,3.3-0.8,6.6-1.3,9.9
			c-6.4,37.5-25.9,66.5-57.5,87.3c-17.5,11.5-37,17.7-58,19.4c-1,0.1-3.1-0.8-2.6,1.8c-5.3,0-10.7,0-16,0c0.7-0.5,0.6-1.2-0.1-1.4
			c-1.3-0.3-2.6-0.4-3.9-0.5c-17.6-1.6-34.3-6.4-49.6-15.1c-35.7-20.8-57.4-51.3-64.5-92C4.1,150.1,4.8,148,2.4,148.8z M195.5,213.6
			c-4.7-6.4-9.4-12.8-10.1-21c18.8-5.9,29.6-14.9,29.6-24.6c-27.4,6.8-51.5,0.9-62-15.2c1.3-0.3,2.6-0.8,3.9-1
			c18.6-3.5,36.1-10,52.7-19.1c4.3-2.4,8-5.5,10.3-9.9c2.2-4.4,2.3-8.7-1.3-12.4c-3.7-3.8-7.8-3.2-11.8-0.6c-2.1,1.4-3.9,1.2-6,0.1
			c-7.4-3.7-13.7-8.8-18.9-15.2c-5-6.1-8.5-13-9.8-21c13.8-6.2,27.8-6.5,42.1-3.3c-14.7-15.3-32.7-23.3-53.9-24.2
			c1.5-5.9,6.5-8.6,10-13.1c-18.4-1.8-33.6,4.2-47.7,14.8c-4.2-6.4-5.3-13.7-6.7-21.6c-11.8,6.6-16.4,17.7-21,29.2
			c-6.4-4.8-10-11.3-14.3-18.3c-8.1,10.8-10,22.9-10.5,35.7c-7.5-2.7-13.3-7.3-19.2-12.4c-4.7,12.4-2,23.8,3.1,35.5
			c-8.1,0.9-15.3-1.2-22.7-3.3c-1.4,13.5,5,22.9,14.8,30.7c-7.4,3.3-15.2,2.9-22.8,4.5c3.8,12.9,15.2,17.6,25,24
			c-5.8,5.9-12,10.1-19.2,13.7c9.1,8.8,20.3,11.8,31.7,14.4c-3.2,7.5-7.7,13.6-12,20.7c11,1,21.2,0.2,31.6-1.2
			c-1,9.1-3,17.6,0.3,26.2c9.4-4.2,17.6-9.5,26-14.9c1.6,10.7,5,19.9,15,25.6c3.1-8.2,6.2-16,12.8-22.1c6.5,8,12.7,15.7,23.5,18
			c1.4-8.5,0.6-16.9,4.6-24.3C178.6,215.6,187.1,217.1,195.5,213.6z"/>
		<path class="st0" d="M116.4,2.8c-0.1,0.5-0.3,0.9-0.9,0.7c-0.1,0-0.1-0.5-0.1-0.7C115.7,2.8,116.1,2.8,116.4,2.8z"/>
		<path class="st0" d="M144.4,2.8c0,0.2,0,0.5-0.1,0.7c-0.3-0.2-0.6-0.5-0.9-0.7C143.7,2.8,144.1,2.8,144.4,2.8z"/>
		<path class="st0" d="M2.4,115.8c0.3,0.1,0.6,0.2,0.9,0.3c-0.3,0.2-0.6,0.5-0.9,0.7C2.4,116.5,2.4,116.2,2.4,115.8z"/>
		<path class="st0" d="M2.4,144.8c0.3,0.2,0.6,0.5,0.9,0.7c-0.3,0.1-0.6,0.2-0.9,0.3C2.4,145.5,2.4,145.2,2.4,144.8z"/>
		<path class="st0" d="M166.1,76.7c5.1,18.8,17,31.4,34,39.6c3.3,1.6,6,3.6,6.2,7.7s-3,5.5-5.9,7.2c-15.2,8.6-31.9,12.8-49,15.6
			c-1.8,0.3-3.4,0.6-4.5-1.8c-10.2-21.7-9.9-51.5,17.7-68C165,76.9,165.4,76.9,166.1,76.7z M168.6,96.3c0,3.5-0.5,6.7-4.3,6.4
			c-4.8-0.3-4.2-4.5-4.4-7.8c-5.7,2.1-8.5,6-7.9,11.2c0.5,4.8,4,8.7,8.7,9.6c4.6,0.9,9.7-1.9,11.8-6.4
			C174.6,104.6,173.5,100.4,168.6,96.3z"/>
	</g>
</g>
<path class="st0" d="M131.6,0C58.9,0,0,58.9,0,131.6s58.9,131.6,131.6,131.6s131.6-58.9,131.6-131.6S204.3,0,131.6,0z M131.6,250.1
	c-65.4,0-118.5-53-118.5-118.5s53-118.5,118.5-118.5s118.5,53,118.5,118.5S197,250.1,131.6,250.1z"/>
</svg>
