<?xml version="1.0" encoding="utf-8"?>
<!-- Generator: Adobe Illustrator 28.0.0, SVG Export Plug-In . SVG Version: 6.00 Build 0)  -->
<svg version="1.1" id="Layer_1" xmlns="http://www.w3.org/2000/svg" xmlns:xlink="http://www.w3.org/1999/xlink" x="0px" y="0px"
	 viewBox="0 0 512 504.4" style="enable-background:new 0 0 512 504.4;" xml:space="preserve">
<style type="text/css">
	.st0{fill:#019639;}
</style>
<path class="st0" d="M116.9,294.4c0-32.5,14.4-124.8,17.5-124.8c8.4,16.1-9.6,123.1,11,126.9c15.3-0.6,7.9-113,16.7-126.9
	c9.2,14,1.3,125.1,17.2,126c19.1,1.2,5.2-122.7,11.8-126c10,8.6,16.9,98.7,16.2,124.8c-1.4,55.1-32,53.5-34.9,77.7
	c-2.3,17.9-3,36-2.2,54l71.2,71.2c2.2-110-4.6-106.7-5.7-114.5v-269c0-22.9,21.5-33.8,41.2,16.6s14.2,229.5,14.2,242.2
	c-3.7,13.1-16.5,9.5-22.8,29.8c-2.1,7-4.9,59.3-4.7,101.9l98.1-98.1c-2-52.6,0.1-43.3-24.1-66.3c-46.1-45.9-15.5-159.2,30.5-162.2
	c43,1.7,77.8,114.7,30.5,162.2c-25,20.4-22.4,23.2-23.8,53.1L512,256L256,0L0,256l153.8,153.8c0.1-16.1,0.4-40.7-7.6-50.8
	C137.8,348.3,117.8,333.7,116.9,294.4L116.9,294.4z"/>
</svg>
