<?xml version="1.0" encoding="utf-8"?>
<!-- Generator: Adobe Illustrator 28.0.0, SVG Export Plug-In . SVG Version: 6.00 Build 0)  -->
<svg version="1.1" id="Layer_1" xmlns="http://www.w3.org/2000/svg" xmlns:xlink="http://www.w3.org/1999/xlink" x="0px" y="0px"
	 viewBox="0 0 33 31.7" style="enable-background:new 0 0 33 31.7;" xml:space="preserve">
<style type="text/css">
	.st0{fill:#2E76FF;}
</style>
<path class="st0" d="M19.9,27.2c-0.8-1.7-1.2-4.1-1.3-6.9c0-1.2-0.1-3.1-0.1-5.7c0-1.2-0.1-2.5-0.1-3.9s-0.1-2.7-0.1-3.9
	s0-2.3-0.1-3.3c0-1,0-1.7,0-2.1v-1l-1.2-0.2c-0.4-0.2-0.7-0.2-0.9-0.2c-2.5,0-3.2,1.2-3.3,1.6v11.5c-0.7,0.2-2.1,0.5-5.5,0.6
	L7.2,3.1V2.9C7,1.9,6.3,1.6,5.8,1.4c-0.5,0-1.3-0.1-2.1,0.5C3.3,2.1,2.9,2.3,2.3,3.2L2,3.5v0.4C2,4.3,2,5,1.9,6c0,1-0.1,2.1-0.1,3.2
	s-0.1,2.2-0.1,3.2s-0.1,1.7-0.1,2.1c0,0.3-0.1,0.5-0.1,0.7c-0.1,0.3-0.4,0.6-0.7,1.1C0.3,16.8,0,17.5,0,18c0,0.7,0.4,1.4,1.1,1.7
	l1.2,12l5.5-3.5l-0.1-0.7c-0.4-2.2-0.5-4-0.5-5.6c0-1.2,0-2.1,0-2.9c1.1-0.4,1.9-0.6,2.8-0.7c0.5-0.1,0.9-0.1,1.3-0.1
	c0.3,0,0.5,0,1.1,0c0.1,4.2,0.7,7.7,1.5,10.4l0.3,1h1.3c1.3,0,2.7-0.3,3.9-0.9l1.1-0.5L19.9,27.2z"/>
</svg>
