<?xml version="1.0" encoding="utf-8"?>
<!-- Generator: Adobe Illustrator 28.0.0, SVG Export Plug-In . SVG Version: 6.00 Build 0)  -->
<svg version="1.1" id="Layer_1" xmlns="http://www.w3.org/2000/svg" xmlns:xlink="http://www.w3.org/1999/xlink" x="0px" y="0px"
	 viewBox="0 0 374 355.3" style="enable-background:new 0 0 374 355.3;" xml:space="preserve">
<style type="text/css">
	.st0{fill:#007C83;}
</style>
<path id="path4" class="st0" d="M55.6,21.7c-18.1-0.1-32.8,14.6-32.8,32.6c0,0.1,0,0.1,0,0.2v164.2c0,18.1,14.7,32.8,32.8,32.8H187
	v82.1l49.3-49.3l49.3,49.3v-82.1h32.8c18.1,0,32.8-14.7,32.8-32.8V54.5c0-18.1-14.7-32.8-32.8-32.8H55.6 M187,54.5l49.3,32.8
	l49.3-32.8V112l49.3,24.7l-49.3,24.6v57.5L236.3,186L187,218.8v-57.5l-49.3-24.6L187,112V54.5 M55.6,54.5h82.1v32.8H55.6V54.5
	 M55.6,120.2h49.3V153H55.6V120.2 M55.6,186h82.1v32.8H55.6V186z"/>
</svg>
