<?xml version="1.0" encoding="utf-8"?>
<!-- Generator: Adobe Illustrator 28.0.0, SVG Export Plug-In . SVG Version: 6.00 Build 0)  -->
<svg version="1.1" id="Layer_1" xmlns="http://www.w3.org/2000/svg" xmlns:xlink="http://www.w3.org/1999/xlink" x="0px" y="0px"
	 viewBox="0 0 24 24" style="enable-background:new 0 0 24 24;" xml:space="preserve">
<style type="text/css">
	.st0{fill:#8BC34A;}
</style>
<path class="st0" d="M11,7.5v5.1l4.7,2.8l0.8-1.3l-4-2.4V7.5 M12.5,2.5C9,2.5,5.9,4.4,4.3,7.3L2,5v6.5h6.5L5.8,8.8
	C7,6.2,9.5,4.5,12.5,4.5c4.1,0,7.5,3.4,7.5,7.5s-3.4,7.5-7.5,7.5c-3.3,0-6-2.1-7.1-5H3.3c1.1,4,4.8,7,9.2,7c5.2,0,9.5-4.2,9.5-9.5
	C22,6.8,17.7,2.5,12.5,2.5z"/>
</svg>
