<?xml version="1.0" encoding="utf-8"?>
<!-- Generator: Adobe Illustrator 28.0.0, SVG Export Plug-In . SVG Version: 6.00 Build 0)  -->
<svg version="1.1" id="Layer_1" xmlns="http://www.w3.org/2000/svg" xmlns:xlink="http://www.w3.org/1999/xlink" x="0px" y="0px"
	 viewBox="0 0 512 512" style="enable-background:new 0 0 512 512;" xml:space="preserve">
<style type="text/css">
	.st0{fill-rule:evenodd;clip-rule:evenodd;fill:#2E76FF;}
</style>
<path class="st0" d="M125.7,449.2h77.5c55.4-0.3,99-21.5,132.2-63.4c16.3-20.8,32.5-51.2,48.1-91.4h89.7v-77.2h-58.9
	c12.1-26.7,24.9-45.7,38.1-57.1C468,146.6,487.8,140,512,140V62.8c-55,0-99.7,21.1-133.3,63c-11.8,14.9-22.8,33.2-32.9,55.4
	c-6.2,12.8-14.5,33.6-25.3,60.9c-18,47.4-33.2,79.6-46,95.5c-17.3,22.5-41.2,33.9-71.7,34.3h-77.2c-16.3,0-28.7-4.2-37-12.5
	c-7.3-6.9-11.1-15.6-11.1-26.3c0-10.7,3.8-19.4,11.1-26.3c8.3-8.3,20.8-12.5,37-12.5h77.2v-77.2h-77.2c-38.1,0-68.9,12.1-92.4,35.7
	C11.4,274.7,0,301.3,0,333.2c0,31.8,11.4,58.5,33.2,80.3C56.8,437.4,87.6,449.2,125.7,449.2L125.7,449.2z"/>
</svg>
