<?xml version="1.0" encoding="utf-8"?>
<!-- Generator: Adobe Illustrator 28.0.0, SVG Export Plug-In . SVG Version: 6.00 Build 0)  -->
<svg version="1.1" id="Layer_1" xmlns="http://www.w3.org/2000/svg" xmlns:xlink="http://www.w3.org/1999/xlink" x="0px" y="0px"
	 viewBox="0 0 1046 1024" style="enable-background:new 0 0 1046 1024;" xml:space="preserve">
<style type="text/css">
	.st0{fill:#999999;}
	.st1{fill:#FFF200;}
</style>
<path class="st0" d="M296,768l-119,69l-70-70l64-120c-6-11.3-11.5-22.8-16.5-34.5S145.3,589,142,577L11,542V442l130-38
	c3.3-12.7,7.3-24.8,12-36.5s10.3-22.8,17-33.5l-66-118l70-71l119,67c11.3-6.7,22.8-12.3,34.5-17s23.5-8.7,35.5-12l36-133h101l37,136
	c11.3,3.3,22.3,7.3,33,12s21,9.7,31,15l124-71l71,71l-71,126c9.3,16.7,17,34.3,23,53s10.3,38,13,58H636c-6.7-31.3-19.7-58.7-39-82
	c-20-23.3-43.3-41.3-70-54c-26.7-12.7-55.7-18.7-87-18s-61.3,9.3-90,26c-32.7,18.7-57,43-73,73s-24,61.3-24,94s8,64,24,94
	s40.3,54.3,73,73c25.3,15.3,48,24.2,68,26.5s41.7-1.5,65-11.5v96l-90,54l-39.5-21.5C353.5,799.5,334.3,789,296,768L296,768z"/>
<path class="st1" d="M563,870c-16,5.3-30.7,5.5-44,0.5c-13.3-5-26.3-19.2-39-42.5l-74,45c15.3,37.3,45,62.7,89,76s85.3,9.3,124-12
	c26-17.3,42.5-37.8,49.5-61.5s10.2-62.8,9.5-117.5V508h-91v286c0.7,16.7-0.2,32.5-2.5,47.5S575,866,563,870L563,870z"/>
<path class="st1" d="M977,933c21.3-12,37.5-29.5,48.5-52.5s13.2-49.5,6.5-79.5c-5.3-28.7-17.3-51-36-67
	c-19.3-16-39.8-29.2-61.5-39.5S892.7,675.3,874,668s-30.3-17-35-29c-10-33.3,0.7-52.2,32-56.5s53.3,8.5,66,38.5l71-45
	c-12.7-24.7-29.7-42.7-51-54c-22-11.3-44.7-17.7-68-19s-45.3,2-66,10c-21.3,8-37.7,19.3-49,34c-22.7,26-31.5,57.8-26.5,95.5
	S769,708.3,797,727c27.3,20.7,57.2,36,89.5,46s51.2,24.7,56.5,44c4.7,23.3-1.8,39.3-19.5,48s-37.5,11.3-59.5,8
	c-16.7-3.3-30.2-9.3-40.5-18S803,834.7,793,820l-73,42c12,24.7,28.7,44.3,50,59c21.3,14,44.2,23.7,68.5,29s48.8,6.7,73.5,4
	C936.7,950.7,958.3,943.7,977,933L977,933z"/>
</svg>
