<?xml version="1.0" encoding="utf-8"?>
<!-- Generator: Adobe Illustrator 28.0.0, SVG Export Plug-In . SVG Version: 6.00 Build 0)  -->
<svg version="1.1" id="Layer_1" xmlns="http://www.w3.org/2000/svg" xmlns:xlink="http://www.w3.org/1999/xlink" x="0px" y="0px"
	 viewBox="0 0 1101.1 876.1" style="enable-background:new 0 0 1101.1 876.1;" xml:space="preserve">
<style type="text/css">
	.st0{fill:#666699;}
	.st1{fill:#2E76FF;}
</style>
<path class="st0" d="M357,746l35,121h105V621c-24.7,8.7-50.8,12-78.5,10S364,620.7,338,606c-32-18.7-56-43-72-73s-24-61.3-24-94
	s8-64,24-94s40-54.3,72-73c29.3-16.7,59.3-25.3,90-26c31.3,0,60.3,6.2,87,18.5c26.7,12.3,50,30.2,70,53.5c19.3,24,32.3,51.3,39,82
	h125c-2.7-20-7-39.3-13-58s-13.7-36.3-23-53l71-126l-71-70l-124,71c-10-6-20.3-11.2-31-15.5s-21.3-8.2-32-11.5L488,0H388l-37,134
	c-11.3,3.3-22.8,7.3-34.5,12s-23.2,10-34.5,16L163,96l-70,70l65,118c-6,11.3-11.3,22.8-16,34.5s-8.7,23.5-12,35.5L0,392v100l131,35
	c3.3,12,7.3,23.8,12,35.5s10.3,22.8,17,33.5L96,716l70,71l119-69c12,6,24,11.3,36,16S345,742.7,357,746L357,746z"/>
<g>
	<g>
		<path class="st1" d="M572.9,528.2H459.2v-80h324.2v80H668.1v341.3h-95.2L572.9,528.2L572.9,528.2z"/>
		<path class="st1" d="M831.6,771.2c25.2,13.5,64.9,26.5,105.6,26.5c43.7,0,66.9-18.2,66.9-45.9c0-25.9-20.1-41.1-70.5-58.9
			c-70.3-24.9-116.2-63.2-116.2-124.8c0-71.8,60.3-126.4,159.3-126.4c48,0,82.7,9.5,107.6,21.2l-21,76.4c-16.7-8-47-20-87.9-20
			c-41.5,0-61.3,19.2-61.3,40.7c0,26.8,23.3,38.6,78,59.2c74.6,27.9,109.1,66.6,109.1,126.1c0,70.3-53.9,130.7-169.8,130.7
			c-47.7,0-95.5-13-119-26.2L831.6,771.2z"/>
	</g>
</g>
</svg>
