<?xml version="1.0" encoding="utf-8"?>
<!-- Generator: Adobe Illustrator 28.0.0, SVG Export Plug-In . SVG Version: 6.00 Build 0)  -->
<svg version="1.1" id="Layer_1" xmlns="http://www.w3.org/2000/svg" xmlns:xlink="http://www.w3.org/1999/xlink" x="0px" y="0px"
	 viewBox="0 0 1045 1024" style="enable-background:new 0 0 1045 1024;" xml:space="preserve">
<style type="text/css">
	.st0{fill:#00A7F8;}
	.st1{fill:#999999;}
</style>
<polygon class="st0" points="757,579 635,579 635,959 567,959 567,579 445,579 445,516 757,516 757,579 "/>
<path class="st0" d="M1025,797c-21.3-42.7-52-70.8-92-84.5s-67.3-33.8-82-60.5c-16-44-0.3-69.8,47-77.5s87.3,3.2,120,32.5v-79
	c-14-8.7-30.7-14-50-16s-36.7-2.7-52-2c-40.7,2.7-73.3,14.8-98,36.5s-37,50.2-37,85.5c-1.3,48.7,18.7,83.2,60,103.5
	s76,41.8,104,64.5c19.3,16,26.2,38,20.5,66s-31.8,40.3-78.5,37c-15.3-2-32.2-5.7-50.5-11s-36.8-18.3-55.5-39v84
	c34,22.7,75.2,32.2,123.5,28.5s82.8-18.8,103.5-45.5c12.7-16,20.8-34.5,24.5-55.5C1036.2,843.5,1033.7,821,1025,797L1025,797z"/>
<path class="st1" d="M368,796l35,121h105V671c-24.7,8.7-50.8,12-78.5,10S375,670.7,349,656c-32-18.7-56-43-72-73s-24-61.3-24-94
	s8-64,24-94s40-54.3,72-73c29.3-16.7,59.3-25.3,90-26c31.3,0,60.3,6.2,87,18.5c26.7,12.3,50,30.2,70,53.5c19.3,24,32.3,51.3,39,82
	h125c-2.7-20-7-39.3-13-58s-13.7-36.3-23-53l71-126l-71-70l-124,71c-10-6-20.3-11.2-31-15.5s-21.3-8.2-32-11.5L499,50H399l-37,134
	c-11.3,3.3-22.8,7.3-34.5,12s-23.2,10-34.5,16l-119-66l-70,70l65,118c-6,11.3-11.3,22.8-16,34.5s-8.7,23.5-12,35.5L11,442v100
	l131,35c3.3,12,7.3,23.8,12,35.5s10.3,22.8,17,33.5l-64,120l70,71l119-69c12,6,24,11.3,36,16S356,792.7,368,796L368,796z"/>
</svg>
