<?xml version="1.0" encoding="utf-8"?>
<!-- Generator: Adobe Illustrator 28.0.0, SVG Export Plug-In . SVG Version: 6.00 Build 0)  -->
<svg version="1.1" id="Layer_1" xmlns="http://www.w3.org/2000/svg" xmlns:xlink="http://www.w3.org/1999/xlink" x="0px" y="0px"
	 viewBox="0 0 33 32" style="enable-background:new 0 0 33 32;" xml:space="preserve">
<style type="text/css">
	.st0{fill:#5C8DBC;}
</style>
<path class="st0" d="M19.9,22.8v3.4c-1.1,0.7-2.2,1.3-3.5,1.7s-2.5,0.6-3.8,0.6s-2.5-0.1-3.7-0.3s-2.3-0.7-3.2-1.3
	c-0.8-0.5-1.5-1.1-2.1-1.7s-1.2-1.5-1.6-2.4s-0.8-1.9-1.1-3S0.3,17.4,0.3,16c0-1.5,0.2-2.9,0.5-4.2s0.8-2.4,1.4-3.4s1.3-1.8,2.2-2.5
	s1.8-1.3,2.9-1.7C8,3.9,8.9,3.7,9.9,3.6s2.1-0.2,3.3-0.1s2.3,0.3,3.5,0.7s2.2,0.9,3.2,1.6v3.5c-1.4-1.3-3-2.2-4.9-2.7
	s-3.7-0.5-5.3,0s-3.1,1.5-4.3,3S3.7,13.2,3.8,16c-0.1,2.8,0.4,4.9,1.6,6.5c1.1,1.6,2.6,2.6,4.2,3.1s3.5,0.5,5.3,0
	S18.5,24.1,19.9,22.8L19.9,22.8L19.9,22.8z M15.9,11.2v4.2h4.2v1.3h-4.2v4.2h-1.3v-4.2h-4.2v-1.3h4.2v-4.2H15.9z M28.1,11.2v4.2h4.2
	v1.3h-4.2v4.2h-1.2v-4.2h-4.2v-1.3h4.2v-4.2H28.1z"/>
</svg>
