<?xml version="1.0" encoding="utf-8"?>
<!-- Generator: Adobe Illustrator 28.0.0, SVG Export Plug-In . SVG Version: 6.00 Build 0)  -->
<svg version="1.1" id="Layer_1" xmlns="http://www.w3.org/2000/svg" xmlns:xlink="http://www.w3.org/1999/xlink" x="0px" y="0px"
	 viewBox="0 0 33 32" style="enable-background:new 0 0 33 32;" xml:space="preserve">
<style type="text/css">
	.st0{fill:#A179DC;}
</style>
<g>
	<path class="st0" d="M17,18c0-0.5,0.4-0.7,1.2-0.7c0.3,0,0.7,0,1,0.1c0.3,0.1,0.5,0.1,0.6,0.1v-2.2c-0.3,0-0.7,0-1.2-0.1
		c-0.6-0.1-1-0.1-1.3-0.2c-0.3,0-0.5-0.1-0.6-0.1c-0.3-0.1-0.4-0.3-0.4-0.4c0-0.1,0.1-0.3,0.4-0.4c0.1,0,0.3-0.1,0.6-0.1
		s0.6-0.1,0.9-0.2c0.9-0.1,1.4-0.2,1.6-0.2v-2.9c0-0.2,0.1-0.4,0.4-0.4c0.2,0,0.4-0.1,0.6-0.1c0.1,0,0.3,0,0.6,0.1
		c0.2,0,0.3,0.2,0.3,0.4v2.7l2.7-0.3V9.8h1.4l0.9,3.4h4.8c0,0.9-0.7,1.4-2,1.4c-0.5,0-1.1,0-1.7-0.1c-0.6-0.1-1-0.1-1.1-0.1v2.6
		c1.1,0,2.2-0.1,3.2-0.2c1-0.1,2.1-0.2,3.2-0.2v0.5c0,0.5-1.5,0.9-4.4,1.1c-0.5,0-0.9,0.1-1.3,0.1c-0.4,0-0.6,0.1-0.7,0.1
		c0,0.5-0.1,1-0.1,1.4c0,0.4-0.1,0.7-0.2,1c-0.3,0.5-0.9,0.7-1.9,0.7v-2.5c-0.4,0-0.8-0.1-1.2-0.1s-0.7,0-1,0.1
		c-0.3,0.1-0.5,0.2-0.6,0.4c-0.1,0.2-0.1,0.4,0,0.7c0.1,0.3,0.2,0.5,0.3,0.7c0.1,0.2,0,0.4-0.1,0.6c-0.1,0.2-0.5,0.3-1,0.3h-0.2
		c-0.1,0-0.2,0-0.2,0c-0.1-1.6-0.6-2.6-1.7-3c-0.4-0.1-0.8-0.2-1.1-0.2C17.2,18.3,17,18.2,17,18z M24.7,14.7
		c-0.1-0.1-0.2-0.2-0.3-0.2c-0.1,0-0.2,0-0.4,0s-0.4,0-0.6,0c-0.3,0-0.5,0.1-0.8,0.1c-0.6,0.1-1,0.2-1,0.3v2.7
		c1.1,0,1.8-0.1,2.2-0.2c0.7-0.3,1-0.8,1-1.7C24.8,15.1,24.8,14.8,24.7,14.7z"/>
</g>
<g>
	<path class="st0" d="M11.5,32.1c-1.8,0-3.3-0.2-4.5-0.7c-1.3-0.5-2.3-1.1-3.2-1.9c-0.9-0.8-1.6-1.7-2.1-2.6c-0.5-1-0.9-1.9-1.2-2.9
		c-0.3-1-0.5-1.9-0.6-2.7c-0.1-0.9-0.1-1.5-0.1-2.1c0-1.3,0.2-2.6,0.5-3.9c0.3-1.4,0.7-2.7,1.2-3.9s1-2.4,1.6-3.4S4.4,6,5,5.4
		C5.4,5,5.9,4.5,6.4,3.9s1.1-1.2,1.7-1.7c0.6-0.6,1.3-1,2-1.4c0.7-0.4,1.4-0.6,2.1-0.6c0.4,0,1.1,0.1,1.9,0.4
		c0.8,0.3,1.6,0.7,2.4,1.3c0.8,0.6,1.5,1.4,2.2,2.4c0.7,1,1.1,2.2,1.3,3.5c0,0-0.1,0.1-0.1,0.1S19.7,8,19.6,8.1c0,0.4,0,0.6,0,0.8
		c-0.1-0.1-0.2-0.3-0.2-0.4c-0.5,0.8-1.1,1.2-1.7,1.2c-0.5,0-0.9-0.2-1.4-0.7c0,0.2-0.1,0.3-0.2,0.5c-0.1,0.2-0.1,0.3-0.2,0.5
		c-1.6,0-3-1.3-4-3.9c-0.1-0.3-0.3-0.5-0.4-0.6s-0.3-0.2-0.5-0.2c-0.4,0-0.7,0.2-0.8,0.5C9.9,6.6,9.5,7.4,9,8.3s-0.9,1.7-1.2,2.5
		c-0.4,0.9-0.7,1.8-0.9,2.8c-0.2,1-0.4,2-0.4,3c0,0.9,0.1,1.9,0.3,2.8c0.2,1,0.5,2,1,3.2h0.4c0.3,1,0.8,1.8,1.3,2.4
		c0.5,0.6,1.1,1,1.7,1.3c0.6,0.3,1.2,0.4,1.9,0.5c0.7,0.1,1.3,0.1,2,0.1c0.6,0,1.2-0.1,1.8-0.3c0.6-0.2,1.2-0.4,1.8-0.7
		c0.6-0.3,1.1-0.7,1.6-1.1c0.5-0.4,0.9-0.8,1.3-1.2c0-0.1,0-0.2,0.1-0.2s0.1,0,0.1,0c0,0,0,0,0.1,0c0.1,0,0.1-0.1,0.2-0.2
		c0,0.1,0,0.2,0,0.3s0,0.3,0,0.4c0.1,0,0.2-0.1,0.4-0.1c0.1,0,0.3,0,0.4,0c0.4,0,0.8,0.1,1.1,0.4c0.3,0.2,0.6,0.8,0.8,1.6
		c-0.9,1.4-1.9,2.5-3,3.4c-1.1,0.8-2.2,1.5-3.4,1.9c-1.2,0.4-2.3,0.7-3.5,0.9S12.6,32.1,11.5,32.1z"/>
</g>
</svg>
