<?xml version="1.0" encoding="utf-8"?>
<!-- Generator: Adobe Illustrator 28.0.0, SVG Export Plug-In . SVG Version: 6.00 Build 0)  -->
<svg version="1.1" id="Layer_1" xmlns="http://www.w3.org/2000/svg" xmlns:xlink="http://www.w3.org/1999/xlink" x="0px" y="0px"
	 viewBox="0 0 33 32" style="enable-background:new 0 0 33 32;" xml:space="preserve">
<style type="text/css">
	.st0{fill:#A179DC;}
</style>
<path class="st0" d="M29,9.7V4.8h1v4.6l2.3-0.6v2.6L30,12v6.3l2.3-0.6v2.6L30,20.8v4.5h-1v-4.3l-4.6,1.2v4.9h-1.1v-4.6L21,23.2v-2.6
	l2.3-0.6v-6.2L21,14.4v-2.6l2.3-0.6V6.6h1.1v4.3L29,9.7z M24.4,13.5v6.2l4.6-1.2v-6.2L24.4,13.5z M0.4,17.7c0.2,1.9,0.7,3.4,1.3,4.6
	c0.6,1.2,1.4,2.1,2.3,2.8c0.9,0.7,1.8,1.1,2.9,1.4c1,0.3,2.1,0.4,3.1,0.4c1.1,0.1,2.1,0,3.1-0.3c1-0.3,1.9-0.8,2.7-1.4
	c0.8-0.6,1.5-1.4,2-2.3s1-1.9,1.2-3l-2.8-0.7c-0.4,1.6-1,2.8-1.8,3.6c-0.8,0.8-1.7,1.4-2.7,1.6s-2,0.2-3,0c-1-0.2-1.9-0.6-2.6-1
	c-1.1-0.6-1.9-1.8-2.4-3.4s-0.7-3.3-0.5-5.1c0.1-1.8,0.6-3.3,1.5-4.8s2.1-2.3,3.8-2.5c2.3-0.5,4-0.2,5.1,0.8s1.9,2.2,2.3,3.5
	l2.8-0.7c-0.5-1.8-1.4-3.1-2.5-4.2s-2.6-1.7-4.5-1.9C9.7,4.9,8,5,6.5,5.6S3.8,7,2.8,8.1s-1.7,2.5-2.1,4.2S0.2,15.7,0.4,17.7
	L0.4,17.7L0.4,17.7z"/>
</svg>
