<?xml version="1.0" encoding="utf-8"?>
<!-- Generator: Adobe Illustrator 28.0.0, SVG Export Plug-In . SVG Version: 6.00 Build 0)  -->
<svg version="1.1" id="Layer_1" xmlns="http://www.w3.org/2000/svg" xmlns:xlink="http://www.w3.org/1999/xlink" x="0px" y="0px"
	 viewBox="0 0 24 24" style="enable-background:new 0 0 24 24;" xml:space="preserve">
<style type="text/css">
	.st0{fill-rule:evenodd;clip-rule:evenodd;fill:#38EF7D;}
</style>
<path class="st0" d="M12,0C5.4,0,0,5.4,0,12c0,6.6,5.4,12,12,12c0,0,0,0,0,0c6.6,0,12-5.4,12-12C24,5.4,18.6,0,12,0z M6.4,14.6
	c0.4,0.5,0.9,0.7,1.7,0.7c0.4,0,0.7,0,1-0.2c0.3-0.1,0.7-0.3,1.1-0.6l1.2,1.7c-1,0.8-2.1,1.2-3.4,1.2c-1,0-1.9-0.2-2.7-0.7
	c-0.8-0.4-1.4-1.1-1.7-1.9c-0.4-0.8-0.6-1.8-0.6-2.9c0-1.1,0.2-2.1,0.6-2.9c0.4-0.8,1-1.5,1.7-2c0.7-0.5,1.7-0.7,2.7-0.7
	c0.7,0,1.4,0.1,1.9,0.3c0.6,0.2,1.1,0.6,1.6,1l-1.2,1.7c-0.3-0.2-0.6-0.4-1-0.6c-0.3-0.1-0.7-0.2-1-0.2c-1.5,0-2.2,1.1-2.2,3.4
	C5.8,13.2,6,14,6.4,14.6L6.4,14.6L6.4,14.6z M18.4,17.3c-0.4,1.4-1.1,2.4-2,3.1c-0.9,0.7-2.1,1.1-3.7,1.3l-0.3-2
	c1-0.1,1.7-0.4,2.2-0.7c0.2-0.1,0.5-0.5,0.5-0.5L11.5,6.8h3l2.1,8.7l2.2-8.7h2.9L18.4,17.3z"/>
</svg>
