<?xml version="1.0" encoding="utf-8"?>
<!-- Generator: Adobe Illustrator 28.0.0, SVG Export Plug-In . SVG Version: 6.00 Build 0)  -->
<svg version="1.1" id="Layer_1" xmlns="http://www.w3.org/2000/svg" xmlns:xlink="http://www.w3.org/1999/xlink" x="0px" y="0px"
	 viewBox="0 0 28 26.5" style="enable-background:new 0 0 28 26.5;" xml:space="preserve">
<style type="text/css">
	.st0{fill:#646464;}
	.st1{fill:#5A9FD4;}
	.st2{fill:#FFD43B;}
</style>
<path class="st0" d="M14.6,0C10.6-0.2,6.8,1.2,3.9,3.9c-2.5,2.3-3.9,5.6-3.8,9c-0.1,3.5,1.2,6.9,3.6,9.4c2.6,2.8,6.3,4.2,10.9,4.2
	c4.7,0,8.4-1.4,11.1-4.2c0.7-0.7,1.3-1.5,1.8-2.4h-5.4c-1.4,2.6-3.9,3.9-7.3,3.9c-2.8,0.2-5.5-1.2-7-3.7c-1.3-2.2-1.9-4.8-1.8-7.3
	c0-6.4,2.9-9.7,8.7-10c3.2,0.1,5.5,1.2,7,3.3c0.3,0.4,0.5,0.8,0.8,1.3H28c-0.7-1.4-1.6-2.6-2.7-3.6C22.4,1.2,18.5-0.2,14.6,0z"/>
<path id="path1948" class="st1" d="M14.8,4.9c-0.6,0-1.3,0.1-1.9,0.2c-1.7,0.3-2,0.9-2,2.1v1.5h4v0.5H9.3c-1.2,0-2.3,0.8-2.5,2
	c-0.4,1.3-0.4,2.7,0,4.1c0.3,1.2,1,2,2.1,2h1.4v-1.8c0-1.4,1.1-2.5,2.5-2.5h4c1.1,0,2-0.9,2-2c0,0,0,0,0,0V7.1c-0.1-1.1-0.9-2-2-2.1
	C16.2,4.9,15.5,4.8,14.8,4.9z M12.6,6.1c0.4,0,0.8,0.3,0.8,0.8c0,0.4-0.3,0.8-0.8,0.8c-0.4,0-0.8-0.3-0.8-0.8c0,0,0,0,0,0
	C11.8,6.4,12.2,6.1,12.6,6.1z"/>
<path id="path1950" class="st2" d="M19.4,9.1v1.8c0,1.4-1.1,2.5-2.5,2.5h-4c-1.1,0-2,0.9-2,2v3.8c0,1.1,0.9,1.7,2,2
	c1.3,0.4,2.7,0.4,4,0c1-0.3,2-0.9,2-2v-1.5h-4v-0.5h6c1.2,0,1.6-0.8,2-2c0.4-1.3,0.4-2.8,0-4.1c-0.3-1.2-0.8-2-2-2H19.4z M17.1,18.8
	c0.4,0,0.8,0.3,0.8,0.8s-0.3,0.8-0.8,0.8s-0.8-0.3-0.8-0.8c0,0,0,0,0,0C16.4,19.2,16.7,18.8,17.1,18.8
	C17.1,18.8,17.1,18.8,17.1,18.8L17.1,18.8z"/>
</svg>
