<?xml version="1.0" encoding="utf-8"?>
<!-- Generator: Adobe Illustrator 28.0.0, SVG Export Plug-In . SVG Version: 6.00 Build 0)  -->
<svg version="1.1" id="Layer_1" xmlns="http://www.w3.org/2000/svg" xmlns:xlink="http://www.w3.org/1999/xlink" x="0px" y="0px"
	 viewBox="0 0 424 287.9" style="enable-background:new 0 0 424 287.9;" xml:space="preserve">
<style type="text/css">
	.st0{fill:#DB5555;}
</style>
<g>
	<g>
		<path class="st0" d="M263.8,48.5c10.7-9.2,23-15.2,36.9-18c34.7-6.9,73,10.2,86.1,44.3c9.1,23.7,1.8,53-17.6,70.2
			c-15.6,13.8-33.9,20.1-54.5,20c-3.2,0-4.2,0.8-4.6,4.1c-2.9,24.2-13.2,45.1-29.5,63.1c-23.9,26.3-54.7,39.6-88.6,47
			c-30.9,6.7-62.2,8.4-93.6,8.5c-25.6,0.1-51.3,0.6-76.9-0.6c-4.7-0.2-9.3-0.8-13.7-2c-5-1.4-7.8-4.7-7.7-10.2
			c0.1-6.3,0.1-12.6,0.1-19c0-76.1,0-152.3,0-228.4c0-3.3,0-6.6,0.6-9.9C2.5,9,5.9,6,14.7,4.9C23,3.9,31.3,4,39.6,4
			c27.3,0,54.7-0.4,82,0.2c33.4,0.7,66.3,5,97.6,17.7c15.6,6.3,30,14.5,42.8,25.4C262.5,47.7,263.1,48,263.8,48.5z M87.4,227.9
			c11.1,0,21.9,0.3,32.7-0.1c17.4-0.7,34.7-2.5,51.4-7.9c20.2-6.6,37.1-17.4,46.1-37.6c6.1-13.7,7-28.1,5.6-42.9
			c-2.9-31.6-18.4-54.1-48-66.3c-15.5-6.4-31.8-9-48.3-9.8c-13.1-0.6-26.2-0.1-39.5-0.1C87.4,118.1,87.4,172.7,87.4,227.9z"/>
		<path class="st0" d="M400.2,43.2c-13.2,0-23.8-9.4-24-21.3C376,10,386.7,0.1,399.7,0C413.2-0.1,424,9.6,424,21.6
			C424,33.5,413.4,43.2,400.2,43.2z"/>
	</g>
</g>
</svg>
