<?xml version="1.0" encoding="utf-8"?>
<!-- Generator: Adobe Illustrator 28.0.0, SVG Export Plug-In . SVG Version: 6.00 Build 0)  -->
<svg version="1.1" id="Layer_1" xmlns="http://www.w3.org/2000/svg" xmlns:xlink="http://www.w3.org/1999/xlink" x="0px" y="0px"
	 viewBox="0 0 19.9 21.2" style="enable-background:new 0 0 19.9 21.2;" xml:space="preserve">
<style type="text/css">
	.st0{fill:#FFF200;}
</style>
<g>
	<path class="st0" d="M2.5,13.3c2.4,0.8,4.9,1.2,7.5,1.2c2.5,0.1,5.1-0.4,7.4-1.2c1.9-0.7,2.5-1.5,2.5-2V7.7
		c-0.7,0.4-1.3,0.8-2.1,1.1c-2.5,0.9-5.2,1.3-7.9,1.3c-2.7,0-5.4-0.4-7.9-1.3C1.4,8.5,0.7,8.1,0,7.7v3.6C0,11.7,0.7,12.5,2.5,13.3z"
		/>
	<path class="st0" d="M10,21.2c5.5,0,10-1.7,10-3.9v-2.8c-0.5,0.3-1,0.5-1.5,0.8l-0.2,0.1c-2.7,1-5.5,1.4-8.3,1.4
		c-2.8,0.1-5.6-0.4-8.3-1.4l-0.2-0.1C1,15,0.5,14.7,0,14.5v2.8C0,19.4,4.5,21.2,10,21.2z"/>
	<ellipse class="st0" cx="10" cy="3.9" rx="10" ry="3.9"/>
</g>
</svg>
