<?xml version="1.0" encoding="utf-8"?>
<!-- Generator: Adobe Illustrator 28.0.0, SVG Export Plug-In . SVG Version: 6.00 Build 0)  -->
<svg version="1.1" id="Layer_1" xmlns="http://www.w3.org/2000/svg" xmlns:xlink="http://www.w3.org/1999/xlink" x="0px" y="0px"
	 viewBox="0 0 20 22" style="enable-background:new 0 0 20 22;" xml:space="preserve">
<style type="text/css">
	.st0{fill:#2E76FF;}
</style>
<path class="st0" d="M20,13.4v4.1C20,20,15.5,22,10,22S0,20,0,17.5v-4.1c0,2.5,4.5,4.5,10,4.5S20,15.9,20,13.4L20,13.4z M20,6.7v4.1
	c0,2.5-4.5,4.5-10,4.5s-10-2-10-4.5V6.7c0,2.5,4.5,4.5,10,4.5S20,9.2,20,6.7z M10,0c5.5,0,10,1.9,10,4.3c0,2.4-4.5,4.3-10,4.3
	S0,6.7,0,4.3C0,1.9,4.5,0,10,0z"/>
</svg>
