<?xml version="1.0" encoding="utf-8"?>
<!-- Generator: Adobe Illustrator 28.0.0, SVG Export Plug-In . SVG Version: 6.00 Build 0)  -->
<svg version="1.1" id="Layer_1" xmlns="http://www.w3.org/2000/svg" xmlns:xlink="http://www.w3.org/1999/xlink" x="0px" y="0px"
	 viewBox="0 0 37.1 41.3" style="enable-background:new 0 0 37.1 41.3;" xml:space="preserve">
<style type="text/css">
	.st0{fill:#666699;}
</style>
<path class="st0" d="M34.8,24.6c-1.2-0.7-3.3-1.5-6.6-2.3c-2.6-0.7-3.9-1.2-4.5-1.5c0.6-0.3,1.7-0.7,3.8-1.3c3.4-0.9,5.7-1.7,7-2.4
	c2.1-1.2,2.6-2.9,2.6-4.1c0-3-1.8-4.8-4.7-4.8c-2.1,0-4.6,1.7-8,5.4c-1.8,1.9-2.8,2.7-3.4,3c0.1-0.8,0.4-2.3,1.2-5.7
	c1-4.2,1.2-5.4,1.2-5.9c0-3.2-1.8-5-4.8-5c-1.4,0-2.6,0.5-3.5,1.5s-1.4,2.1-1.4,3.3c0,0.6,0.1,1.7,1.1,5.2c0.9,3.7,1.3,5.5,1.3,6.5
	c-0.6-0.3-1.7-1.1-3.8-3.4C9,9.7,6.8,8.1,5,8.1c-2.9,0-4.7,1.8-4.7,4.7c0,1.7,0.7,3.1,2.1,3.9c1.1,0.7,3.1,1.4,6.2,2.2
	c2.9,0.7,4.3,1.3,4.9,1.7c-0.6,0.3-1.9,0.9-4.5,1.5c-3.1,0.8-5.2,1.5-6.5,2.2c-1.7,1-2.5,2.5-2.5,4.3c0,2.9,1.7,4.6,4.6,4.6
	c1.9,0,4.3-1.6,7.9-5.2c1.9-2,3.1-2.8,3.7-3.2c-0.1,0.6-0.3,1.8-1.1,4.5c-1.4,5-1.6,6.6-1.6,7.3c0,1.1,0.5,2.1,1.4,3.1
	s2.1,1.6,3.5,1.6s2.6-0.5,3.5-1.6c0.8-1,1.3-2.1,1.3-3.3c0-0.6-0.1-1.8-1-5.6c-0.8-3.4-1.1-5.1-1.1-6c0.6,0.4,1.7,1.3,3.7,3.3
	c3.3,3.6,5.8,5.2,7.8,5.2c1.3,0,2.5-0.5,3.4-1.5s1.3-2.1,1.3-3.3C37.1,27.4,36.7,25.8,34.8,24.6z"/>
</svg>
