<?xml version="1.0" encoding="utf-8"?>
<!-- Generator: Adobe Illustrator 28.0.0, SVG Export Plug-In . SVG Version: 6.00 Build 0)  -->
<svg version="1.1" id="Layer_1" xmlns="http://www.w3.org/2000/svg" xmlns:xlink="http://www.w3.org/1999/xlink" x="0px" y="0px"
	 viewBox="0 0 180 180" style="enable-background:new 0 0 180 180;" xml:space="preserve">
<style type="text/css">
	.st0{fill-rule:evenodd;clip-rule:evenodd;fill:#484848;}
</style>
<path class="st0" d="M90,0c49.7,0,90,40.3,90,90s-40.3,90-90,90S0,139.7,0,90S40.3,0,90,0z M72.7,130.8c5.1-1.4,10.4,1.7,11.8,6.8
	c1.4,5.1-1.7,10.4-6.8,11.8c-5.1,1.4-10.4-1.7-11.8-6.8C64.5,137.5,67.6,132.2,72.7,130.8z M124.7,29.5c1.8,0.5,2.9,2.4,2.4,4.3
	c-0.5,1.8-2.4,2.9-4.2,2.4l-3.2-0.9c-0.6,4.7-3.7,30.8-2.4,45.7c-13.7,11.8-37.4,47.4-37.4,47.4L92.3,82c2.4-0.2,5.1-1.7,5.8-4.2
	c0.8-3.1-1-6.3-4.1-7.1c-3.1-0.8-6.3,1-7.1,4.1c-0.7,2.5,0.9,5.2,2.9,6.5l-12.4,46.4c0,0-3.3-40.8-8.7-59.7
	c8.7-11.3,19-36.2,20.8-40.7l-3.2-0.9c-1.8-0.5-2.9-2.4-2.4-4.3c0.5-1.8,2.4-2.9,4.2-2.4L124.7,29.5z"/>
</svg>
