<?xml version="1.0" encoding="utf-8"?>
<!-- Generator: Adobe Illustrator 28.0.0, SVG Export Plug-In . SVG Version: 6.00 Build 0)  -->
<svg version="1.1" id="Layer_1" xmlns="http://www.w3.org/2000/svg" xmlns:xlink="http://www.w3.org/1999/xlink" x="0px" y="0px"
	 viewBox="0 0 374 355.3" style="enable-background:new 0 0 374 355.3;" xml:space="preserve">
<style type="text/css">
	.st0{fill:#2E76FF;}
</style>
<path class="st0" d="M160.3,73.2h-53.4V13.5h53.4V73.2z M240.4,13.5v59.7H187V13.5H240.4z M160.3,103v59.7h-53.4V103H160.3z
	 M240.4,103v59.7H187V103H240.4z M80.1,103v59.7H26.7V103H80.1z M374,192.6c-11.1,12.4-24.5,18.7-40.1,18.7s-28.9-6.2-40.1-18.7
	c-11.1-12.4-16.7-27.3-16.7-44.8s5.6-32.3,16.7-44.8c11.1,12.4,16.7,27.3,16.7,44.8s-5.6,32.3-16.7,44.8
	c11.1-12.4,24.5-18.7,40.1-18.7C349.5,174,362.9,180.2,374,192.6z M0,192.6h293.9c0,32.9-18.6,66.1-55.9,99.3s-81,49.9-131.1,49.9
	H66.8c-18.4,0-34.1-7.3-47.2-21.9S0,287.8,0,267.3V192.6z M26.7,267.3c0,12.4,3.9,23,11.7,31.7s17.2,13.1,28.4,13.1
	s20.6-4.4,28.4-13.1s11.7-19.3,11.7-31.7c0-12.4-3.9-23-11.7-31.7S78,222.5,66.8,222.5s-20.6,4.4-28.4,13.1S26.7,254.8,26.7,267.3z
	 M80.1,252.3v29.9H53.4v-29.9L80.1,252.3L80.1,252.3z"/>
</svg>
