<?xml version="1.0" encoding="utf-8"?>
<!-- Generator: Adobe Illustrator 28.0.0, SVG Export Plug-In . SVG Version: 6.00 Build 0)  -->
<svg version="1.1" id="Layer_1" xmlns="http://www.w3.org/2000/svg" xmlns:xlink="http://www.w3.org/1999/xlink" x="0px" y="0px"
	 viewBox="0 0 256 256" style="enable-background:new 0 0 256 256;" xml:space="preserve">
<style type="text/css">
	.st0{fill:#82AAFF;}
	.st1{fill:#89DDFF;}
</style>
<path class="st0" d="M71.8,136.4V35.9c0-4.6-3.7-8.4-8.4-8.4S55,31.2,55,35.9v100.5H71.8z"/>
<path class="st1" d="M88.5,153.1H38.2c-4.6,0-8.4,3.7-8.4,8.4V195c0,4.6,3.7,8.4,8.4,8.4H55v16.8c0,4.6,3.7,8.4,8.4,8.4
	s8.4-3.7,8.4-8.4v-16.8h16.8c4.6,0,8.4-3.7,8.4-8.4v-33.5C96.9,156.9,93.1,153.1,88.5,153.1z"/>
<path class="st0" d="M138.8,52.6V35.9c0-4.6-3.7-8.4-8.4-8.4c-4.6,0-8.4,3.7-8.4,8.4v16.8H138.8z"/>
<path class="st1" d="M163.9,77.8c0-4.6-3.7-8.4-8.4-8.4h-50.2c-4.6,0-8.4,3.7-8.4,8.4v33.5c0,4.6,3.7,8.4,8.4,8.4H122v100.5
	c0,4.6,3.7,8.4,8.4,8.4c4.6,0,8.4-3.7,8.4-8.4V119.6h16.8c4.6,0,8.4-3.7,8.4-8.4V77.8z"/>
<path class="st0" d="M205.8,136.4V35.9c0-4.6-3.7-8.4-8.4-8.4s-8.4,3.7-8.4,8.4v100.5H205.8z"/>
<path class="st1" d="M222.5,153.1h-50.2c-4.6,0-8.4,3.7-8.4,8.4V195c0,4.6,3.7,8.4,8.4,8.4H189v16.8c0,4.6,3.7,8.4,8.4,8.4
	s8.4-3.7,8.4-8.4v-16.8h16.8c4.6,0,8.4-3.7,8.4-8.4v-33.5C230.9,156.9,227.1,153.1,222.5,153.1z"/>
</svg>
