<?xml version="1.0" encoding="utf-8"?>
<!-- Generator: Adobe Illustrator 28.0.0, SVG Export Plug-In . SVG Version: 6.00 Build 0)  -->
<svg version="1.1" id="Layer_1" xmlns="http://www.w3.org/2000/svg" xmlns:xlink="http://www.w3.org/1999/xlink" x="0px" y="0px"
	 viewBox="0 0 122.6 48.8" style="enable-background:new 0 0 122.6 48.8;" xml:space="preserve">
<style type="text/css">
	.st0{fill:url(#SVGID_1_);}
	.st1{fill:url(#SVGID_00000123414864495110843040000011880541221681215930_);}
	.st2{fill:#14559A;}
	.st3{fill:url(#SVGID_00000021828650834068711370000004171388730112812216_);}
	.st4{fill:#3092C4;}
	.st5{fill:#1969BC;}
	.st6{fill:url(#SVGID_00000172427684081485233210000014668129647730286986_);}
	.st7{fill:url(#SVGID_00000148624247857968814730000006962220687386956717_);}
	.st8{fill:url(#SVGID_00000000188219478333469130000002106308125046932651_);}
	.st9{fill:#2B74B1;}
	.st10{fill:#125A9E;}
	.st11{fill:url(#SVGID_00000072240867466611686370000010734478335335309702_);}
	.st12{fill:url(#SVGID_00000026127407671045841070000002986854365232449435_);}
	.st13{fill:#0D82CA;}
	.st14{fill:url(#SVGID_00000088096382940998043480000006198950735998530485_);}
	.st15{fill:#127BCA;}
	.st16{fill:url(#SVGID_00000034806417765518773930000017064533432387465146_);}
	.st17{fill:url(#SVGID_00000072990841573495651400000015807144164734555794_);}
	.st18{fill:#05A1E6;}
	.st19{fill:url(#SVGID_00000000912636295089271030000003129686382571917731_);}
	.st20{fill:url(#SVGID_00000081620881851349809770000016041847295864505772_);}
	.st21{fill:url(#SVGID_00000023263554109737464920000001949694891509883566_);}
	.st22{fill:#079AE1;}
	.st23{fill:#1E5CB3;}
	.st24{fill:#1D60B5;}
	.st25{fill:#175FAB;}
	.st26{fill:url(#SVGID_00000020370002910474717560000010130424324152662972_);}
	.st27{fill:#7DCBEC;}
	.st28{fill:#5EC5ED;}
	.st29{fill:url(#SVGID_00000158751807660393208580000008238634681031738526_);}
	.st30{fill:url(#SVGID_00000072960015330153841190000000687309059659790507_);}
	.st31{fill:url(#SVGID_00000020386210660534236360000008751112857155928503_);}
</style>
<linearGradient id="SVGID_1_" gradientUnits="userSpaceOnUse" x1="-869.8456" y1="455.8211" x2="-869.4547" y2="455.8211" gradientTransform="matrix(0 149.735 -149.735 0 68305.9297 130247.0547)">
	<stop  offset="0" style="stop-color:#0994DC"/>
	<stop  offset="0.35" style="stop-color:#66CEF5"/>
	<stop  offset="0.35" style="stop-color:#66CEF5"/>
	<stop  offset="0.846" style="stop-color:#127BCA"/>
	<stop  offset="0.846" style="stop-color:#127BCA"/>
	<stop  offset="1" style="stop-color:#127BCA"/>
</linearGradient>
<path class="st0" d="M42.6,10c4.4,13.5,6.1,37.6,19,37.6c1,0,2-0.1,3-0.3C52.8,44.5,51.4,20.7,44.2,8.4C43.7,8.9,43.1,9.4,42.6,10"
	/>
<linearGradient id="SVGID_00000010277899941344728980000004968916066310160274_" gradientUnits="userSpaceOnUse" x1="-869.9268" y1="455.9831" x2="-869.5368" y2="455.9831" gradientTransform="matrix(0 153.551 -153.551 0 70072.4375 133577.4375)">
	<stop  offset="0" style="stop-color:#0E76BC"/>
	<stop  offset="0.36" style="stop-color:#36AEE8"/>
	<stop  offset="0.36" style="stop-color:#36AEE8"/>
	<stop  offset="0.846" style="stop-color:#00ADEF"/>
	<stop  offset="0.846" style="stop-color:#00ADEF"/>
	<stop  offset="1" style="stop-color:#00ADEF"/>
</linearGradient>
<path style="fill:url(#SVGID_00000010277899941344728980000004968916066310160274_);" d="M44.2,8.4c7.2,12.3,8.6,36.2,20.3,38.9
	c0.9-0.2,1.8-0.4,2.8-0.7C56.8,41.4,53.9,18.2,45.7,7.1C45.2,7.5,44.7,7.9,44.2,8.4"/>
<path class="st2" d="M54.6,1c-1,0-2,0.1-3,0.3c-2.6,0.5-5.3,1.6-7.9,3.3c0.7,0.7,1.4,1.5,2.1,2.4c2.7-2.3,5.4-3.9,8.1-4.9
	c1-0.4,2-0.7,3-0.8C56.2,1.1,55.4,1,54.6,1"/>
<linearGradient id="SVGID_00000079465299135419715360000006508557319661189053_" gradientUnits="userSpaceOnUse" x1="-877.8878" y1="468.0788" x2="-877.4978" y2="468.0788" gradientTransform="matrix(0 -122.178 122.178 0 -57121.0977 -107212.4219)">
	<stop  offset="0" style="stop-color:#1C63B7"/>
	<stop  offset="0.5" style="stop-color:#33BDF2"/>
	<stop  offset="1" style="stop-color:#33BDF2;stop-opacity:0.42"/>
</linearGradient>
<path style="fill:url(#SVGID_00000079465299135419715360000006508557319661189053_);" d="M75.5,41.8c1.1-0.9,2.2-1.8,3.2-2.8
	C74.3,25.5,72.7,1.1,59.7,1.1c-0.9,0-1.9,0.1-2.8,0.3C68.7,4.3,70.2,30,75.5,41.8"/>
<path class="st4" d="M56.9,1.3C56.2,1.1,55.4,1,54.6,1l5.1,0C58.8,1.1,57.8,1.1,56.9,1.3"/>
<path class="st5" d="M75.3,44.6c-0.5-0.5-1-1-1.5-1.6c-2.2,1.5-4.4,2.7-6.5,3.5c0.8,0.4,1.6,0.7,2.4,0.8c0.7,0.1,1.4,0.2,2.1,0.2
	c2.4,0,4.4-0.3,6-1.1C76.9,46,76.1,45.4,75.3,44.6"/>
<linearGradient id="SVGID_00000160163929625631871430000007984669778849098426_" gradientUnits="userSpaceOnUse" x1="-870.0042" y1="456.2646" x2="-869.6132" y2="456.2646" gradientTransform="matrix(0 159.425 -159.425 0 72804.6875 138693.4688)">
	<stop  offset="0" style="stop-color:#166AB8"/>
	<stop  offset="0.4" style="stop-color:#36AEE8"/>
	<stop  offset="0.4" style="stop-color:#36AEE8"/>
	<stop  offset="0.846" style="stop-color:#0798DD"/>
	<stop  offset="0.846" style="stop-color:#0798DD"/>
	<stop  offset="1" style="stop-color:#0798DD"/>
</linearGradient>
<path style="fill:url(#SVGID_00000160163929625631871430000007984669778849098426_);" d="M53.9,2.2c10.6,5.5,11.5,30.7,20,40.9
	c0.6-0.4,1.1-0.8,1.7-1.3C70.2,30,68.7,4.3,56.9,1.3C55.9,1.5,54.9,1.8,53.9,2.2"/>
<linearGradient id="SVGID_00000013152793424180081330000016101750640984077500_" gradientUnits="userSpaceOnUse" x1="-870.2307" y1="456.53" x2="-869.8397" y2="456.53" gradientTransform="matrix(0 169.528 -169.528 0 77454.4141 147522)">
	<stop  offset="0" style="stop-color:#124379"/>
	<stop  offset="0.39" style="stop-color:#1487CB"/>
	<stop  offset="0.39" style="stop-color:#1487CB"/>
	<stop  offset="0.78" style="stop-color:#165197"/>
	<stop  offset="0.78" style="stop-color:#165197"/>
	<stop  offset="1" style="stop-color:#165197"/>
</linearGradient>
<path style="fill:url(#SVGID_00000013152793424180081330000016101750640984077500_);" d="M45.7,7.1c8.1,11.1,11,34.3,21.6,39.4
	c2.2-0.8,4.3-1.9,6.5-3.5c-8.5-10.2-9.4-35.3-20-40.9C51.2,3.2,48.5,4.8,45.7,7.1"/>
<linearGradient id="SVGID_00000093168653378519203950000004891500904520524692_" gradientUnits="userSpaceOnUse" x1="300.2832" y1="2669.2168" x2="302.6005" y2="2669.2168" gradientTransform="matrix(4.038 0 0 4.038 -1179.8365 -10764.4824)">
	<stop  offset="0" style="stop-color:#33BDF2;stop-opacity:0.698"/>
	<stop  offset="1" style="stop-color:#1DACD8"/>
</linearGradient>
<path style="fill:url(#SVGID_00000093168653378519203950000004891500904520524692_);" d="M37.4,9.6c-1.3,2.9-2.6,6.7-4.2,11.6
	c3.1-4.4,6.3-8.2,9.4-11.3c-0.4-1.3-0.9-2.5-1.4-3.6C39.9,7.3,38.6,8.4,37.4,9.6"/>
<path class="st9" d="M42.3,5.5c-0.4,0.3-0.8,0.5-1.1,0.8c0.5,1.1,1,2.3,1.4,3.6c0.6-0.6,1.1-1.1,1.7-1.6C43.6,7.3,43,6.4,42.3,5.5"
	/>
<path class="st10" d="M43.7,4.6c-0.4,0.3-0.9,0.6-1.3,0.9c0.7,0.9,1.3,1.8,1.9,2.8c0.5-0.4,1-0.9,1.5-1.3
	C45.1,6.2,44.4,5.4,43.7,4.6"/>
<linearGradient id="SVGID_00000018928860355487419160000010748150400914945946_" gradientUnits="userSpaceOnUse" x1="-878.0129" y1="467.7863" x2="-877.623" y2="467.7863" gradientTransform="matrix(0 -119.018 119.018 0 -55571.5078 -104454.4297)">
	<stop  offset="0" style="stop-color:#136AB4"/>
	<stop  offset="0.6" style="stop-color:#59CAF5;stop-opacity:0.549"/>
	<stop  offset="1" style="stop-color:#59CAF5;stop-opacity:0.235"/>
</linearGradient>
<path style="fill:url(#SVGID_00000018928860355487419160000010748150400914945946_);" d="M116,0c-6,23.1-18.5,41.7-29,46.4h0
	l-0.6,0.2l-0.1,0l-0.2,0.1l-0.1,0l-0.3,0.1l-0.1,0l-0.1,0l-0.1,0l-0.1,0l-0.2,0.1l-0.1,0l-0.2,0l-0.1,0l-0.2,0l-0.2,0
	c0.5,0.2,1,0.3,1.5,0.3c10,0,20-17.9,36.6-47.6L116,0C116,0,116,0,116,0z"/>
<linearGradient id="SVGID_00000097459672173536440570000015317483304930865315_" gradientUnits="userSpaceOnUse" x1="292.0603" y1="2671.9668" x2="300.6561" y2="2671.9668" gradientTransform="matrix(4.038 0 0 4.038 -1179.8365 -10764.4824)">
	<stop  offset="0" style="stop-color:#05A1E6;stop-opacity:0.247"/>
	<stop  offset="1" style="stop-color:#05A1E6"/>
</linearGradient>
<path style="fill:url(#SVGID_00000097459672173536440570000015317483304930865315_);" d="M31,2L31,2L31,2L31,2l0.2-0.1l0,0l0,0
	l0.2-0.1h0l0.4-0.1l0.1,0l0.2,0l0.1,0l0.2,0l0.1,0L33,1.4l0.1,0l0.2,0l0.1,0l0.2,0h0l0.3-0.1h0.1l0.2,0l0.1,0l0.1,0l0.1,0l0.4,0
	C34.4,1,34,1,33.6,1C22.4,1,7,21.8,0,48.8h1.3c2.2-4,4.2-7.7,6.1-11.3C12.3,18.4,22.2,5.4,31,2"/>
<path class="st13" d="M37.4,9.6c1.3-1.2,2.6-2.3,3.8-3.3c-0.3-0.6-0.6-1.2-0.9-1.8C39.2,5.8,38.3,7.5,37.4,9.6"/>
<path class="st13" d="M38.3,2.1c0.7,0.6,1.4,1.5,2,2.5c0.2-0.2,0.4-0.4,0.6-0.6c-0.8-0.8-1.7-1.4-2.7-1.9L38.3,2.1L38.3,2.1"/>
<linearGradient id="SVGID_00000074422092257651687060000004202221530559923120_" gradientUnits="userSpaceOnUse" x1="-877.9024" y1="468.7229" x2="-877.5125" y2="468.7229" gradientTransform="matrix(0 -121.865 121.865 0 -57101.6875 -106939.4688)">
	<stop  offset="0" style="stop-color:#318ED5"/>
	<stop  offset="1" style="stop-color:#38A7E4"/>
</linearGradient>
<path style="fill:url(#SVGID_00000074422092257651687060000004202221530559923120_);" d="M7.4,37.5C17.6,17.8,22.5,5.4,31,2
	C22.2,5.4,12.3,18.5,7.4,37.5"/>
<path class="st15" d="M40.9,4c-0.2,0.2-0.4,0.4-0.6,0.6c0.3,0.5,0.6,1.1,0.9,1.8c0.4-0.3,0.8-0.6,1.1-0.8C41.9,5,41.4,4.4,40.9,4"/>
<linearGradient id="SVGID_00000106826948777494052740000003029751489070979243_" gradientUnits="userSpaceOnUse" x1="-878.0209" y1="468.8961" x2="-877.6299" y2="468.8961" gradientTransform="matrix(0 -118.46 118.46 0 -55523.2031 -103964)">
	<stop  offset="0" style="stop-color:#05A1E6"/>
	<stop  offset="1" style="stop-color:#05A1E6;stop-opacity:0.549"/>
</linearGradient>
<path style="fill:url(#SVGID_00000106826948777494052740000003029751489070979243_);" d="M12.1,48.7l-0.2,0h0l-0.2,0h0l-0.4,0h0
	c10.4-0.3,15.1-5.5,17.4-13c1.8-5.7,3.3-10.5,4.5-14.5c-4.3,6.1-8.7,13.4-13.1,21.5C18,46.7,14.8,48.4,12.1,48.7"/>
<linearGradient id="SVGID_00000054944813586981701270000013485700374540437922_" gradientUnits="userSpaceOnUse" x1="-878.7707" y1="470.2249" x2="-878.3796" y2="470.2249" gradientTransform="matrix(0 -100.1 100.1 0 -47044.8086 -87916.1562)">
	<stop  offset="0" style="stop-color:#1959A6"/>
	<stop  offset="0.5" style="stop-color:#05A1E6"/>
	<stop  offset="0.5" style="stop-color:#05A1E6"/>
	<stop  offset="0.918" style="stop-color:#7EC5EA"/>
	<stop  offset="1" style="stop-color:#7EC5EA"/>
</linearGradient>
<path style="fill:url(#SVGID_00000054944813586981701270000013485700374540437922_);" d="M12.1,48.7c2.8-0.4,6-2,8.1-5.9
	c4.4-8.2,8.7-15.4,13.1-21.5c1.6-4.9,2.9-8.7,4.2-11.6C28.7,17.9,20,31.5,12.1,48.7"/>
<path class="st18" d="M7.4,37.6c-1.8,3.5-3.8,7.3-6.1,11.3h3.9C5.8,44.9,6.5,41.1,7.4,37.6"/>
<linearGradient id="SVGID_00000165930340508467872540000002010862375673909425_" gradientUnits="userSpaceOnUse" x1="-879.657" y1="468.474" x2="-879.267" y2="468.474" gradientTransform="matrix(-19.1379 -108.5366 108.5366 -19.1379 -67655.2266 -86463.2266)">
	<stop  offset="0" style="stop-color:#165096"/>
	<stop  offset="1" style="stop-color:#0D82CA"/>
</linearGradient>
<path style="fill:url(#SVGID_00000165930340508467872540000002010862375673909425_);" d="M34.4,1.1L34.4,1.1l-0.2,0l-0.1,0l-0.2,0
	l-0.1,0l-0.3,0.1h0l-0.2,0l-0.1,0l-0.2,0l-0.1,0l-0.5,0.1l-0.1,0l-0.2,0l-0.1,0l-0.2,0l-0.1,0l-0.4,0.1l-0.2,0.1l-0.1,0L31.1,2
	l-0.1,0C22.5,5.4,17.6,17.8,7.4,37.6c-0.9,3.6-1.6,7.3-2.2,11.3h0.5l3.8,0h1.7l0.4,0h0l0.2,0h0l0.2,0c8-17.2,16.7-30.9,25.3-39.1
	c1-2.2,1.9-3.8,2.9-5c-0.6-1-1.3-1.9-2-2.5l0,0l-0.1-0.1L38,2L37.9,2l-0.1-0.1l-0.1,0l-0.2-0.1l-0.1,0l-0.2-0.1l-0.1,0l-0.2-0.1h0
	l-0.3-0.1l-0.1,0l-0.2-0.1l-0.1,0c-0.2,0-0.4-0.1-0.6-0.1l-0.1,0l-0.2,0l0,0l-0.3,0h-0.1l-0.2,0L34.4,1.1"/>
<linearGradient id="SVGID_00000000914528237932125980000012150274722833108666_" gradientUnits="userSpaceOnUse" x1="-883.3582" y1="475.0175" x2="-882.9682" y2="475.0175" gradientTransform="matrix(0 -56.721 56.721 0 -26847.9316 -50082.7812)">
	<stop  offset="0" style="stop-color:#05A1E6"/>
	<stop  offset="0.874" style="stop-color:#0495D6"/>
	<stop  offset="1" style="stop-color:#0495D6"/>
</linearGradient>
<path style="fill:url(#SVGID_00000000914528237932125980000012150274722833108666_);" d="M92.6,12.8c-2,6.3-3.6,11.5-5,15.8
	C93,21.2,98.4,11.8,103.4,1C97.5,2.9,94.4,7.1,92.6,12.8"/>
<linearGradient id="SVGID_00000140701613434470430700000003977605130461044883_" gradientUnits="userSpaceOnUse" x1="-870.3765" y1="455.0435" x2="-869.9865" y2="455.0435" gradientTransform="matrix(-23.0627 130.7953 -130.7953 -23.0627 39550.2227 124333.7578)">
	<stop  offset="0" style="stop-color:#38A7E4;stop-opacity:0.329"/>
	<stop  offset="0.962" style="stop-color:#0E88D3"/>
	<stop  offset="0.962" style="stop-color:#0E88D3"/>
	<stop  offset="1" style="stop-color:#0E88D3"/>
</linearGradient>
<path style="fill:url(#SVGID_00000140701613434470430700000003977605130461044883_);" d="M87.8,46c-0.3,0.1-0.6,0.3-0.8,0.4
	c10.5-4.7,23-23.3,29-46.4h-1.2C101,24.6,96.6,41.1,87.8,46"/>
<path class="st22" d="M80.9,44c2.3-2.8,4.1-7.5,6.7-15.4c-2.9,4-5.9,7.5-8.8,10.3l0,0C79.4,40.9,80.1,42.6,80.9,44"/>
<path class="st5" d="M80.9,44c-0.8,0.9-1.6,1.7-2.5,2.2c-0.2,0.1-0.4,0.2-0.6,0.3c1,0.5,2,0.9,3.2,1l0.5,0h0l0.3,0h0.9l0.1,0l0.2,0
	h0.1l0.2,0h0l0.1,0l0.2,0h0.1l0.2,0h0l0.5-0.1C83.1,46.8,81.9,45.7,80.9,44"/>
<path class="st23" d="M61.6,47.6c1,0,2-0.1,3-0.3c0.9-0.2,1.8-0.4,2.8-0.7c0.8,0.4,1.6,0.7,2.4,0.8c0.7,0.1,1.4,0.2,2.1,0.2
	L61.6,47.6L61.6,47.6z M71.8,47.6c2.4,0,4.4-0.3,6-1.1c1,0.5,2,0.9,3.2,1l0.5,0h0l0.3,0h0.3H71.8z"/>
<path class="st24" d="M82.1,47.6h0.6l0.1,0l0.2,0h0.1l0.2,0h0l0.1,0l0.2,0l0.1,0l0.2,0h0l0.5-0.1c0.5,0.2,1,0.3,1.5,0.3L82.1,47.6
	C82.1,47.6,82.1,47.6,82.1,47.6z"/>
<path class="st25" d="M78.8,39L78.8,39c-1.1,1-2.2,2-3.2,2.8c-0.6,0.4-1.1,0.9-1.7,1.3c0.5,0.6,1,1.1,1.5,1.6
	c0.8,0.7,1.6,1.4,2.5,1.9c0.2-0.1,0.4-0.2,0.6-0.3c0.9-0.5,1.7-1.3,2.5-2.2C80.1,42.6,79.4,40.9,78.8,39"/>
<linearGradient id="SVGID_00000000223212305948625110000005233651203017150127_" gradientUnits="userSpaceOnUse" x1="-869.016" y1="455.1986" x2="-868.626" y2="455.1986" gradientTransform="matrix(0 123.742 -123.742 0 56425.0586 107533.6953)">
	<stop  offset="0" style="stop-color:#168CD4"/>
	<stop  offset="0.5" style="stop-color:#1C87CC"/>
	<stop  offset="1" style="stop-color:#154B8D"/>
</linearGradient>
<path style="fill:url(#SVGID_00000000223212305948625110000005233651203017150127_);" d="M111,0h-6.1l-1,0l-0.5,1
	C98.4,11.8,93,21.2,87.6,28.6c-2.5,7.8-4.4,12.6-6.7,15.4c1,1.7,2.1,2.8,3.5,3.3l0.1,0h0l0.1,0l0.2,0l0.1,0l0.2,0l0.1,0l0.2-0.1
	l0.1,0l0.1,0l0.1,0l0.1,0l0.3-0.1l0.1,0l0.2-0.1l0.1,0l0.6-0.2h0c0.3-0.1,0.5-0.3,0.8-0.4c8.8-4.9,13.2-21.4,27-46L111,0
	C111,0,111,0,111,0z"/>
<path class="st27" d="M34.7,1.1L34.7,1.1l0.2,0H35l0.3,0l0,0l0.2,0l0.1,0l0.6,0.1l0.1,0l0.2,0.1l0.1,0l0.3,0.1l0,0l0.2,0.1l0.1,0
	l0.2,0.1l0.1,0l0.2,0.1l0.1,0L37.9,2L38,2l0.1,0.1c1,0.5,1.9,1.1,2.7,1.9c0.3-0.3,0.6-0.6,1-0.9c-1.8-1.3-3.9-2-6.3-2
	C35.3,1.1,35,1.1,34.7,1.1"/>
<path class="st28" d="M40.9,4c0.5,0.5,1,1,1.5,1.6c0.4-0.3,0.9-0.6,1.3-0.9c-0.6-0.6-1.2-1.1-1.8-1.6C41.5,3.3,41.2,3.6,40.9,4"/>
<g transform="matrix(5.048 0 0 -5.048 -9064.26 2270.61)">
	
		<linearGradient id="SVGID_00000119826427310552126110000012671771349174010007_" gradientUnits="userSpaceOnUse" x1="1969.3627" y1="313.9095" x2="1969.7527" y2="313.9095" gradientTransform="matrix(143.881 -59.6769 -59.6769 -143.881 -262818.9375 163141.5312)">
		<stop  offset="0" style="stop-color:#97D6EE"/>
		<stop  offset="0.703" style="stop-color:#55C1EA"/>
		<stop  offset="1" style="stop-color:#55C1EA"/>
	</linearGradient>
	<path style="fill:url(#SVGID_00000119826427310552126110000012671771349174010007_);" d="M1802.4,449.6l0.2,0
		c0.5,0,0.9-0.1,1.2-0.4c0.4,0.3,0.8,0.4,1.5,0.4h-3.1L1802.4,449.6"/>
</g>
<g transform="matrix(5.048 0 0 -5.048 -9064.26 2270.61)">
	
		<linearGradient id="SVGID_00000145760217282551439790000011275057377138727612_" gradientUnits="userSpaceOnUse" x1="1968.922" y1="315.0245" x2="1969.312" y2="315.0245" gradientTransform="matrix(113.6408 51.5139 51.5139 -113.6408 -238173.375 -65178)">
		<stop  offset="0" style="stop-color:#7ACCEC"/>
		<stop  offset="1" style="stop-color:#3FB7ED"/>
	</linearGradient>
	<path style="fill:url(#SVGID_00000145760217282551439790000011275057377138727612_);" d="M1805.3,449.6c-0.6,0-1.1-0.1-1.5-0.4
		c0.1-0.1,0.2-0.2,0.4-0.3c0.5,0.3,1.1,0.6,1.6,0.7c0.2,0,0.4,0.1,0.6,0.1L1805.3,449.6L1805.3,449.6L1805.3,449.6z"/>
</g>
<linearGradient id="SVGID_00000140703628360260830640000017370515162992623753_" gradientUnits="userSpaceOnUse" x1="-868.9468" y1="454.9769" x2="-868.5568" y2="454.9769" gradientTransform="matrix(0 121.032 -121.032 0 55158.1094 105172.9062)">
	<stop  offset="0" style="stop-color:#1DA7E7"/>
	<stop  offset="1" style="stop-color:#37ABE7;stop-opacity:0"/>
</linearGradient>
<path style="fill:url(#SVGID_00000140703628360260830640000017370515162992623753_);" d="M87.6,28.6c1.4-4.3,3-9.5,5-15.8
	c1.8-5.7,4.9-9.9,10.8-11.8l0.5-1c-9.6,0.6-14.1,5.5-16.4,12.7c-4,12.7-6.4,20.9-8.7,26.1C81.8,36.1,84.7,32.6,87.6,28.6"/>
</svg>
