<?xml version="1.0" encoding="utf-8"?>
<!-- Generator: Adobe Illustrator 28.0.0, SVG Export Plug-In . SVG Version: 6.00 Build 0)  -->
<svg version="1.1" id="Layer_1" xmlns="http://www.w3.org/2000/svg" xmlns:xlink="http://www.w3.org/1999/xlink" x="0px" y="0px"
	 viewBox="0 0 122.6 48.8" style="enable-background:new 0 0 122.6 48.8;" xml:space="preserve">
<style type="text/css">
	.st0{fill:#2E76FF;}
</style>
<path class="st0" d="M42.6,10c4.4,13.5,6.1,37.6,19,37.6c1,0,2-0.1,3-0.3C52.8,44.5,51.4,20.7,44.2,8.4C43.7,8.9,43.1,9.4,42.6,10"
	/>
<path class="st0" d="M44.2,8.4c7.2,12.3,8.6,36.2,20.3,38.9c0.9-0.2,1.8-0.4,2.8-0.7C56.8,41.4,53.9,18.2,45.7,7.1
	C45.2,7.5,44.7,7.9,44.2,8.4"/>
<path class="st0" d="M54.6,1c-1,0-2,0.1-3,0.3c-2.6,0.5-5.3,1.6-7.9,3.3c0.7,0.7,1.4,1.5,2.1,2.4c2.7-2.3,5.4-3.9,8.1-4.9
	c1-0.4,2-0.7,3-0.8C56.2,1.1,55.4,1,54.6,1"/>
<path class="st0" d="M75.5,41.8c1.1-0.9,2.2-1.8,3.2-2.8c-4.4-13.5-6-37.9-19-37.9c-0.9,0-1.9,0.1-2.8,0.3
	C68.7,4.3,70.2,30,75.5,41.8"/>
<path class="st0" d="M56.9,1.3C56.2,1.1,55.4,1,54.6,1h5.1C58.8,1.1,57.8,1.1,56.9,1.3"/>
<path class="st0" d="M75.3,44.6c-0.5-0.5-1-1-1.5-1.6c-2.2,1.5-4.4,2.7-6.5,3.5c0.8,0.4,1.6,0.7,2.4,0.8c0.7,0.1,1.4,0.2,2.1,0.2
	c2.4,0,4.4-0.3,6-1.1C76.9,46,76.1,45.4,75.3,44.6"/>
<path class="st0" d="M53.9,2.2c10.6,5.5,11.5,30.7,20,40.9c0.6-0.4,1.1-0.8,1.7-1.3C70.2,30,68.7,4.3,56.9,1.3
	C55.9,1.5,54.9,1.8,53.9,2.2"/>
<path class="st0" d="M45.7,7.1c8.1,11.1,11,34.3,21.6,39.4c2.2-0.8,4.3-1.9,6.5-3.5c-8.5-10.2-9.4-35.3-20-40.9
	C51.2,3.2,48.5,4.8,45.7,7.1"/>
<path class="st0" d="M37.4,9.6c-1.3,2.9-2.6,6.7-4.2,11.6c3.1-4.4,6.3-8.2,9.4-11.3c-0.4-1.3-0.9-2.5-1.4-3.6
	C39.9,7.3,38.6,8.4,37.4,9.6"/>
<path class="st0" d="M42.3,5.5c-0.4,0.3-0.8,0.5-1.1,0.8c0.5,1.1,1,2.3,1.4,3.6c0.6-0.6,1.1-1.1,1.7-1.6C43.6,7.3,43,6.4,42.3,5.5"
	/>
<path class="st0" d="M43.7,4.6c-0.4,0.3-0.9,0.6-1.3,0.9c0.7,0.9,1.3,1.8,1.9,2.8c0.5-0.4,1-0.9,1.5-1.3C45.1,6.2,44.4,5.4,43.7,4.6
	"/>
<path class="st0" d="M116,0c-6,23.1-18.5,41.7-29,46.4l0,0l-0.6,0.2h-0.1l-0.2,0.1H86l-0.3,0.1h-0.1h-0.1h-0.1h-0.1l-0.2,0.1H85
	h-0.2h-0.1h-0.2h-0.2c0.5,0.2,1,0.3,1.5,0.3c10,0,20-17.9,36.6-47.6L116,0L116,0z"/>
<path class="st0" d="M31,2L31,2L31,2L31,2l0.2-0.1l0,0l0,0l0.2-0.1l0,0l0.4-0.1h0.1h0.2h0.1h0.2h0.1L33,1.4h0.1h0.2h0.1h0.2l0,0
	l0.3-0.1H34h0.2h0.1h0.1h0.1h0.4C34.4,1,34,1,33.6,1C22.4,1,7,21.8,0,48.8h1.3c2.2-4,4.2-7.7,6.1-11.3C12.3,18.4,22.2,5.4,31,2"/>
<path class="st0" d="M37.4,9.6c1.3-1.2,2.6-2.3,3.8-3.3c-0.3-0.6-0.6-1.2-0.9-1.8C39.2,5.8,38.3,7.5,37.4,9.6"/>
<path class="st0" d="M38.3,2.1c0.7,0.6,1.4,1.5,2,2.5c0.2-0.2,0.4-0.4,0.6-0.6c-0.8-0.8-1.7-1.4-2.7-1.9H38.3L38.3,2.1"/>
<path class="st0" d="M7.4,37.5C17.6,17.8,22.5,5.4,31,2C22.2,5.4,12.3,18.5,7.4,37.5"/>
<path class="st0" d="M40.9,4c-0.2,0.2-0.4,0.4-0.6,0.6c0.3,0.5,0.6,1.1,0.9,1.8c0.4-0.3,0.8-0.6,1.1-0.8C41.9,5,41.4,4.4,40.9,4"/>
<path class="st0" d="M12.1,48.7h-0.2l0,0h-0.2l0,0h-0.4l0,0c10.4-0.3,15.1-5.5,17.4-13c1.8-5.7,3.3-10.5,4.5-14.5
	c-4.3,6.1-8.7,13.4-13.1,21.5C18,46.7,14.8,48.4,12.1,48.7"/>
<path class="st0" d="M12.1,48.7c2.8-0.4,6-2,8.1-5.9c4.4-8.2,8.7-15.4,13.1-21.5c1.6-4.9,2.9-8.7,4.2-11.6
	C28.7,17.9,20,31.5,12.1,48.7"/>
<path class="st0" d="M7.4,37.6c-1.8,3.5-3.8,7.3-6.1,11.3h3.9C5.8,44.9,6.5,41.1,7.4,37.6"/>
<path class="st0" d="M34.4,1.1L34.4,1.1h-0.2h-0.1h-0.2h-0.1l-0.3,0.1l0,0h-0.2h-0.1H33h-0.1l-0.5,0.1h-0.1h-0.2H32h-0.2h-0.1
	l-0.4,0.1l-0.2,0.1H31L31.1,2H31C22.5,5.4,17.6,17.8,7.4,37.6c-0.9,3.6-1.6,7.3-2.2,11.3h0.5h3.8h1.7h0.4l0,0h0.2l0,0H12
	C20,31.7,28.7,18,37.3,9.8c1-2.2,1.9-3.8,2.9-5c-0.6-1-1.3-1.9-2-2.5l0,0l-0.1-0.1L38,2h-0.1l-0.1-0.1h-0.1l-0.2-0.1h-0.1l-0.2-0.1
	h-0.1l-0.2-0.1l0,0l-0.3-0.1h-0.1l-0.2-0.1h-0.1c-0.2,0-0.4-0.1-0.6-0.1h-0.1h-0.2l0,0H35h-0.1h-0.2L34.4,1.1"/>
<path class="st0" d="M92.6,12.8c-2,6.3-3.6,11.5-5,15.8C93,21.2,98.4,11.8,103.4,1C97.5,2.9,94.4,7.1,92.6,12.8"/>
<path class="st0" d="M87.8,46c-0.3,0.1-0.6,0.3-0.8,0.4c10.5-4.7,23-23.3,29-46.4h-1.2C101,24.6,96.6,41.1,87.8,46"/>
<path class="st0" d="M80.9,44c2.3-2.8,4.1-7.5,6.7-15.4c-2.9,4-5.9,7.5-8.8,10.3l0,0C79.4,40.9,80.1,42.6,80.9,44"/>
<path class="st0" d="M80.9,44c-0.8,0.9-1.6,1.7-2.5,2.2c-0.2,0.1-0.4,0.2-0.6,0.3c1,0.5,2,0.9,3.2,1h0.5l0,0h0.3h0.9h0.1H83h0.1h0.2
	l0,0h0.1h0.2h0.1h0.2l0,0l0.5-0.1C83.1,46.8,81.9,45.7,80.9,44"/>
<path class="st0" d="M61.6,47.6c1,0,2-0.1,3-0.3c0.9-0.2,1.8-0.4,2.8-0.7c0.8,0.4,1.6,0.7,2.4,0.8c0.7,0.1,1.4,0.2,2.1,0.2H61.6
	L61.6,47.6z M71.8,47.6c2.4,0,4.4-0.3,6-1.1c1,0.5,2,0.9,3.2,1h0.5l0,0h0.3h0.3L71.8,47.6L71.8,47.6z"/>
<path class="st0" d="M82.1,47.6h0.6h0.1H83h0.1h0.2l0,0h0.1h0.2h0.1h0.2l0,0l0.5-0.1c0.5,0.2,1,0.3,1.5,0.3L82.1,47.6L82.1,47.6z"/>
<path class="st0" d="M78.8,39L78.8,39c-1.1,1-2.2,2-3.2,2.8c-0.6,0.4-1.1,0.9-1.7,1.3c0.5,0.6,1,1.1,1.5,1.6
	c0.8,0.7,1.6,1.4,2.5,1.9c0.2-0.1,0.4-0.2,0.6-0.3c0.9-0.5,1.7-1.3,2.5-2.2C80.1,42.6,79.4,40.9,78.8,39"/>
<path class="st0" d="M111,0h-6.1h-1l-0.5,1c-5,10.8-10.4,20.2-15.8,27.6c-2.5,7.8-4.4,12.6-6.7,15.4c1,1.7,2.1,2.8,3.5,3.3h0.1l0,0
	h0.1h0.2h0.1h0.2h0.1l0.2-0.1h0.1h0.1h0.1h0.1l0.3-0.1h0.1l0.2-0.1h0.1l0.6-0.2l0,0c0.3-0.1,0.5-0.3,0.8-0.4
	c8.8-4.9,13.2-21.4,27-46L111,0L111,0z"/>
<path class="st0" d="M34.7,1.1L34.7,1.1h0.2H35h0.3l0,0h0.2h0.1l0.6,0.1h0.1l0.2,0.1h0.1l0.3,0.1l0,0l0.2,0.1h0.1l0.2,0.1h0.1
	l0.2,0.1h0.1L37.9,2H38l0.1,0.1c1,0.5,1.9,1.1,2.7,1.9c0.3-0.3,0.6-0.6,1-0.9c-1.8-1.3-3.9-2-6.3-2C35.3,1.1,35,1.1,34.7,1.1"/>
<path class="st0" d="M40.9,4c0.5,0.5,1,1,1.5,1.6c0.4-0.3,0.9-0.6,1.3-0.9c-0.6-0.6-1.2-1.1-1.8-1.6C41.5,3.3,41.2,3.6,40.9,4"/>
<g transform="matrix(5.048 0 0 -5.048 -9064.26 2270.61)">
	<path class="st0" d="M1802.4,449.6h0.2c0.5,0,0.9-0.1,1.2-0.4c0.4,0.3,0.8,0.4,1.5,0.4h-3.1H1802.4"/>
</g>
<g transform="matrix(5.048 0 0 -5.048 -9064.26 2270.61)">
	<path class="st0" d="M1805.3,449.6c-0.6,0-1.1-0.1-1.5-0.4c0.1-0.1,0.2-0.2,0.4-0.3c0.5,0.3,1.1,0.6,1.6,0.7c0.2,0,0.4,0.1,0.6,0.1
		L1805.3,449.6L1805.3,449.6L1805.3,449.6z"/>
</g>
<path class="st0" d="M87.6,28.6c1.4-4.3,3-9.5,5-15.8c1.8-5.7,4.9-9.9,10.8-11.8l0.5-1c-9.6,0.6-14.1,5.5-16.4,12.7
	c-4,12.7-6.4,20.9-8.7,26.1C81.8,36.1,84.7,32.6,87.6,28.6"/>
</svg>
