<?xml version="1.0" encoding="utf-8"?>
<!-- Generator: Adobe Illustrator 28.0.0, SVG Export Plug-In . SVG Version: 6.00 Build 0)  -->
<svg version="1.1" id="Layer_1" xmlns="http://www.w3.org/2000/svg" xmlns:xlink="http://www.w3.org/1999/xlink" x="0px" y="0px"
	 viewBox="0 0 296.3 296.3" style="enable-background:new 0 0 296.3 296.3;" xml:space="preserve">
<style type="text/css">
	.st0{fill:#666699;}
</style>
<path class="st0" d="M277.4,148.1l18.9,29.6l-29,20.2l6.1,33.7l-33.7,8.1l-8.1,33.7l-34.3-6.1l-19.5,29l-29.6-18.9l-29.6,18.9
	l-20.2-29l-33.7,6.1l-8.1-33.7l-33.7-8.1l6.1-34.3L0,177.8l18.9-29.6L0,118.5l29-20.2l-6.1-33.7l33.7-8.1l8.1-33.7L98.3,29l20.2-29
	l29.6,18.9L177.8,0L198,29l33.7-6.1l8.1,33.7l33.7,7.4l-6.1,34.3l29,20.2L277.4,148.1z M148.1,255.9c29.6,0,55-10.5,76.1-31.6
	s31.6-46.5,31.6-76.1s-10.5-55-31.6-76.1s-46.5-31.6-76.1-31.6S93.2,51,72.1,72.1s-31.6,46.5-31.6,76.1s10.5,55,31.6,76.1
	S118.5,255.9,148.1,255.9z"/>
<path class="st0" d="M206.5,102.8L206.5,102.8c-5.9-8.2-14.5-14.4-25.7-18.7c-10.6-4-23.3-6-37.7-6H81.2v140.1H143
	c14.5,0,27.2-2,37.8-6c11.2-4.2,19.8-10.5,25.7-18.7c5.7-7.9,8.6-17.3,8.6-28.1v-34.6C215.1,120.1,212.2,110.7,206.5,102.8z
	 M169,130.2v35.9c0,6-2,10.3-6,13.2c-4.2,3.1-10.5,4.6-19.2,4.6h-17v-71.5h17c8.7,0,15,1.5,19.2,4.6C167,119.9,169,124.2,169,130.2z
	"/>
</svg>
