<?xml version="1.0" encoding="utf-8"?>
<!-- Generator: Adobe Illustrator 28.0.0, SVG Export Plug-In . SVG Version: 6.00 Build 0)  -->
<svg version="1.1" id="Layer_1" xmlns="http://www.w3.org/2000/svg" xmlns:xlink="http://www.w3.org/1999/xlink" x="0px" y="0px"
	 viewBox="0 0 28 27.1" style="enable-background:new 0 0 28 27.1;" xml:space="preserve">
<style type="text/css">
	.st0{fill:#666699;}
</style>
<path class="st0" d="M6.7,15.9c0.5-0.3,0.7-0.9,0.5-1.4C6.7,14.7,6.7,15.3,6.7,15.9z"/>
<path class="st0" d="M12.9,17.4c0.5-0.1,0.8-0.6,0.6-1v-0.1C13.2,16.5,12.9,16.9,12.9,17.4z"/>
<g>
	<path class="st0" d="M0.7,24.6c-0.1,0.5,0.1,1,0.5,1.4c1.4,0.8,6.4,0.2,8.1-0.2c0.8-0.3,1.7-0.7,2.4-1.2c1.7-0.7,3.2-1.5,4.7-2.6
		c1.1-0.8,2.8-3,3-4.4l-1.5-0.3c0,1.5-0.4,1.8-1.7,2.2c-1.2,0.2-2.4,0.3-3.6,0.1c-1-0.2-1.8-0.7-2.3-1.6c-1.1-1.4,0.2-2.4-1.4-2.5
		c-1.8,2.2-4.9,0.6-6.3,0.4c-1,2.4-1.6,5-1.9,7.6c0.7-0.2,1.5-0.1,2.1,0.3c2.7,1,0.3,2-0.7,1.7C1.4,25.4,1.1,24.9,0.7,24.6z"/>
	<path class="st0" d="M4.2,12.1c1,0.2,2,0.6,3,1.1C8.7,14,9,13.8,9.1,14.9c0,0.2,0,0.3,0.5,0.5c0.9,0.3-0.5-0.2,1.9-0.2
		c2,0.1,4.1,0.5,5.9,1.3c0.5,0.3,0.4,0.7,1.9,0.6c-0.1-2.1-0.5-4.2-1.2-6.2c-0.9-2-2-2.3-4.3-3.1c-1.4-0.4-5.4-0.9-6.6-0.1
		C6,8.4,5.8,9.3,4.7,10.8C4.6,11.2,4.4,11.6,4.2,12.1z"/>
</g>
<path class="st0" d="M1.2,24.1C1.8,24,3.3,24.5,3.4,25C2.5,25.1,1.3,25,1.2,24.1z M0.7,24.6c0.4,0.3,0.7,0.8,1.4,1
	c1.1,0.3,3.4-0.6,0.7-1.7c-0.6-0.4-1.4-0.5-2.1-0.3C1,21,1.7,18.4,2.6,16c1.4,0.2,4.5,1.8,6.3-0.4c1.7,0.1,0.4,1.1,1.4,2.5
	c0.5,0.8,1.3,1.4,2.3,1.6c1.2,0.2,2.4,0.1,3.6-0.1c1.3-0.3,1.7-0.7,1.7-2.2l1.5,0.3c-0.2,1.3-1.9,3.6-3,4.4c-1.5,1-3,1.9-4.7,2.6
	c-0.8,0.5-1.6,0.9-2.4,1.2c-1.7,0.4-6.6,1-8.1,0.2C0.8,25.6,0.6,25.1,0.7,24.6L0.7,24.6z M12.9,17.4c0-0.5,0.2-0.9,0.6-1.1
	C13.7,16.7,13.5,17.2,12.9,17.4C13,17.4,13,17.4,12.9,17.4L12.9,17.4z M13.8,15.8c0.8,0,1.5,0.2,2.2,0.5c0.9,0.3,1.1,0.4,1.4,1.3
	c0.7,2.1-5.5,2.7-6.9,0c-0.3-0.6-0.2-1.8,0.4-2c0.8-0.1,1.7,0,2.5,0.1c-0.3,0.5-1.2,1.1-0.8,2.2C13.8,18.4,14.7,16.1,13.8,15.8
	L13.8,15.8z M6.7,15.9c0-0.6,0-1.1,0.5-1.4C7.4,15,7.2,15.6,6.7,15.9L6.7,15.9z M2.9,15.5c0.2-1.1,0.6-2.1,1.2-3
	c1.6,0.4,3.1,1,4.5,1.9c0.2,0.7-0.2,1.5-1,1.7c-0.1,0-0.3,0.1-0.4,0.1C7.8,15.6,8,14.7,7.5,14c-1.1-0.1-1.2,0.9-1.3,2.3
	C5.1,16.2,3.6,16.1,2.9,15.5L2.9,15.5z M2,14.8c-0.3-0.9-0.3-2.3,1-2.4l-0.7,1.9C2.2,14.7,2.2,14.6,2,14.8z M4.2,12.1
	c0.2-0.5,0.4-0.9,0.6-1.3c1.1-1.5,1.3-2.4,2.5-3.1c1.2-0.8,5.2-0.3,6.6,0.1c2.3,0.8,3.5,1.1,4.3,3.1c0.7,2,1.1,4.1,1.2,6.2
	c-1.5,0-1.4-0.3-1.9-0.6c-1.9-0.8-3.9-1.2-5.9-1.3c-2.5,0-1,0.5-1.9,0.2c-0.6-0.2-0.5-0.3-0.5-0.5c-0.1-1-0.4-0.9-1.9-1.7
	C6.3,12.7,5.3,12.3,4.2,12.1L4.2,12.1z M19.7,11.6c-0.2-0.6,0.1-0.5,0.7-0.9c0.3-0.2,0.6-0.5,0.9-0.7c1.4-0.8,4-0.9,5.1,0
	c0.7,0.5,1.1,1.2,1.1,2.1c-0.3,1.6-1.3,3-2.6,3.8c-1.3,1.2-3.1,1.6-4.8,1.2c-0.2-0.4,0-2.8-0.2-3.7c-0.2-0.8-0.1-0.9,0.4-1.4
	c1.4-1.4,4.3-2.4,6-1.2c0.7,0.5,0.5,0.7,0.9,1.1c0.5-0.5-0.4-2.1-3.5-2C21.5,10,20.6,11.7,19.7,11.6L19.7,11.6z M7,6.7
	C7.2,5,8,3.3,9.3,2.1c1.4-1,2.8-2,4.8-0.9c0.5,0.3,0.5,0.4,0.5,1.2c0.1,0.5,0,1-0.2,1.5C13,8.4,11.9,5.8,7.5,6.8
	c0.3-1.3,1.1-2.5,2.1-3.4c1.2-1.2,2.1-1.9,3.9-1.7C14,2.4,14,3.4,13.4,4c-0.8,1.3-1,1.2-0.9,2.1c0.6-0.2,0.8-0.8,1.1-1.4
	c1.8-3.7-0.8-4.1-2.4-3.4c-1.4,1-2.6,2.2-3.4,3.8C7.6,5.3,7.5,5.6,7.4,5.9L7,6.7z M13.9,6.8c0.2-1.1,1.3-1.4,1.3-4.7
	c0-1.4-1.8-2.7-4.1-1.8C9,1.2,8.7,1.8,7.7,3.4c-1,1.5-1,3.2-1.8,4.6C5.6,8.4,5.4,8.5,5.1,8.9c-0.2,0.3-0.3,0.7-0.6,1
	c-0.4,0.6-0.8,1.3-1.2,2c-1,0-1.9,0-2,1.1c-0.1,1.5,0.6,1.8,0.6,2.4c0,0.6-2.5,6.7-1.8,10.3c0.2,1,0.8,1,1.9,1.1
	c2.7,0.4,5.5,0.1,8.1-0.7l4.1-2c1.3-0.7,2.5-1.5,3.6-2.5c0.5-0.5,0.9-1.1,1.3-1.7c0.5-0.6,0.8-1.4,0.8-2.2c1,0.1,2.1,0.5,3,1
	c-0.1,0.6-0.4,0.3-0.4,0.9c0.5-0.1,0.9-0.4,1-0.9c-0.4-0.5-0.7-0.4-1.2-0.9c0.5-0.3,1.1-0.5,1.7-0.7c1.2-0.5,3.3-2,3.8-3.4
	c0.4-1.3,0.2-2.6-0.6-3.7c-1-0.8-2.3-1.2-3.6-1.2c-1.6,0-3.2,1.1-4.5,1.6C18.6,10,18.6,9.5,18.2,9C16.9,8,15.5,7.3,13.9,6.8z"/>
<path class="st0" d="M19.7,11.6c0.9,0.1,1.8-1.6,3.9-1.6c3.1-0.1,4,1.5,3.5,2c-0.4-0.4-0.2-0.6-0.9-1.1c-1.7-1.2-4.6-0.2-6,1.2
	c-0.5,0.5-0.5,0.6-0.4,1.4c0.2,0.9,0.1,3.3,0.2,3.7c1.7,0.4,3.5,0,4.8-1.2c1.4-0.9,2.3-2.2,2.6-3.8c0-0.8-0.4-1.6-1.1-2.1
	c-1.1-0.9-3.7-0.8-5.1,0c-0.3,0.2-0.6,0.4-0.9,0.7C19.8,11.1,19.5,11.1,19.7,11.6z"/>
<path class="st0" d="M7,6.7l0.4-0.8c0.1-0.3,0.2-0.6,0.4-0.8c0.8-1.5,2.1-2.8,3.5-3.7c1.6-0.7,4.1-0.2,2.4,3.4
	c-0.3,0.6-0.5,1.2-1.1,1.4c-0.1-0.9,0.1-0.8,0.9-2.1c0.5-0.7,0.5-1.7,0-2.4c-1.8-0.2-2.7,0.5-3.9,1.7c-1,0.9-1.8,2.1-2.1,3.4
	c4.4-1.1,5.6,1.5,6.9-2.9c0.2-0.5,0.2-1,0.2-1.5c-0.1-0.7,0-0.9-0.5-1.2C12,0,10.6,1,9.3,2.1C8,3.3,7.2,4.9,7,6.7z"/>
</svg>
