<?xml version="1.0" encoding="utf-8"?>
<!-- Generator: Adobe Illustrator 28.0.0, SVG Export Plug-In . SVG Version: 6.00 Build 0)  -->
<svg version="1.1" id="Layer_1" xmlns="http://www.w3.org/2000/svg" xmlns:xlink="http://www.w3.org/1999/xlink" x="0px" y="0px"
	 viewBox="0 0 61.6 40.5" style="enable-background:new 0 0 61.6 40.5;" xml:space="preserve">
<style type="text/css">
	.st0{fill:#DB5555;}
</style>
<g>
	<path class="st0" d="M6.6,0C2.4,5,0,11.6,0,19.3C0,28,2.9,35.2,7.9,40.5v0h45.9c2.1-2.3,4.1-5,5.8-8.1l-9.6-4.8
		c-3.4,5.5-8.3,10.6-15.2,10.6c-10,0-13.9-8.6-13.9-19.5h37.2c0.1-1.2,0.1-1.8,0-2.4c0.2-6.5-1.5-12-4.6-16.3h0l0,0c0,0,0,0,0,0
		 M61.6,0L61.6,0 M30.4,1c4.6,0,8,3.3,8.1,8.3h-17h0C21.7,4.6,25.7,0.9,30.4,1z"/>
	<polygon class="st0" points="53.4,0 53.5,0 53.5,0 	"/>
</g>
</svg>
