<svg id="Layer_1" data-name="Layer 1" xmlns="http://www.w3.org/2000/svg" viewBox="0 0 1185.27 1042"><defs><style>.cls-1{fill:#8080f2;}</style></defs><path class="cls-1" d="M421.45,931q-132.76,0-265.52,0c-24,0-41.28-9.63-53.5-30.82Q-29.33,671.81-161.81,443.81c-11.75-20.27-11.81-40.26-.11-60.57Q-28.4,151.52,105-80.25c11.65-20.2,29-30.7,52.87-30.68q263.76.21,527.53,0c24.28,0,41.8,10.47,53.65,31.08Q847.13,108,955.05,296l51.51,89.64c10.82,18.83,10.7,37.63-.16,56.41Q872.89,672.9,739.4,903.78c-10.84,18.77-27.47,27.06-48.44,27.15-51.66.2-103.34.07-155,.07Zm-362-517q0,97.51-.07,195c0,9.06,3.27,15.71,11.12,20.23q170,98,340,196.14c8.07,4.66,15.51,4.51,23.51-.11q169.26-97.83,338.63-195.47c8.15-4.7,12-11.36,12-20.81q-.1-194.78,0-389.56c0-9.43-3.81-16.16-12.07-20.76-12.21-6.82-24.24-13.94-36.35-20.93Q586.14,91.17,436.11,4.47c-9.9-5.74-18.39-5.92-28.38-.13Q240.09,101.5,72.16,198.11c-8.9,5.13-12.82,12-12.78,22.34C59.61,285,59.49,349.46,59.49,414Z" transform="translate(170.66 110.95)"/><path class="cls-1" d="M665.13,414.07c0,42.51-.13,85,.09,127.52,0,9.21-3.59,15.41-11.44,19.93q-97.41,56.1-194.71,112.4l-26.83,15.46c-7,4-13.83,3.89-20.82-.15Q313.25,632.45,215,575.77c-8.51-4.91-17-9.92-25.55-14.7-7.43-4.13-10.78-10.19-10.77-18.76q.16-128.26,0-256.54c0-8.38,3.4-14.12,10.63-18.28Q295,206.62,400.46,145.56c3.32-1.92,6.7-3.73,9.91-5.81,7.66-5,15.08-4.79,23-.18,28.32,16.56,56.78,32.9,85.19,49.3,44.56,25.73,89.06,51.57,133.75,77.08,8.89,5.08,13.08,11.61,13,22.1C664.92,330.06,665.13,372.06,665.13,414.07Z" transform="translate(170.66 110.95)"/></svg>