<?xml version="1.0" encoding="utf-8"?>
<!-- Generator: Adobe Illustrator 28.0.0, SVG Export Plug-In . SVG Version: 6.00 Build 0)  -->
<svg version="1.1" id="Layer_1" xmlns="http://www.w3.org/2000/svg" xmlns:xlink="http://www.w3.org/1999/xlink" x="0px" y="0px"
	 viewBox="0 0 192.9 232" style="enable-background:new 0 0 192.9 232;" xml:space="preserve">
<style type="text/css">
	.st0{fill:#49B437;}
	.st1{fill:#317329;}
</style>
<g>
	<g>
		<path class="st0" d="M134.3,101.2c-3.2,4.9-7.2,9.1-12.9,12.3c8.3,3.4,12.9,10.1,17.9,16.3c8.9,10.8,17.5,22,26.7,32.5
			c9,10.2,6.2,22.5-0.6,28.6c-8.4,7.6-21.5,7-29.9-1.4c-3.3-3.3-6.2-7-9.2-10.6c-8.5-9.8-17-19.6-25.5-29.4
			c-5-6.6-10.2-12.9-16.1-18.8c-6.6-6.6-13.7-6.5-20.4-0.1c-1.8,1.7-3,4.4-5.9,4.6c5.3-8.2,11.2-15.8,20.5-20.7
			c-6.5-1.6-10.6-5.6-14.4-10.1c-11.7-14-23.3-27.9-35-41.8c-2.1-2.6-4.2-5.2-5.8-8.3C16.8,41,24.5,26.8,39.5,25.6
			c9.6-0.8,17.8,2.1,24,10c10.8,13.6,21.9,27,33,40.4c0.9,1.1,1.4,2.9,3.4,2.9c0.2,0.6,0.1,1.4,0.5,1.8c4.2,5.4,8.3,10.8,12.8,16
			c5,5.7,11.2,7.6,18.5,4.9C132.5,101.3,133.4,101.3,134.3,101.2z"/>
		<path class="st1" d="M58.4,135.4c3-0.2,4.1-2.9,5.9-4.6c6.6-6.4,13.8-6.6,20.4,0.1c5.9,5.9,11.1,12.2,16.1,18.8
			c-11.5,15.4-23,30.8-34.2,46.4c-6.2,8.6-14.7,11.2-24.6,10.3c-12.5-1.3-20.1-13.5-16.1-25.4c1.3-4,3.2-7.6,5.8-10.9
			c8.2-10.5,16.2-21,24.3-31.4c0.8-0.2,1-0.7,1.1-1.4c0.2-0.3,0.5-0.5,0.7-0.9C57.9,136,58.2,135.7,58.4,135.4L58.4,135.4z"/>
		<path class="st1" d="M134.3,101.2c-0.9,0.2-1.8,0.2-2.7,0.5c-7.3,2.7-13.5,0.9-18.5-4.9c-4.4-5.1-8.6-10.6-12.8-16
			c-0.4-0.5-0.3-1.2-0.5-1.8C110,65.5,120,52,130.4,38.6c6.6-8.5,21.7-10,30-3.4c8,6.3,9,18.4,2.3,27.7
			c-7.8,10.8-15.6,21.7-23.5,32.4c-1.1,1.5-2.3,2.8-3.4,4.1c-0.2,0.3-0.5,0.5-0.8,0.9l0,0C134.8,100.6,134.5,101,134.3,101.2
			C134.2,101.2,134.3,101.2,134.3,101.2z"/>
		<path class="st0" d="M57.1,137.1c0,0.7-0.3,1.2-1.1,1.4C56.1,137.9,56.4,137.4,57.1,137.1z"/>
		<path class="st0" d="M135,100.4c0.2-0.3,0.5-0.5,0.8-0.9C135.5,99.9,135.2,100.1,135,100.4z"/>
		<path class="st0" d="M134.2,101.2c0.2-0.3,0.5-0.5,0.8-0.9C135,100.9,134.8,101.2,134.2,101.2z"/>
		<path class="st0" d="M58.5,135.4c-0.2,0.3-0.5,0.6-0.7,0.9C57.9,136,58.2,135.7,58.5,135.4z"/>
	</g>
</g>
</svg>
