<?xml version="1.0" encoding="utf-8"?>
<!-- Generator: Adobe Illustrator 28.0.0, SVG Export Plug-In . SVG Version: 6.00 Build 0)  -->
<svg version="1.1" id="Layer_1" xmlns="http://www.w3.org/2000/svg" xmlns:xlink="http://www.w3.org/1999/xlink" x="0px" y="0px"
	 viewBox="0 0 226 244" style="enable-background:new 0 0 226 244;" xml:space="preserve">
<style type="text/css">
	.st0{fill:#828282;}
</style>
<path class="st0" d="M144.6,164H62.1l-14.4,37.6c-3.6,9.3-5.3,16.2-5.3,20.8c0,3.6,1.5,6.8,4.6,9.6c3.1,2.8,9.7,4.5,20.1,5.4v6.5H0
	v-6.5c8.9-1.8,14.6-4,17.2-6.9c5.3-5.6,11.2-17.1,17.7-34.3L109.8,0h5.5l74.1,198.4c6,16,11.4,26.3,16.2,31.1
	c4.9,4.8,11.6,7.4,20.3,8v6.5h-84v-6.5c8.5-0.5,14.2-2,17.2-4.8c3-2.7,4.5-6,4.5-9.9c0-5.2-2.1-13.3-6.3-24.5L144.6,164z M140.5,151
	l-36.1-96.4l-37,96.4H140.5z"/>
</svg>
