<?xml version="1.0" encoding="utf-8"?>
<!-- Generator: Adobe Illustrator 28.0.0, SVG Export Plug-In . SVG Version: 6.00 Build 0)  -->
<svg version="1.1"
	 id="svg8" xmlns:rdf="http://www.w3.org/1999/02/22-rdf-syntax-ns#" xmlns:cc="http://creativecommons.org/ns#" xmlns:svg="http://www.w3.org/2000/svg" xmlns:sodipodi="http://sodipodi.sourceforge.net/DTD/sodipodi-0.dtd" xmlns:inkscape="http://www.inkscape.org/namespaces/inkscape" xmlns:dc="http://purl.org/dc/elements/1.1/" inkscape:version="1.0beta1 (fe3e306, 2019-09-17)" sodipodi:docname="fortran-logo-2.svg"
	 xmlns="http://www.w3.org/2000/svg" xmlns:xlink="http://www.w3.org/1999/xlink" x="0px" y="0px" viewBox="0 0 212.6 212.6"
	 style="enable-background:new 0 0 212.6 212.6;" xml:space="preserve">
<style type="text/css">
	.st0{fill:#7564E8;}
</style>
<sodipodi:namedview  bordercolor="#666666" borderopacity="1.0" fit-margin-bottom="0" fit-margin-left="0" fit-margin-right="0" fit-margin-top="0" id="base" inkscape:current-layer="layer1" inkscape:cx="128.79053" inkscape:cy="129.75958" inkscape:document-rotation="0" inkscape:document-units="mm" inkscape:pageopacity="0.0" inkscape:pageshadow="2" inkscape:window-height="814" inkscape:window-maximized="0" inkscape:window-width="1049" inkscape:window-x="3" inkscape:window-y="23" inkscape:zoom="1.7501339" pagecolor="#ffffff" showgrid="false">
	</sodipodi:namedview>
<g>
	<path class="st0" d="M173.1,0H39.5C17.7,0,0,17.7,0,39.5v133.5c0,21.8,17.7,39.5,39.5,39.5h133.5c21.8,0,39.5-17.7,39.5-39.5V39.5
		C212.6,17.7,194.9,0,173.1,0z M183.6,57.5v34.3l-8.2,0c-4.5,0-8.7-0.2-9.3-0.4c-1.1-0.3-1.2-0.4-1.7-7.4c-0.7-9-1.3-13-2.7-18.9
		c-3.1-12.9-9.7-19.9-20.5-21.8c-4.5-0.8-24.2-1.6-40.4-1.6l-11.2,0v25.8v25.8l5.9-0.3c6.7-0.3,12-1.1,14.5-2.2
		c2.7-1.2,5.6-4.1,6.9-7.1c1.4-3.1,2.3-7.2,3.1-13.7c0.3-2.5,0.6-5.1,0.7-5.6c0.2-1,0.3-1,9.2-1h9v41.2v41.2h-9.1h-9.1l-0.3-4.8
		c-0.6-8.6-2.2-16.8-4.2-20.6c-2.8-5.3-8.2-7.7-19.1-8.4c-2.4-0.2-5.1-0.4-5.9-0.5l-1.5-0.2l0.2,25.9c0.2,27.3,0.3,28.4,2.3,30.7
		c2.1,2.4,3.4,2.5,25,3.3c0.4,0,0.6,2.2,0.6,9.2v9.2H73.4H29v-9.2c0-8.5,0.1-9.2,0.8-9.2c0.4,0,4.8-0.2,9.7-0.4
		c7.9-0.4,9.1-0.5,11-1.5c1.5-0.7,2.4-1.6,3.1-2.9c0.9-1.8,0.9-2.3,0.9-60.1c0-54.3-0.1-58.3-0.8-59.7c-1-1.8-2.8-3.2-4.9-3.9
		c-0.9-0.3-5.8-0.6-10.8-0.8L29,41.5v-9.1v-9.1h77.3h77.3V57.5z"/>
</g>
</svg>
