<?xml version="1.0" encoding="utf-8"?>
<!-- Generator: Adobe Illustrator 28.0.0, SVG Export Plug-In . SVG Version: 6.00 Build 0)  -->
<svg version="1.1" id="Layer_1" xmlns="http://www.w3.org/2000/svg" xmlns:xlink="http://www.w3.org/1999/xlink" x="0px" y="0px"
	 viewBox="0 0 133.1 139.2" style="enable-background:new 0 0 133.1 139.2;" xml:space="preserve">
<style type="text/css">
	.st0{fill:#F47E30;}
</style>
<path class="st0" d="M132.5,34.6c-0.9-1-2.6-0.8-12.1,1.4c-6.8,1.6-10.2,2.4-13.3,3.3c-5.8,1.7-9.4,2.7-13.9,4.8
	c-4.1,1.9-7.4,3.9-9.7,5.4c-2.7-2.4-6.7-5.4-12.1-7.8c-7.1-3.2-13.5-4.1-17.6-4.3c-1.4-3.1-2.9-5.6-4.1-7.4
	c-2.9-4.2-4.9-7.3-8.6-9.9c-3-2.1-4.3-1.9-5.9-4.1c-1.1-1.6-1.1-2.7-2.3-7.1c-2.1-8-2.8-8.7-3.5-8.9C27.5-0.5,25,2.9,24,3.8
	c-1,1.5-2.5,3.9-3.9,12.3c-0.6,3.3-1.1,6.6-1.3,11.2c-0.2,5,0.2,8.7,0.6,12.5c0.4,3.9,1.1,9,2.4,14.9c0.8,4.4-0.2,6.8-1.2,8.2
	c-1.1,1.5-2.2,1.5-4.1,4c-1.4,1.8-2.1,3.4-2.6,4.5c-0.8,1.8-1.6,3.4-1.8,5.3c-0.5,3.7,1.4,6.9,2.6,8.6c0,3.2,0,6.5,0,9.7
	c-1,0.7-2.4,1.5-4,2.1c-2.3,0.9-4.4,1.2-5.9,1.3c-0.4,0.1-2.7,0.3-4,2.2c-1.8,2.6,0,5.9,0.3,6.3c0.5,0.9,1.1,1.4,2.4,2.5
	c2.8,2.3,4.2,3.4,6.4,4.5c0.9,0.5,4.9,2.4,10.6,2.7c3.3,0.1,6.1-0.3,8.4-0.9c1.6-0.6,4.2-1.2,7.4-1.1c1.9,0.1,6.5,0.3,10.6,3.8
	c0.9,0.8,4,3.4,5.1,8c0.4,1.7,1.4,5.4-0.6,8.3s-6.3,3.9-6.1,4.3c0,0.2,0.4,0.1,0.6,0.1c1.2,0,2.8,0,4.8-0.2
	c3.2-0.4,6.2-1.1,10.7-2.7c6.5-2.4,11.2-4.1,16.6-8c3.9-2.8,6.5-5.6,7.7-6.9c6.1-6.9,8.6-13.8,10.2-18.3c3.5-9.7,4.2-18.7,4-25.4
	c6.3-3.2,10.8-6.9,13.7-9.6c3.7-3.5,5.9-6.5,8.9-10.5c4.5-6.1,6.5-10.2,7.5-12.3C132.3,40.2,134,36.3,132.5,34.6z M7.1,106.7
	c-0.2,0.2-1.1,1-2.5,1.1c-0.9,0-1.5-0.3-1.9-0.4c-0.3-0.2-0.8-0.6-1.3-1.2c-0.5-0.6-0.8-1.2-0.9-1.7s-0.1-1.3,0.2-2.3
	c0.2-0.5,0.5-1.5,1.5-2.3c1.2-0.8,2.5-0.7,2.9-0.7c0.3,0,2.2,0.4,3.1,2C9.1,102.9,8.7,105.2,7.1,106.7z M26.6,87.3
	c0,0,0.1-0.4,0.1-1.1c0-0.1,0-0.7-0.1-1.1c-0.2-0.8-1-1-1.8-1.8c-1-0.9-1.3-2-1.5-2.4c-0.2-0.6-0.7-2,0-3.5c0.4-0.9,1.1-1.4,1.5-1.7
	c0-1,0-2.6-0.4-4.3c-0.4-1.7-0.9-2.7-0.7-2.8c0.3-0.2,3.4,2.6,4.5,6.4C30,80.9,26.7,87.3,26.6,87.3z M53.2,68.2
	c0.7-0.9,1.5-1.9,2.3-2.9c1.7-2,3.4-3.7,5-5.2c3-2.9,6.1-5.9,9.1-8.8c0.7,0.4,1.4,0.8,2.2,1.2l-7.3,5.6c-0.8,0.7-1.6,1.4-2.3,2.1
	c-1.4,1.5-2.9,3-4.4,4.5c-0.8,0.9-1.7,1.8-2.5,2.6c-0.6,0.5-1.1,1-1.6,1.5c-0.2,0.2-0.5,0.2-0.6,0.1C52.9,68.8,52.9,68.4,53.2,68.2z
	 M33.8,94.4c-0.1,0-0.1-0.1-0.2-0.1c2.8-2.3,7.6-5.7,14.5-7.7c5.5-1.6,10.3-1.8,13.6-1.6c0,0.1,0,0.2,0,0.3c-0.6,0-1.2,0.1-1.9,0.1
	c-0.4-0.1-1-0.1-1.7,0c-0.5,0.1-1.5,0.3-2.5,1c-0.3,0.2-0.5,0.4-1.1,1.3c-1.2,1.6-1.5,2-1.8,2.4c-0.6,0.7-1.5,1.6-3.2,2.3
	c-0.9,0.3-2.2,0.7-3.9,0.6c-1.2,0-2.2-0.1-3.3-0.7c-0.5-0.3-0.9-0.6-1.6-0.7c-0.6-0.1-1.2,0-1.7,0.1c-0.3,0.1-1,0.2-1.8,0.5
	C35.7,92.8,34.5,93.7,33.8,94.4z M68.1,109.4c-10-1.2-19.8-2.6-29.4-4.2c-0.2,0-0.4-0.1-0.6-0.1c-0.2-0.2-0.2-0.3-0.2-0.3
	c0.1-0.2,0.6-0.1,1.5-0.1c0.5,0,0.8,0,1,0c0.9,0,11.6,0.9,26.1,2c0.7,0,1.3,0,1.7,0c0.8,0.1,1.2,0.1,1.3,0.1c0.7,0.1,0.9,0.2,1,0.1
	c0.3-0.2,0.3-0.6,0.2-1.8c0-0.8,0-1.4,0-1.7c-0.1-2.6-0.2-8.9,0.2-9.6c0-0.1,0.2-0.4,0.4-0.4s0.3,0.3,0.4,0.5
	c0.3,4.3,0.6,8.8,0.7,13.3c0,0.9,0,1.8,0.1,2.7C71,109.7,69.5,109.6,68.1,109.4z"/>
</svg>
