<?xml version="1.0" encoding="utf-8"?>
<!-- Generator: Adobe Illustrator 28.0.0, SVG Export Plug-In . SVG Version: 6.00 Build 0)  -->
<svg version="1.1" id="Layer_1" xmlns="http://www.w3.org/2000/svg" xmlns:xlink="http://www.w3.org/1999/xlink" x="0px" y="0px"
	 viewBox="0 0 92.1 123.7" style="enable-background:new 0 0 92.1 123.7;" xml:space="preserve">
<style type="text/css">
	.st0{fill-rule:evenodd;clip-rule:evenodd;fill:#493416;}
	.st1{fill-rule:evenodd;clip-rule:evenodd;fill:#F4A91D;}
	.st2{fill-rule:evenodd;clip-rule:evenodd;fill:#F4A81D;}
	.st3{fill-rule:evenodd;clip-rule:evenodd;fill:#DE8826;}
	.st4{fill-rule:evenodd;clip-rule:evenodd;fill:#DE8726;}
	.st5{fill-rule:evenodd;clip-rule:evenodd;fill:#FFFFFF;}
	.st6{fill-rule:evenodd;clip-rule:evenodd;fill:#C8C6C6;}
	.st7{fill-rule:evenodd;clip-rule:evenodd;fill:#EFA61F;}
	.st8{fill-rule:evenodd;clip-rule:evenodd;fill:#DD8627;}
	.st9{fill-rule:evenodd;clip-rule:evenodd;fill:#DC8727;}
	.st10{fill-rule:evenodd;clip-rule:evenodd;fill:#ECA321;}
	.st11{fill-rule:evenodd;clip-rule:evenodd;fill:#493415;}
	.st12{fill-rule:evenodd;clip-rule:evenodd;fill:#DD8726;}
	.st13{fill-rule:evenodd;clip-rule:evenodd;fill:#513A15;}
	.st14{fill-rule:evenodd;clip-rule:evenodd;fill:#473315;}
	.st15{fill-rule:evenodd;clip-rule:evenodd;fill:#473215;}
	.st16{fill-rule:evenodd;clip-rule:evenodd;fill:#DB8527;}
	.st17{fill-rule:evenodd;clip-rule:evenodd;fill:#C5C4C3;}
</style>
<path class="st0" d="M77.9,86.8c3.6-2.7,5.4-6,6.3-10.2c4.2,4.1,5.6,8.9,5.3,14.4c-0.5,7.4-3.9,12.8-10.9,15.7
	c-0.6,0.2-1,0.8-1.3,1.4c-3.3,6-8.1,9.7-15,10.8c-0.6,0.1-1.1,0.4-1.6,0.7c-8.1,5.5-21,5.5-29.2,0c-0.5-0.4-1.2-0.6-1.8-0.7
	c-6.1-1.1-10.8-4.3-14-9.6c-0.9-1.5-2-2.6-3.6-3.3c-11.8-5.4-11.6-22.9-4.2-29c0.7,1.8,1.3,3.7,2.2,5.3c0.9,1.7,2.3,3.2,3.4,4.7
	l0.6-0.2c0.2-2,0.5-3.9,0.6-5.9c0.2-2.8,0.3-5.5,0.3-8.3c0-3.4-1.3-6-4.4-7.7c-2.3-1.2-4.7-2.5-6.7-4.2c-5-4-4.8-9.5,0.2-13.3
	c1.2-0.9,1.9-2,2.1-3.5c0.3-3.2,0.8-6.4-1.5-9.2c-0.6-0.8-1-1.9-1.3-2.8c-1.5-4.8,0.9-8.7,5.9-9.4c1.4-0.2,2.2-0.6,2.4-2.3
	c0.3-3-0.3-5-3.1-6.5c-2.2-1.1-4.6-1.8-7-2.7c2.8-4.1,7-5.9,11.9-6.2c6.5-0.4,11.6,2.6,16,7.1c0.7,0.8,1.3,1.6,2.1,2.3
	c0.4,0.4,1,0.6,1.5,0.6c0.2,0,0.6-0.8,0.6-1.3c0.3-3.8,2.1-6.9,4.9-9.4c0.5-0.4,1.1-0.7,1.6-1.1l1.4,6.5l0.6,0
	c1-5.2,4.5-7.8,9.2-9.5c-0.1,1.6-0.3,3-0.2,4.4c0.1,1.4,0.5,2.7,0.8,4.4c2.6-1.8,4.9-3.7,7.9-3.7c-0.6,2.5-1.3,4.9-1.9,7.3
	c-0.3,1.2,0.1,2.4,1.7,2.4c0.6,0,1.3-0.5,1.7-0.9c3.4-4,7.2-7.4,12.5-8.7c6.7-1.7,13.5,0.6,17.4,6c-0.7,0.2-1.4,0.3-2.1,0.5
	c-1.7,0.6-3.4,1-5,1.9c-3.2,1.8-3.7,3.6-3,7.7c0.1,0.4,0.7,0.8,1.1,0.9c0.7,0.2,1.5,0.3,2.2,0.5c4.1,1.2,6.1,4.6,4.9,8.7
	c-0.4,1.5-1.1,2.9-1.9,4.2c-2.1,3.3-1.3,6.8-0.5,10.1c0.2,0.8,1.2,1.3,1.9,1.9c4.3,3.5,4.7,8.7,0.6,12.4c-2.3,2-5.1,3.6-7.8,5.1
	c-2.5,1.4-4,3.5-4,6.2C77.4,76.4,77.7,81.6,77.9,86.8L77.9,86.8z M60,77.9L60,77.9c0,0.1,0,0.2,0.1,0.3l0.3,0.8
	c1.1,2.9,2.2,5.9,3.3,8.8c1.4,3.5,0.4,3.3,4.9,2.9l3.7-0.7c1.9,0,2.4-1,2.3-2.9c-0.4-4.5-0.5-9.1-0.8-13.6
	c-0.3-5.8,1.9-9.9,7.4-12.4c2-0.9,3.8-2.3,5.4-3.8c2.3-2.3,1.7-5.9-1.2-7.5l-0.2,2c-2.2-3.4-2.8-6.8-3.3-10.2l-0.1-1.8
	c0.1-0.1,0.1-0.2,0-0.3l0.9-6.7l0.3,0l0.5,2.1c0.7-1.2,1.3-2.1,1.7-3c1.7-3.7,0.2-6.1-3.9-6.1c-2.4,0-4.9,0.4-7.3,1
	c-6.1,1.6-11.2,5.2-16.2,8.9c-0.5,0.4-1,0.7-1.5,1.1L56,36.4l2.6-3.7l0.6-0.7c0.1-0.1,0.1-0.1,0.2-0.2l9.7-7.8l-5.9-3.2l-0.1,0
	l-0.4-0.3c-6.8-3.2-14.1-3.9-21.4-3c-4,0.5-7.9,2-11.9,3c-2.3,0.9-4.5,2-6.1,3.6L33,32l0,0l0.4,0.5l2.7,3.9
	c-3.1-1.7-5.9-3.7-8.8-5.6c-4.4-2.9-9.3-4.8-14.6-5.2c-2.3-0.2-4.9-0.4-6.1,2c-1.2,2.5,0.4,4.7,1.8,6.8c0.1,0.1,0.2,0.1,0.4,0.1
	l0.2-1.9c0.4,1,0.7,1.9,0.8,2.9c0.2,1.9,0.3,3.8,0.5,5.7c-0.4,1.8-0.6,3.6-1.1,5.4c-0.5,1.8-1.4,3.5-2.1,5.2l-0.4-0.2l-0.1-1.8
	c-3.2,2-3.4,6-0.3,8.4c1.9,1.5,4,2.7,6.1,3.8c4,2.1,5.8,5.5,5.7,9.8c-0.1,5-0.4,9.9-0.7,14.9c-0.2,2.7-0.2,2.7,2.2,3.2l4,0.7
	c1.3-0.1,2.9,1.1,3.7-0.8c1.5-3.7,2.9-7.5,4.4-11.3c0.1-0.1,0.1-0.2,0.1-0.3l0.4-0.8l1.5-2.8l0.4,0.2c-0.7,6.6-3,12.9-5,19.4
	c11.1,0,21.9,0,32.7,0c0.2,0,0.3-0.1,0.5-0.1l-5.4-20.5l0.6-0.2l2,4.1L60,77.9L60,77.9z M72.6,108.5c-4.1-0.2-5.5,1-6.5,5.6
	C68.8,112.7,71.2,111.1,72.6,108.5l0-0.2L72.6,108.5z M84.5,84.9c-3.5,7.2-10.1,8.8-17,9.6l3.3,6.3l-0.5,4.1
	c5.5-0.3,10.4-2,13.5-6.8c2.9-4.4,2.8-9.3,1.2-14.3C85,83.8,84.5,84.9,84.5,84.9z M7.3,84.3c0-0.1,0-0.3-0.1-0.3
	c-0.1,0-0.4,0-0.4,0.1c-0.3,2-0.7,4.1-0.7,6.1c0.1,7.1,4,12,10.9,13.9c1.6,0.4,3.2,0.6,4.9,0.9l-0.6-4.2l3.4-6.3
	C17.4,93.7,10.7,91.7,7.3,84.3z M64.5,109.2l0.4-0.7c0.6-1.3,1.3-2.6,1.7-4c1.5-4.5-0.2-6.9-4.9-7.1c-0.3,0-0.6,0-0.9,0
	c-9.8,0-19.7,0-29.5,0c-1,0-2,0.1-2.9,0.3c-2.9,0.7-4.1,2.4-3.3,5.3c0.5,1.9,1.4,3.7,2.1,5.5l0.4,0.7l0.3,0.5
	c1.6,2.1,2.9,4.5,4.9,6.1c6.5,5.3,13.9,5.7,21.6,3C59,117.1,62.4,113.8,64.5,109.2C64.5,109.2,64.5,109.2,64.5,109.2z M83.8,9.7
	C76.5,6.5,69,9.3,64.7,16.8l2.5,1.2c3.3-5,8-8,13.7-7.4C81.7,10.7,82.6,10.1,83.8,9.7z M8.8,10c1.1,0.2,2.2,0.6,3.3,0.6
	c3.3,0,6.2,0.7,8.7,2.9c1.5,1.4,2.9,2.9,4.4,4.5l2.3-1.2C23.5,9.6,15.5,6.4,8.8,10z M77.9,13.5c-0.3,0-0.8,0.1-1.3,0.2
	c-2.6,0.7-4.2,2.5-5.1,4.9c-0.3,0.7-0.5,1.9-0.1,2.4c0.8,1,1.5,2.5,3.5,1.8c1.3-0.5,1.7-1.2,1.9-2.4C77.1,18.3,77.5,16.1,77.9,13.5z
	 M14.2,13.6c0.3,1.7,0.6,3.3,0.9,4.9c0.1,0.8,0.3,1.7,0.4,2.5c0.3,1.8,2,2.2,3.1,1.9c1.1-0.4,2.5-1.8,2.6-2.9
	C21.4,17.1,17.3,13.6,14.2,13.6z M19.4,108.5c1.6,2.4,3.8,4.3,6.9,5.7C24.6,111.1,24.1,107.3,19.4,108.5z"/>
<path class="st1" d="M10.5,41.2c-0.2-1.9-0.3-3.8-0.5-5.7c-0.1-1-0.4-1.9-0.8-2.9l-0.2,1.9c-0.2-0.1-0.3-0.1-0.4-0.1
	c-1.4-2.1-3-4.3-1.8-6.8c1.2-2.4,3.8-2.1,6.1-2c5.3,0.4,10.1,2.3,14.6,5.2c2.9,1.8,5.7,3.8,8.8,5.6l-2.7-3.9L33,32l0,0
	c-0.6-1.4-1.1-2.9-1.8-4.3c-1.2-2.3-2.9-4.4-1.8-7.3c4-1,7.9-2.5,11.9-3c7.3-0.9,14.6-0.2,21.4,3l0.4,0.3l0.1,0
	c0.1,2.5-0.9,4.7-2.2,6.8c-0.8,1.3-1.1,2.8-1.7,4.2c0,0.1-0.1,0.2-0.2,0.2l-0.6,0.7L56,36.4l0.2,0.3c0.5-0.3,1-0.7,1.5-1.1
	c5-3.7,10.1-7.3,16.2-8.9c2.4-0.6,4.8-1,7.3-1c4.1-0.1,5.6,2.4,3.9,6.1c-0.4,0.9-1,1.8-1.7,3l-0.5-2.1l-0.3,0l-0.9,6.7l-0.1,0.1
	l0.1,0.2l0.1,1.8c-0.2,0.5-0.6,1-0.6,1.6c0,4.3,0.3,8.4,3.6,12.2c-2.6,1.3-4.9,2.6-7.3,3.7c-2.2,1-4.4,1.9-5.2,4.3
	c-0.6,2.1-1,4.2-1.5,6.3l-1.2-3.3c-0.3,8.1,0,16,2.6,23.7l-3.7,0.7c-2.4-3.7-4.9-7.4-7.3-11.1c-0.2-0.3-0.6-0.4-0.9-0.6l-0.3-0.8
	l0.2-0.2L60,77.9l0,0l-0.3-0.4l-2-4.1l-0.6,0.2c1.8,6.8,3.6,13.6,5.4,20.5c-0.1,0-0.3,0.1-0.5,0.1c-10.8,0-21.6,0-32.7,0
	c2-6.5,4.3-12.8,5-19.4l-0.4-0.2l-1.5,2.8L32,78.2c0,0.1,0,0.2-0.1,0.3c-0.4,0.3-0.8,0.5-1.1,0.9c-1.8,2.7-3.6,5.4-5.3,8.1
	c-0.6,1-1.1,2.1-1.7,3.2l-4-0.7c2.7-7.6,3-15.5,2.7-23.5l-1.3,3.3c-0.3-5.4-1.9-9.5-7.6-11.2c-2.2-0.6-4.1-2.2-5.6-3.2
	c1-2.5,2.1-4.3,2.4-6.3C10.7,46.5,10.5,43.8,10.5,41.2z M51.9,41.6l0.4-0.4l0.9-1c-2.3,0.2-4.6,0.6-6.9,0.6c-2.3,0-4.6-0.4-6.9-0.7
	L38.9,40l0.5,0.1l0.7,1.5c4.1,4.7,7.5,4.8,11.7,0.3C51.8,41.8,51.9,41.7,51.9,41.6C51.9,41.6,51.9,41.6,51.9,41.6z M29,66.4l4.4-2.7
	c1-1.9,2.2-3.8,2.9-5.9c0.3-1,0.5-1.5,1.6-1.8c2.3-0.6,3.5-2.2,3.5-4.2L39,52.1c-2.5-1.4-4.4-3.4-5.9-5.8c-0.9-1.4-2.2-2.5-3.4-3.5
	c-2.7-2.2-6-2.8-9.3-2.8c-2,0-4.1,0.9-6.1,1.4c-0.1,0.1-0.1,0.1-0.2,0l-0.5,0.2l-0.1,0.2c0,0,0,0.1,0,0.2c0.7,0.3,1.5,0.5,2.3,0.8
	c-2,2.5-1.7,4.8-0.2,7.3l0.8-2.7l0.4,0l0.2,1.9l0.2,0.9l0.1,0.6c-0.2,6.2,5.3,10.7,13.6,10.5L29,66.4l-0.1,0.2
	C28.9,66.5,29,66.4,29,66.4z M63,66.4l0.1,0.1L63,66.4l-1.8-5.2c9.6,0.9,13.5-5.6,13.9-11.5l0.4-2.2l0.3,0l0.7,2.7
	c1.4-2.6,1.8-4.9-0.2-7.3l2.4-0.9l-1-0.4c-0.5-0.3-1-0.8-1.5-0.9c-2.2-0.2-4.4-0.5-6.7-0.4c-4.4,0.2-8,2.2-10.5,5.8
	c-1.6,2.5-3.4,4.7-6.1,6l-2.5-0.3c0.4,2.4,1.8,3.7,3.9,4.3c0.5,0.2,1,0.7,1.2,1.2c1.1,2.1,2,4.2,3,6.4C58.6,63.6,63,66.4,63,66.4z"
	/>
<path class="st2" d="M27.2,108.5c-0.7-1.8-1.6-3.6-2.1-5.5c-0.8-2.9,0.4-4.6,3.3-5.3c0.9-0.2,1.9-0.3,2.9-0.3c9.8,0,19.7,0,29.5,0
	c0.3,0,0.6,0,0.9,0c4.7,0.2,6.4,2.6,4.9,7.1c-0.5,1.4-1.2,2.7-1.7,4l-0.4,0.7l0,0c-1.3,0.8-2.5,1.7-3.8,2.5
	c-3.3,1.9-6.9,2.8-10.7,3.2c-5.2,0.6-10.2,0.2-15-1.6c-2.5-1-4.8-2.4-7.2-3.6l-0.3-0.5C27.6,109.2,27.2,108.5,27.2,108.5z
	 M62.6,105.5l0.4-0.7c1.1-2.9,0.6-3.7-2.4-3.7c-2.3,0-4.6,0-6.8,0c-2.2,0-2.7,0.8-2.1,2.9c0.3,1.1,0.4,2.3,0.8,3.3
	c1.1,2.6,3.2,4.1,5.1,3.8C60,110.6,62.2,108.2,62.6,105.5C62.6,105.5,62.6,105.5,62.6,105.5z M29.4,105.5L29.4,105.5
	c0.4,2.8,2.1,4.5,4.7,5.3c1.8,0.6,3.4-0.2,4.3-1.7c1-1.5,1.4-3.4,2.1-5.2c0.6-2.2,0.2-2.9-2-2.9c-2-0.1-3.9,0-5.9,0
	c-4.2,0-4.3,0.1-3.5,4.1C29,105.1,29.4,105.5,29.4,105.5z"/>
<path class="st3" d="M10.5,41.2c0,2.6,0.3,5.3-0.1,7.9c-0.3,2-1.4,3.8-2.4,6.3c1.6,0.9,3.5,2.5,5.6,3.2c5.7,1.7,7.3,5.8,7.6,11.2
	l1.3-3.3c0.4,8,0,15.9-2.7,23.5c-2.4-0.6-2.3-0.6-2.2-3.2c0.3-5,0.6-9.9,0.7-14.9c0.1-4.3-1.7-7.7-5.7-9.8c-2.1-1.1-4.2-2.3-6.1-3.8
	c-3.1-2.5-2.9-6.5,0.3-8.4l0.1,1.8l0.4,0.2c0.7-1.7,1.5-3.4,2.1-5.2C9.9,44.8,10.1,43,10.5,41.2L10.5,41.2z M72.2,89.9
	c-2.6-7.7-2.9-15.6-2.6-23.7l1.2,3.3c0.5-2.1,0.9-4.2,1.5-6.3c0.8-2.5,3-3.4,5.2-4.3c2.4-1.1,4.7-2.3,7.3-3.7
	c-3.3-3.7-3.6-7.9-3.6-12.2c0-0.5,0.4-1,0.6-1.6c0.6,3.4,1.2,6.9,3.3,10.2l0.2-2c2.8,1.6,3.5,5.2,1.2,7.5c-1.5,1.5-3.4,2.9-5.4,3.8
	c-5.4,2.5-7.7,6.6-7.4,12.4c0.3,4.5,0.4,9.1,0.8,13.6C74.6,89,74.1,89.9,72.2,89.9L72.2,89.9z M85.4,52L85.4,52l0,0.1
	C85.4,52.1,85.4,52,85.4,52z"/>
<path class="st4" d="M27.9,109.6c2.4,1.2,4.7,2.7,7.2,3.6c4.8,1.8,9.8,2.2,15,1.6c3.8-0.5,7.4-1.3,10.7-3.2c1.3-0.8,2.5-1.6,3.8-2.5
	c-2.1,4.6-5.5,7.9-10.2,9.6c-7.6,2.7-15.1,2.2-21.6-3C30.7,114.1,29.4,111.7,27.9,109.6z"/>
<path class="st5" d="M7.3,84.3c3.5,7.4,10.1,9.4,17.4,10.1l-3.4,6.3C12.5,100,6.9,93.4,7.3,84.3z M70.8,100.7
	c-1.1-2.1-2.2-4.2-3.3-6.3c6.9-0.8,13.5-2.4,17-9.6c0.1,0.5,0.3,0.9,0.3,1.4C84.5,93.7,79.4,100,70.8,100.7z"/>
<path class="st6" d="M7.3,84.3c-0.3,9.1,5.3,15.7,14,16.4l0.6,4.2c-1.7-0.3-3.4-0.4-4.9-0.9c-6.9-1.9-10.7-6.8-10.9-13.9
	c0-2,0.4-4.1,0.7-6.1c0,0,0.3-0.1,0.4-0.1C7.2,84,7.2,84.2,7.3,84.3z M70.8,100.7c8.6-0.7,13.8-7,14-14.5c0-0.4-0.2-0.9-0.3-1.4
	l0.5-1.1c1.5,5,1.7,9.9-1.2,14.3c-3.1,4.8-8,6.4-13.5,6.8C70.2,104.8,70.8,100.7,70.8,100.7z"/>
<path class="st7" d="M83.8,9.7c-1.2,0.4-2.1,1-2.9,0.9C75.2,10,70.5,13.1,67.2,18l-2.5-1.2C69,9.3,76.5,6.5,83.8,9.7z M8.8,10
	c6.7-3.6,14.8-0.4,18.7,6.8l-2.3,1.2c-1.5-1.5-2.9-3.1-4.4-4.5c-2.5-2.2-5.4-3-8.7-2.9C10.9,10.6,9.8,10.2,8.8,10z"/>
<path class="st8" d="M77.9,13.5c-0.4,2.5-0.8,4.7-1.1,7c-0.2,1.1-0.5,1.9-1.9,2.4c-2,0.7-2.7-0.8-3.5-1.8c-0.4-0.5-0.2-1.7,0.1-2.4
	c1-2.4,2.5-4.2,5.1-4.9C77,13.6,77.6,13.6,77.9,13.5z M14.2,13.6c3.1,0,7.2,3.5,7,6.4c-0.1,1.1-1.5,2.5-2.6,2.9
	c-1.1,0.4-2.7-0.1-3.1-1.9c-0.2-0.8-0.3-1.7-0.4-2.5C14.8,16.9,14.5,15.3,14.2,13.6z"/>
<path class="st4" d="M29.4,20.5c-1.1,2.9,0.6,5,1.8,7.3c0.7,1.4,1.2,2.9,1.8,4.3c-3.2-2.6-6.4-5.2-9.7-7.9
	C24.8,22.5,27,21.4,29.4,20.5z"/>
<path class="st9" d="M59.4,31.7c0.5-1.4,0.9-2.9,1.7-4.2c1.3-2.1,2.2-4.3,2.2-6.8c2,1.1,4,2.1,5.9,3.2
	C65.6,26.7,62.5,29.2,59.4,31.7z M60.4,78.9c0.3,0.2,0.7,0.3,0.9,0.6c2.5,3.7,4.9,7.4,7.3,11.1c-4.4,0.4-3.5,0.5-4.9-2.9
	C62.6,84.8,61.5,81.9,60.4,78.9z M23.8,90.6c0.6-1.1,1.1-2.2,1.7-3.2c1.7-2.7,3.5-5.4,5.3-8.1c0.2-0.4,0.7-0.6,1.1-0.9
	c-1.5,3.8-2.9,7.5-4.4,11.3C26.7,91.7,25.1,90.5,23.8,90.6z"/>
<path class="st10" d="M19.4,108.5c4.7-1.2,5.2,2.6,6.9,5.7C23.1,112.8,21,110.9,19.4,108.5z M72.6,108.5c-1.4,2.6-3.8,4.2-6.4,5.6
	C67.1,109.5,68.6,108.3,72.6,108.5L72.6,108.5z M72.6,108.5l0-0.2L72.6,108.5L72.6,108.5z"/>
<path class="st9" d="M60,77.9l0.3,0.1l-0.2,0.2C60,78.1,59.9,78,60,77.9z"/>
<path class="st3" d="M81.6,39.7l-0.1-0.2l0.1-0.1C81.7,39.5,81.7,39.6,81.6,39.7z"/>
<path class="st11" d="M58.6,63.6c-1-2.1-1.9-4.3-3-6.4c-0.2-0.5-0.7-1-1.2-1.2c-2.1-0.7-3.5-1.9-3.9-4.3l2.5,0.3
	c0.5,0,1,0.1,1.4,0.1c2.2-0.3,3.7-1.7,5.2-3.2c4.9-5.2,10.7-8.4,18.1-7.5l1,0.4l-2.4,0.9c2,2.4,1.7,4.7,0.2,7.3l-0.7-2.7l-0.3,0
	l-0.4,2.2c-1.1,2.5-2.1,5-4.6,6.4c-3.8,2-7.5,2.9-11.3,0.2C57.5,58.7,58.5,61.2,58.6,63.6z M71,49.7v-4.6c-3.9,2.3-7.2,4.5-9.9,7.6
	L60.1,54C63.8,56.8,71.1,55,71,49.7z"/>
<path class="st11" d="M17.3,50.7l-0.1-0.6l-0.2-0.9l-0.2-1.9l-0.4,0L15.6,50c-1.5-2.6-1.7-4.9,0.2-7.3c-0.9-0.3-1.6-0.5-2.3-0.8
	c0,0-0.1-0.1,0-0.2l0.1-0.2l0.5-0.2c0.1,0,0.1,0,0.2,0c2.8,0.3,5.7,0.3,8.3,1c4.2,1.1,7.5,3.9,10.4,7.1c1.6,1.8,3.5,3.1,6.1,2.7
	l2.3-0.3c0.1,2-1.1,3.6-3.5,4.2c-1.1,0.3-1.2,0.8-1.6,1.8c-0.7,2-1.9,3.9-2.9,5.9c0.2-2.5,1.1-5-0.5-7.5c-2,1.5-4.1,2-6.5,1.6
	C22.1,57,19,54.8,17.3,50.7z M30.9,52.6c-2.7-3.1-6-5.3-9.9-7.6v4.6c0.1,5.4,7.4,7.1,10.9,4.4c-0.1-0.2-0.2-0.4-0.3-0.6
	C31.4,53.2,31.1,52.9,30.9,52.6z"/>
<path class="st3" d="M58.6,63.6c-0.1-2.5-1.1-5,0.5-7.4c3.8,2.7,7.6,1.8,11.3-0.2c2.6-1.4,3.6-3.9,4.6-6.4
	c-0.3,6-4.3,12.5-13.9,11.5l1.8,5.2l0,0C63,66.4,58.6,63.6,58.6,63.6z M17.3,50.7c1.7,4.1,4.9,6.3,9.1,7.1c2.3,0.4,4.5-0.1,6.5-1.6
	c1.6,2.4,0.8,5,0.5,7.5L29,66.4l0,0l1.8-5.2C22.6,61.3,17.1,56.9,17.3,50.7z"/>
<path class="st9" d="M39,52.1c-2.6,0.4-4.5-0.9-6.1-2.7c-2.9-3.2-6.2-6-10.4-7.1c-2.7-0.7-5.6-0.7-8.3-1c2-0.5,4.1-1.5,6.1-1.4
	c3.3,0.1,6.6,0.6,9.3,2.8c1.3,1.1,2.6,2.2,3.4,3.5C34.6,48.7,36.5,50.6,39,52.1z"/>
<path class="st12" d="M77.7,41.4c-7.4-0.9-13.2,2.3-18.1,7.5c-1.5,1.5-3,2.9-5.2,3.2c-0.5,0.1-0.9-0.1-1.4-0.1
	c2.7-1.3,4.5-3.6,6.1-6c2.5-3.7,6.1-5.6,10.5-5.8c2.2-0.1,4.4,0.2,6.7,0.4C76.8,40.6,77.2,41.1,77.7,41.4z M40.1,41.6l-0.7-1.5v0
	c2.3,0.2,4.6,0.7,6.9,0.7c2.3,0,4.6-0.4,6.9-0.6l-0.9,1l-0.4,0.4l0,0c-2.3,0.4-4.6,1-6.9,1.1C43.4,42.7,41.7,42,40.1,41.6z"/>
<path class="st13" d="M40.1,41.6c1.6,0.4,3.3,1.1,4.9,1.1c2.3-0.1,4.6-0.7,6.9-1.1c-0.1,0.1-0.1,0.2-0.2,0.3
	C47.6,46.4,44.2,46.3,40.1,41.6z"/>
<path class="st14" d="M51.6,103.9c-0.6-2.1-0.1-2.8,2.1-2.9c2.3-0.1,4.6,0,6.8,0c3.1,0,3.6,0.8,2.4,3.7l-0.4,0.7l0,0
	c-0.5,0.6-1,1.2-1.6,1.7c-2.5,2.5-5.2,2.4-7.4-0.5C52.9,105.8,52.3,104.9,51.6,103.9z"/>
<path class="st15" d="M29,105.1c-0.8-3.9-0.7-4,3.5-4.1c2,0,3.9,0,5.9,0c2.2,0.1,2.6,0.8,2,2.9c-0.7,1-1.5,2.1-2.2,3.1
	c-1.9,2.4-4.5,2.5-6.7,0.4c-0.7-0.7-1.4-1.4-2.1-2l0,0C29.4,105.5,29,105.1,29,105.1z"/>
<path class="st16" d="M29.4,105.5c0.7,0.7,1.4,1.4,2.1,2c2.2,2.1,4.8,2,6.7-0.4c0.8-1,1.5-2.1,2.2-3.1c-0.7,1.7-1.1,3.6-2.1,5.2
	c-0.9,1.4-2.5,2.2-4.3,1.7C31.5,110,29.8,108.3,29.4,105.5z"/>
<path class="st8" d="M51.6,103.9c0.7,0.9,1.3,1.9,2,2.8c2.2,2.8,4.9,3,7.4,0.5c0.6-0.6,1.1-1.2,1.6-1.7c-0.4,2.7-2.6,5.1-5.1,5.5
	c-1.8,0.3-3.9-1.1-5.1-3.8C52,106.2,51.9,105,51.6,103.9z"/>
<path class="st0" d="M85.4,52l0,0.1L85.4,52L85.4,52z"/>
<path class="st5" d="M61.2,52.7c2.7-3.1,6-5.3,9.9-7.6v4.6c-1.6,2-3.4,3.9-6.2,3.9C63.6,53.6,62.4,53,61.2,52.7z"/>
<path class="st17" d="M61.2,52.7c1.2,0.3,2.4,0.9,3.7,0.9c2.8,0,4.6-1.8,6.2-3.9c0,5.3-7.3,7.1-11,4.3C60.1,54,61.2,52.7,61.2,52.7z
	"/>
<path class="st5" d="M21,49.7v-4.6c3.9,2.3,7.2,4.5,9.9,7.6c-1.5,1.4-4.7,1.4-6.9-0.1C22.9,51.8,22,50.6,21,49.7z"/>
<path class="st17" d="M21,49.7c1,1,1.9,2.1,3,2.8c2.2,1.5,5.4,1.5,6.9,0.1c0.2,0.3,0.5,0.5,0.7,0.8c0.1,0.2,0.2,0.4,0.3,0.6
	C28.4,56.8,21.1,55.1,21,49.7z"/>
</svg>
