<?xml version="1.0" encoding="utf-8"?>
<!-- Generator: Adobe Illustrator 28.0.0, SVG Export Plug-In . SVG Version: 6.00 Build 0)  -->
<svg version="1.1" id="Layer_1" xmlns="http://www.w3.org/2000/svg" xmlns:xlink="http://www.w3.org/1999/xlink" x="0px" y="0px"
	 viewBox="0 0 38.8 50.3" style="enable-background:new 0 0 38.8 50.3;" xml:space="preserve">
<style type="text/css">
	.st0{fill:#ECDFA7;}
</style>
<path class="st0" d="M15.9,44.4l2.6-15.2c0,0,1,0.9,2.3,1.6c1.4,0.7,2.6,1,3.4,1.3c0.5,0.1,1,0.3,1.5,0.4c-0.2,0.5-0.3,0.9-0.3,1.5
	c0,0.1,0,0.1,0.1,0.1c0,0,3.4,1.9,5.7,0c0.5-0.4,0.9-1.1,1.2-1.7l0.1-0.9c1-0.5,1.6-1.2,1.8-1.6c0.2-0.5,0.7-1.4,0-2.8
	c-0.8-1.5-2.1-2.4-2.9-2.9c-0.9-0.6-1.5-0.9-2.3-1.1c-0.5-0.1-0.9-0.3-1.2-0.4c-1.1-0.6-1-1.8-0.8-2.4c0.2-0.6,0.5-1.2,0.4-1.9
	l2.9-2.4c0.1,0.1,0.2,0.1,0.3,0.2c0,0,0.9,0.1,1.4-1.3L32,14.8c0,0,1.7-1.6,2-2.1c0,0,0.2-0.3,0.1-0.4c-0.1-0.1-0.4-0.5-2.1-1.7
	c-1.8-1.2-2.6-1.3-2.8-1.2c0,0-1.8,0.9-2.5,1.6l-0.3-0.2c0,0-1.2,0.1-0.8,0.9l0.1,0.1l-9,7.8l-5-10.7H12c0,0,0.1-1-0.6-1.2
	c0,0-0.1,0-0.3,0c-0.3-0.5-0.9-2-0.9-2c0-0.1-0.1-0.3-0.3-0.3c-0.2-0.1-0.4-0.1-1.4,0c-1.4,0.2-2.4,0.5-3,0.7C5,6.2,4.4,6.6,4.4,6.6
	C4.2,6.7,4.3,6.9,4.3,6.9l0.6,1.4c0,0-0.7,0.1-0.7,0.2C4,8.8,4.5,10.2,5,10.5l0.6-0.2l6,13.5C11.7,24.2,7,42.2,7,42.2
	c0,0.1,0,0.1,0,0.1c0.6,0.9,4.7,3.6,8.7,2.3C15.9,44.6,15.9,44.4,15.9,44.4z M26,31.5c-0.2-0.1-0.4-0.1-0.6-0.2
	c-0.3-0.1-0.5-0.2-0.8-0.3c-0.7-0.3-1.5-0.6-2.1-0.9l0,0c-0.7-0.3-1.4-0.7-1.9-1.1c-0.5-0.4-1.3-1.4-1.5-1.7c0-0.3,0.2-1.5,0.2-2.1
	c2-1.4,4.1-3,6.3-4.7c-0.1,0.4-0.1,0.9,0,1.5c0.2,1,0.8,1.8,1.8,2.3c0.1,0,0.6,0.3,1.9,0.6c0.8,0.2,1.6,0.7,1.6,0.7
	c0.7,0.4,1.3,0.9,1.8,1.4c0.5,0.5,0.9,1.2,0.9,1.7c0,0.1,0.1,1-0.7,1.8c-0.1-0.4-0.2-1-0.6-1.3l0,0l0,0c0,0-0.1,0-0.1,0
	c-0.1,0-0.2,0.1-0.3,0.2c0,0.1-0.5,1.3-1.7,1.4c0,0-0.1,0-0.1,0c-0.9,0-2.5-0.6-2.5-0.6c-0.1,0-0.1,0-0.2,0c-0.1,0-0.3,0.1-0.4,0.1
	l0,0l0,0C26.7,30.4,26.2,31.1,26,31.5z"/>
</svg>
