<?xml version="1.0" encoding="utf-8"?>
<!-- Generator: Adobe Illustrator 28.0.0, SVG Export Plug-In . SVG Version: 6.00 Build 0)  -->
<svg version="1.1" id="Layer_1" xmlns="http://www.w3.org/2000/svg" xmlns:xlink="http://www.w3.org/1999/xlink" x="0px" y="0px"
	 viewBox="0 0 33 31.7" style="enable-background:new 0 0 33 31.7;" xml:space="preserve">
<style type="text/css">
	.st0{fill:#2E76FF;}
</style>
<g>
	<path class="st0" d="M23.6,15.6c0.1,0.1,0.1,0.2,0.1,0.2l0,0c0,0,0,0.1,0.1,0.2h-0.1l0,0v0.1h-0.1h-0.1l0,0l0,0l0,0v0.1v0.1
		c0,0.1,0,0.1-0.1,0.1c-0.3,0-0.5,0-0.7,0s-0.5,0-0.7,0c-0.3,0-0.6,0-0.9,0s-0.6,0-0.9,0c0.1,0.5,0.1,1.1,0.2,1.6s0.2,0.9,0.3,1.2
		c0,0.1,0,0.1,0,0.2s0,0.1,0,0.2s0,0.2-0.1,0.3c-0.1,0.1-0.1,0.1-0.2,0.2c-0.1,0-0.2,0.1-0.2,0.1c-0.1,0-0.2,0.1-0.2,0.1
		s0-0.1-0.1-0.1c0,0,0,0,0-0.1c0,0.1-0.1,0.2-0.1,0.3c-0.1,0-0.1,0.1-0.2,0.1s-0.1,0-0.2,0s-0.1,0-0.2,0.1c-0.1,0-0.1-0.1-0.2-0.1
		s-0.1-0.1-0.2-0.1c-0.1-0.6-0.1-1.3-0.2-1.9s-0.1-1.3-0.2-1.9c-0.1,0-0.3,0-0.4,0s-0.2,0-0.4,0c-0.3,0-0.6,0-0.9,0s-0.6,0-0.9,0
		c-0.1-0.1-0.2-0.2-0.2-0.3c-0.1-0.1-0.1-0.2-0.2-0.3l0,0l0,0c-0.1-0.1-0.2-0.2-0.2-0.2v-0.1v-0.1c0,0,0,0,0-0.1s0-0.1,0-0.2
		c0-0.1,0-0.1,0-0.2c0,0,0-0.1,0.1-0.1s0.2-0.1,0.3-0.1s0.3,0,0.4,0c0.2,0,0.3,0,0.5,0s0.5,0,0.8,0s0.6,0,1,0
		c-0.1-0.3-0.1-0.7-0.2-1.1c-0.1-0.4-0.1-0.7-0.1-1c0-0.1,0-0.2,0.1-0.3s0.2-0.2,0.4-0.2v-0.1C18.7,12,18.9,12,19,12
		s0.2-0.1,0.2-0.1c0.1,0,0.2,0,0.3,0.1c0.1,0,0.1,0.1,0.2,0.1s0.1,0.1,0.1,0.2c0,0.2,0,0.4,0.1,0.6c0,0.2,0,0.4,0.1,0.6
		c0,0.2,0.1,0.4,0.1,0.6c0,0.2,0.1,0.5,0.1,0.7c0.4,0,0.7,0.1,1.1,0.1c0.3,0,0.6,0,0.9,0.1c0.3,0,0.5,0,0.7,0s0.3,0,0.4,0l0.1,0.1
		c0.2,0,0.4,0,0.4,0.1v0.1v0.1C23.6,15.5,23.6,15.6,23.6,15.6z"/>
	<path class="st0" d="M32.9,15.6c0.1,0.1,0.1,0.2,0.1,0.2l0,0c0,0,0,0.1,0.1,0.2H33l0,0v0.1h-0.1h-0.1l0,0l0,0l0,0v0.1v0.1
		c0,0.1,0,0.1-0.1,0.1c-0.3,0-0.5,0-0.7,0s-0.5,0-0.7,0c-0.3,0-0.6,0-0.9,0s-0.6,0-0.9,0c0.1,0.5,0.1,1.1,0.2,1.6s0.2,0.9,0.3,1.2
		c0,0.1,0,0.1,0,0.2s0,0.1,0,0.2s0,0.2-0.1,0.3c-0.1,0.1-0.1,0.1-0.2,0.2c-0.1,0-0.2,0.1-0.2,0.1c-0.1,0-0.2,0.1-0.2,0.1
		s0-0.1-0.1-0.1c0,0,0,0,0-0.1c0,0.1-0.1,0.2-0.1,0.3c-0.1,0-0.1,0.1-0.2,0.1s-0.1,0-0.2,0s-0.1,0-0.2,0.1c-0.1,0-0.1-0.1-0.2-0.1
		s-0.1-0.1-0.2-0.1c-0.1-0.6-0.1-1.3-0.2-1.9s-0.1-1.3-0.2-1.9c-0.1,0-0.3,0-0.4,0s-0.2,0-0.4,0c-0.3,0-0.6,0-0.9,0s-0.6,0-0.9,0
		c-0.1-0.1-0.2-0.2-0.2-0.3c-0.1-0.1-0.1-0.2-0.2-0.3l0,0l0,0c-0.1-0.1-0.2-0.2-0.2-0.2l-0.1-0.1v-0.1c0,0,0,0,0-0.1s0-0.1,0-0.2
		c0-0.1,0-0.1,0-0.2c0,0,0-0.1,0.1-0.1s0.2-0.1,0.3-0.1c0.1,0,0.3,0,0.4,0c0.2,0,0.3,0,0.5,0c0.3,0,0.5,0,0.8,0s0.6,0,1,0
		c-0.1-0.3-0.1-0.7-0.2-1.1c-0.1-0.4-0.1-0.7-0.1-1c0-0.1,0-0.2,0.1-0.3c0-0.1,0.2-0.2,0.4-0.2v-0.1C28,12,28.1,12,28.2,12
		s0.2-0.1,0.2-0.1c0.1,0,0.2,0,0.3,0.1c0.1,0,0.1,0.1,0.2,0.1c0.1,0.1,0.1,0.1,0.1,0.2c0,0.2,0,0.4,0.1,0.6s0,0.4,0.1,0.6
		c0,0.2,0.1,0.4,0.1,0.6c0,0.2,0.1,0.5,0.1,0.7c0.4,0,0.7,0.1,1.1,0.1c0.3,0,0.6,0,0.9,0.1c0.3,0,0.5,0,0.7,0c0.2,0,0.3,0,0.4,0
		l0.1,0.1c0.2,0,0.4,0,0.4,0.1v0.1v0.1C32.8,15.5,32.8,15.6,32.9,15.6z"/>
</g>
<path class="st0" d="M14.9,27.2c-0.6-1.7-0.9-4.1-1-6.9c0-1.2-0.1-3.1-0.1-5.7c0-1.2-0.1-2.5-0.1-3.9S13.6,8,13.6,6.8s0-2.3-0.1-3.3
	c0-1,0-1.7,0-2.1v-1l-0.9-0.2C12.3,0,12.1,0,11.9,0C10,0,9.5,1.2,9.4,1.6v11.5c-0.5,0.2-1.6,0.5-4.1,0.6L5.4,3V2.8
	c-0.2-1-0.7-1.3-1.1-1.5c-0.4,0-1-0.1-1.6,0.5C2.5,2,2.2,2.2,1.7,3.1L1.5,3.4v0.4c0,0.4,0,1.1-0.1,2.1c0,1-0.1,2.1-0.1,3.2
	s-0.1,2.2-0.1,3.2S1.1,14,1.1,14.4c0,0.3-0.1,0.5-0.1,0.7c-0.1,0.3-0.3,0.6-0.5,1.1C0.2,16.8,0,17.4,0,17.9c0,0.7,0.3,1.4,0.8,1.7
	l0.9,12l4.1-3.5l-0.1-0.7c-0.3-2.2-0.4-4-0.4-5.6c0-1.2,0-2.1,0-2.9c0.8-0.4,1.4-0.6,2.1-0.7c0.4-0.1,0.7-0.1,1-0.1
	c0.2,0,0.4,0,0.8,0c0.1,4.2,0.5,7.7,1.1,10.4l0.2,1h1c1,0,2-0.3,2.9-0.9l0.8-0.5L14.9,27.2z"/>
</svg>
