<?xml version="1.0" encoding="utf-8"?>
<!-- Generator: Adobe Illustrator 28.0.0, SVG Export Plug-In . SVG Version: 6.00 Build 0)  -->
<svg version="1.1" id="Layer_1" xmlns="http://www.w3.org/2000/svg" xmlns:xlink="http://www.w3.org/1999/xlink" x="0px" y="0px"
	 viewBox="0 0 126 126" style="enable-background:new 0 0 126 126;" xml:space="preserve">
<style type="text/css">
	.st0{fill-rule:evenodd;clip-rule:evenodd;fill:#F97E2F;}
</style>
<path class="st0" d="M47,68h15.4c-2.6-9-5.3-17.3-7.8-25.8C52,50.7,49.5,59,47,68z M123.1,0H1.9C-0.3,0,0,0.5,0,2.6V124
	c0,2.1-0.3,2,1.7,2h121.5c2,0,2.7,0.1,2.7-2V2.7C126,0.5,125.3,0,123.1,0z M76.3,95c-1.6,0-3.3-0.1-4.9,0c-1.2,0.1-1.6-0.4-1.9-1.4
	c-1.5-4.9-3.1-9.9-4.6-14.8c-0.3-1-0.7-1.4-1.8-1.3c-5.5,0.1-11,0.1-16.6,0c-1.2,0-1.7,0.3-2,1.4c-1.4,4.9-2.9,9.8-4.4,14.7
	c-0.3,1.1-0.8,1.4-1.9,1.4c-3.3-0.1-6.6,0-10.3,0c1-3,1.8-5.9,2.7-8.7c5.5-17.2,11-34.4,16.5-51.6c0.4-1.2,0.9-1.6,2.1-1.5
	c3.9,0.1,7.8,0,11.7,0c0.7,0,1.2,0,1.5,0.9C69,54.1,75.5,74.3,82,94.4c0,0.1,0,0.6,0,0.6H76.3L76.3,95z M97,95H85V50h12V95z
	 M90.7,43.9c-3.7,0-6.3-2.5-6.3-6.1c0-3.5,2.7-6.2,6.4-6.2c3.7,0,6.4,2.5,6.4,6.2C97.2,41.4,94.5,43.9,90.7,43.9z"/>
</svg>
