<?xml version="1.0" encoding="utf-8"?>
<!-- Generator: Adobe Illustrator 28.0.0, SVG Export Plug-In . SVG Version: 6.00 Build 0)  -->
<svg version="1.1" id="Layer_1" xmlns="http://www.w3.org/2000/svg" xmlns:xlink="http://www.w3.org/1999/xlink" x="0px" y="0px"
	 viewBox="0 0 24 24" style="enable-background:new 0 0 24 24;" xml:space="preserve">
<style type="text/css">
	.st0{fill:#26A69A;}
</style>
<path class="st0" d="M13,9.1h5.4L13,3.7V9.1 M6.1,2.2H14l5.9,5.9v11.7c0,1.1-0.9,2-2,2H6.1c-1.1,0-2-0.9-2-1.9c0,0,0,0,0,0V4.2
	C4.2,3.1,5.1,2.2,6.1,2.2 M6.1,19.8h11.7V12L14,15.9l-2-2L6.1,19.8 M8.1,9.1c-1.1,0-2,0.9-2,2c0,1.1,0.9,2,2,2s2-0.9,2-2
	C10,9.9,9.2,9.1,8.1,9.1z"/>
</svg>
