<?xml version="1.0" encoding="utf-8"?>
<!-- Generator: Adobe Illustrator 28.0.0, SVG Export Plug-In . SVG Version: 6.00 Build 0)  -->
<svg version="1.1" id="Layer_1" xmlns="http://www.w3.org/2000/svg" xmlns:xlink="http://www.w3.org/1999/xlink" x="0px" y="0px"
	 viewBox="0 0 15.8 19.6" style="enable-background:new 0 0 15.8 19.6;" xml:space="preserve">
<style type="text/css">
	.st0{fill:#26A69A;}
</style>
<path class="st0" d="M8.9,6.9h5.4L8.9,1.5V6.9 M2,0h7.9l5.9,5.9v11.7c0,1.1-0.9,2-2,2H2c-1.1,0-2-0.9-2-1.9l0,0V2C0.1,0.9,1,0,2,0
	 M2,17.6h11.7V9.8l-3.8,3.9l-2-2L2,17.6 M4,6.9c-1.1,0-2,0.9-2,2s0.9,2,2,2s2-0.9,2-2C5.9,7.7,5.1,6.9,4,6.9z"/>
</svg>
