<?xml version="1.0" encoding="utf-8"?>
<!-- Generator: Adobe Illustrator 28.0.0, SVG Export Plug-In . SVG Version: 6.00 Build 0)  -->
<svg version="1.1" id="Layer_1" xmlns="http://www.w3.org/2000/svg" xmlns:xlink="http://www.w3.org/1999/xlink" x="0px" y="0px"
	 viewBox="0 0 487.4 504.4" style="enable-background:new 0 0 487.4 504.4;" xml:space="preserve">
<style type="text/css">
	.st0{fill:#DB5555;}
</style>
<path class="st0" d="M456.6,309.8c3.1,3.1,4.1,8.7,0,11.8c-9.2,6.1-21.5,5.6-33.3,4.1c-19.5-2.6-42-3.1-51.7-21l-1-1
	c-12.3-7.2,8.7-11.8,14.9-12.3c13.3-1.5,28.2,1.5,41,4.6C437.8,298,448,301.1,456.6,309.8L456.6,309.8z M475.1,198.1
	c-5.6-34.8-9.2-71.2-21-105.5c-5.6-13.8-7.7-29.7-24.1-31.8c-21.5-4.1-14.9,14.8-11.8,31.7c4.1,26.1,6.1,53.2,13.3,78.8
	c4.6,17.9,13.3,39.4-10.8,25.6c-40.5-23.6-54.3-77.3-69.6-116.7C344,62.5,323,20,308.2,9.2c-7.2-5.6-41-12.3-47.1-7.7
	c-13.8,9.2,29.7,76.8,35.8,89.1c13.3,27.1,27.1,53.2,44,77.3c12.3,16.9,31.7,32.8,4.1,43.5c-28.2,10.8-42-5.6-61.4-19.5
	c-15.4-11.8-34.8-13.3-54.3-15.4c-52.7-6.1-102.9,0-144.9,34.8c-20,16.9-33.3,40.4-44,64.5c-3.1,6.1-20,58.9-17.9,58.9
	c-10.8-1.5-4.1-27.1-17.9-12.3c-12.3,12.8,3.6,50.2,9.2,62.5c12.3,28.7,24.6,56.8,34.8,87c9.2,30.2,11.8,29.7,39.4,31.7
	c34.8,3.1,69.6-7.7,103.9-11.8c0,0-61.4-37.9,59.9,4.1c27.1,9.2,54.8,7.2,84,7.7c20-4.6,21-39.4,31.2-54.8
	c4.1-6.1,23-36.4,29.7-38.9c8.7-3.1,21,5.6,29.7,7.2c50.2,7.7,66-33.3,58.4-73.7c-7.2-35.8-3.1-75.3,2.6-102.4
	C487.4,229.8,476.7,207.3,475.1,198.1L475.1,198.1z"/>
</svg>
