<?xml version="1.0" encoding="utf-8"?>
<!-- Generator: Adobe Illustrator 28.0.0, SVG Export Plug-In . SVG Version: 6.00 Build 0)  -->
<svg version="1.1" id="Layer_1" xmlns="http://www.w3.org/2000/svg" xmlns:xlink="http://www.w3.org/1999/xlink" x="0px" y="0px"
	 viewBox="0 0 256 256" style="enable-background:new 0 0 256 256;" xml:space="preserve">
<style type="text/css">
	.st0{fill:#FFF200;}
	.st1{fill:#FED103;}
	.st2{fill:#FEE678;}
</style>
<path class="st0" d="M533.5,26.6v39.1c0,4.6-1.7,8.2-5,10.8c-3.3,2.5-8,3.8-14.1,3.8v18.5c6.1,0,10.8,1.3,14.1,3.8s5,6.1,5,10.8
	v39.2c0,11.6,3.8,20.6,11.4,26.9c7.6,6.3,18.3,9.5,32.1,9.5v-18.5c-6.6,0-11.7-1.4-15.3-4.2c-3.6-2.8-5.4-6.7-5.4-11.7v-40.1
	c0-10.6-3.5-18.9-10.4-24.8c6.9-5.7,10.4-13.7,10.4-23.9V24.3c0-5,1.8-8.9,5.4-11.7c3.6-2.7,8.7-4.1,15.3-4.1V-9.9
	c-13.8,0-24.6,3.2-32.1,9.6C537.3,6,533.5,15,533.5,26.6z"/>
<rect x="577.4" y="120.9" class="st0" width="19" height="20.4"/>
<rect x="619.5" y="120.9" class="st0" width="19" height="20.4"/>
<rect x="661.6" y="120.9" class="st0" width="19" height="20.4"/>
<path class="st0" d="M729.5,76.4c-3.3-2.5-5-6.1-5-10.8v-39c0-11.6-3.8-20.6-11.4-26.9c-7.6-6.4-18.3-9.6-32.1-9.6V8.6
	c6.6,0,11.7,1.4,15.3,4.1c3.6,2.7,5.4,6.6,5.4,11.7v41.4c0,10.2,3.5,18.2,10.4,23.9c-6.9,5.9-10.4,14.2-10.4,24.8v40.1
	c0,5-1.8,8.9-5.4,11.7c-3.6,2.8-8.7,4.2-15.3,4.2V189c13.8,0,24.5-3.2,32.1-9.5c7.6-6.3,11.4-15.3,11.4-26.9v-39.2
	c0-4.6,1.7-8.2,5-10.8c3.3-2.5,8-3.8,14.1-3.8V80.3C737.5,80.2,732.8,78.9,729.5,76.4z"/>
<g>
	<g>
		<path class="st1" d="M132.5,14.1c89.8,8.2,99.8,184.2-0.1,174.3c51.6-26.9,36.5-124.5-26.5-119.2C25.6,83.5,33.6,214,99,243.9
			C-37.5,206.2-3.4,11.2,132.5,14.1z"/>
		<path class="st2" d="M125.6,248.2c-90-5.8-104.4-183.5-3.3-174.1C60.5,107.2,99.2,225,170,186.2c57.9-35.2,46.3-134.1-9-166.3
			c0.1-0.2,0.2-0.4,0.3-0.7C290.6,61.3,260.2,246.7,125.6,248.2z"/>
	</g>
</g>
</svg>
