<?xml version="1.0" encoding="utf-8"?>
<!-- Generator: Adobe Illustrator 28.0.0, SVG Export Plug-In . SVG Version: 6.00 Build 0)  -->
<svg version="1.1" id="Layer_1" xmlns="http://www.w3.org/2000/svg" xmlns:xlink="http://www.w3.org/1999/xlink" x="0px" y="0px"
	 viewBox="0 0 231.9 234.1" style="enable-background:new 0 0 231.9 234.1;" xml:space="preserve">
<style type="text/css">
	.st0{fill:#FED103;}
	.st1{fill:#999999;}
</style>
<g>
	<g>
		<path class="st0" d="M120.5,0c89.8,8.2,99.8,184.2-0.1,174.3C172,147.4,156.9,49.8,93.9,55.1C13.6,69.4,21.6,199.9,87,229.8
			C-49.5,192.1-15.4-2.9,120.5,0z"/>
		<path class="st1" d="M113.6,234.1C23.6,228.3,9.2,50.6,110.3,60C48.5,93.1,87.2,210.9,158,172.1c57.9-35.2,46.3-134.1-9-166.3
			c0.1-0.2,0.2-0.4,0.3-0.7C278.6,47.2,248.2,232.6,113.6,234.1z"/>
	</g>
</g>
</svg>
