<?xml version="1.0" encoding="utf-8"?>
<!-- Generator: Adobe Illustrator 28.0.0, SVG Export Plug-In . SVG Version: 6.00 Build 0)  -->
<svg version="1.1" id="Layer_1" xmlns="http://www.w3.org/2000/svg" xmlns:xlink="http://www.w3.org/1999/xlink" x="0px" y="0px"
	 viewBox="0 0 336 320" style="enable-background:new 0 0 336 320;" xml:space="preserve">
<style type="text/css">
	.st0{fill:#A4C639;}
</style>
<g>
	<path class="st0" d="M96,0h32v64H96v48c0,18-5.3,34-16,48c10.7,14,16,30,16,48v12v24v12h32v64H96c-17.3,0-32.3-6.3-45-19
		s-19-27.7-19-45v-48c0-4.7-1.5-8.5-4.5-11.5S20.7,192,16,192H0v-64h16c4.7,0,8.5-1.5,11.5-4.5S32,116.7,32,112V64
		c0-17.3,6.3-32.3,19-45S78.7,0,96,0z"/>
	<path class="st0" d="M320,128h16v64h-16c-4.7,0-8.5,1.5-11.5,4.5s-4.5,6.8-4.5,11.5v48c0,17.3-6.3,32.3-19,45s-27.7,19-45,19h-32
		v-64h32v-8v-15.5V215v-7c0-18,5.3-34,16-48c-10.7-14-16-30-16-48V64h-32V0h32c17.3,0,32.3,6.3,45,19s19,27.7,19,45v48
		c0,4.7,1.5,8.5,4.5,11.5S315.3,128,320,128z"/>
	<g>
		<path class="st0" d="M110.7,209.2v-22.8h79.6c10.1,0,13.5-3,13.5-13.9c0-10.5-3.4-13.5-15.2-13.5h-78.1V92.9h109.1v23h-85.8v23.8
			h54.7c28,0,38.7,9.5,38.7,29.4v6.6c0,22.8-10.1,33.5-36,33.5H110.7z"/>
	</g>
</g>
</svg>
