<?xml version="1.0" encoding="utf-8"?>
<!-- Generator: Adobe Illustrator 28.0.0, SVG Export Plug-In . SVG Version: 6.00 Build 0)  -->
<svg version="1.1" id="Layer_1" xmlns="http://www.w3.org/2000/svg" xmlns:xlink="http://www.w3.org/1999/xlink" x="0px" y="0px"
	 viewBox="0 0 382.4 416.5" style="enable-background:new 0 0 382.4 416.5;" xml:space="preserve">
<style type="text/css">
	.st0{fill:none;}
	.st1{fill:#FFF200;}
	.st2{fill:#F3BE74;}
</style>
<g>
	<path class="st0" d="M81.9,79.9c10.8-10,27.7-9.4,37.7,1.5c1.5,1.6,2.8,3.4,3.8,5.3c-1-1.9-2.3-3.7-3.8-5.4
		c-10-10.9-26.9-11.5-37.7-1.5c-5.8,5.4-8.7,12.8-8.7,20.2C73.2,92.7,76.2,85.3,81.9,79.9z"/>
	<path class="st0" d="M178.9,224.4c-2.8,2.7-3.4,5.8-3.5,6.7c40.6,45,81.3,90.1,121.9,135.1c1.3-0.2,3.9-0.9,6.5-3
		c3.3-2.7,4.5-6,4.9-7.2c-40.6-45-81.3-90.1-121.9-135.1C186,220.9,182.1,221.2,178.9,224.4z"/>
	<path class="st0" d="M118,119.4c9.3-8.5,11.2-22.1,5.4-32.7c-1-1.9-2.3-3.6-3.8-5.3c-10-10.9-26.9-11.5-37.7-1.5
		c-5.7,5.4-8.7,12.8-8.7,20.1c0,6.5,2.2,12.8,6.8,17.7C90,128.3,107.4,129.1,118,119.4z"/>
	<path class="st1" d="M319.4,312.3c0.6-11.5,1.3-22.9,1.9-34.7c-12.1-0.5-23.4-1.1-35.4-1.6c0.5-7.6,0.9-14.2,1.3-20.8
		c0.2-3.1,0-6.2,0.3-9.3c0.3-3.2-1.1-4.2-4.1-4.4c-8.6-0.4-17.2-1.1-25.9-1.6c-1.5-0.1-3.1,0.5-5.5,1c0.9-14.8,1.6-28,2.7-41.1
		c0.4-4.5-0.7-7.7-3.9-10.9c-7.2-7.4-13.8-15.4-20.9-22.9c-2.3-2.4-2.5-4.5-1.7-7.6c5.9-23.5,5.3-46.6-5.2-68.8
		c-21.6-45.8-68.5-67.4-115.8-56.2C40.8,49.2,5.1,126.1,44.6,187.7c23.3,36.4,58.9,50.6,102,44.7c4-0.5,6.4,0.3,9.1,3.3
		c43.4,48.4,87,96.6,130.5,144.9c2.3,2.5,4.6,3.6,8,3.7c13.9,0.4,27.7,1.1,41.6,1.6c2.5,0.1,5.1-0.2,7.6-0.5
		c3.7-0.5,6.1-2.7,6.6-6.6c2.5-21.2,3-42.6,4.3-65C342.2,313.3,330.8,312.8,319.4,312.3z M118,119.5c-10.6,9.6-28,8.8-38-1.7
		c-4.6-4.9-6.8-11.3-6.8-17.8c0-7.4,3-14.8,8.7-20.2c10.8-10,27.7-9.4,37.7,1.5c1.5,1.7,2.8,3.5,3.8,5.4
		C129.3,97.3,127.4,111,118,119.5z M303.8,363.2c-2.6,2.1-5.2,2.8-6.5,3c-40.6-45-81.3-90.1-121.9-135.1c0.1-0.9,0.7-4,3.5-6.7
		c3.2-3.2,7.1-3.5,7.9-3.5c40.6,45,81.3,90.1,121.9,135.1C308.3,357.2,307.1,360.5,303.8,363.2z"/>
	<path class="st2" d="M118,119.4c-10.6,9.7-28,8.9-38-1.7c-4.6-4.9-6.8-11.2-6.8-17.7c0,6.5,2.2,12.9,6.8,17.8
		C90,128.3,107.4,129.1,118,119.4c9.4-8.4,11.3-22.1,5.4-32.7C129.2,97.3,127.3,110.9,118,119.4z"/>
</g>
</svg>
