<?xml version="1.0" encoding="utf-8"?>
<!-- Generator: Adobe Illustrator 28.0.0, SVG Export Plug-In . SVG Version: 6.00 Build 0)  -->
<svg version="1.1" id="Layer_1" xmlns="http://www.w3.org/2000/svg" xmlns:xlink="http://www.w3.org/1999/xlink" x="0px" y="0px"
	 viewBox="0 0 41.4 55.3" style="enable-background:new 0 0 41.4 55.3;" xml:space="preserve">
<style type="text/css">
	.st0{fill:#999999;}
</style>
<g>
	<g>
		<path class="st0" d="M40.8,13.4c0.5,0.3,0.5,0.8,0.6,1.3c0,0.2,0,0.4,0,0.6c0,10.5,0,21,0,31.5c0,4.3-2.8,7.7-7,8.4
			c-0.5,0.1-1,0.1-1.5,0.1c-8.1,0-16.3,0-24.4,0c-5,0-8.5-3.6-8.5-8.5C0,34,0,21.3,0,8.5c0-4.3,2.8-7.6,7-8.4C7.5,0,8,0,8.5,0
			c5.9,0,11.8,0,17.8,0c0.5,0,1,0.1,1.5,0.3c-0.2,0-0.4,0-0.6,0c-1.1,0-1.7,0.6-1.7,1.6c0,3.3,0,6.6,0,9.9c0,2.2,1.8,4.1,3.9,4.1
			c3.4,0,6.8,0,10.2,0c1,0,1.7-0.9,1.5-1.7C41,13.9,40.9,13.7,40.8,13.4z M20.7,34.6c-3.5,0-7.1,0-10.6,0c-0.3,0-0.6,0-0.9,0.1
			c-0.6,0.2-0.9,0.7-0.9,1.3s0.3,1.1,0.9,1.3c0.3,0.1,0.5,0.1,0.8,0.1c7.1,0,14.3,0,21.4,0c0.3,0,0.5,0,0.8-0.1c0.6-0.2,1-0.7,1-1.3
			s-0.4-1.1-1-1.3c-0.3-0.1-0.6-0.1-0.8-0.1C27.8,34.6,24.2,34.6,20.7,34.6z M20.7,45.2c1.1,0,2.1,0,3.2,0c2.6,0,5.2,0,7.8,0
			c0.9,0,1.5-0.6,1.5-1.4c0-0.8-0.6-1.3-1.5-1.4c-0.2,0-0.3,0-0.5,0c-5.6,0-11.2,0-16.8,0c-1.5,0-3,0-4.5,0c-0.6,0-1.1,0.2-1.4,0.8
			c-0.5,0.9,0.2,2,1.4,2C13.4,45.2,17.1,45.2,20.7,45.2z M20.8,26.8c-0.9,0-1.8,0-2.7,0c-2.8,0-5.6,0-8.4,0c-0.9,0-1.5,0.6-1.5,1.4
			s0.6,1.4,1.5,1.4c0.2,0,0.3,0,0.5,0c5.4,0,10.8,0,16.3,0c1.7,0,3.4,0,5.1,0c0.6,0,1.1-0.2,1.4-0.8c0.5-0.9-0.2-2-1.4-2
			C28,26.8,24.4,26.8,20.8,26.8z"/>
		<path class="st0" d="M28.4,0.9c-0.1,0-0.3,0-0.3-0.1C28.3,0.6,28.3,0.8,28.4,0.9z"/>
		<path class="st0" d="M40.8,13.4c-0.2-0.1-0.2-0.2-0.1-0.3C40.7,13.2,40.9,13.3,40.8,13.4z"/>
		<path class="st0" d="M28.1,0.7c-0.1,0-0.1-0.1,0-0.1C28.1,0.6,28.1,0.6,28.1,0.7L28.1,0.7z"/>
	</g>
</g>
</svg>
