<?xml version="1.0" encoding="utf-8"?>
<!-- Generator: Adobe Illustrator 28.0.0, SVG Export Plug-In . SVG Version: 6.00 Build 0)  -->
<svg version="1.1" id="Layer_1" xmlns="http://www.w3.org/2000/svg" xmlns:xlink="http://www.w3.org/1999/xlink" x="0px" y="0px"
	 viewBox="0 0 63 57" style="enable-background:new 0 0 63 57;" xml:space="preserve">
<style type="text/css">
	.st0{fill:#E29F33;}
	.st1{fill:#EDAB37;}
	.st2{fill:#F6BB42;}
	.st3{fill:#656D78;}
	.st4{fill:#FFCE54;}
	.st5{fill:#CCD1D9;}
	.st6{fill:#FFFFFF;}
	.st7{fill:#E6E9ED;}
	.st8{fill:#545C66;}
	.st9{fill:#5E4D37;}
	.st10{fill:#9F805C;}
	.st11{fill:#8B8D90;}
</style>
<path class="st0" d="M-225-178h33v3v1h-37h-2h-10v-1v-3h3v-2h10L-225-178z"/>
<path class="st1" d="M-231-174h39v2v1h-36l-2-2L-231-174z"/>
<path class="st2" d="M-228-171h36h3v3v1h-55v-1v-3h3v-3h10l1,1L-228-171z"/>
<path class="st3" d="M-185-161v36c0,1.1-0.9,2-2,2h-59c-1.1,0-2-0.9-2-2v-36c0-1.1,0.9-2,2-2h59C-185.9-163-185-162.1-185-161z
	 M-204.5-140.5v-3c0-0.8-0.7-1.5-1.5-1.5s-1.5,0.7-1.5,1.5v1.5h-18v-1.5c0-0.8-0.7-1.5-1.5-1.5s-1.5,0.7-1.5,1.5v3
	c0,0.8,0.7,1.5,1.5,1.5h21C-205.2-139-204.5-139.7-204.5-140.5z"/>
<path class="st4" d="M-189-164v1h-55v-1v-3h55V-164z"/>
<path class="st5" d="M-204.5-143.5v3c0,0.8-0.7,1.5-1.5,1.5h-21c-0.8,0-1.5-0.7-1.5-1.5v-3c0-0.8,0.7-1.5,1.5-1.5s1.5,0.7,1.5,1.5
	v1.5h18v-1.5c0-0.8,0.7-1.5,1.5-1.5S-204.5-144.3-204.5-143.5z"/>
<path class="st6" d="M-241-169h49v2h-49V-169z"/>
<path class="st7" d="M-238-176h43v2h-43V-176z"/>
<path class="st8" d="M-245-127.5c-0.3,0-0.5-0.2-0.5-0.5v-30c0-0.3,0.2-0.5,0.5-0.5s0.5,0.2,0.5,0.5v30
	C-244.5-127.7-244.7-127.5-245-127.5z M-188-127.5c-0.3,0-0.5-0.2-0.5-0.5v-30c0-0.3,0.2-0.5,0.5-0.5s0.5,0.2,0.5,0.5v30
	C-187.5-127.7-187.7-127.5-188-127.5z"/>
<g>
	<g>
		<path class="st9" d="M-85.9,34.2c0-0.1,0-0.2,0-0.3c0-3.1,0-6.1,0-9.2c0-0.6-0.5-1-1-1c-0.5,0-0.9,0.4-1,0.9c0,0.3,0,0.6,0,0.8
			c0,3,0,6,0,9c0,0.2,0,0.3-0.3,0.3c-1,0.2-1.9,0.3-2.9,0.4c-0.7,0-1.3,0.1-2,0.1c-2.1,0-4.2-0.4-6.3-1c-0.2-0.1-0.2-0.2-0.2-0.3
			c0-5.3,0-10.7,0-16c0-0.6-0.3-0.9-0.9-1c-0.5-0.1-1,0.3-1.1,0.9c0,0.1,0,0.2,0,0.3c0,5,0,9.9,0,14.9c0,0.1,0,0.2,0,0.3
			c-0.2-0.1-0.4-0.2-0.7-0.3c-0.9-0.6-1.8-1.2-2.4-2.1c-0.5-0.7-0.8-1.5-0.8-2.4c0-12.6,0-25.2,0-37.8c0-0.1,0-0.1,0-0.3
			c0.2,0.2,0.3,0.3,0.5,0.4c1.2,1.1,2.6,1.9,4.2,2.5c0.2,0.1,0.2,0.2,0.2,0.4c0,5.5,0,11,0,16.5c0,0.5,0.2,0.9,0.7,1
			c0.6,0.2,1.2-0.3,1.3-0.9c0-0.1,0-0.2,0-0.3c0-5.2,0-10.4,0-15.6c0-0.1,0-0.2,0-0.3c2.4,0.6,4.9,0.8,7.3,0.7
			c2.5-0.2,4.9-0.7,7.1-1.7c0.1,0.1,0,0.2,0,0.3c0,2.1,0,4.2,0,6.3c0,0.8,0.8,1.2,1.5,0.8c0.3-0.2,0.5-0.5,0.5-0.9
			c0-2.4,0-4.8,0-7.3c0-0.2,0-0.3,0.2-0.4c0.5-0.3,1-0.7,1.5-1.2c0.1-0.1,0.1-0.1,0.2-0.2c0,0.1,0,0.2,0,0.2c0,4.7,0,9.3,0,14
			c0,0.2-0.1,0.3-0.2,0.4c-0.9,0.8-1.8,1.5-2.7,2.3c-1.3,1.1-2.6,2.3-3.9,3.4c-0.2,0.2-0.5,0.4-0.7,0.6c-0.4,0.3-0.4,1-0.1,1.3
			c0.4,0.4,1,0.5,1.4,0.1c0.5-0.4,1-0.9,1.5-1.3c1.3-1.1,2.6-2.3,3.9-3.4c1.1-1,2.3-2,3.4-3c0.9-0.8,1.8-1.6,2.7-2.3c0,0,0,0,0.1,0
			c0.5,2.1,1.8,3.6,3.8,4.4c-0.3,0.3-0.7,0.6-1,0.9c-0.9,0.8-1.8,1.6-2.7,2.4c-1.3,1.1-2.6,2.2-3.9,3.4c-1,0.9-2.1,1.8-3.1,2.7
			c-0.3,0.2-0.5,0.5-0.8,0.7c-0.4,0.4-0.5,1-0.1,1.4c0.4,0.4,1,0.5,1.4,0.1c0.3-0.3,0.7-0.6,1-0.9c0.1,0.1,0.1,0.1,0.1,0.2
			c0,3.6,0,7.1,0,10.7c0,1-0.4,1.8-1,2.6c-0.7,0.9-1.6,1.5-2.6,2.1C-84.4,33.6-85.1,33.9-85.9,34.2z M-94.6,2.3c0,1.6,0,3.2,0,4.8
			c0,0.1,0,0.3,0,0.4c0.1,0.4,0.6,0.7,1,0.7c0.5-0.1,0.9-0.5,0.9-1c0-3.2,0-6.4,0-9.6c0-0.1,0-0.3-0.1-0.4c-0.2-0.4-0.6-0.7-1.1-0.6
			c-0.4,0.1-0.8,0.5-0.8,0.9C-94.6-0.9-94.6,0.7-94.6,2.3z M-94.6,22.7c0,1.6,0,3.2,0,4.8c0,0.4,0.2,0.7,0.5,0.9
			c0.7,0.4,1.4-0.1,1.4-0.9c0-1.1,0-2.2,0-3.3c0-2.1,0-4.1,0-6.2c0-0.3-0.1-0.6-0.4-0.9c-0.3-0.3-0.7-0.3-1.1-0.1
			c-0.3,0.2-0.5,0.5-0.5,0.9C-94.6,19.5-94.6,21.1-94.6,22.7z M-94.6,10.6c0,0.2,0,0.4,0,0.6c0,0.4,0.4,0.8,0.8,0.9
			c0.5,0.1,1-0.2,1.1-0.6c0.1-0.5,0.1-1.1,0-1.6c-0.1-0.4-0.5-0.7-0.9-0.6c-0.4,0-0.8,0.3-0.9,0.7C-94.6,10.1-94.6,10.3-94.6,10.6z
			 M-85.9,21.3c0-0.2,0-0.4,0-0.6c0-0.5-0.4-1-0.9-1c-0.5,0-1,0.4-1,1c0,0.3,0,0.7,0,1c0,0.4,0.3,0.8,0.7,0.9
			c0.4,0.1,0.9-0.1,1.1-0.5C-85.8,21.9-85.9,21.5-85.9,21.3z"/>
		<path class="st10" d="M-92.7-20.9c2.7,0,5.4,0.5,7.9,1.5c1.3,0.6,2.6,1.3,3.5,2.4c0.8,0.9,1.2,1.9,1.2,3c-0.1,0.9-0.5,1.7-1,2.4
			c-0.9,1.1-2,1.8-3.2,2.4c-2,1-4.1,1.4-6.3,1.6c-2.7,0.2-5.4,0-8.1-0.8c-1.6-0.5-3.1-1.1-4.4-2.1c-0.8-0.6-1.5-1.4-1.9-2.4
			c-0.5-1.3-0.3-2.6,0.5-3.7c0.7-1,1.6-1.7,2.7-2.3c1.6-0.9,3.3-1.5,5.1-1.8C-95.3-20.8-94-20.9-92.7-20.9z"/>
		<path class="st10" d="M-72.8,1.9c0-1.1,0.7-1.7,1.9-1.5c1.5,0.3,2.9,1.9,2.9,3.4c0,1.1-0.7,1.7-1.9,1.5
			C-71.4,5.1-72.8,3.4-72.8,1.9z"/>
	</g>
</g>
<g>
	<g>
		<path class="st6" d="M51.6,14.2c0.5,0.3,0.5,0.8,0.6,1.3c0,0.2,0,0.4,0,0.6c0,10.5,0,21,0,31.5c0,4.3-2.8,7.7-7,8.4
			c-0.5,0.1-1,0.1-1.5,0.1c-8.1,0-16.3,0-24.4,0c-5,0-8.5-3.6-8.5-8.5c0-12.8,0-25.5,0-38.3c0-4.3,2.8-7.6,7-8.4
			c0.5-0.1,1-0.1,1.5-0.1c5.9,0,11.8,0,17.8,0c0.5,0,1,0.1,1.5,0.3c-0.2,0-0.4,0-0.6,0c-1.1,0-1.7,0.6-1.7,1.6c0,3.3,0,6.6,0,9.9
			c0,2.2,1.8,4.1,3.9,4.1c3.4,0,6.8,0,10.2,0c1,0,1.7-0.9,1.5-1.7C51.8,14.7,51.7,14.5,51.6,14.2z M31.5,35.4c-3.5,0-7.1,0-10.6,0
			c-0.3,0-0.6,0-0.9,0.1c-0.6,0.2-0.9,0.7-0.9,1.3c0,0.6,0.3,1.1,0.9,1.3c0.3,0.1,0.5,0.1,0.8,0.1c7.1,0,14.3,0,21.4,0
			c0.3,0,0.5,0,0.8-0.1c0.6-0.2,1-0.7,1-1.3c0-0.6-0.4-1.1-1-1.3c-0.3-0.1-0.6-0.1-0.8-0.1C38.6,35.4,35,35.4,31.5,35.4z M31.5,46
			c1.1,0,2.1,0,3.2,0c2.6,0,5.2,0,7.8,0c0.9,0,1.5-0.6,1.5-1.4c0-0.8-0.6-1.3-1.5-1.4c-0.2,0-0.3,0-0.5,0c-5.6,0-11.2,0-16.8,0
			c-1.5,0-3,0-4.5,0c-0.6,0-1.1,0.2-1.4,0.8c-0.5,0.9,0.2,2,1.4,2C24.2,46,27.9,46,31.5,46z M31.6,27.6c-0.9,0-1.8,0-2.7,0
			c-2.8,0-5.6,0-8.4,0c-0.9,0-1.5,0.6-1.5,1.4c0,0.8,0.6,1.4,1.5,1.4c0.2,0,0.3,0,0.5,0c5.4,0,10.8,0,16.3,0c1.7,0,3.4,0,5.1,0
			c0.6,0,1.1-0.2,1.4-0.8c0.5-0.9-0.2-2-1.4-2C38.8,27.6,35.2,27.6,31.6,27.6z"/>
		<path class="st11" d="M39.2,1.7c-0.1,0-0.3,0-0.3-0.1C39.1,1.4,39.1,1.6,39.2,1.7z"/>
		<path class="st11" d="M51.6,14.2c-0.2-0.1-0.2-0.2-0.1-0.3C51.5,14,51.7,14.1,51.6,14.2z"/>
		<path class="st11" d="M38.9,1.5c-0.1,0-0.1-0.1,0-0.1C38.9,1.4,38.9,1.4,38.9,1.5C38.9,1.5,38.9,1.5,38.9,1.5z"/>
	</g>
</g>
</svg>
