<?xml version="1.0" encoding="utf-8"?>
<!-- Generator: Adobe Illustrator 28.0.0, SVG Export Plug-In . SVG Version: 6.00 Build 0)  -->
<svg version="1.1" id="Layer_1" xmlns="http://www.w3.org/2000/svg" xmlns:xlink="http://www.w3.org/1999/xlink" x="0px" y="0px"
	 viewBox="0 0 256 256" style="enable-background:new 0 0 256 256;" xml:space="preserve">
<style type="text/css">
	.st0{fill:#0277BD;}
</style>
<g>
	<path class="st0" d="M128,30.2C74,30.2,30.1,74,30.1,128c0,54,43.8,97.9,97.9,97.9c54,0,97.9-43.8,97.9-97.9
		C225.8,74,182,30.2,128,30.2z M168.5,116.1c-15.8,0-28.7-12.8-28.7-28.7s12.8-28.7,28.7-28.7c15.8,0,28.7,12.8,28.7,28.7
		S184.4,116.1,168.5,116.1z"/>
	<polygon class="st0" points="225.9,128 225.9,128 225.9,128 	"/>
	<path class="st0" d="M225.9,1.5c-15.8,0-28.7,12.8-28.7,28.7c0,15.8,12.8,28.7,28.7,28.7c15.8,0,28.7-12.8,28.7-28.7
		C254.5,14.3,241.7,1.5,225.9,1.5z"/>
</g>
</svg>
