<?xml version="1.0" encoding="utf-8"?>
<!-- Generator: Adobe Illustrator 28.0.0, SVG Export Plug-In . SVG Version: 6.00 Build 0)  -->
<svg version="1.1" id="Layer_1" xmlns="http://www.w3.org/2000/svg" xmlns:xlink="http://www.w3.org/1999/xlink" x="0px" y="0px"
	 viewBox="0 0 232.7 305" style="enable-background:new 0 0 232.7 305;" xml:space="preserve">
<style type="text/css">
	.st0{fill:#2E76FF;}
</style>
<g>
	<path class="st0" d="M92.1,47.7c5.5-19.7,27.3-25.2,43.7-11.5c10.4,8.7,15,20.4,16.9,33.3c3.8,25.1,0.1,49.7-6.6,73.9
		c-8.9,32.6-22.4,63-42.6,90.2c-9.6,12.9-20.6,24.3-35.2,32c-9.3,4.9-19,5.6-28.9,3.7c-15.7-3-22.3-18.9-14.1-32.6
		c2-3.4,4.5-6.4,8.4-9.6c-0.2,4.6,0.2,8.5,4.1,10.2c4.1,1.8,8.2,0.6,12.1-1.3c11.6-5.8,20.5-14.6,27.6-25.1
		c25.5-37.3,38.9-78.5,38.4-123.8c-0.1-10.6-1.9-21.3-7.1-30.9C104.6,48.1,100.4,46,92.1,47.7z"/>
	<path class="st0" d="M168.1,253.8c-8.7-8.1-18.9-12.5-30-14.7c-10.8-2.1-21.8-1.8-33.8,0.1c7.7-10.8,14.6-20.8,20.2-31.5
		c1-1.9,2.6-1.9,4.4-1.7c11.1,1.3,22.2,2.9,32.8,6.8c12.2,4.4,17.4,15.4,12.5,27.3C172.4,244.5,170.3,248.9,168.1,253.8z"/>
	<path class="st0" d="M176.9,219.7c12.1,6,23.1,13,30.1,24.5c8.5,13.9,2,29.4-13.3,31.9c-12.3,2-26.5-10.3-20.7-23.9
		c1-2.4,1.8-5,3-7.4C179.8,236.7,182,228.5,176.9,219.7z"/>
	<path class="st0" d="M112.6,100.2c-17.3-8.1-24.7-27.4-22.4-42.5c0.5-3.2,2.7-6.1,6.1-7c3.5-0.9,5.7,1.7,7.5,4.2
		c7.4,10.5,8,22.7,8.8,34.9C112.8,93.2,112.6,96.6,112.6,100.2z"/>
	<path class="st0" d="M74.6,208.6c-8.3,11.4-17,20.1-28.9,25.2c-2.1,0.9-4.6,1.6-6.4-0.4c-1.8-1.9-1-4.3-0.2-6.5
		c1.3-3.5,3.9-6.2,6.8-8.3C54,212.8,63.7,210.9,74.6,208.6z"/>
</g>
</svg>
