<?xml version="1.0" encoding="utf-8"?>
<!-- Generator: Adobe Illustrator 28.0.0, SVG Export Plug-In . SVG Version: 6.00 Build 0)  -->
<svg version="1.1" id="Layer_1" xmlns="http://www.w3.org/2000/svg" xmlns:xlink="http://www.w3.org/1999/xlink" x="0px" y="0px"
	 viewBox="0 0 32 19.7" style="enable-background:new 0 0 32 19.7;" xml:space="preserve">
<style type="text/css">
	.st0{fill:#42A5F5;}
</style>
<g>
	<path class="st0" d="M29.6,0H2.3C1.1,0,0,1,0,2.3v15.1c0,1.3,1,2.3,2.3,2.3h27.4c1.2,0,2.3-1.1,2.3-2.3V2.3C32,1,30.9,0,29.6,0z
		 M16.5,15.4h-3.4V8.9L9.8,13L6.4,9v6.5H3.1V4.2h3.4l3.4,4.1l3.4-4.1h3.4V15.4z M23.8,15.5l-5-5.5h3.4V4.2h3.4V10h3.4L23.8,15.5z"/>
</g>
</svg>
