<?xml version="1.0" encoding="utf-8"?>
<!-- Generator: Adobe Illustrator 28.0.0, SVG Export Plug-In . SVG Version: 6.00 Build 0)  -->
<svg version="1.1" id="Layer_1" xmlns="http://www.w3.org/2000/svg" xmlns:xlink="http://www.w3.org/1999/xlink" x="0px" y="0px"
	 viewBox="0 0 512 467.8" style="enable-background:new 0 0 512 467.8;" xml:space="preserve">
<style type="text/css">
	.st0{fill:#DB5555;}
</style>
<path class="st0" d="M495.9,345.5c-29-73.2-53-148.2-80.7-221.9c-12.2-31.4-24.2-63-40.9-92.3c-6.6-10.5-13-22.1-23.8-28.9
	c-2.7-1.7-5.7-2.5-8.9-2.4c-5.2,0.3-10.1,2.2-14,5.7C313,17.2,304.3,34,294.7,49.5c-17.1,28.7-35.2,58.8-63.8,77.4
	c-13.4,9.5-31,10.5-44,20.7c-17.7,13.4-29.8,32.3-44.3,48.7c-3.3,4-8.4,5.5-12.9,7.7C86.3,221.6,43,239.3,0,257.8
	C36.4,286,75.1,311,112.2,338.1c10.2-2,20.4-6.2,30.9-4.3c16.6,5.2,26.4,21.1,34,35.7c15.5,31.8,26.7,65.3,39.2,98.3
	c21-1.5,39.9-12.3,56.1-25c31.2-25.3,55-58,81.2-88.2c12.5-13.2,25.4-28.9,44.2-32.6c19-4.6,39.5,2.2,53.6,15.3
	c19.8,17.7,37.4,38.2,60.5,51.8C508.9,373.8,501.4,360,495.9,345.5L495.9,345.5z M171.9,294c-18.3,10.8-37.7,19.7-56.7,29.2
	c-29.8-20-58.9-41.1-88.2-61.9c39.5-17.3,79.6-33.4,119.7-49.6c19,14.8,38.6,28.9,57.5,43.7C195.3,269.7,184.4,282.7,171.9,294
	L171.9,294z M212.5,244.3c-18.9-14.2-37.9-28-56.5-42.5c11.9-16.2,24.9-31.9,40.6-44.7c10.3-6.6,23-8.5,33.7-14.4
	c25.5-12.7,42.8-36,59.4-58.3C268.4,139.6,245.7,195,212.5,244.3L212.5,244.3z"/>
</svg>
