<?xml version="1.0" encoding="utf-8"?>
<!-- Generator: Adobe Illustrator 28.0.0, SVG Export Plug-In . SVG Version: 6.00 Build 0)  -->
<svg version="1.1" id="Layer_1" xmlns="http://www.w3.org/2000/svg" xmlns:xlink="http://www.w3.org/1999/xlink" x="0px" y="0px"
	 viewBox="0 0 28 24.8" style="enable-background:new 0 0 28 24.8;" xml:space="preserve">
<style type="text/css">
	.st0{fill:#DB5555;}
</style>
<path class="st0" d="M2.4,0.2C3,0,3.6,0,4.3,0C8.2,0,12.1,0,16,0c1.4,0,2.6,0.8,3.2,2c0.7,1.7-0.1,3.6-1.8,4.3
	C17,6.5,16.5,6.6,16,6.6c-4.2,0-8.4,0-12.6,0C1.7,6.6,0.2,5.3,0,3.7C-0.2,2.1,0.8,0.6,2.4,0.2z"/>
<path class="st0" d="M23.8,0.2c1.7-0.4,3.4,0.5,4,2.1c0.6,1.7-0.3,3.5-2,4.1c0,0,0,0-0.1,0c-1.7,0.6-3.6-0.2-4.2-2
	c-0.1-0.2-0.2-0.5-0.2-0.8C21.2,2,22.2,0.5,23.8,0.2z"/>
<path class="st0" d="M10.9,9.4c0.6-0.1,1.3-0.1,1.9-0.1c3.9,0,7.8,0,11.8,0c1.8,0,3.3,1.4,3.3,3.2c0,1.8-1.4,3.3-3.2,3.3
	c-0.1,0-0.1,0-0.2,0c-4.3,0-8.6,0-12.9,0c-1.7,0-3-1.3-3.2-2.9C8.4,11.3,9.4,9.9,10.9,9.4z"/>
<path class="st0" d="M2.5,18.4c0.4-0.1,0.9-0.1,1.3-0.1c4.1,0,8.3,0,12.4,0c1.8,0,3.2,1.5,3.2,3.3c0,0,0,0,0,0.1
	c-0.1,1.7-1.5,3-3.2,3.1c-4.4,0-8.7,0-13.1,0c-1.8,0-3.2-1.5-3.2-3.3C0,20,1.1,18.7,2.5,18.4L2.5,18.4z"/>
<path class="st0" d="M23.6,18.4c1.7-0.5,3.5,0.3,4.2,1.9c0.6,1.7-0.3,3.6-2,4.2c-1.7,0.6-3.6-0.3-4.2-2c-0.1-0.4-0.2-0.7-0.2-1.1
	C21.3,20.1,22.2,18.8,23.6,18.4z"/>
<path class="st0" d="M2.4,9.4C4.1,8.9,6,9.9,6.5,11.6S6,15.2,4.3,15.8c-1.5,0.4-3.1-0.2-3.8-1.5c-0.9-1.6-0.4-3.6,1.2-4.6
	C1.9,9.6,2.1,9.5,2.4,9.4z"/>
</svg>
