<?xml version="1.0" encoding="utf-8"?>
<!-- Generator: Adobe Illustrator 28.0.0, SVG Export Plug-In . SVG Version: 6.00 Build 0)  -->
<svg version="1.1" id="Layer_1" xmlns:v="https://vecta.io/nano"
	 xmlns="http://www.w3.org/2000/svg" xmlns:xlink="http://www.w3.org/1999/xlink" x="0px" y="0px" viewBox="0 0 405.4 447.4"
	 style="enable-background:new 0 0 405.4 447.4;" xml:space="preserve">
<style type="text/css">
	.st0{fill:#2E76FF;}
</style>
<path class="st0" d="M0,332c0,2.5,1.4,4.9,3.6,6.1l195.7,108.3c2.1,1.2,4.7,1.2,6.8,0l195.7-108.3c2.2-1.2,3.6-3.6,3.6-6.1
	s-1.4-4.9-3.6-6.1L315,277.8l86.8-48.1c2.2-1.2,3.6-3.6,3.6-6.1s-1.4-4.9-3.6-6.1l-86.8-48l86.8-48.1c2.2-1.2,3.6-3.6,3.6-6.1
	s-1.4-4.9-3.6-6.1L206.1,0.9c-2.1-1.2-4.7-1.2-6.8,0L3.6,109.2c-2.2,1.2-3.6,3.6-3.6,6.1s1.4,4.9,3.6,6.1l86.8,48.1L3.6,217.6
	c-2.2,1.2-3.6,3.6-3.6,6.1s1.4,4.9,3.6,6.1l86.8,48.1l-86.8,48C1.4,327.1,0,329.5,0,332L0,332z M188.3,332l-83.5,46.2l-34.5-19.1
	l83.4-46.2L188.3,332z M202.7,432.4l-34.5-19.1L349.5,313l34.5,19L202.7,432.4z M335,304.9L153.7,405.3l-34.5-19.1l86.9-48
	l94.5-52.3L335,304.9L335,304.9z M104.8,69.2l34.5,19.1l-34.5,19.1L70.3,88.2L104.8,69.2L104.8,69.2z M153.7,42.1l34.5,19.1
	l-34.5,19.1l-34.5-19.1L153.7,42.1L153.7,42.1z M286.1,61.2l-34.5,19.1l-34.5-19.1l34.5-19.1C251.6,42.1,286.1,61.2,286.1,61.2z
	 M335,88.2l-34.5,19.1l-34.5-19l34.5-19.1L335,88.2z M251.6,134.4l-34.5-19.1l34.5-19.1l34.5,19.1L251.6,134.4L251.6,134.4z
	 M300.5,123.3l34.5,19.1l-34.5,19.1L266,142.4L300.5,123.3L300.5,123.3z M237.2,142.4l-34.5,19.1l-34.5-19.1l34.5-19.1L237.2,142.4
	L237.2,142.4z M237.1,88.3l-34.5,19.1l-34.5-19.1l34.5-19.1L237.1,88.3L237.1,88.3z M153.8,96.2l34.5,19.1l-34.5,19.1l-34.5-19.1
	L153.8,96.2L153.8,96.2z M139.3,142.4l-34.5,19.1l-34.5-19.1l34.5-19.1L139.3,142.4L139.3,142.4z M153.7,150.4l34.5,19.1l-34.5,19.1
	l-34.5-19.1L153.7,150.4L153.7,150.4z M202.7,177.5l34.5,19.1l-34.5,19.1l-34.5-19.1L202.7,177.5z M251.6,188.6l-34.5-19.1
	l34.5-19.1l34.5,19.1L251.6,188.6L251.6,188.6z M349.5,134.4L315,115.3l34.5-19.1l34.5,19.1L349.5,134.4z M202.7,15l34.5,19.1
	l-34.5,19.1l-34.5-19.1L202.7,15z M55.9,96.2l34.5,19.1l-34.5,19.1l-34.5-19.1L55.9,96.2z M104.9,177.5l94.5,52.3
	c2.1,1.2,4.7,1.2,6.8,0l94.5-52.3l83.4,46.2L202.7,324L21.4,223.7L104.9,177.5L104.9,177.5z M104.9,285.8l34.5,19.1L56,351.1
	L21.4,332L104.9,285.8z"/>
</svg>
