<?xml version="1.0" encoding="utf-8"?>
<!-- Generator: Adobe Illustrator 28.0.0, SVG Export Plug-In . SVG Version: 6.00 Build 0)  -->
<svg version="1.1" id="Layer_1" xmlns="http://www.w3.org/2000/svg" xmlns:xlink="http://www.w3.org/1999/xlink" x="0px" y="0px"
	 viewBox="0 0 512 502.6" style="enable-background:new 0 0 512 502.6;" xml:space="preserve">
<style type="text/css">
	.st0{fill-rule:evenodd;clip-rule:evenodd;fill:#2E76FF;}
</style>
<g>
	<path class="st0" d="M116.4,86.1c-5.9,0-10.1,0.7-14.3,1.7v0.7h0.7c2.8,5.6,7.7,9.4,11.1,14.3c2.8,5.6,5.2,11.1,8,16.7
		c0.3-0.4,0.7-0.7,0.7-0.7c4.9-3.5,7.3-9,7.3-17.4c-2.1-2.5-2.4-4.9-4.2-7.3C123.7,90.6,119.2,88.9,116.4,86.1L116.4,86.1z"/>
	<path class="st0" d="M471.6,388.7c-27.9-0.7-49.5,2.1-67.6,9.7c-5.2,2.1-13.6,2.1-14.3,8.7c2.8,2.8,3.1,7.3,5.6,11.2
		c4.2,7,11.5,16.3,18.1,21.2c7.3,5.6,14.6,11.1,22.3,16c13.6,8.4,28.9,13.2,42.1,21.6c7.7,4.9,15.3,11.1,23,16.4
		c3.8,2.8,6.2,7.3,11.1,9v-1.1c-2.5-3.1-3.1-7.7-5.6-11.2c-3.5-3.5-7-6.6-10.5-10.1c-10.1-13.6-22.7-25.4-36.2-35.2
		c-11.2-7.7-35.5-18.1-40-31c0,0-0.4-0.4-0.7-0.7c7.7-0.7,16.7-3.5,24-5.6c11.8-3.1,22.6-2.4,34.8-5.5c5.6-1.4,11.2-3.2,16.7-4.9
		v-3.2c-6.3-6.3-10.8-14.6-17.4-20.5c-17.7-15.3-37.3-30.3-57.5-42.8c-10.8-7-24.7-11.5-36.2-17.4c-4.2-2.1-11.1-3.1-13.6-6.6
		c-6.3-7.7-9.8-17.7-14.3-26.8c-10.1-19.1-19.9-40.4-28.5-60.6c-6.3-13.6-10.1-27.1-17.7-39.7c-35.9-59.2-74.9-95.1-134.8-130.2
		c-12.9-7.3-28.2-10.5-44.5-14.3c-8.7-0.4-17.4-1-26.1-1.4c-5.6-2.5-11.2-9.1-16-12.2C68,9.2,16.8-18,2.2,17.9
		c-9.4,22.7,13.9,44.9,22,56.4c5.9,8,13.6,17.1,17.7,26.1c2.4,5.9,3.1,12.2,5.6,18.4c5.6,15.3,10.8,32.4,18.1,46.7
		c3.8,7.3,8,15,12.9,21.6c2.8,3.9,7.7,5.6,8.7,11.9c-4.9,7-5.2,17.4-8,26.1c-12.5,39.4-7.7,88.1,10.1,117
		c5.6,8.7,18.8,27.9,36.6,20.5c15.7-6.3,12.2-26.1,16.7-43.5c1-4.2,0.3-7,2.4-9.7v0.7c4.9,9.7,9.7,19.1,14.3,28.9
		c10.8,17,29.6,34.8,45.3,46.6c8.3,6.3,15,17.1,25.4,20.9v-1h-0.7c-2.1-3.1-5.2-4.5-8-7c-6.3-6.3-13.2-13.9-18.1-20.9
		c-14.6-19.5-27.5-41.1-39-63.4c-5.6-10.8-10.5-22.7-15-33.4c-2.1-4.2-2.1-10.5-5.6-12.5c-5.2,7.7-12.9,14.3-16.7,23.7
		c-6.6,15-7.3,33.5-9.8,52.6c-1.4,0.4-0.7,0-1.4,0.7c-11.1-2.8-15-14.3-19.2-24c-10.4-24.7-12.2-64.4-3.1-93
		c2.4-7.3,12.9-30.3,8.7-37.2c-2.1-6.7-9.1-10.4-12.9-15.7c-4.5-6.6-9.4-15-12.5-22.3c-8.4-19.5-12.6-41.1-21.6-60.6
		C51,83.3,43.6,73.9,37.7,65.6c-6.6-9.4-14-16-19.2-27.2c-1.7-3.8-4.2-10.1-1.4-14.3c0.7-2.8,2.1-3.8,4.9-4.5
		c4.5-3.8,17.4,1,21.9,3.1c12.9,5.2,23.7,10.1,34.5,17.4c4.9,3.5,10.1,10.1,16.4,11.9h7.3c11.1,2.4,23.7,0.7,34.1,3.8
		c18.4,5.9,35.2,14.6,50.1,24c45.6,28.9,83.2,70,108.6,119.1c4.2,8,6,15.3,9.8,23.7c7.3,17.1,16.4,34.5,23.7,51.2
		c7.3,16.4,14.3,33.1,24.7,46.7c5.2,7.3,26.1,11.1,35.5,15c7,3.1,17.7,5.9,24,9.7c11.8,7.3,23.7,15.7,34.8,23.7
		C453.1,373.1,470.6,381.7,471.6,388.7L471.6,388.7z"/>
</g>
</svg>
