<?xml version="1.0" encoding="utf-8"?>
<!-- Generator: Adobe Illustrator 28.0.0, SVG Export Plug-In . SVG Version: 6.00 Build 0)  -->
<svg version="1.1" id="Layer_1" xmlns="http://www.w3.org/2000/svg" xmlns:xlink="http://www.w3.org/1999/xlink" x="0px" y="0px"
	 viewBox="0 0 20 20" style="enable-background:new 0 0 20 20;" xml:space="preserve">
<style type="text/css">
	.st0{fill:#2E76FF;}
</style>
<g>
	<path class="st0" d="M10,20c-3.3,0-6.6-1.7-8.5-4.7C-1.4,10.6,0,4.4,4.7,1.5C9.4-1.4,15.6,0,18.5,4.7c2.2,3.6,2,8.3-0.7,11.6
		c-0.3,0.4-1,0.5-1.4,0.2c-0.4-0.3-0.5-1-0.2-1.4c2.1-2.6,2.4-6.4,0.6-9.2C14.5,2,9.5,0.9,5.8,3.2c-3.7,2.3-4.9,7.3-2.6,11
		c2.1,3.4,6.5,4.7,10.1,3.1L8,10.1V13c0,0.6-0.4,1-1,1s-1-0.4-1-1V7c0-0.4,0.3-0.8,0.7-1c0.4-0.1,0.9,0,1.1,0.4l7.7,10.7
		c0.2,0.2,0.2,0.5,0.2,0.8c-0.1,0.3-0.2,0.5-0.5,0.7C13.6,19.5,11.8,20,10,20z"/>
	<path class="st0" d="M13,11c-0.6,0-1-0.4-1-1V7c0-0.6,0.4-1,1-1s1,0.4,1,1v3C14,10.5,13.6,11,13,11z"/>
</g>
</svg>
