<?xml version="1.0" encoding="utf-8"?>
<!-- Generator: Adobe Illustrator 28.0.0, SVG Export Plug-In . SVG Version: 6.00 Build 0)  -->
<svg version="1.1" id="Layer_1" xmlns="http://www.w3.org/2000/svg" xmlns:xlink="http://www.w3.org/1999/xlink" x="0px" y="0px"
	 viewBox="0 0 24.8 28" style="enable-background:new 0 0 24.8 28;" xml:space="preserve">
<style type="text/css">
	.st0{fill:#A4C639;}
</style>
<g>
	<path class="st0" d="M12.4,28c-0.4,0-0.8-0.1-1.1-0.3l-3.4-2c-0.5-0.3-0.3-0.4-0.1-0.5c0.5-0.2,1.1-0.4,1.6-0.7c0.1,0,0.2,0,0.3,0
		l2.6,1.6c0.1,0.1,0.2,0.1,0.3,0l10.2-5.9c0.1-0.1,0.2-0.2,0.2-0.3V8.1c0-0.1-0.1-0.2-0.2-0.3L12.6,1.9c-0.1-0.1-0.2-0.1-0.3,0
		L2,7.8C1.9,7.8,1.8,8,1.8,8.1v11.9c0,0.1,0.1,0.2,0.2,0.3l2.8,1.6c1.5,0.8,2.5-0.1,2.5-1V9.1c0-0.2,0.1-0.3,0.3-0.3h0h1.3
		c0.2,0,0.3,0.1,0.3,0.3l0,0v11.7c0,2-1.1,3.2-3,3.2c-0.8,0-1.6-0.2-2.4-0.6l-2.7-1.5C0.4,21.4,0,20.7,0,19.9V8.1
		c0-0.8,0.4-1.5,1.1-1.9l10.3-5.9c0.7-0.4,1.5-0.4,2.2,0l10.2,5.9c0.7,0.4,1.1,1.1,1.1,1.9v11.9c0,0.8-0.4,1.5-1.1,1.9l-10.3,5.9
		C13.2,27.9,12.8,28,12.4,28z"/>
	<path class="st0" d="M10.5,16c0-0.2,0.1-0.3,0.3-0.3l0,0h1.3c0.1,0,0.3,0.1,0.3,0.2c0.2,1.3,0.8,2,3.5,2c2.2,0,3.1-0.5,3.1-1.6
		c0-0.7-0.3-1.1-3.6-1.5c-2.8-0.3-4.5-0.9-4.5-3.1c0-2.1,1.8-3.3,4.7-3.3c3.3,0,4.9,1.1,5.1,3.6c0,0.2-0.1,0.3-0.3,0.3c0,0,0,0,0,0
		H19c-0.1,0-0.3-0.1-0.3-0.2c-0.3-1.4-1.1-1.9-3.2-1.9c-2.4,0-2.6,0.8-2.6,1.4s0.3,1,3.5,1.4s4.6,1,4.6,3.2s-1.9,3.5-5.1,3.5
		C11.4,19.7,10.5,17.7,10.5,16z"/>
</g>
</svg>
