<?xml version="1.0" encoding="utf-8"?>
<!-- Generator: Adobe Illustrator 28.0.0, SVG Export Plug-In . SVG Version: 6.00 Build 0)  -->
<svg version="1.1"
	 id="Layer_1" shape-rendering="geometricPrecision" text-rendering="geometricPrecision" image-rendering="optimizeQuality"
	 xmlns="http://www.w3.org/2000/svg" xmlns:xlink="http://www.w3.org/1999/xlink" x="0px" y="0px" viewBox="0 0 399 511.7"
	 style="enable-background:new 0 0 399 511.7;" xml:space="preserve">
<style type="text/css">
	.st0{fill:#999999;}
</style>
<g>
	<path class="st0" d="M92,41.7h159.8c4.4,0,8.2,2.1,10.7,5.3l100.4,108.6c2.4,2.6,3.5,5.8,3.5,9l0.1,245.8c0,16.3-6.7,31.2-17.5,42
		l-0.1,0.1C338.1,463.3,323.3,470,307,470H92c-16.4,0-31.2-6.7-42-17.5c-10.8-10.8-17.5-25.7-17.5-42V101.2c0-16.4,6.7-31.3,17.5-42
		C60.8,48.4,75.6,41.7,92,41.7z M130.3,254.3c-7.4,0-13.4-6-13.4-13.4c0-7.4,6-13.4,13.4-13.4h138.3c7.4,0,13.4,6,13.4,13.4
		c0,7.4-6,13.4-13.4,13.4H130.3z M130.3,320.8c-7.4,0-13.4-6-13.4-13.4c0-7.4,6-13.4,13.4-13.4h131c7.4,0,13.4,6,13.4,13.4
		c0,7.4-6,13.4-13.4,13.4H130.3z M130.3,387.2c-7.4,0-13.4-6-13.4-13.4s6-13.4,13.4-13.4h111.1c7.4,0,13.4,6,13.4,13.4
		s-6,13.4-13.4,13.4C241.4,387.2,130.3,387.2,130.3,387.2z M259.4,82.8v45.4c0.9,11.4,4.8,20.3,11.7,26.2c7.2,6.2,18.1,9.6,32.6,9.9
		l30.9,0C334.6,164.2,259.4,82.8,259.4,82.8z M339.8,190.9l-36.3,0c-21.1-0.3-37.7-6-49.7-16.3c-12.5-10.7-19.5-25.8-21-44.5
		l-0.1-1.9V68.4H92c-9,0-17.2,3.7-23.2,9.6c-5.9,5.9-9.6,14.2-9.6,23.2v309.3c0,9,3.7,17.2,9.6,23.1c6,6,14.2,9.7,23.2,9.7h215
		c9,0,17.2-3.7,23.1-9.6c6-6,9.7-14.2,9.7-23.2V190.9L339.8,190.9z"/>
</g>
</svg>
