<?xml version="1.0" encoding="utf-8"?>
<!-- Generator: Adobe Illustrator 28.0.0, SVG Export Plug-In . SVG Version: 6.00 Build 0)  -->
<svg version="1.1" id="Layer_1" xmlns="http://www.w3.org/2000/svg" xmlns:xlink="http://www.w3.org/1999/xlink" x="0px" y="0px"
	 viewBox="0 0 14 14.2" style="enable-background:new 0 0 14 14.2;" xml:space="preserve">
<style type="text/css">
	.st0{fill:none;stroke:#95A5A6;stroke-width:1.5;stroke-linejoin:round;}
	.st1{fill:none;stroke:#BDC3C7;}
	.st2{fill:none;stroke:#95A5A6;stroke-linecap:round;}
</style>
<g>
	<path class="st0" d="M2.5,0.8v0.8V0.8z M5.5,0.8v0.8V0.8z M8.5,0.8v0.8V0.8z M11.5,0.8v0.8V0.8z"/>
	<path class="st1" d="M1.8,1.8h10.5c0.7,0,1.2,0.6,1.2,1.2v9.5c0,0.7-0.6,1.2-1.2,1.2H1.8c-0.7,0-1.2-0.6-1.2-1.2V3
		C0.5,2.3,1.1,1.8,1.8,1.8z"/>
	<path class="st2" d="M3.2,4.8h7.5 M3.2,6.8h7.5 M3.2,8.8h7.5 M3.2,10.8H7"/>
</g>
</svg>
