<?xml version="1.0" encoding="utf-8"?>
<!-- Generator: Adobe Illustrator 28.0.0, SVG Export Plug-In . SVG Version: 6.00 Build 0)  -->
<svg version="1.1" id="Layer_1" xmlns="http://www.w3.org/2000/svg" xmlns:xlink="http://www.w3.org/1999/xlink" x="0px" y="0px"
	 viewBox="0 0 512 512" style="enable-background:new 0 0 512 512;" xml:space="preserve">
<style type="text/css">
	.st0{fill:#2E76FF;}
</style>
<path class="st0" d="M486.9,256.8L377.4,361.8l109.5,104.9V256.8z M475.8,246.2h-219l109.5,104.9L475.8,246.2z M475.8,231.2
	l-109.5-105L256.8,231.1L475.8,231.2z M347.4,123.1h-219L237.9,228L347.4,123.1z M486.9,10.6L377.4,115.6l109.5,104.9V10.6z
	 M347.4,108L237.9,3.1L128.4,108H347.4z M219,0H0l109.5,104.9L219,0z M25.1,255.2l109.5-104.9L25.1,45.3L25.1,255.2z M145.7,160.9
	L36.2,265.8h219L145.7,160.9z M36.2,280.9l109.5,104.9l109.5-105L36.2,280.9z M25.1,291.5v209.9l109.5-104.9L25.1,291.5z
	 M383.6,388.9L274.1,284L164.6,388.9L383.6,388.9z M164.6,403.9l109.5,105L383.6,404L164.6,403.9z M293,512h219L402.5,407.1L293,512
	z"/>
</svg>
