<?xml version="1.0" encoding="utf-8"?>
<!-- Generator: Adobe Illustrator 28.0.0, SVG Export Plug-In . SVG Version: 6.00 Build 0)  -->
<svg version="1.1" id="Layer_1" xmlns="http://www.w3.org/2000/svg" xmlns:xlink="http://www.w3.org/1999/xlink" x="0px" y="0px"
	 viewBox="0 0 32 27.9" style="enable-background:new 0 0 32 27.9;" xml:space="preserve">
<style type="text/css">
	.st0{fill:#F97E2F;}
</style>
<path class="st0" d="M16.2,26.8c-0.1-0.2-0.3-0.7-0.3-0.9c-0.1-0.2-0.4-0.7-0.5-0.8c-0.3-0.3-0.4-0.4-0.5-0.8
	c-0.2-0.8-0.5-2.1-1-3.1c-0.3-0.5-0.7-0.9-1-1.3c-0.3-0.3-1-0.8-1.2-0.8c-1.2,0.2-1.6,1.4-2.1,2.3c-0.3,0.5-0.6,0.9-0.9,1.5
	c-0.2,0.5-0.2,1.1-0.6,1.5c-0.4,0.4-0.7,0.9-0.8,1.5c0,0.1-0.1,1.2-0.3,1.5l1.8-0.1c1.6,0.1,1.2,0.7,3.7,0.6l4-0.1
	C16.5,27.4,16.4,27.1,16.2,26.8L16.2,26.8z M27.9,0H4C1.8,0,0,1.8,0,4v8.8c0.6-0.2,1.4-1.4,1.7-1.7c0.4-0.5,0.5-1.2,0.8-1.6
	C2.9,8.5,3,7.9,4.2,7.9C4.7,7.9,5,8,5.3,8.5c0.2,0.3,0.7,1,0.9,1.4C6.5,10.4,6.9,11,7,11.2c0.1,0.1,0.2,0.2,0.4,0.2
	c0.2,0.1,0.3-0.1,0.5-0.2c0.2-0.1,0.2-0.4,0.4-0.7C8.5,10,8.7,9.4,8.8,9.2c0.2-0.4,0.3-0.8,0.6-1c0.4-0.3,0.9-0.3,1-0.4
	c0.7-0.2,1.1,0.4,1.4,0.7c0.2,0.2,0.6,0.7,0.8,1.2c0.2,0.4,0.4,0.9,0.5,1.1c0.1,0.2,0.3,0.7,0.4,1.1c0.1,0.4,0.5,0.8,0.6,1
	c0,0,0.2,0.5,1.4,1c0.4,0.2,0.7,0.3,1.1,0.4c0.5,0.2,1,0.2,1.6,0.1c0.4,0,0.7-0.7,0.9-1.2c0.1-0.3,0.2-1.2,0.3-1.4
	c0.1-0.2-0.1-0.4,0-0.7c0.2-0.2,0.3-0.3,0.4-0.6c0.2-0.7,1.5-0.7,2.2-0.7c0.6,0,0.5,0.6,1.5,0.4c0.6-0.1,1.1,0.1,1.8,0.2
	c0.5,0.1,1,0.3,1.3,0.6c0.2,0.2,0.7,1.3,0.2,1.4c0,0,0.1,0.2,0.2,0.2c-0.1,0.4-0.6,0.1-0.8,0.1c-0.3-0.1-0.6,0-0.9,0.2
	c-0.6,0.2-1.4,0.2-1.9,0.7C23,14,23,14.8,22.8,15.2c0,0-0.6,1.4-1.7,2.3c-0.3,0.2-0.9,0.8-2.2,1c-0.6,0.1-1.1,0.1-1.8,0.1
	c-0.3,0-0.6,0-0.9,0c-0.2,0-0.8,0-0.7,0l-0.1,0.2c0,0.1,0,0.2,0,0.2c0,0.1,0,0.2,0,0.4c0,0.2,0,0.5,0,0.8c0,0.5,0.2,1,0.3,1.5
	c0,0.6,0.3,1.2,0.6,1.7c0.1,0.2,0.3,0.2,0.3,0.4c0.1,0.2,0,0.5,0,0.8c0.2,1.1,0.5,2.2,0.9,3.2v0c0.6-0.1,1.2-0.3,2-0.4
	c1.4-0.2,3.4-0.1,4.6-0.2c3.2-0.3,4.9,1.3,7.8,0.7V4C32,1.8,30.2,0,27.9,0L27.9,0z M16,18.9C16,18.9,16,18.9,16,18.9z M7.4,22.6
	c0.2-0.5,0.4-1,0.5-1.5c0.2-0.5,0.5-1.2,0.9-1.4c-0.1-0.1-1-0.1-1.2-0.1c-0.3,0-0.5-0.1-0.8-0.1c-0.5-0.1-1-0.2-1.5-0.3
	C5,19.1,4,18.7,3.8,18.6c-0.5-0.2-0.9-0.9-1.2-0.8c-0.2,0-0.5,0.1-0.7,0.4c-0.1,0.2-0.2,0.6-0.3,0.8c-0.1,0.3-0.3,0.5-0.4,0.8
	c-0.3,0.5-0.8,0.9-1.1,1.4c0,0.1-0.1,0.2-0.1,0.3v5.4c0.3,0,0.5,0.1,0.8,0.2c2.2,0.6,2.8,0.7,5,0.4l0.2,0c0.2-0.4,0.3-1.6,0.4-1.9
	c0.1-0.3,0.2-0.5,0.2-0.8c0-0.3,0-0.5,0-0.8C6.6,23.4,7.1,23.1,7.4,22.6L7.4,22.6z"/>
</svg>
