<?xml version="1.0" encoding="utf-8"?>
<!-- Generator: Adobe Illustrator 28.0.0, SVG Export Plug-In . SVG Version: 6.00 Build 0)  -->
<svg version="1.1" id="Layer_1" xmlns="http://www.w3.org/2000/svg" xmlns:xlink="http://www.w3.org/1999/xlink" x="0px" y="0px"
	 viewBox="0 0 16 16" style="enable-background:new 0 0 16 16;" xml:space="preserve">
<style type="text/css">
	.st0{fill-rule:evenodd;clip-rule:evenodd;fill:#CB3837;}
	.st1{fill:#EAEA2D;}
</style>
<g>
	<path class="st0" d="M2.6,4c0-0.7,0.5-1.2,1.2-1.2h6C10.5,2.8,11,3.3,11,4v1.5c0.7-0.3,1.4-0.3,2.1,0V1.9c0-0.7-0.5-1.2-1.2-1.2
		H1.7C1,0.7,0.5,1.2,0.5,1.9v10.3c0,0.7,0.5,1.2,1.2,1.2h5.8V9.4c0-0.6,0.5-1.1,1.1-1.1h0.4V5.9c0-0.6-0.5-1.1-1.1-1.1
		S6.8,5.4,6.8,5.9V10c0,0.7-0.5,1.2-1.2,1.2H3.8c-0.7,0-1.2-0.5-1.2-1.2V4z"/>
	<path class="st1" d="M14.7,9.9c0.2,0,0.4,0.1,0.6,0.2c0.2,0.2,0.2,0.3,0.2,0.6v4c0,0.2-0.1,0.4-0.2,0.6c-0.2,0.2-0.3,0.2-0.6,0.2
		H9.2c-0.2,0-0.4-0.1-0.6-0.2c-0.2-0.2-0.2-0.3-0.2-0.6v-4c0-0.2,0.1-0.4,0.2-0.6C8.8,10,9,9.9,9.2,9.9H10V8.8c0-0.5,0.2-1,0.6-1.4
		s0.9-0.6,1.4-0.6c0.5,0,1,0.2,1.4,0.6c0.4,0.4,0.6,0.9,0.6,1.4v1.2H14.7z M10.8,8.8v1.2h2.4V8.8c0-0.3-0.1-0.6-0.3-0.8
		c-0.2-0.2-0.5-0.3-0.8-0.3c-0.3,0-0.6,0.1-0.8,0.3C10.9,8.1,10.8,8.4,10.8,8.8z M12.4,13.8c0.2-0.1,0.4-0.2,0.6-0.4
		s0.2-0.4,0.2-0.7c0-0.3-0.1-0.6-0.3-0.8c-0.2-0.2-0.5-0.3-0.8-0.3c-0.3,0-0.6,0.1-0.8,0.3c-0.2,0.2-0.3,0.5-0.3,0.8
		c0,0.2,0.1,0.5,0.2,0.7s0.3,0.4,0.6,0.4v0.9h0.8V13.8z"/>
</g>
</svg>
