<?xml version="1.0" encoding="utf-8"?>
<!-- Generator: Adobe Illustrator 28.0.0, SVG Export Plug-In . SVG Version: 6.00 Build 0)  -->
<svg version="1.1" id="Layer_1" xmlns="http://www.w3.org/2000/svg" xmlns:xlink="http://www.w3.org/1999/xlink" x="0px" y="0px"
	 viewBox="0 0 1763.7 2296.6" style="enable-background:new 0 0 1763.7 2296.6;" xml:space="preserve">
<style type="text/css">
	.st0{fill:#7564E8;}
</style>
<g>
	<path class="st0" d="M1754.2,1307.5c-42-265.3-320.3-437.1-527.6-566.7c-90.5-56.6-237.3-130.4-256.3-249.4
		c-7.8-49.2-7.5-100-9.2-149.7c-0.7-19.5-1-39.1-2.7-58.6c-2.3-25.1-27.8,5.8-41.8-16.1c-34.7-54.2-21.3,16.4-17.9,45
		c8,67.1,17.5,134,16.9,201.7c-1,129.4-21.9,253.3-54.2,378c-75.6,292-135.2,591.1-60.4,889.9c15.5,61.9,35.6,123,62.1,181.1
		c8,17.6,23.3,66.6,45.4,72.5c79.4,21.2,139.4,27.3,202.7,86.3c39.4,36.7,68.9,16.6,115.4-2c141-56.4,263.2-127.4,363-243.6
		C1730.2,1712.6,1788.1,1521.4,1754.2,1307.5L1754.2,1307.5z M1605.1,1574.6L1605.1,1574.6c-12.5,109.1-80.9,206.8-150.8,287.9
		c-50.7,58.7-119.2,135-194.3,161.7c-27,9.6,5-44.5,8.9-50.4c23.2-35,51.9-65.8,78.5-98.2c39.4-47.8,73.4-98,96.5-156
		c76.5-192.3,59.1-425.3-54.1-598.5c-61.6-94.3-146.2-174-231.5-246.7c-41.2-35.1-82.9-68.4-117.5-110.4
		c-8-9.7-78.8-102.4-56.8-116.1c7.1-4.4,161.8,158.3,178.7,171c64,48.3,129.8,93,189,147.4c80.2,73.7,162.5,155.9,208.5,256.1
		C1610.5,1332.1,1618.7,1455.9,1605.1,1574.6z"/>
	<path class="st0" d="M563,1428.4c-2.6-121.3,72.3-317.4,136.8-410.4c64.5-92.9,123.9-198.7,149.7-294.2s18.1-451.7,18.1-534.3
		S862.4,16.6,839.2,1.1l0,0c-23.2-15.5-20.6,126.5-20.6,126.5s10.3,322.6,0,413c-10.3,90.3-43.9,160-74.9,224.6
		c-31,64.5-147.1,206.5-206.5,289.1s-142,219.4-139.4,366.5s80,335.5,157.4,428.4s224.5,252.9,260.7,206.5
		c20.3-26.1-72.1-141.7-126.5-224.6C635.2,1748.5,565.5,1549.8,563,1428.4z"/>
	<path class="st0" d="M573.3,2045.3c-56.8-28.4-131.6-85.2-240-206.5s-136.8-234.9-144.5-351c-7.6-114.4,28.4-250.4,100.7-353.6
		s265.8-312.3,332.9-379.4s157.4-162.6,165.2-276.2c7.6-113.5,15.4-229.6,15.4-258s-2.6-56.8-25.8-67.1l0,0
		c-23.2-10.3-23.2,41.3-20.6,67.1c2.6,25.8-5.2,95.5-2.6,172.9c2.6,77.4-20.6,123.9-64.5,180.7S555.3,700.7,488.2,742
		s-281.3,201.3-358.8,309.7C51.9,1160,5.5,1229.7,0.3,1397.5s54.2,343.3,170.3,474.9c116.2,131.6,317.5,214.2,376.8,234.9
		c59.4,20.6,113.6,38.7,126.5,12.9C686.9,2094.3,630.1,2073.7,573.3,2045.3z"/>
	<path class="st0" d="M783.6,2176.6L783.6,2176.6c-12.9,0.5-8.1,38.3-26.2,58.4c-19.7,22-46.6,27.2-42.7,36.3
		c3.9,9.1,35.7-4.5,54.2-27.1C787.5,2221.6,794.1,2176.2,783.6,2176.6z"/>
	<path class="st0" d="M893,2152.8c-10.3,0-6.7,32.2-6.7,71.9s-4,71.9,6.7,71.9c8.7,0,6.6-32.2,6.6-71.9l0,0
		C899.7,2185,902.5,2152.8,893,2152.8z"/>
	<path class="st0" d="M1018.7,2233.8c-18.1-20.1-13.3-57.9-26.2-58.4l0,0c-10.5-0.4-3.9,45,14.7,67.6c18.5,22.6,50.4,36.1,54.2,27.1
		C1065.3,2261,1038.4,2255.7,1018.7,2233.8z"/>
</g>
</svg>
