<?xml version="1.0" encoding="utf-8"?>
<!-- Generator: Adobe Illustrator 28.0.0, SVG Export Plug-In . SVG Version: 6.00 Build 0)  -->
<svg version="1.1" id="Layer_1" xmlns="http://www.w3.org/2000/svg" xmlns:xlink="http://www.w3.org/1999/xlink" x="0px" y="0px"
	 viewBox="0 0 283.9 324.5" style="enable-background:new 0 0 283.9 324.5;" xml:space="preserve">
<style type="text/css">
	.st0{fill:#80CCC5;}
</style>
<path class="st0" d="M78.7,225.5l-15.5,20.3v-8.9L78.7,225.5z M77,285l-1.1,19.5l6.9,4.3L77.6,287L77,285z M283.9,217.2l-8.6,7.7
	l-7.2-0.3l4.6-6.9l-2.4-6.2l-23.6-8.1l-15.1,0l-26.6,7.4l-28,23.8l3.6,8.6l7.5,5.3l5.7-13.7l14.6,6.9l0.3,4l-10.6-4.6l-1.7,2.9
	l10.3,5.4l3.7,8.9l-9.2-8l-1.7,1.1l1.4,23.5l-11.7-14.6l-0.2-1.8l-24.2,10.1l-8.3-19.1l-2.2-10.6l-1.8,1.2l1.6,33.4l15.3,15
	l5.6-11.4l14.9,6.6v3.4l-9.7-4.3l-2,3.4l9.2,4.9l4,9.4l-8.6-8.3l-2.6,1.1l1.7,23.2l-10.9-12.3l0-1.3l-14.9,5.6l-8.6-18l-0.2,10.7
	l8.7,20.4l-33.7-44l4.3,6.9l3.4,39.8L105.6,279l-8.3,19.5v20l-12-39.2l1-26.3l-0.6,0.3l-17.3,22.9l6.2-24.7l19.1-26.2l44.9-30.3
	l-31.5,4.3l11.3-7.7l-28.5-10.9l14.2,1.2l-35.7-19.8l19.5,3.4l7.7,4.8l-52.7-40.3l20.2,7.1l-39.3-36.1l19.8,7.2l5.7,0.7L34.6,97.9
	L5,55.5l31.6,18.9L0,24.2l103.6,54.9L74.3,47.7l-4.6-24.8l28.5,24.9L79.9,0l123.5,101.9l3.2,13.6l20,40.1l-13.6-13.4l5.2,22l3.9,4.2
	l24.8,5.8l25,7.7l11.8,19.1L283.9,217.2z"/>
</svg>
