<?xml version="1.0" encoding="utf-8"?>
<!-- Generator: Adobe Illustrator 28.0.0, SVG Export Plug-In . SVG Version: 6.00 Build 0)  -->
<svg version="1.1" id="Layer_1" xmlns="http://www.w3.org/2000/svg" xmlns:xlink="http://www.w3.org/1999/xlink" x="0px" y="0px"
	 viewBox="0 0 512 365.6" style="enable-background:new 0 0 512 365.6;" xml:space="preserve">
<style type="text/css">
	.st0{fill:#7564E8;}
</style>
<g>
	<path class="st0" d="M170.3,276.6c-2.4-15.7-9-28.4-25-34.5c-6.3-2.4-11.7-6.8-17.9-9.5c-7-3.3-14.2-6-21.6-8.1
		c-5.6-1.5-10.8,1-14.2,5.9c-3.2,4.6-0.9,9,1.8,12.8c3,4.4,6.3,8.5,9.6,12.6c5.5,6.8,11.4,13.3,16.7,20.2c5.1,6.6,9.5,13.9,8.8,22.6
		c-1.7,19.1-10.3,34.9-24.2,47.8c-1.7,1.5-3.9,2.2-6.2,2.2c-8.8-0.8-17-4.5-23.5-10.5c-7.5-7.1-6.3-15.5,2.6-20.7
		c2.2-1.2,4.3-2.4,6.3-3.9c5.4-3.9,7.3-11.2,4.3-17.2c-1.4-2.9-3-6.1-5.3-8.2c-11.4-10.4-22.7-21.1-34.9-30.6
		c-29.7-23-44.9-53.5-47.3-90.4c-2.9-40.1,7.1-80.2,28.5-114.3c8.2-13.3,17.7-26,32.4-32.5c10-4.5,20.9-7,31.5-9.8
		c29.3-7.7,58.9-13.5,89.4-8.3c26.3,4.4,45.5,17.9,54.3,43.8c5.8,16.9,7.2,34.3,5.4,52.2c-3.5,35.1-29.5,66.5-63.3,75.8
		c-14.7,4-22.7,1.8-31.5-10.4c-6.3-8.8-11.6-18.4-17.2-27.6c-0.8-1.4-1.4-3-2.2-4.4s-1.4-2.9-2.2-4.3c2.1,15.2,5.7,29.9,14,43
		c4.5,7,10.5,12.3,19.3,13.1c32.3,2.9,59.6-7.7,79-33.7c21.7-29.1,26.5-62.6,20.2-97.8c-1.2-7-3.3-13.8-4.8-20.7
		c-1-4.5,0.8-7.8,5.2-9.3c2-0.7,4.1-1.2,6.2-1.7c26.3-5.8,53.4-7.4,80.2-4.8c30.6,3.1,59.5,11.5,85.4,28.5
		c40.5,26.7,65.6,64.6,79.3,110.5c2,6.7,2.3,13.9,2.5,21c0.1,4.7-2.9,5.9-6.5,3c-3.9-3.3-7.6-6.8-10.9-10.6
		c-3.1-3.6-5.7-7.6-8.7-11.4c-2.4-2.9-4.4-2.5-5.6,1.2c-0.7,2.2-1.4,4.4-2,6.6c-7.1,25.3-18.2,48.3-36.3,67.7
		c-2.5,2.7-4.8,6.8-5.1,10.4c-0.8,10-1.4,20.1-0.4,30.1c2,21.3,5.1,42.6,7.5,63.9c1.4,12-2.5,19.1-13.8,23.3c-8,3-16.4,4.9-24.9,5.6
		c-13.4,0.9-26.9,0.3-40.3,0.3c-0.4-15,0.9-29.7-13.2-37.8c2.7-11.1,5.9-21.7,7.8-32.5c1.6-9,0.2-17.8-6.1-25.1
		c-5.9-6.9-13.3-8.8-20.1-4.9c-20.4,11.9-41.7,12-63.3,4.2c-9.9-3.6-16.9-1.6-22.4,7.5c-5.8,9.5-8.5,20.5-7.8,31.6
		c0.8,14,3.3,27.8,5.1,41.6c1,7.8,0.1,9.8-7.6,11.8c-17.1,4.4-34.6,4.8-52.1,3.4c-0.8-0.1-1.7-0.4-2.5-0.6
		c-0.9-14.5,0.7-29.7-16.7-37.4c7.7-16.3,6.6-33.2,4-50.1L170.3,276.6L170.3,276.6z M66.8,219.5c2.7-2.6,4.5-6,5.3-9.6
		c1.8-8.6-4.7-20.2-12.2-23.4c-4-1.7-7.5-1.1-10.3,2.1c-6.9,7.8-13.7,15.6-20.4,23.5c-1.2,1.4-2.2,2.9-3,4.5
		c-2.7,5.2-1.1,9,4.6,10.4c3.5,0.7,7.1,1.2,10.7,1.6C50.8,227.6,59.8,226.1,66.8,219.5L66.8,219.5z M67.5,133.1
		c-0.1-6.2-5.1-11.2-11.3-11.4c-6.4,0.1-11.5,5.4-11.5,11.8c0.2,6.2,5.4,11.1,11.6,11.1C62.6,144.5,67.6,139.4,67.5,133.1
		L67.5,133.1z"/>
</g>
</svg>
