<?xml version="1.0" encoding="utf-8"?>
<!-- Generator: Adobe Illustrator 28.0.0, SVG Export Plug-In . SVG Version: 6.00 Build 0)  -->
<svg version="1.1" id="Layer_1" xmlns="http://www.w3.org/2000/svg" xmlns:xlink="http://www.w3.org/1999/xlink" x="0px" y="0px"
	 viewBox="0 0 175.8 230.9" style="enable-background:new 0 0 175.8 230.9;" xml:space="preserve">
<style type="text/css">
	.st0{fill:#E14014;}
	.st1{fill:#9C291D;}
</style>
<g>
	<g>
		<path class="st0" d="M108.5,61.8c-8.4-2.5-17.1-1.5-25.7-1.8c-15.1-0.6-30.2-0.7-45.1-0.9c-6.1-0.1-11.5-1.8-16.5-5.3
			c-7.1-4.9-10.3-13.3-8.5-21.4c2.1-8.6,7.9-14.2,16.8-15.6c10.8-1.7,21.5-0.3,32.2,0.1c15.3,0.6,30.8,0.8,45.9,3.3
			c29.6,4.8,52.6,28.7,55.8,58.3c1.1,10.5-0.9,21-6.3,30.5c0.9-7.6,0.4-15-2.8-22.1c-7.8-17.5-22.4-24.9-40.8-26.4
			C111.9,60.5,109.8,59.6,108.5,61.8z"/>
		<path class="st0" d="M69.3,144.2c0.6,16.3,1.6,32.6,1.7,48.9c0.1,13.2-14,23.4-28.7,21.7c-12.1-1.4-19.6-7.2-21.3-16.7
			c-0.7-3.9-0.7-7.9-0.9-12c-0.9-16.7-1.7-33.4-2.6-50.1c-0.2-5,0-10,1.1-14.9c2.7-11.6,10.3-17.8,22.3-18.2
			c14.5-0.4,28.9-0.6,43.5-0.9c-10.4,2.6-15,7.1-15.2,16.2C68.9,126.8,69.2,135.5,69.3,144.2z"/>
		<path class="st1" d="M69.3,144.2c-0.1-8.7-0.4-17.4-0.3-26c0.3-9.1,4.8-13.6,15.2-16.2c4.8-0.2,9.6-0.4,14.5-0.4
			c3.9,0,7.7-0.3,11.4-1.6c0.8,0.1,1.6,0,1.9-0.9h-0.1c1.5,0,3.2,0.3,2.9-2.2l0.3-0.2c1.8,1.2,2.6-0.4,3.5-1.3
			c3.7-3.4,5.3-8,6.1-12.8c1.5-8.5-7.8-20.8-14.9-20.3c-0.5-0.2-1-0.3-1.5-0.5c1.3-2.1,3.4-1.3,5.1-1.1c18.4,1.6,32.8,9,40.8,26.4
			c3.2,7.1,3.7,14.5,2.8,22.1l-0.1,0.2c-0.7,0.4-0.9,1.1-0.9,1.9c-10.3,19.9-28.5,27.1-49,30C94.5,142.9,81.9,143.2,69.3,144.2z"/>
		<path class="st0" d="M110.1,62.3c7.2-0.4,16.4,11.8,14.9,20.3c-0.9,4.8-2.4,9.4-6.1,12.8c-0.9,0.9-1.7,2.5-3.5,1.3
			C125.6,84.9,123.7,72.1,110.1,62.3z"/>
		<path class="st0" d="M115.1,97c0.3,2.4-1.5,2.1-2.9,2.2C113.1,98.4,114,97.7,115.1,97z"/>
		<path class="st0" d="M112.1,99.1c-0.3,0.9-1.1,0.9-1.9,0.9C110.7,99.4,111.3,99.1,112.1,99.1z"/>
		<path class="st0" d="M156.1,111.2c0-0.8,0.2-1.5,0.9-1.9C157,110.1,156.8,110.7,156.1,111.2z"/>
	</g>
</g>
</svg>
