<?xml version="1.0" encoding="utf-8"?>
<!-- Generator: Adobe Illustrator 28.0.0, SVG Export Plug-In . SVG Version: 6.00 Build 0)  -->
<svg version="1.1" id="Layer_1" xmlns="http://www.w3.org/2000/svg" xmlns:xlink="http://www.w3.org/1999/xlink" x="0px" y="0px"
	 viewBox="0 0 512 512" style="enable-background:new 0 0 512 512;" xml:space="preserve">
<style type="text/css">
	.st0{fill:#2E76FF;}
</style>
<path class="st0" d="M404.9,448.7H20.4c-13.1,0-22.8-12.2-19.9-25L76.1,94c4-17.9,15.6-30.7,34-30.7h382.2c12.6,0,22,11.7,19.2,24.1
	l-77.2,337.9C431.1,439,418.9,448.7,404.9,448.7z M130,397.2l176.8-127c10.7-7.8,13-24.4,3.3-33.8l-116.8-124
	c-19.2-20.4-52.1,10.5-32.9,30.9l99.1,105.3L103.7,360.5C78.8,378.4,105.1,415,130,397.2z M346.2,353.2h-93.8c-27,0-27,40.8,0,40.8
	h93.8C372.8,394.1,372.8,353.2,346.2,353.2z"/>
</svg>
