<?xml version="1.0" encoding="utf-8"?>
<!-- Generator: Adobe Illustrator 28.0.0, SVG Export Plug-In . SVG Version: 6.00 Build 0)  -->
<svg version="1.1" id="Layer_1" xmlns="http://www.w3.org/2000/svg" xmlns:xlink="http://www.w3.org/1999/xlink" x="0px" y="0px"
	 viewBox="0 0 210 210" style="enable-background:new 0 0 210 210;" xml:space="preserve">
<style type="text/css">
	.st0{fill:#56B3B4;}
	.st1{fill:#EA5E5E;}
	.st2{fill:#BF85BF;}
	.st3{fill:#F7BA3E;}
</style>
<g>
	<path class="st0" d="M162.8,47.2h8.9c2.5,0,4.4,2,4.4,4.4s-2,4.4-4.4,4.4h-8.9c-2.5,0-4.4-2-4.4-4.4S160.3,47.2,162.8,47.2z"/>
	<path class="st1" d="M29.4,189.4h44.4c2.5,0,4.4,2,4.4,4.4s-2,4.4-4.4,4.4H29.4c-2.5,0-4.4-2-4.4-4.4S27,189.4,29.4,189.4z"/>
	<path class="st2" d="M136.1,118.3h26.7c2.5,0,4.4,2,4.4,4.4s-2,4.4-4.4,4.4h-26.7c-2.5,0-4.4-2-4.4-4.4S133.6,118.3,136.1,118.3z"
		/>
	<path class="st1" d="M82.8,118.3h35.6c2.5,0,4.4,2,4.4,4.4s-2,4.4-4.4,4.4H82.8c-2.5,0-4.4-2-4.4-4.4S80.3,118.3,82.8,118.3z"/>
	<path class="st0" d="M29.4,118.3H65c2.5,0,4.4,2,4.4,4.4s-2,4.4-4.4,4.4H29.4c-2.5,0-4.4-2-4.4-4.4S27,118.3,29.4,118.3z"/>
	<path class="st2" d="M29.4,153.9h44.4c2.5,0,4.4,2,4.4,4.4s-2,4.4-4.4,4.4H29.4c-2.5,0-4.4-2-4.4-4.4S27,153.9,29.4,153.9z"/>
	<path class="st2" d="M29.4,82.8h44.4c2.5,0,4.4,2,4.4,4.4s-2,4.4-4.4,4.4H29.4c-2.5,0-4.4-2-4.4-4.4S27,82.8,29.4,82.8z"/>
	<path class="st3" d="M73.9,29.4h88.9c2.5,0,4.4,2,4.4,4.4s-2,4.4-4.4,4.4H73.9c-2.5,0-4.4-2-4.4-4.4S71.4,29.4,73.9,29.4z"/>
	<path class="st1" d="M29.4,29.4h26.7c2.5,0,4.4,2,4.4,4.4s-2,4.4-4.4,4.4H29.4c-2.5,0-4.4-2-4.4-4.4S27,29.4,29.4,29.4z"/>
	<path class="st3" d="M65,171.7h8.9c2.5,0,4.4,2,4.4,4.4s-2,4.4-4.4,4.4H65c-2.5,0-4.4-2-4.4-4.4S62.5,171.7,65,171.7z"/>
	<path class="st0" d="M65,65h8.9c2.5,0,4.4,2,4.4,4.4c0,2.5-2,4.4-4.4,4.4H65c-2.5,0-4.4-2-4.4-4.4S62.5,65,65,65z"/>
	<path class="st0" d="M29.4,171.7h17.8c2.5,0,4.4,2,4.4,4.4s-2,4.4-4.4,4.4H29.4c-2.5,0-4.4-2-4.4-4.4S27,171.7,29.4,171.7z"/>
	<path class="st3" d="M29.4,65h17.8c2.5,0,4.4,2,4.4,4.4c0,2.5-2,4.4-4.4,4.4H29.4c-2.5,0-4.4-2-4.4-4.4S27,65,29.4,65z"/>
	<path class="st0" d="M100.6,100.6h71.1c2.5,0,4.4,2,4.4,4.4s-2,4.4-4.4,4.4h-71.1c-2.5,0-4.4-2-4.4-4.4S98.1,100.6,100.6,100.6z"/>
	<path class="st3" d="M56.1,100.6h26.7c2.5,0,4.4,2,4.4,4.4s-2,4.4-4.4,4.4H56.1c-2.5,0-4.4-2-4.4-4.4S53.6,100.6,56.1,100.6z"/>
	<path class="st1" d="M29.4,100.6h8.9c2.5,0,4.4,2,4.4,4.4s-2,4.4-4.4,4.4h-8.9c-2.5,0-4.4-2-4.4-4.4S27,100.6,29.4,100.6z"/>
	<path class="st2" d="M109.4,47.2H145c2.5,0,4.4,2,4.4,4.4s-2,4.4-4.4,4.4h-35.6c-2.5,0-4.4-2-4.4-4.4S107,47.2,109.4,47.2z"/>
	<path class="st0" d="M29.4,47.2h62.2c2.5,0,4.4,2,4.4,4.4s-2,4.4-4.4,4.4H29.4c-2.5,0-4.4-2-4.4-4.4S27,47.2,29.4,47.2z"/>
	<path class="st3" d="M56.1,136.1h80c2.5,0,4.4,2,4.4,4.4s-2,4.4-4.4,4.4h-80c-2.5,0-4.4-2-4.4-4.4S53.6,136.1,56.1,136.1z"/>
	<path class="st2" d="M29.4,136.1h8.9c2.5,0,4.4,2,4.4,4.4s-2,4.4-4.4,4.4h-8.9c-2.5,0-4.4-2-4.4-4.4S27,136.1,29.4,136.1z"/>
	<path class="st1" d="M136.1,65h44.4c2.5,0,4.4,2,4.4,4.4c0,2.5-2,4.4-4.4,4.4h-44.4c-2.5,0-4.4-2-4.4-4.4S133.6,65,136.1,65z"/>
	<path class="st3" d="M136.1,82.8h44.4c2.5,0,4.4,2,4.4,4.4s-2,4.4-4.4,4.4h-44.4c-2.5,0-4.4-2-4.4-4.4S133.6,82.8,136.1,82.8z"/>
	<path class="st0" d="M29.4,11.7h106.7c2.5,0,4.4,2,4.4,4.4s-2,4.4-4.4,4.4H29.4c-2.5,0-4.4-2-4.4-4.4S27,11.7,29.4,11.7z"/>
</g>
</svg>
