<?xml version="1.0" encoding="utf-8"?>
<!-- Generator: Adobe Illustrator 28.0.0, SVG Export Plug-In . SVG Version: 6.00 Build 0)  -->
<svg version="1.1" id="Layer_1" xmlns="http://www.w3.org/2000/svg" xmlns:xlink="http://www.w3.org/1999/xlink" x="0px" y="0px"
	 viewBox="0 0 24 28" style="enable-background:new 0 0 24 28;" xml:space="preserve">
<style type="text/css">
	.st0{fill:#FFFFFF;}
	.st1{fill:#171C1E;}
	.st2{fill:#1EA8FF;}
	.st3{fill:#50BFFF;}
	.st4{fill:#97FF27;}
	.st5{fill:#C2FF72;}
	.st6{fill:#FF274B;}
	.st7{fill:#FF5C77;}
</style>
<polygon class="st0" points="12,1.2 23,7.7 23,20.3 12,26.8 1.1,20.4 1,7.6 "/>
<path class="st1" d="M12,0L0,7v14l12,7l12-7.1l0-13.8L12,0z M23,20.3l-11,6.5l-11-6.4V7.6l11-6.4l11,6.5L23,20.3z"/>
<polygon class="st2" points="21.6,11.7 16,15 16,22.9 21.6,19.6 "/>
<polygon class="st3" points="19.3,10.3 21.6,11.7 16,15 16,22.9 13.3,21.4 13.4,13.9 "/>
<polygon class="st4" points="18.5,8.4 18.5,9.8 12.4,13.5 12.4,21.6 11,22.4 11,12.9 "/>
<polygon class="st5" points="16,6.9 18.5,8.4 11,12.9 11,22.4 8.2,20.8 8.2,11.4 "/>
<polygon class="st6" points="15.2,4.6 15.2,6.4 7.2,11.1 7.2,21.2 5.8,22 5.8,10.3 "/>
<polygon class="st7" points="12.2,2.8 2.5,8.4 2.5,20.1 5.8,22 5.8,10.3 15.2,4.6 "/>
</svg>
