<?xml version="1.0" encoding="utf-8"?>
<!-- Generator: Adobe Illustrator 28.0.0, SVG Export Plug-In . SVG Version: 6.00 Build 0)  -->
<svg version="1.1" id="Layer_1" xmlns="http://www.w3.org/2000/svg" xmlns:xlink="http://www.w3.org/1999/xlink" x="0px" y="0px"
	 viewBox="0 0 1024 1024" style="enable-background:new 0 0 1024 1024;" xml:space="preserve">
<style type="text/css">
	.st0{fill:#14161A;}
	.st1{fill:#FFFFFF;}
</style>
<path class="st0" d="M0,0h1024v1024H0V0z"/>
<path class="st1" d="M691.3,698.7l-66.6-62.2H332.3l66.6,62.2H691.3z M398.9,480.8l-66.6,62.2h292.4l66.6-62.2H398.9z M691.3,387.1
	l-66.6-62.2H332.3l66.6,62.2H691.3z M301.6,448.7l-44-44L94.5,567.7c-5.9,5.8-9.1,13.7-9.1,22c0,8.3,3.2,16.1,9.1,22l163.1,163.1
	l44-44L160.5,589.7L301.6,448.7z M929.1,412l-163-163.1l-44,44l141,141.1L722.1,575l44,44l163-163c5.9-5.9,9.1-13.7,9.1-22
	C938.2,425.6,935,417.8,929.1,412z"/>
</svg>
