<?xml version="1.0" encoding="utf-8"?>
<!-- Generator: Adobe Illustrator 28.0.0, SVG Export Plug-In . SVG Version: 6.00 Build 0)  -->
<svg version="1.1" id="Layer_1" xmlns="http://www.w3.org/2000/svg" xmlns:xlink="http://www.w3.org/1999/xlink" x="0px" y="0px"
	 viewBox="0 0 852.8 525.9" style="enable-background:new 0 0 852.8 525.9;" xml:space="preserve">
<style type="text/css">
	.st0{fill:#999999;}
</style>
<path class="st0" d="M605.9,449.8l-66.6-62.2H246.9l66.6,62.2H605.9z M313.5,231.9l-66.6,62.2h292.4l66.6-62.2H313.5z M605.9,138.2
	L539.3,76H246.9l66.6,62.2H605.9z M216.2,199.8l-44-44L9.1,318.8c-5.9,5.8-9.1,13.7-9.1,22s3.2,16.1,9.1,22l163.1,163.1l44-44
	L75.1,340.8L216.2,199.8z M843.7,163.1L680.7,0l-44,44l141,141.1l-141,141l44,44l163-163c5.9-5.9,9.1-13.7,9.1-22
	C852.8,176.7,849.6,168.9,843.7,163.1z"/>
</svg>
