<?xml version="1.0" encoding="utf-8"?>
<!-- Generator: Adobe Illustrator 28.0.0, SVG Export Plug-In . SVG Version: 6.00 Build 0)  -->
<svg version="1.1" id="Layer_1" xmlns="http://www.w3.org/2000/svg" xmlns:xlink="http://www.w3.org/1999/xlink" x="0px" y="0px"
	 viewBox="0 0 32 32" style="enable-background:new 0 0 32 32;" xml:space="preserve">
<style type="text/css">
	.st0{fill:#2E76FF;}
</style>
<path class="st0" d="M29,13.6c0.1-3-1.1-5.9-3.3-7.9c-2.4-2.2-5.5-3.3-8.7-3.1C13.2,2.4,9.5,3.9,7,6.6c-2.6,2.7-4,6.5-3.9,10.2
	c-0.2,3.5,1.2,6.9,3.8,9.3c2.5,2.2,6,3.4,10.3,3.4c0.1,0,0.2,0,0.3,0c2.3,0,4.5-0.5,6.6-1.3l0.5-0.2L23,25.4l-0.4,0.2
	c-1.7,0.7-3.6,1.1-5.5,1c-3.5,0-6.3-0.9-8.2-2.6c-2-1.8-3.1-4.5-2.9-7.2c-0.1-3,1-5.9,3.1-8.1c2-2.2,4.8-3.4,7.8-3.3
	c2.4-0.1,4.7,0.7,6.6,2.3c1.7,1.5,2.6,3.6,2.5,5.8c0.1,1.9-0.4,3.8-1.5,5.4c-0.8,1.1-2.1,1.8-3.5,1.8c-0.1,0-0.2,0-0.2-0.4
	c0-0.7,0.1-1.4,0.3-2.2l2.2-9.7h-3.4l-0.2,0.9c-1.1-0.9-2.6-1.4-4-1.2c-1.9,0-3.6,1-5.2,2.9c-1.5,1.9-2.3,4.3-2.3,6.6
	c-0.1,1.6,0.4,3.2,1.5,4.4c1,1,2.3,1.6,3.7,1.6c0.1,0,0.1,0,0.2,0c1.5,0,2.9-0.6,3.9-1.7c0.2,0.3,0.4,0.6,0.7,0.9
	c0.6,0.5,1.4,0.8,2.2,0.8c2.4,0,4.6-0.9,6.2-2.7C28.3,18.9,29.1,16.2,29,13.6z M18.9,12.4l-1,4.4c-0.2,1.1-0.8,2.1-1.6,3
	c-0.6,0.6-1.4,1-2.3,1c-1,0-2.4-0.3-2.4-3.1c0-1.6,0.5-3.2,1.4-4.6c0.9-1.3,1.8-2,2.9-2c0.1,0,0.2,0,0.3,0
	C17.3,11,18.3,11.5,18.9,12.4z"/>
</svg>
