<?xml version="1.0" encoding="utf-8"?>
<!-- Generator: Adobe Illustrator 28.0.0, SVG Export Plug-In . SVG Version: 6.00 Build 0)  -->
<svg version="1.1" id="Layer_1" xmlns="http://www.w3.org/2000/svg" xmlns:xlink="http://www.w3.org/1999/xlink" x="0px" y="0px"
	 viewBox="0 0 24 24" style="enable-background:new 0 0 24 24;" xml:space="preserve">
<style type="text/css">
	.st0{fill:#2E76FF;}
</style>
<g>
	<g>
		<path class="st0" d="M12.1,23.2C6.6,23.3,1.8,19.4,0.8,14c-0.3-1.9-0.2-3.7,0.4-5.5c1.4-3.9,4.1-6.3,8.1-7.3c1-0.2,2-0.4,3-0.3
			c2.1,0.2,4,0.6,5.8,1.8c2.7,1.8,4.4,4.3,5,7.6c0.5,3-0.1,5.8-1.9,8.2c-0.6,0.9-1.4,1.7-2.3,2.4c-1.5,1.2-3.1,1.9-4.9,2.3
			C13.4,23.2,12.7,23.3,12.1,23.2z M9.3,9.9c0.2,0,0.3,0,0.5,0c0.6,0,0.8,0.3,0.8,0.9c-0.1,0.6-0.3,1.3-0.5,1.9
			c-0.5,1.7-1.1,3.4-1.6,5.1c-0.3,1,0.2,1.9,1.2,2.1c0.5,0.1,1.1,0.1,1.6-0.1c1.4-0.6,2.2-1.7,3-2.9c-0.1-0.2-0.3-0.2-0.5-0.2
			c-0.4,0.5-0.7,1-1.2,1.4c-0.2,0.2-0.4,0.4-0.7,0.2c-0.3-0.2-0.2-0.4-0.1-0.7c0.6-2,1.2-3.9,1.8-5.9c0.3-1,0.6-1.9,0.9-2.9
			c-1.7,0-3.4,0.4-5,0.6C9.3,9.4,9.3,9.6,9.3,9.9z M13.7,3.3c-1.1,0-1.8,0.7-1.8,1.7s0.7,1.7,1.8,1.7s1.9-0.7,2-1.7
			C15.6,4.1,14.8,3.3,13.7,3.3z"/>
	</g>
</g>
</svg>
