<?xml version="1.0" encoding="utf-8"?>
<!-- Generator: Adobe Illustrator 28.0.0, SVG Export Plug-In . SVG Version: 6.00 Build 0)  -->
<svg version="1.1" id="Layer_1" xmlns="http://www.w3.org/2000/svg" xmlns:xlink="http://www.w3.org/1999/xlink" x="0px" y="0px"
	 viewBox="0 0 416 365" style="enable-background:new 0 0 416 365;" xml:space="preserve">
<style type="text/css">
	.st0{fill:#2E76FF;}
</style>
<path class="st0" d="M416,160h-32c0-35.3-17.2-65.5-51.5-90.5S256.7,32,208,32S117.8,44.5,83.5,69.5S32,124.7,32,160
	c1.3,22.7,8.5,43.2,21.5,61.5S83.3,253.7,104,263l-4,7l-8,14l-4,7c-25.3-12-46-29.7-62-53S1.3,188.7,0,160c0-44,20.3-81.7,61-113
	S150.7,0,208,0s106.3,15.7,147,47S416,116,416,160z M300,255l65,65l-45,45L211,256h-19v96h-64V96h160c17.3,0,32.3,6.3,45,19
	s19,27.7,19,45v32c0,15.3-5,29-15,41S314.7,252.3,300,255z M288,192v-32h-96v32H288z"/>
</svg>
