<?xml version="1.0" encoding="utf-8"?>
<!-- Generator: Adobe Illustrator 28.0.0, SVG Export Plug-In . SVG Version: 6.00 Build 0)  -->
<svg version="1.1" id="Layer_1" xmlns="http://www.w3.org/2000/svg" xmlns:xlink="http://www.w3.org/1999/xlink" x="0px" y="0px"
	 viewBox="0 0 43.4 43.4" style="enable-background:new 0 0 43.4 43.4;" xml:space="preserve">
<style type="text/css">
	.st0{fill:#2E76FF;}
</style>
<g>
	<path class="st0" d="M24.7,13.1c-1-0.9-2.3-1.3-3.6-1.2l0,0h-3.5v9.9l1.2,0.1h1.1c4,0,6-1.7,6-5.1C26,15.5,25.6,14.2,24.7,13.1z"/>
	<path class="st0" d="M21.7,0C9.7,0,0,9.7,0,21.7s9.7,21.7,21.7,21.7c12,0,21.7-9.7,21.7-21.7S33.7,0,21.7,0z M31.5,33.1h-4.8
		l-4.9-9.5c-0.3,0-0.6,0.1-0.9,0.1h-2.2l-1.2-0.1v7.8l3.5,1.1v0.6h-9.1v-0.6l2.8-1.1V12.1l-2.8-1.1v-0.6h8.7c1.2,0,2.4,0.1,3.6,0.5
		c1,0.3,1.8,0.7,2.6,1.3c0.7,0.5,1.3,1.2,1.6,2c0.4,0.8,0.5,1.7,0.5,2.6c0,1.3-0.4,2.6-1.1,3.7c-0.8,1.1-1.9,2-3.2,2.5l4.5,8.8
		l2.3,0.9V33.1z"/>
</g>
</svg>
