<?xml version="1.0" encoding="utf-8"?>
<!-- Generator: Adobe Illustrator 28.0.0, SVG Export Plug-In . SVG Version: 6.00 Build 0)  -->
<svg version="1.1" id="Layer_1" xmlns="http://www.w3.org/2000/svg" xmlns:xlink="http://www.w3.org/1999/xlink" x="0px" y="0px"
	 viewBox="0 0 55.4 48" style="enable-background:new 0 0 55.4 48;" xml:space="preserve">
<style type="text/css">
	.st0{fill:#960F18;}
	.st1{fill:#EA1722;}
	.st2{fill:#F06561;}
</style>
<g>
	<g>
		<path class="st0" d="M17.7,24.1c0.1,0,0.2-0.1,0.3-0.1c0.2,0.4,0.7,0.6,1,0.9c1.3,0.8,2.5,1.8,3.8,2.7c1.2,0.9,2.5,1.8,3.7,2.7
			c2.2,1.5,4.4,3.1,6.5,4.6c0.1,0.1,0.2,0.2,0.5,0.1c0-0.5,0.1-1,0.1-1.5c0-1.3,0.2-2.6,0.3-3.9c0.1-2.2,0.3-4.5,0.5-6.7
			c0.1-0.9,0.2-1.8,0.2-2.8c0.1-1.4,0.2-2.8,0.3-4.2c0.1-0.1,0.1-0.1,0.2-0.2c0,0.2,0.2,0.2,0.3,0.3c0.3,0,0.5,0.1,0.7,0.2
			c0.9,0.3,1.9,0.5,2.9,0.8c1.6,0.4,3.3,0.8,4.9,1.2c0.9,0.2,1.8,0.5,2.7,0.6c1,0.2,2.1,0.5,3.1,0.8c0.7,0.2,1.4,0.3,2.1,0.5l0,0
			c0,0.1-0.1,0.3-0.1,0.4c-0.4,0.8-1.1,1.4-1.7,2.1c-1.3,1.5-2.7,2.9-4.1,4.2c-0.5,0.4-1.1,0.7-1.2,1.4c-0.3,2.1-0.6,4.3-0.9,6.4
			c-0.4,2.3-0.7,4.6-1,6.8c-0.3,1.9-0.7,3.8-1,5.6c0,0.2-0.1,0.5,0.1,0.7c0,0.1-0.1,0.2-0.1,0.3c0,0,0,0,0,0c0,0.1-0.1,0.1-0.1,0.2
			c-2.7-4.3-5.4-8.5-8-12.8c-4.1,2.1-8.3,3.6-12.7,4.6c0.5,0.3,1,0.5,1.6,0.7c3.5,1.4,7.1,2.8,10.6,4.2c2.4,1,4.9,1.9,7.3,2.9
			c0.1,0,0.4,0,0.3,0.2c-3.1-0.7-6.3-1.4-9.4-2.2c-6.3-1.5-12.6-2.9-18.9-4.4c-1.9-0.4-3.8-0.8-5.7-1.4c-2.3-0.6-4.2-1.9-5.5-3.9
			C0.4,35,0,33.9,0,32.6c0-1.7,0.3-3.5,0.9-5.1c0.2,0,0.3-0.2,0.4-0.3c0.8-0.8,1.6-1.6,2.5-2.4c0.5-0.5,1-1.2,1.6-1.5c0,0,0,0,0,0
			c0.1,1.1,0.1,2.1,0.2,3.2c0.2,2,0.4,4.1,0.6,6.1c0.2,1.8,0.3,3.6,0.5,5.4c0.1,0.6,0,1.2,0.2,1.8c0.2,0,0.3-0.2,0.3-0.3
			c1.5-2.1,2.9-4.3,4.4-6.4c1.5-2.2,3-4.4,4.5-6.6C16.7,25.6,17.3,24.9,17.7,24.1z"/>
		<path class="st1" d="M13,22.9c-1.6,0-3.1-0.1-4.5-0.7c-2.3-0.9-3.2-2.9-2.6-5.3c0.3-1.3,1-2.5,1.8-3.6c2.1-3,4.9-5.2,7.9-7.2
			c3.7-2.4,7.6-4.2,11.9-5.3c2.4-0.6,4.9-1,7.4-0.7c1,0.1,2,0.3,2.9,0.7c2.1,1,3,2.8,2.5,5c-0.4,1.9-1.5,3.5-2.7,5
			c-2.8,3.3-6.2,5.7-9.9,7.7c-3.1,1.7-6.3,3-9.8,3.7C16.2,22.6,14.5,22.9,13,22.9z"/>
		<path class="st1" d="M34.9,15.8c-0.1,1.4-0.2,2.8-0.3,4.2c-0.1,0.9-0.1,1.8-0.2,2.8c-0.2,2.2-0.3,4.5-0.5,6.7
			c-0.1,1.3-0.2,2.6-0.3,3.9c0,0.5-0.1,1-0.1,1.5c-0.3,0.1-0.4,0-0.5-0.1c-2.2-1.5-4.3-3.1-6.5-4.6c-1.2-0.9-2.5-1.8-3.7-2.7
			c-1.3-0.9-2.5-1.8-3.8-2.7c-0.4-0.2-0.8-0.5-1-0.9c0.7-0.5,1.5-0.8,2.3-1.1c4.8-2.3,9.6-4.6,14.5-6.9
			C34.8,15.9,34.8,15.8,34.9,15.8z"/>
		<path class="st0" d="M53.6,17.5c0,0.1-0.1,0.1-0.1,0.2c0,0,0,0,0,0c0,0,0,0.1-0.1,0.1c0,0,0,0.1-0.1,0.1c0,0.1-0.1,0.1-0.1,0.2
			c0,0,0,0,0,0s0,0,0,0c-0.4,0.2-0.6,0.7-0.9,1c-0.2,0.2-0.3,0.5-0.6,0.6c0,0,0,0,0,0c0-0.2-0.2-0.4-0.3-0.5
			c-0.8-1.1-1.5-2.2-2.3-3.3c-1.1-1.6-2.1-3.2-3.2-4.8c-0.6-0.9-1.3-1.8-1.8-2.7c-0.7-1.1-1.4-2.1-2.2-3.2c0.1-0.3,0.3-0.2,0.5-0.3
			c2.2-0.5,4.4-0.9,6.5-1.4c0.2,0,0.5,0,0.6-0.3c0.1,0,0.1,0,0.2,0c0.1,0.1,0.1,0.1,0.2,0.1c1.3,0.6,2.5,1.3,3.5,2.3
			c1.6,1.6,1.9,3.7,1.7,5.9C55.3,13.7,54.5,15.6,53.6,17.5C53.6,17.4,53.6,17.4,53.6,17.5z"/>
		<path class="st1" d="M42.1,5.3c0.7,1.1,1.5,2.1,2.2,3.2c0.6,0.9,1.2,1.8,1.8,2.7c1.1,1.6,2.1,3.2,3.2,4.8c0.8,1.1,1.5,2.2,2.3,3.3
			c0.1,0.2,0.3,0.3,0.3,0.5c-0.7-0.2-1.4-0.3-2.1-0.5c-1-0.2-2.1-0.5-3.1-0.8c-0.9-0.2-1.8-0.4-2.7-0.6c-1.6-0.4-3.3-0.8-4.9-1.2
			c-1-0.2-1.9-0.4-2.9-0.8c-0.2-0.1-0.5-0.1-0.7-0.2c-0.2,0-0.3-0.1-0.3-0.3c0.5-1,1.2-1.9,1.8-2.8c1.6-2.4,3.2-4.8,4.9-7.2
			C41.8,5.5,41.9,5.4,42.1,5.3C42,5.3,42.1,5.3,42.1,5.3L42.1,5.3z"/>
		<path class="st2" d="M17.7,24.1c-0.4,0.9-1,1.6-1.5,2.4c-1.5,2.2-3,4.4-4.5,6.6c-1.5,2.1-2.9,4.3-4.4,6.4
			c-0.1,0.1-0.1,0.3-0.3,0.3c-0.3-0.6-0.2-1.2-0.2-1.8c-0.2-1.8-0.3-3.6-0.5-5.4c-0.2-2-0.4-4.1-0.6-6.1c-0.1-1.1-0.2-2.1-0.2-3.2
			c1.9,0.1,3.8,0.2,5.6,0.3c1.8,0.1,3.6,0.2,5.4,0.4C16.8,23.9,17.3,24,17.7,24.1z"/>
		<path class="st2" d="M40.7,47.9c0.1-0.3-0.2-0.2-0.3-0.2c-2.4-1-4.9-1.9-7.3-2.9c-3.5-1.4-7.1-2.8-10.6-4.2
			c-0.5-0.2-1-0.4-1.6-0.7c4.4-1.1,8.6-2.5,12.7-4.6c2.7,4.3,5.4,8.5,8,12.8C41.3,48.1,41,48,40.7,47.9z"/>
		<path class="st1" d="M51.8,19.9c0.3-0.1,0.4-0.4,0.6-0.6c0.3-0.4,0.4-0.8,0.9-1c-0.3,1.1-0.8,2.2-1.2,3.3c-2,5.1-4,10.2-6,15.4
			c-1.3,3.4-2.6,6.8-4,10.1c-0.1,0.2-0.1,0.4-0.3,0.6c-0.1-0.2-0.1-0.5-0.1-0.7c0.3-1.9,0.7-3.8,1-5.6c0.3-2.3,0.7-4.6,1-6.8
			c0.4-2.1,0.6-4.3,0.9-6.4c0.1-0.7,0.7-1,1.2-1.4c1.5-1.3,2.9-2.7,4.1-4.2c0.6-0.7,1.3-1.3,1.7-2.1C51.8,20.2,51.8,20,51.8,19.9z"
			/>
		<path class="st2" d="M42.1,5.3L42.1,5.3C42.1,5.3,42,5.3,42.1,5.3c-0.2-0.6-0.7-1.1-1-1.6c-0.7-1.1-1.5-2.2-2.2-3.3
			c-0.1-0.1-0.1-0.2-0.1-0.3c0.5-0.1,0.9,0,1.3,0.2c2.2,0.8,4.5,1.3,6.8,2.1c0.8,0.2,1.6,0.5,2.3,0.8c0.2,0.1,0.4,0.1,0.5,0.3
			c-0.1,0.3-0.4,0.2-0.6,0.3c-2.2,0.5-4.4,0.9-6.5,1.4C42.4,5.1,42.2,5.1,42.1,5.3z"/>
		<path class="st2" d="M5.4,23.2c-0.7,0.4-1.1,1-1.6,1.5c-0.8,0.8-1.6,1.6-2.5,2.4c-0.1,0.1-0.2,0.3-0.4,0.3c0.2-1.2,0.6-2.2,1-3.3
			c0.7-1.9,1.4-3.9,2.2-5.8c0.2-0.5,0.5-1,0.9-1.5c0,0.7,0.1,1.3,0.1,1.9c0.1,1.3,0.1,2.6,0.2,3.9C5.3,22.9,5.4,23,5.4,23.2z"/>
		<path class="st2" d="M50.2,3.5c-0.1,0-0.1,0-0.2-0.1C50.1,3.4,50.1,3.4,50.2,3.5z"/>
		<path class="st1" d="M53.6,17.5C53.6,17.4,53.6,17.4,53.6,17.5C53.7,17.4,53.7,17.4,53.6,17.5z"/>
		<path class="st1" d="M53.4,18c0,0,0-0.1,0.1-0.1C53.5,17.9,53.5,18,53.4,18z"/>
		<polygon class="st1" points="53.5,17.7 53.5,17.7 53.5,17.7 		"/>
		<polygon class="st1" points="53.3,18.2 53.3,18.2 53.3,18.2 		"/>
		<path class="st1" d="M41.7,47.8C41.7,47.8,41.7,47.8,41.7,47.8C41.7,47.8,41.7,47.8,41.7,47.8z"/>
	</g>
</g>
</svg>
