<?xml version="1.0" encoding="utf-8"?>
<!-- Generator: Adobe Illustrator 28.0.0, SVG Export Plug-In . SVG Version: 6.00 Build 0)  -->
<svg version="1.1" id="Layer_1" xmlns="http://www.w3.org/2000/svg" xmlns:xlink="http://www.w3.org/1999/xlink" x="0px" y="0px"
	 viewBox="0 0 296.3 296.3" style="enable-background:new 0 0 296.3 296.3;" xml:space="preserve">
<style type="text/css">
	.st0{fill:#DB5555;}
</style>
<path class="st0" d="M277.4,148.1l18.9,29.6l-29,20.2l6.1,33.7l-33.7,8.1l-8.1,33.7l-34.3-6.1l-19.5,29l-29.6-18.9l-29.6,18.9
	l-20.2-29l-33.7,6.1l-8.1-33.7l-33.7-8.1l6.1-34.3L0,177.8l18.9-29.6L0,118.5l29-20.2l-6.1-33.7l33.7-8.1l8.1-33.7L98.3,29l20.2-29
	l29.6,18.9L177.8,0L198,29l33.7-6.1l8.1,33.7l33.7,7.4l-6.1,34.3l29,20.2L277.4,148.1z M148.1,255.9c29.6,0,55-10.5,76.1-31.6
	s31.6-46.5,31.6-76.1s-10.5-55-31.6-76.1s-46.5-31.6-76.1-31.6S93.2,51,72.1,72.1s-31.6,46.5-31.6,76.1s10.5,55,31.6,76.1
	S118.5,255.9,148.1,255.9z M190.6,163.6l24.9,49.2H167l-21.5-43.1h-18.9v43.1H83.5V83.5H98h27.9h31.6h12.1
	c12.1,0,22.3,4.2,30.6,12.5c8.3,8.3,12.5,18.5,12.5,30.6C212.8,143.2,205.4,155.6,190.6,163.6z M148.1,148.1
	c5.8,0,10.9-2.1,15.2-6.4c4.3-4.3,6.4-9.3,6.4-15.2c0-5.8-2.1-10.9-6.4-15.2c-4.3-4.3-9.3-6.4-15.2-6.4h-21.5v43.1H148.1z"/>
</svg>
