<?xml version="1.0" encoding="utf-8"?>
<!-- Generator: Adobe Illustrator 28.0.0, SVG Export Plug-In . SVG Version: 6.00 Build 0)  -->
<svg version="1.1" id="Layer_1" xmlns="http://www.w3.org/2000/svg" xmlns:xlink="http://www.w3.org/1999/xlink" x="0px" y="0px"
	 viewBox="0 0 232.2 340.2" style="enable-background:new 0 0 232.2 340.2;" xml:space="preserve">
<style type="text/css">
	.st0{fill:#B151BB;}
</style>
<path class="st0" d="M223.6,268.5h8.5c0,25-4,43.2-12.1,54.6c-8.1,11.4-18.3,17.1-30.6,17.1c-10,0-19.5-3.7-28.7-11.2
	c-9.2-7.4-17.4-27.6-24.7-60.5l-20.4-92.1L44.9,336.8H0L101.6,118c-5.4-28.3-11.9-49.3-19.5-62.9c-7.6-13.6-17-20.4-28.2-20.4
	c-9,0-16.9,3.4-23.5,10.2c-6.6,6.8-10.4,17.5-11.4,32h-8.5c0.5-23.3,5.1-41.9,14-55.8C33.3,7.2,44.4,0.2,57.7,0
	c8.5,0,16.6,3.5,24.2,10.4c7.6,7,14.2,19,19.9,36.1c5.7,17.1,14.5,52.4,26.4,105.9l16.9,75.2c6.8,31.2,13.9,52,21.4,62.4
	s16.5,15.7,27.1,15.9C211.2,306,221.2,293.5,223.6,268.5L223.6,268.5z"/>
</svg>
