<?xml version="1.0" encoding="utf-8"?>
<!-- Generator: Adobe Illustrator 28.0.0, SVG Export Plug-In . SVG Version: 6.00 Build 0)  -->
<svg version="1.1" id="Layer_1" xmlns="http://www.w3.org/2000/svg" xmlns:xlink="http://www.w3.org/1999/xlink" x="0px" y="0px"
	 viewBox="0 0 124 127.5" style="enable-background:new 0 0 124 127.5;" xml:space="preserve">
<style type="text/css">
	.st0{fill:#83C5A9;}
</style>
<g id="Icon">
</g>
<path class="st0" d="M123.3,43.4L110.6,21c-0.6-1.9-2.6-2.6-3.8-1.9l-15.3,7c-3.2-2.6-7.7-5.1-11.5-6.4L78,3.2C78,1.3,76.8,0,74.9,0
	H49.4c-1.9,0-3.2,1.3-3.2,3.2l-1.9,15.9C39.8,21,36,23,32.8,25.5l-15.3-6.4c-1.3-0.6-3.2,0-3.8,1.3L0.9,42.7
	c-1.3,1.9-1.3,3.8,0.6,4.5l13.4,10.2c0,1.9-0.6,4.5-0.6,6.4s0,4.5,0.6,6.4L1.5,79.7c-1.3,0.6-1.9,2.6-0.6,4.5l12.8,22.3
	c0.6,1.9,2.6,2.6,3.8,1.9l15.3-7c3.2,2.6,7.7,5.1,11.5,6.4l1.9,16.6c0,1.9,1.3,3.2,3.2,3.2h25.5c1.9,0,3.2-1.3,3.2-3.2l1.9-16.6
	c4.5-1.9,8.3-3.8,11.5-6.4l15.3,7c1.3,0.6,3.2,0,3.8-1.3l12.8-22.3c0.6-1.3,0.6-3.2-0.6-4.5l-13.4-10.2c0-1.9,0.6-4.5,0.6-6.4
	s0-4.5-0.6-6.4l13.4-9.6C124,47.2,124.6,45.3,123.3,43.4z M62.1,81.1c-9.6,0-17.3-7.7-17.3-17.3s7.7-17.3,17.3-17.3
	s17.3,7.7,17.3,17.3S71.7,81.1,62.1,81.1z"/>
</svg>
