<?xml version="1.0" encoding="utf-8"?>
<!-- Generator: Adobe Illustrator 28.0.0, SVG Export Plug-In . SVG Version: 6.00 Build 0)  -->
<svg version="1.1" id="Layer_1" xmlns="http://www.w3.org/2000/svg" xmlns:xlink="http://www.w3.org/1999/xlink" x="0px" y="0px"
	 viewBox="0 0 22.7 28" style="enable-background:new 0 0 22.7 28;" xml:space="preserve">
<style type="text/css">
	.st0{fill:none;}
	.st1{fill:#FF4785;}
</style>
<g>
	<path class="st0" d="M16.9,3.6c-0.1,0-0.1-0.1-0.1-0.1c0,0,0,0.1,0,0.1C16.8,3.6,16.9,3.6,16.9,3.6C16.9,3.6,16.9,3.6,16.9,3.6
		C16.9,3.6,16.9,3.6,16.9,3.6z"/>
	<polygon class="st0" points="16.7,3.5 16.9,0.3 16.7,3.4 	"/>
	<path class="st0" d="M19.4,3.5l-1-0.8l-0.1,0.1l0.9,0.8C19.3,3.5,19.4,3.5,19.4,3.5C19.5,3.5,19.4,3.5,19.4,3.5
		C19.4,3.5,19.4,3.5,19.4,3.5z"/>
	<path class="st1" d="M21.2,0l-1.6,0.1l0.1,3.2c0,0,0,0.1,0,0.1c-0.1,0.1-0.1,0.1-0.2,0c-0.1,0-0.2,0-0.2,0l-0.9-0.8l-1.2,0.9
		c-0.1,0.1-0.1,0.1-0.2,0c-0.1,0-0.2,0-0.2,0c0,0,0-0.1,0-0.1c0,0,0,0,0,0l0.1-3.2v0l-15.5,1C0.6,1.3,0,1.9,0,2.7l0.9,23.1
		c0,0.7,0.6,1.3,1.3,1.4l19,0.8h0.1c0.8,0,1.4-0.6,1.4-1.4V1.3C22.6,0.5,21.9-0.1,21.2,0z M11.9,22.7c-3.4,0-6.3-1.4-6-6.1
		c0.1-0.5,4.4-0.4,4.4,0c0,1.9,0.4,2.5,1.5,2.5c0.1,0,0.2,0,0.3,0c0.6-0.1,1.1-0.7,1-1.3C13.1,15,6,14.9,6,9.7c0-3,2-5,5.8-5
		c3.7,0,5.7,2,5.7,5.7c-0.5,0.4-4.2,0.6-4.2,0.1c0.1-2.1-0.9-2.2-1.4-2.2h-0.3C11,8.4,10.5,9,10.5,9.6c0,2.8,7.2,2.6,7.2,8.2
		C17.7,21,15.2,22.7,11.9,22.7z"/>
	<path class="st1" d="M17,3.6C17,3.6,17,3.6,17,3.6C17,3.6,17,3.6,17,3.6c0,0.1,0.1,0.1,0.1,0l1.2-0.9l-0.1-0.1L17,3.6z"/>
	<path class="st1" d="M19.6,3.5C19.6,3.5,19.6,3.5,19.6,3.5C19.6,3.5,19.5,3.5,19.6,3.5c0,0.1,0.1,0.1,0.1,0c0,0,0-0.1,0-0.1
		l-0.1-3.2l0,3.2C19.6,3.4,19.6,3.4,19.6,3.5z"/>
</g>
</svg>
