<?xml version="1.0" encoding="utf-8"?>
<!-- Generator: Adobe Illustrator 28.0.0, SVG Export Plug-In . SVG Version: 6.00 Build 0)  -->
<svg version="1.1" id="Layer_1" xmlns="http://www.w3.org/2000/svg" xmlns:xlink="http://www.w3.org/1999/xlink" x="0px" y="0px"
	 viewBox="0 0 267.4 364.7" style="enable-background:new 0 0 267.4 364.7;" xml:space="preserve">
<style type="text/css">
	.st0{fill:#A4C639;}
</style>
<path class="st0" d="M218.3,85.2l-7.4-5.1c36.9-42-7.4-72.6-28.2-41.1c-19.6,29.5,7.1,66.1,23.1,113.6
	c25.4,75.1,21.5,115.6-11.2,154.7c-82.5,98.3-237,60.7-183.7-41c18.3-35,50.1-60,104.3-53.9c5.1,6.4-0.3,9-4.2,10.9
	c-44,21.8-69.3,109.5-31.1,107.6c18.3-0.6,45.6-18.9,59.7-50.1c16.4-36.3-3.9-81.9-18.3-124.9C87.7,54.4,164.1-33.2,251.4,12.3
	C284.4,29.7,262.6,90.3,218.3,85.2z"/>
</svg>
