<?xml version="1.0" encoding="utf-8"?>
<!-- Generator: Adobe Illustrator 28.0.0, SVG Export Plug-In . SVG Version: 6.00 Build 0)  -->
<svg version="1.1" id="Layer_1" xmlns="http://www.w3.org/2000/svg" xmlns:xlink="http://www.w3.org/1999/xlink" x="0px" y="0px"
	 viewBox="0 0 525.1 501.1" style="enable-background:new 0 0 525.1 501.1;" xml:space="preserve">
<style type="text/css">
	.st0{fill:#666699;}
</style>
<path class="st0" d="M266.1,499.8c57.4-205.4,55.8-206.3,97.3-352.7l10,5.8c5.4,3.1,9.9,0.6,9.9-5.7V77.3
	c11-38.6,19.6-68.4,22.2-77.3h45l74.7,69.2l-49.1,42.4l37.1,40.1L268.6,499.8C267.4,501.8,265.8,501.3,266.1,499.8L266.1,499.8
	L266.1,499.8z"/>
<path class="st0" d="M292.9,57.2c2.2,0,4,1.2,4,2.8v35.8c0,1.5-1.8,2.7-4,2.7h-60.4c-2.2,0-4-1.2-4-2.7V59.9c0-1.5,1.8-2.8,4-2.8
	L292.9,57.2L292.9,57.2z M367.4,17.5L301,55.9c0.8,1.2,1.2,2.5,1.2,4v35.8c0,1.8-0.7,3.5-1.9,4.9l67.1,38.8c4.6,2.7,8.3,0.5,8.3-4.8
	V22.3C375.7,17.1,372,14.9,367.4,17.5L367.4,17.5L367.4,17.5z M223.1,95.7V59.9c0-1.5,0.5-2.8,1.2-4l-66.5-38.4
	c-4.6-2.6-8.3-0.5-8.3,4.8v112.2c0,5.3,3.8,7.4,8.3,4.8l67.1-38.8C223.8,99.2,223.1,97.5,223.1,95.7L223.1,95.7L223.1,95.7z"/>
<path class="st0" d="M256.5,499.8h2.5c-57.4-205.4-55.8-206.3-97.3-352.7l-10,5.8c-5.4,3.1-9.9,0.6-9.9-5.7V77.3
	c-11-38.6-19.6-68.4-22.2-77.3h-45L0,69.2l49.1,42.4l-37.1,40.1L256.5,499.8L256.5,499.8z"/>
<path class="st0" d="M278.9,155c0,10-8.1,18.1-18.1,18.1s-18.1-8.1-18.1-18.1c0-10,8.1-18.1,18.1-18.1S278.9,145,278.9,155z"/>
<path class="st0" d="M278.9,262.9c0,10-8.1,18.1-18.1,18.1s-18.1-8.1-18.1-18.1s8.1-18.1,18.1-18.1S278.9,252.8,278.9,262.9z"/>
<path class="st0" d="M278.9,370.7c0,10-8.1,18.1-18.1,18.1s-18.1-8.1-18.1-18.1c0-10,8.1-18.1,18.1-18.1S278.9,360.7,278.9,370.7z"
	/>
</svg>
