<?xml version="1.0" encoding="utf-8"?>
<!-- Generator: Adobe Illustrator 28.0.0, SVG Export Plug-In . SVG Version: 6.00 Build 0)  -->
<svg version="1.1" id="Layer_1" xmlns="http://www.w3.org/2000/svg" xmlns:xlink="http://www.w3.org/1999/xlink" x="0px" y="0px"
	 viewBox="0 0 446.8 446.7" style="enable-background:new 0 0 446.8 446.7;" xml:space="preserve">
<style type="text/css">
	.st0{fill:#F97E2F;}
</style>
<path class="st0" d="M357.2,209.9L247,175.4l110.6-34.6c16.8-3,13.4-15.2,13.4-15.2l-0.7-83.2c4.7-18.7-14.7-8.6-14.7-8.6
	L83.5,120.1c0,0-10.7,2.6-7.6,20.8l-0.6,80.2c0,0-0.9,10.1,18.3,14.2l108.6,35l-114.6,35c0,0-13.9,0.5-12.2,26.4
	c1.6,26-0.1,78.2-0.1,78.2s1.2,9.7,14.4,4.1l272.1-86.8c0,0,8.5-2.2,2.8-4.6c2.5,0.5,7.6,0.6,6.8-7.9l0.1-89.4
	C371.4,225.2,374,216,357.2,209.9z"/>
</svg>
