<?xml version="1.0" encoding="utf-8"?>
<!-- Generator: Adobe Illustrator 28.0.0, SVG Export Plug-In . SVG Version: 6.00 Build 0)  -->
<svg version="1.1" id="Layer_1" xmlns="http://www.w3.org/2000/svg" xmlns:xlink="http://www.w3.org/1999/xlink" x="0px" y="0px"
	 viewBox="0 0 160 169.7" style="enable-background:new 0 0 160 169.7;" xml:space="preserve">
<style type="text/css">
	.st0{fill:#DB5555;}
</style>
<path class="st0" d="M156.5,30.3c2.3,5.9,3.5,12,3.5,18.5c0,12.9-4.2,24-12.7,33.4c2.1,5.6,3.1,11.1,3.1,16.7
	c0,10.3-2.8,19.5-8.4,27.7c-5.6,8.2-12.9,14.2-22,18c-2.3,0.9-5.3,2.1-8.8,3.5c-3.5,1.5-9.1,3.7-16.7,6.8
	c-7.6,3.1-13.9,5.7-18.9,7.9l-7.5,3.3c-6.2,2.3-12.5,3.5-18.9,3.5c-13.8,0-25.4-4.8-34.9-14.3S0,134.4,0,120.9
	c0-12.9,4.2-24,12.7-33.4c-2.1-5.6-3.1-11.1-3.1-16.7c0-10.3,2.8-19.5,8.4-27.7s12.9-14.2,22-18c2.3-0.9,5.3-2.1,8.8-3.5
	s9.1-3.7,16.7-6.8S79.4,9,84.4,6.8l7.5-3.3C98,1.2,104.3,0,110.8,0c10.3,0,19.5,2.8,27.7,8.4S152.7,21.2,156.5,30.3z M139.8,69
	c4.1-6.2,6.2-12.9,6.2-20.2c0-9.7-3.4-17.9-10.1-24.6s-14.9-10.1-24.6-10.1c-4.7,0-9.2,0.9-13.6,2.6C63,31.1,45.6,38.2,45.3,38.2
	c-6.4,2.6-11.6,6.9-15.6,12.7s-5.9,12.5-5.9,19.8c0,9.7,3.4,17.9,10.3,24.8c6.9,6.9,15.2,10.3,24.8,10.3c4.7,0,9.2-0.9,13.6-2.6
	l6.2-2.6l26.4-11l5.3,13.2l-25.9,10.5c-0.3,0.3-0.7,0.5-1.1,0.7c-0.4,0.1-1.2,0.4-2.2,0.9c-1,0.4-1.8,0.8-2.4,1.1l-0.9,0.4
	c-6.2,2.3-12.3,3.5-18.5,3.5c-16.1,0-29.2-6.4-39.1-19.3c-4.1,6.2-6.2,12.9-6.2,20.2c0,9.7,3.4,17.9,10.3,24.6s15,10.1,24.4,10.1
	c5,0,9.5-0.9,13.6-2.6l52.3-21.5c6.4-2.6,11.6-6.9,15.6-12.7c4-5.9,5.9-12.5,5.9-19.8c0-9.7-3.4-17.9-10.3-24.8
	s-15.2-10.3-24.8-10.3c-4.7,0-9.2,0.9-13.6,2.6L81.3,69L54.9,80l-5.3-13.2l25.9-10.5c0.3-0.3,0.7-0.5,1.1-0.7
	c0.4-0.1,1.2-0.4,2.2-0.9c1-0.4,1.8-0.8,2.4-1.1l0.9-0.4c6.2-2.3,12.3-3.5,18.5-3.5C116.8,49.7,129.8,56.1,139.8,69z"/>
</svg>
