<?xml version="1.0" encoding="utf-8"?>
<!-- Generator: Adobe Illustrator 28.0.0, SVG Export Plug-In . SVG Version: 6.00 Build 0)  -->
<svg version="1.1" id="Layer_1" xmlns="http://www.w3.org/2000/svg" xmlns:xlink="http://www.w3.org/1999/xlink" x="0px" y="0px"
	 viewBox="0 0 22.3 28" style="enable-background:new 0 0 22.3 28;" xml:space="preserve">
<style type="text/css">
	.st0{fill:#FBC02D;}
</style>
<g>
	<path class="st0" d="M21.9,22.2L15.1,8.8V2h1V0h-10v2h1v6.8L0.4,22.2c-1,2-0.2,4.4,1.8,5.4C2.8,27.9,3.4,28,4,28h14.3
		c2.2,0,4-1.8,4-4C22.3,23.4,22.2,22.8,21.9,22.2L21.9,22.2z M20,25c-0.4,0.6-1,1-1.7,1H4c-1.1,0-2-0.9-2-2c0-0.3,0.1-0.6,0.2-0.9
		L3.8,20l1-2l0.4-0.9l0.2-0.5L9,9.5C9.1,9.3,9.1,9.2,9.1,9V2h4v7c0,0.2,0,0.3,0.1,0.4l3.6,7.2l0.7,1.4l1,2l1.5,3.1
		C20.4,23.7,20.3,24.4,20,25z"/>
	<path class="st0" d="M15.3,16.3c-0.2,1.2-1.4,2-2.6,1.7s-2-1.4-1.7-2.6c0.1-0.4,0.2-0.7,0.5-1H7.9L3.6,23c0,0-0.9,1.9,1,1.9h13.1
		c1.9,0,1-1.9,1-1.9L15.3,16.3z"/>
	<circle class="st0" cx="13.2" cy="15.8" r="1.5"/>
</g>
</svg>
