<?xml version="1.0" encoding="utf-8"?>
<!-- Generator: Adobe Illustrator 28.0.0, SVG Export Plug-In . SVG Version: 6.00 Build 0)  -->
<svg version="1.1" id="Layer_1" xmlns="http://www.w3.org/2000/svg" xmlns:xlink="http://www.w3.org/1999/xlink" x="0px" y="0px"
	 viewBox="0 0 197.6 197.6" style="enable-background:new 0 0 197.6 197.6;" xml:space="preserve">
<style type="text/css">
	.st0{fill:#FAEC22;}
	.st1{fill:#666699;}
</style>
<g>
	<path class="st0" d="M116,112h-7.9v3.2V165c0,4.4-0.6,7.6-1.6,10.1c-0.3,0.6-0.5,1.2-0.9,1.7l0,0c-0.2,0.3-0.3,0.5-0.5,0.7l0,0
		c-0.3,0.4-0.7,0.8-1,1.2l-0.1,0.1c-0.2,0.2-0.4,0.3-0.6,0.5c-0.1,0-0.1,0.1-0.2,0.1c-0.3,0.2-0.7,0.5-1,0.7
		c-0.1,0.1-0.2,0.1-0.3,0.2c-0.2,0.1-0.4,0.2-0.5,0.3c-0.2,0.1-0.3,0.1-0.5,0.2c-0.2,0.1-0.5,0.2-0.7,0.2c-0.2,0.1-0.4,0.1-0.7,0.2
		c-0.1,0-0.3,0.1-0.5,0.1c-0.3,0.1-0.6,0.1-0.9,0.2c-0.1,0-0.2,0-0.3,0c-0.4,0-0.7,0.1-1.1,0.1c-0.1,0-0.2,0-0.3,0
		c-0.4,0-0.8,0-1.3,0c-3.7,0-7.1-0.7-9.7-1.5l-0.4,2.6l-1.8,12.7c1.7,0.6,3.7,1,5.9,1.4l0,0l0,0c0.7,0.1,1.4,0.2,2.1,0.3l0,0
		c0.6,0.1,1.3,0.1,1.9,0.2c0.1,0,0.1,0,0.2,0c0.6,0,1.1,0.1,1.7,0.1c0.1,0,0.2,0,0.3,0c0.6,0,1.3,0,1.9,0c0.8,0,1.5,0,2.3,0
		c0.2,0,0.5,0,0.7,0c0.5,0,1-0.1,1.5-0.1c0.3,0,0.5-0.1,0.8-0.1c0.4,0,0.9-0.1,1.3-0.2c0.3,0,0.5-0.1,0.8-0.1s0.5-0.1,0.8-0.1h-0.1
		c8.8-1.5,15.3-5.8,18.9-14.1l0,0c0.2-0.6,0.5-1.1,0.7-1.7v-0.1c0.2-0.6,0.4-1.2,0.6-1.8l0,0c1.1-3.9,1.7-8.5,1.7-13.9v-12.5v-18.4
		V112H116z"/>
	<path class="st1" d="M79.9,182.9H28.3c-7.7,0-14.1-6.3-14.1-14.1c0-2.1,0.7-4.2,1.4-6.3l11.3-21.8l7-14.1l2.8-6.3l1.4-3.5
		l25.3-49.9c0.7-1.4,0.7-2.1,0.7-3.5V14.1h28.1v49.2c0,1.4,0,2.1,0.7,2.8l20.4,40.8H127h2.1l-22.9-45.1V14.1h7V0H43.1v14.1h7v47.8
		L3,156.1c-7,14.1-1.4,30.9,12.7,38c4.2,2.1,8.4,2.8,12.7,2.8H78l0.3-2.1L79.9,182.9z"/>
	<path class="st1" d="M103.1,123.2c-3.5,3.2-8.5,4.7-13.6,3.4c-8.4-2.1-14.1-9.8-12-18.3c0.7-2.8,1.4-4.9,3.5-7H55.8l-30.2,60.5
		c0,0-6.3,13.4,7,13.4H81l0.2-1.4l4.5,1.4h14.9c1.5-1.5,2.4-4.4,2.4-10.1L103.1,123.2L103.1,123.2z"/>
	<path class="st1" d="M103.1,107.9c-1.4-4.2-5.3-7.3-10-7.3c-5.8,0-10.5,4.7-10.5,10.5s4.7,10.5,10.5,10.5c4.7,0,8.7-3.1,10-7.3V112
		V107.9z"/>
</g>
<path class="st0" d="M175.7,146.2c-10.9-4.1-15.6-6.5-15.6-11.8c0-4.3,4-8.1,12.3-8.1c8.2,0,14.2,2.4,17.6,4l4.2-15.3
	c-5-2.3-11.9-4.2-21.5-4.2c-1,0-2,0-2.9,0.1c-0.1,0-0.3,0-0.4,0c-0.9,0.1-1.8,0.1-2.6,0.2c-0.2,0-0.3,0-0.5,0.1
	c-0.9,0.1-1.7,0.2-2.5,0.4c-0.1,0-0.2,0.1-0.4,0.1c-0.9,0.2-1.7,0.4-2.5,0.6l0,0c-0.8,0.2-1.6,0.5-2.4,0.7c-0.1,0-0.2,0.1-0.3,0.1
	c-0.7,0.3-1.4,0.5-2.1,0.8c-0.1,0.1-0.2,0.1-0.4,0.2c-0.7,0.3-1.3,0.6-2,1c-0.1,0.1-0.2,0.1-0.3,0.2c-0.7,0.4-1.3,0.8-1.9,1.2l0,0
	c-0.6,0.4-1.2,0.8-1.8,1.3c-0.1,0.1-0.2,0.1-0.2,0.2c-0.5,0.4-1,0.9-1.5,1.3c-0.1,0.1-0.2,0.2-0.3,0.2c-0.5,0.5-0.9,1-1.4,1.5
	c-0.1,0.1-0.1,0.1-0.2,0.2c-0.9,1.1-1.7,2.2-2.4,3.4c0,0.1-0.1,0.1-0.1,0.2c-0.3,0.6-0.6,1.2-0.9,1.7c0,0.1-0.1,0.2-0.1,0.3
	c-0.3,0.6-0.5,1.2-0.7,1.8c0,0.1-0.1,0.2-0.1,0.3c-0.2,0.7-0.4,1.3-0.5,2l0,0l0,0c-0.4,1.7-0.6,3.4-0.6,5.2c0,11.5,8,18.9,20.4,23.9
	c0.1,0,0.1,0.1,0.2,0.1c0.8,0.3,1.7,0.7,2.6,1c10.1,3.6,14.1,6.6,14.1,11.8c0,5.5-4.6,9.2-13.4,9.2c-0.8,0-1.6,0-2.4-0.1
	c-0.1,0-0.2,0-0.4,0c-0.8-0.1-1.5-0.1-2.3-0.2c-0.1,0-0.3,0-0.4-0.1c-0.8-0.1-1.5-0.2-2.2-0.4c-0.1,0-0.2,0-0.3-0.1
	c-0.8-0.1-1.5-0.3-2.3-0.5c-4.2-1-8-2.5-10.8-4l-3.9,15.7c0.7,0.4,1.6,0.8,2.5,1.2l0,0l0,0c1.6,0.7,3.4,1.3,5.4,1.9
	c0.1,0,0.1,0,0.2,0.1c0.3,0.1,0.7,0.2,1,0.3c0.1,0,0.3,0.1,0.4,0.1c0.3,0.1,0.6,0.1,0.9,0.2c0.2,0,0.4,0.1,0.5,0.1
	c0.3,0.1,0.6,0.1,0.9,0.2c0.2,0,0.4,0.1,0.7,0.1c0.3,0.1,0.5,0.1,0.8,0.2c0.5,0.1,1,0.2,1.5,0.2c0.2,0,0.4,0.1,0.6,0.1
	c0.3,0,0.7,0.1,1,0.1c0.2,0,0.4,0.1,0.7,0.1s0.7,0.1,1,0.1c0.2,0,0.4,0,0.7,0.1c0.3,0,0.7,0.1,1,0.1c0.2,0,0.4,0,0.6,0
	c0.4,0,0.7,0,1.1,0.1c0.2,0,0.4,0,0.5,0c0.6,0,1.1,0,1.7,0c23.2,0,34-12.1,34-26.1C197.6,159.5,190.6,151.7,175.7,146.2z"/>
</svg>
