<?xml version="1.0" encoding="utf-8"?>
<!-- Generator: Adobe Illustrator 28.0.0, SVG Export Plug-In . SVG Version: 6.00 Build 0)  -->
<svg version="1.1" id="Layer_1" xmlns="http://www.w3.org/2000/svg" xmlns:xlink="http://www.w3.org/1999/xlink" x="0px" y="0px"
	 viewBox="0 0 213.6 197.5" style="enable-background:new 0 0 213.6 197.5;" xml:space="preserve">
<style type="text/css">
	.st0{fill:#666699;}
	.st1{fill:#2179BF;}
</style>
<g>
	<g>
		<path class="st0" d="M102.9,182.9H28.3c-7.7,0-14.1-6.3-14.1-14.1c0-2.1,0.7-4.2,1.4-6.3l11.3-21.8l7-14.1l2.8-6.3l1.4-3.5
			l25.3-49.9c0.7-1.4,0.7-2.1,0.7-3.5V14.1h28.1v49.2c0,1.4,0,2.1,0.7,2.8l20.4,40.8h15.8l-22.9-45.1V14.1h7V0H43.1v14.1h7v47.8
			L3,156.1c-7,14.1-1.4,30.9,12.7,38c4.2,2.1,8.4,2.8,12.7,2.8H103v-0.7L102.9,182.9L102.9,182.9z"/>
		<path class="st0" d="M85.2,132.9h-5v-5v-7.3c-2.6-3.4-3.7-7.7-2.6-12.3c0.7-2.8,1.4-4.9,3.5-7H55.8l-30.2,60.5
			c0,0-6.3,13.4,7,13.4h70.3V133L85.2,132.9L85.2,132.9z"/>
		<path class="st0" d="M102.7,107c-1.6-3.8-5.3-6.4-9.7-6.4s-8.1,2.6-9.7,6.4h1.8H102.7z"/>
		<polygon class="st1" points="131.8,112 116,112 103.6,112 85.2,112 85.2,118.1 85.2,124.9 85.2,127.9 107.9,127.9 107.9,175.1 
			107.9,182.9 107.9,196.2 127,196.2 127,182.9 127,175 127,152.4 127,133.9 127,127.9 139.9,127.9 150,127.9 150,112 		"/>
	</g>
	<g>
		<path class="st1" d="M159.6,176.5c5,2.7,13,5.3,21.1,5.3c8.7,0,13.4-3.6,13.4-9.2c0-5.2-4-8.2-14.1-11.8
			c-14.1-5-23.2-12.6-23.2-25c0-14.4,12.1-25.3,31.9-25.3c9.6,0,16.5,1.9,21.5,4.2L206,130c-3.3-1.6-9.4-4-17.6-4
			c-8.3,0-12.3,3.8-12.3,8.1c0,5.4,4.7,7.7,15.6,11.8c14.9,5.6,21.8,13.3,21.8,25.2c0,14.1-10.8,26.1-34,26.1
			c-9.5,0-19.1-2.6-23.8-5.2L159.6,176.5z"/>
	</g>
</g>
</svg>
