<?xml version="1.0" encoding="utf-8"?>
<!-- Generator: Adobe Illustrator 28.0.0, SVG Export Plug-In . SVG Version: 6.00 Build 0)  -->
<svg version="1.1" id="Layer_1" xmlns="http://www.w3.org/2000/svg" xmlns:xlink="http://www.w3.org/1999/xlink" x="0px" y="0px"
	 viewBox="0 0 240 111.9" style="enable-background:new 0 0 240 111.9;" xml:space="preserve">
<style type="text/css">
	.st0{fill:#2E76FF;}
</style>
<path class="st0" d="M80,31.3C78.9,17.9,77.9,7.7,60.4,7.7h-9.7v72H69v5.2l-26.4-0.2l-26.4,0.2v-5.2h18.4v-72h-9.9
	C7.2,7.7,6.2,18,5.1,31.3H0L2.4,2.4h80.2l2.4,28.9H80L80,31.3z"/>
<path class="st0" d="M148.2,111.9H72.1v-5.2H85V34.3H72.1V29h74l3.5,28.9h-5.1c-1.8-15.7-5.8-23.6-24.5-23.6h-19v32h7.2
	c11.7,0,12.9-5.1,12.9-14.2h5.1v33.7h-5.1c0-9.3-1.2-14.2-12.9-14.2h-7.2v35.2h19c21.2,0,25.7-9.5,28.3-27.6h5.1L148.2,111.9z"/>
<path class="st0" d="M220.5,83.3c-4.6,0-16.8,0-20.7,0.2v-5.3h10.1L188,47.8l-21.7,29c3.6,1.1,7.3,1.6,11.1,1.5v5.2
	c-3-0.2-13.5-0.2-17.3-0.2c-3.4,0-13.3,0-16.1,0.2v-5.2h3.3c2.4,0,4.7-0.1,7.1-0.4c4.3-0.4,4.6-0.7,5.7-2.2l24.5-32.6l-27-37.9
	h-11.9V0c3.3,0.2,15.3,0.2,19.5,0.2c5,0,16.4,0,20.8-0.2v5.2H176l18.1,25.3l17.8-23.9c-3.6-1.1-7.3-1.6-11.1-1.5V0
	c3.1,0.2,13.6,0.2,17.4,0.2c3.4,0,13.1,0,16-0.2v5.2H231c-2.4-0.1-4.8,0.1-7.2,0.4c-4,0.4-4.5,0.6-5.7,2.2l-20.6,27.5l30.8,42.9H240
	v5.2C237,83.3,224.4,83.3,220.5,83.3z"/>
</svg>
