<?xml version="1.0" encoding="utf-8"?>
<!-- Generator: Adobe Illustrator 28.0.0, SVG Export Plug-In . SVG Version: 6.00 Build 0)  -->
<svg version="1.1" id="Layer_1" xmlns="http://www.w3.org/2000/svg" xmlns:xlink="http://www.w3.org/1999/xlink" x="0px" y="0px"
	 viewBox="0 0 512 368.1" style="enable-background:new 0 0 512 368.1;" xml:space="preserve">
<style type="text/css">
	.st0{fill:#666699;}
</style>
<path class="st0" d="M512,24.1C512,10.8,501.2,0,487.9,0H24.1C10.8,0,0,10.8,0,24.1V344c0,13.3,10.8,24.1,24.1,24.1h463.8
	c13.3,0,24.1-10.8,24.1-24.1V24.1z M195.6,280.3c-4,2.3-8.6,4.5-13.7,6.5c-5.1,2.1-10.8,3.8-16.9,5.1c-6.1,1.4-12.5,2.1-19.1,2.1
	c-15,0-26.1-3.9-33.4-11.7c-7.3-7.8-11.1-20.3-11.1-37.7V139.9H73.9v-13.4c8.8-5.6,17.7-9.6,27.3-12.1V86.5
	c1.6-1.4,6.4-3.5,13.7-6.1c7.2-2.7,15.4-4.8,24.4-6.4h11.8v44.2h45v21.7h-45v89c0,14.1,1.7,24,5.3,29.4c3.5,5.5,9.4,8.2,17.7,8.2
	c4.1,0,8.8-0.3,13.9-0.9c5.1-0.6,9.9-1.7,14.3-3.3l2.4,11.3C202.6,275.8,199.6,277.9,195.6,280.3z M280.4,285.3
	c-5.5,4.9-12.6,7.4-21.3,7.4c-8.8,0-15.8-2.5-21-7.4c-5.3-4.9-7.9-11.5-7.9-19.8s2.7-14.9,7.9-19.9c5.3-5.1,12.3-7.6,21-7.6
	c8.7,0,15.8,2.5,21.3,7.6s8.3,11.7,8.3,19.9C288.6,273.7,285.9,280.3,280.4,285.3z"/>
</svg>
