<?xml version="1.0" encoding="utf-8"?>
<!-- Generator: Adobe Illustrator 28.0.0, SVG Export Plug-In . SVG Version: 6.00 Build 0)  -->
<svg version="1.1" id="Layer_1" xmlns="http://www.w3.org/2000/svg" xmlns:xlink="http://www.w3.org/1999/xlink" x="0px" y="0px"
	 viewBox="0 0 239.2 198.9" style="enable-background:new 0 0 239.2 198.9;" xml:space="preserve">
<style type="text/css">
	.st0{fill:#2E76FF;}
</style>
<path class="st0" d="M19.1,36.5v39.1c0,4.6-1.7,8.2-5,10.8c-3.3,2.5-8,3.8-14.1,3.8v18.5c6.1,0,10.8,1.3,14.1,3.8s5,6.1,5,10.8v39.2
	c0,11.6,3.8,20.6,11.4,26.9c7.6,6.3,18.3,9.5,32.1,9.5v-18.5c-6.6,0-11.7-1.4-15.3-4.2s-5.4-6.7-5.4-11.7v-40.1
	c0-10.6-3.5-18.9-10.4-24.8c6.9-5.7,10.4-13.7,10.4-23.9V34.3c0-5,1.8-8.9,5.4-11.7c3.6-2.7,8.7-4.1,15.3-4.1V0
	C48.8,0,38,3.2,30.5,9.6C22.9,15.9,19.1,24.9,19.1,36.5z"/>
<path class="st0" d="M225.1,86.4c-3.3-2.5-5-6.1-5-10.8V36.5c0-11.6-3.8-20.6-11.4-26.9C201.1,3.2,190.4,0,176.6,0v18.5
	c6.6,0,11.7,1.4,15.3,4.1s5.4,6.6,5.4,11.7v41.4c0,10.2,3.5,18.2,10.4,23.9c-6.9,5.9-10.4,14.2-10.4,24.8v40.1c0,5-1.8,8.9-5.4,11.7
	c-3.6,2.8-8.7,4.2-15.3,4.2v18.5c13.8,0,24.5-3.2,32.1-9.5s11.4-15.3,11.4-26.9v-39.2c0-4.6,1.7-8.2,5-10.8c3.3-2.5,8-3.8,14.1-3.8
	V90.2C233.1,90.2,228.4,88.9,225.1,86.4z"/>
<path class="st0" d="M98.2,139.3H84V83.2H66.4V70h49.4v13.3H98.2V139.3z"/>
<path class="st0" d="M135.4,137.8c-3.6-1.6-6.4-4-8.4-7c-2-3-2.9-6.5-2.9-10.5h14.3c0,2.3,0.9,4.2,2.7,5.6s4.3,2,7.4,2
	c3,0,5.3-0.7,7-2s2.5-3.2,2.5-5.5c0-2-0.6-3.8-1.9-5.2c-1.3-1.5-3-2.4-5.3-2.9l-7-1.6c-5.9-1.4-10.5-4-13.7-7.7
	c-3.3-3.8-4.9-8.4-4.9-13.8c0-4.1,0.9-7.6,2.8-10.6s4.5-5.3,8-7c3.5-1.6,7.5-2.5,12.1-2.5c7.1,0,12.7,1.8,16.9,5.3s6.2,8.3,6.2,14.2
	h-14.3c0-2.2-0.8-4-2.4-5.2c-1.6-1.3-3.8-1.9-6.7-1.9c-2.7,0-4.8,0.6-6.3,1.9s-2.2,3-2.2,5.3c0,2,0.6,3.8,1.8,5.2
	c1.2,1.5,2.8,2.4,5,2.8l7.4,1.7c6.1,1.5,10.8,4,14,7.6s4.8,8.3,4.8,13.8c0,4.1-1,7.6-3,10.7s-4.8,5.5-8.4,7.2
	c-3.6,1.7-7.8,2.6-12.6,2.6C143.3,140.3,139.1,139.4,135.4,137.8z"/>
</svg>
