<?xml version="1.0" encoding="utf-8"?>
<!-- Generator: Adobe Illustrator 28.0.0, SVG Export Plug-In . SVG Version: 6.00 Build 0)  -->
<svg version="1.1" id="Layer_1" xmlns="http://www.w3.org/2000/svg" xmlns:xlink="http://www.w3.org/1999/xlink" x="0px" y="0px"
	 viewBox="0 0 478.3 820" style="enable-background:new 0 0 478.3 820;" xml:space="preserve">
<style type="text/css">
	.st0{fill:#A4C639;}
</style>
<path class="st0" d="M401.8,363.5c-13.6,27.1-20.3,67.8-20.3,122s3.4,101.6,10.2,142.3l10.2,61H76.6c3.9-17.4,7.7-39.9,11.6-67.5
	c3.9-27.6,6.3-70.7,7.3-129.2c1-58.6-5.3-101.4-18.9-128.5c13.6,0,28.1,11.6,43.6,34.8s27.6,46.5,36.3,69.7l13.1,34.8
	c1-9.7,2.9-23,5.8-39.9c2.9-16.9,9.4-46.7,19.6-89.3s21.8-80.3,34.8-113.2s30.7-62.7,53-89.3c22.3-26.6,46.5-39.9,72.6-39.9
	c-27.1,41.6-44.5,93.4-52.3,155.3c-7.7,61.9-8.7,113.7-2.9,155.3l8.7,61c3.9-10.6,8.7-23.7,14.5-39.2c5.8-15.5,16.9-36.1,33.4-61.7
	C373.2,376.3,388.2,363.5,401.8,363.5z M215.9,595.8v-46.5h-46.5v46.5H215.9z M308.8,595.8v-46.5h-46.5v46.5H308.8z"/>
</svg>
