<?xml version="1.0" encoding="utf-8"?>
<!-- Generator: Adobe Illustrator 28.0.0, SVG Export Plug-In . SVG Version: 6.00 Build 0)  -->
<svg version="1.1" id="Layer_1" xmlns="http://www.w3.org/2000/svg" xmlns:xlink="http://www.w3.org/1999/xlink" x="0px" y="0px"
	 viewBox="0 0 623.5 410.7" style="enable-background:new 0 0 623.5 410.7;" xml:space="preserve">
<style type="text/css">
	.st0{fill:#007ACC;}
</style>
<path class="st0" d="M521.5,3.7c21.3,5,40.6,16.1,55.6,32c8.2,8.6,15.4,18.2,21.3,28.6c0.3,1.1-38.4,27.1-61.8,41.5
	c-0.9,0.6-4.2-3.1-8-8.8c-8.7-15-24.5-24.4-41.8-25c-26.9-1.9-44.3,12.2-44.2,35.8c-0.2,5.8,1.1,11.5,3.8,16.7
	c5.9,12.2,16.9,19.6,51.5,34.6c63.6,27.4,90.9,45.4,107.8,71.1c19.3,32.8,23.1,72.5,10.4,108.3c-17.5,39.6-55.2,66.5-98.3,70.4
	c-22.5,2.6-45.3,2.3-67.7-0.7c-34.4-5.7-66.1-22.2-90.4-47.1c-9.2-10.4-17-21.9-23.2-34.3c2.6-1.9,5.3-3.7,8.2-5.2
	c4-2.2,18.9-10.9,33-19l25.6-15l5.4,7.8c9,12.9,20.5,23.9,33.8,32.3c27.3,15,60.8,13.3,86.5-4.4c13.4-13.1,15.5-33.9,5-49.4
	c-6.9-9.9-21-18.2-61.1-35.6c-31.4-10.6-60-28.2-83.7-51.4c-11.3-12.9-19.6-28-24.4-44.4c-3.5-18.7-4.1-37.8-1.6-56.7
	c9.6-44.5,46-78.2,91.1-84.4C476.7-1.1,499.3-0.4,521.5,3.7z M313,40.8l0.3,36.4H197.5v328.7h-81.6V77.2H0.1V41.5
	c-0.3-12.2,0-24.5,1-36.7C1.5,4.3,71.9,4,157.2,4.1l155.3,0.4L313,40.8z"/>
</svg>
