<?xml version="1.0" encoding="utf-8"?>
<!-- Generator: Adobe Illustrator 28.0.0, SVG Export Plug-In . SVG Version: 6.00 Build 0)  -->
<svg version="1.1" id="Layer_1" xmlns="http://www.w3.org/2000/svg" xmlns:xlink="http://www.w3.org/1999/xlink" x="0px" y="0px"
	 viewBox="0 0 352 160" style="enable-background:new 0 0 352 160;" xml:space="preserve">
<style type="text/css">
	.st0{fill:#2E76FF;}
</style>
<path class="st0" d="M112,160H80c-22,0-40.8-7.8-56.5-23.5S0,102,0,80s7.8-40.8,23.5-56.5S58,0,80,0h64c22,0,40.8,7.8,56.5,23.5
	S224,58,224,80c0,4.7-1.5,8.5-4.5,11.5S212.7,96,208,96s-8.5-1.5-11.5-4.5S192,84.7,192,80c0-13.3-4.7-24.7-14-34s-20.7-14-34-14H80
	c-13.3,0-24.7,4.7-34,14S32,66.7,32,80s4.7,24.7,14,34s20.7,14,34,14h32c4.7,0,8.5,1.5,11.5,4.5s4.5,6.8,4.5,11.5s-1.5,8.5-4.5,11.5
	S116.7,160,112,160z M352,80c0,22-7.8,40.8-23.5,56.5S294,160,272,160h-64c-22,0-40.8-7.8-56.5-23.5S128,102,128,80
	c0-4.7,1.5-8.5,4.5-11.5S139.3,64,144,64s8.5,1.5,11.5,4.5S160,75.3,160,80c0,13.3,4.7,24.7,14,34s20.7,14,34,14h64
	c13.3,0,24.7-4.7,34-14s14-20.7,14-34s-4.7-24.7-14-34s-20.7-14-34-14h-32c-4.7,0-8.5-1.5-11.5-4.5S224,20.7,224,16
	s1.5-8.5,4.5-11.5S235.3,0,240,0h32c22,0,40.8,7.8,56.5,23.5S352,58,352,80z"/>
</svg>
