<?xml version="1.0" encoding="utf-8"?>
<!-- Generator: Adobe Illustrator 28.0.0, SVG Export Plug-In . SVG Version: 6.00 Build 0)  -->
<svg version="1.1" id="Layer_1" xmlns="http://www.w3.org/2000/svg" xmlns:xlink="http://www.w3.org/1999/xlink" x="0px" y="0px"
	 viewBox="0 0 811.4 811.4" style="enable-background:new 0 0 811.4 811.4;" xml:space="preserve">
<style type="text/css">
	.st0{fill:#F97E2F;}
</style>
<path class="st0" d="M596.5,596.5H214.9V214.9h381.6 M749.2,367.5v-76.3h-76.3v-76.3c0-42.4-34.3-76.3-76.3-76.3h-76.3V62.2h-76.3
	v76.3h-76.3V62.2h-76.3v76.3h-76.3c-42.4,0-76.3,34-76.3,76.3v76.3H62.2v76.3h76.3v76.3H62.2v76.3h76.3v76.3
	c0,42.2,34.2,76.3,76.3,76.3h76.3v76.3h76.3v-76.3h76.3v76.3h76.3v-76.3h76.3c42.2,0,76.3-34.2,76.3-76.3v-76.3h76.3v-76.3h-76.3
	v-76.3 M443.9,443.9h-76.3v-76.3h76.3 M520.2,291.2h-229v229h229V291.2z"/>
</svg>
