<?xml version="1.0" encoding="utf-8"?>
<!-- Generator: Adobe Illustrator 28.0.0, SVG Export Plug-In . SVG Version: 6.00 Build 0)  -->
<svg version="1.1" id="Layer_1" xmlns="http://www.w3.org/2000/svg" xmlns:xlink="http://www.w3.org/1999/xlink" x="0px" y="0px"
	 viewBox="0 0 256 256" style="enable-background:new 0 0 256 256;" xml:space="preserve">
<style type="text/css">
	.st0{fill:#E64C3C;}
</style>
<g>
	<path class="st0" d="M128,16.9c-61.3,0-111,49.7-111.1,110.9c0,0.1,0,0.1,0,0.2c0,61.4,49.8,111.1,111.1,111.1
		S239.1,189.4,239.1,128c0-0.1,0-0.1,0-0.2C239.1,66.5,189.3,16.9,128,16.9z M98.3,170.4c-1.1,0.6-2.1,1.5-4.2,1.5
		c0-14.8,0-29.5,0-44.2c0.1-14.1,0.1-28.1,0.2-42.2c0-1.3,0-2.6,0-3.8c1.5-0.3,2.2,0.5,3.1,1c25.9,14.1,51.8,28.1,77.6,42.3
		c1,0.6,3.1,0.6,2.4,2.6c-14.1,7.6-28.2,15.2-42.3,22.8C122.8,157,110.6,163.8,98.3,170.4z"/>
</g>
</svg>
