<?xml version="1.0" encoding="utf-8"?>
<!-- Generator: Adobe Illustrator 28.0.0, SVG Export Plug-In . SVG Version: 6.00 Build 0)  -->
<svg version="1.1" id="Layer_1" xmlns="http://www.w3.org/2000/svg" xmlns:xlink="http://www.w3.org/1999/xlink" x="0px" y="0px"
	 viewBox="0 0 96 95.5" style="enable-background:new 0 0 96 95.5;" xml:space="preserve">
<style type="text/css">
	.st0{fill:#7564E8;}
</style>
<g>
	<g>
		<path class="st0" d="M13.9,75.2c-1.1,1-2.7,1.2-4.1,0.7l-7.3-3.1C1,72.1,0,70.7,0,69.1V26.4c0-1.6,1-3.1,2.5-3.7l7.3-3
			c1.4-0.6,3-0.3,4.1,0.6l1.6,1.4c-1-0.7-2.4-0.5-3.1,0.5c-0.3,0.4-0.4,0.8-0.4,1.3V72c0,1.2,1,2.2,2.2,2.2c0.5,0,0.9-0.1,1.3-0.4
			L13.9,75.2z"/>
		<path class="st0" d="M2.5,72.8C1,72.1,0,70.7,0,69.1v-0.3C0,70,1.1,71,2.3,71C3,71,3.6,70.8,4,70.3L66,1.8
			c1.8-1.8,4.5-2.3,6.8-1.2l19.8,9.5c2.1,1,3.4,3.1,3.4,5.4v0.2c0-2.1-1.7-3.8-3.8-3.8c-0.9,0-1.7,0.3-2.4,0.9L15.5,73.8l-1.6,1.4
			c-1.1,1-2.7,1.2-4.1,0.7L2.5,72.8z"/>
		<path class="st0" d="M2.5,22.8C1,23.4,0,24.8,0,26.4v0.3c0-1.3,1.1-2.3,2.3-2.3c0.6,0,1.2,0.3,1.7,0.7l62,68.6
			c1.8,1.8,4.5,2.3,6.8,1.2l19.8-9.5c2.1-1,3.4-3.1,3.4-5.4v-0.2c0,2.1-1.7,3.8-3.8,3.8c-0.9,0-1.7-0.3-2.4-0.9L15.5,21.8l-1.6-1.4
			c-1.2-1-2.8-1.2-4.1-0.6L2.5,22.8z"/>
		<path class="st0" d="M72.8,94.9c-2.3,1.1-5,0.6-6.8-1.2c1.4,1.4,3.6,1.4,5,0c0.7-0.7,1-1.5,1-2.5v-87c0-1.9-1.6-3.5-3.5-3.5
			c-0.9,0-1.8,0.4-2.5,1c1.8-1.8,4.5-2.3,6.8-1.2l19.8,9.5c2.1,1,3.4,3.1,3.4,5.4V80c0,2.3-1.3,4.4-3.4,5.4L72.8,94.9z"/>
		<path class="st0" d="M0,0"/>
	</g>
</g>
</svg>
