<?xml version="1.0" encoding="utf-8"?>
<!-- Generator: Adobe Illustrator 28.0.0, SVG Export Plug-In . SVG Version: 6.00 Build 0)  -->
<svg version="1.1" id="Layer_1" xmlns="http://www.w3.org/2000/svg" xmlns:xlink="http://www.w3.org/1999/xlink" x="0px" y="0px"
	 viewBox="0 0 151.2 137.9" style="enable-background:new 0 0 151.2 137.9;" xml:space="preserve">
<style type="text/css">
	.st0{fill:#FCC72B;}
	.st1{fill:#729B1B;}
	.st2{fill:#729B1B;fill-opacity:0.5;}
</style>
<path class="st0" d="M113.4,41.8L77.3,94.1c-0.4,0.6-0.9,1-1.6,1.2c-0.6,0.2-1.3,0.2-2,0c-0.6-0.2-1.2-0.6-1.6-1.2
	c-0.4-0.6-0.6-1.2-0.5-1.9l1.4-28.8l-23.3-5c-0.5-0.1-1-0.3-1.4-0.7c-0.4-0.3-0.7-0.7-0.9-1.2s-0.3-1-0.2-1.5c0.1-0.5,0.2-1,0.5-1.4
	L84,1.3c0.4-0.6,0.9-1,1.6-1.2c0.6-0.2,1.3-0.2,2,0c0.6,0.2,1.2,0.6,1.6,1.2c0.4,0.6,0.6,1.2,0.5,1.9l-1.4,28.8l23.3,5
	c0.5,0.1,1,0.3,1.4,0.7c0.4,0.3,0.7,0.7,0.9,1.2c0.2,0.5,0.3,1,0.2,1.5C113.9,40.9,113.7,41.4,113.4,41.8L113.4,41.8z"/>
<path class="st1" d="M75.6,137.9c-1,0-1.9-0.2-2.8-0.6c-0.9-0.4-1.7-0.9-2.4-1.6l-34.1-34.1c-1.4-1.4-2.1-3.2-2.1-5.2
	c0-1.9,0.8-3.8,2.1-5.2c1.4-1.4,3.2-2.1,5.2-2.1c1.9,0,3.8,0.8,5.2,2.1l29,29l63.1-63.1c1.4-1.4,3.2-2.1,5.2-2.1
	c1.9,0,3.8,0.8,5.1,2.1c1.4,1.4,2.1,3.2,2.1,5.1c0,1.9-0.7,3.8-2.1,5.2l-68.3,68.3c-0.7,0.7-1.5,1.2-2.4,1.6
	C77.5,137.7,76.6,137.9,75.6,137.9z"/>
<path class="st2" d="M75.6,137.9c1,0,1.9-0.2,2.8-0.6c0.9-0.4,1.7-0.9,2.4-1.6l34.1-34.1c1.4-1.4,2.1-3.2,2.1-5.2
	c0-1.9-0.8-3.8-2.1-5.2c-1.4-1.4-3.2-2.1-5.2-2.1c-1.9,0-3.8,0.8-5.2,2.1l-29,29L12.4,57.1C11.1,55.8,9.2,55,7.3,55
	c-1.9,0-3.8,0.8-5.1,2.1C0.8,58.5,0,60.4,0,62.3c0,1.9,0.7,3.8,2.1,5.2l68.3,68.3c0.7,0.7,1.5,1.2,2.4,1.6
	C73.7,137.7,74.6,137.9,75.6,137.9z"/>
</svg>
