<?xml version="1.0" encoding="utf-8"?>
<!-- Generator: Adobe Illustrator 28.0.0, SVG Export Plug-In . SVG Version: 6.00 Build 0)  -->
<svg version="1.1" id="Layer_1" xmlns="http://www.w3.org/2000/svg" xmlns:xlink="http://www.w3.org/1999/xlink" x="0px" y="0px"
	 viewBox="0 0 490 490" style="enable-background:new 0 0 490 490;" xml:space="preserve">
<style type="text/css">
	.st0{fill:#7564E8;}
</style>
<g>
	<path class="st0" d="M301,0v2.6c0,14.9-5.9,29.2-16.5,39.7c-10.5,10.5-24.8,16.5-39.7,16.5s-29.2-5.9-39.7-16.5
		c-10.5-10.5-16.5-24.8-16.5-39.7c0-0.9,0-1.8,0-2.6H0v490h490V0H301z M233.8,437.5L210,319.5h-0.4l-25.8,118.1h-32.9l-37.2-173.5
		h32.5l22.2,118.1h0.4l26.8-118.1h30.4l24,119.5h0.4l25.4-119.5h31.9l-41.4,173.5H233.8z M412.6,437.5l-11.1-38.6h-58.4l-8.5,38.6
		h-32.5l42-173.5h51.2l51,173.5H412.6z"/>
	<path class="st0" d="M363.7,306.8l-14.2,63.7h44.1l-16.3-63.7H363.7z"/>
</g>
</svg>
