<?xml version="1.0" encoding="utf-8"?>
<!-- Generator: Adobe Illustrator 28.0.0, SVG Export Plug-In . SVG Version: 6.00 Build 0)  -->
<svg version="1.1" id="Layer_1" xmlns="http://www.w3.org/2000/svg" xmlns:xlink="http://www.w3.org/1999/xlink" x="0px" y="0px"
	 viewBox="0 0 231.4 207.7" style="enable-background:new 0 0 231.4 207.7;" xml:space="preserve">
<style type="text/css">
	.st0{fill:#0B9CDB;}
	.st1{fill:#0A69A1;}
</style>
<g>
	<g>
		<path class="st0" d="M107.7,187.5c-5.5,14.3-19,21.6-36.4,19.9c-18.6-1.9-27.5-9.3-32.2-27.4c-12.3-48-24.6-96-36.8-144.1
			c-1.3-5.3-3-10.6-2.1-16.2C2.7,3.4,16.3-1.4,30,0.3c13.4,1.7,21.3,10.3,24.6,23c7.9,31.1,15.6,62.3,23.3,93.4
			c0.1,0.3,0.3,0.5,0.5,0.8c1.8-0.1,1.3-1.7,1.6-2.6c4.9-15.7,10.2-31.3,14.5-47.2c3.1-11.1,10-17.2,20.9-19.5
			c6.6-1.4,13.3-1.8,19.8-0.3c11.3,2.6,18.5,9.8,22.3,20.8c4.7,13.5,9.6,26.9,14.5,40.4c0.2,0.7,1,1.2,1.6,1.8
			c0.2,1.3,0.2,2.7,0.7,3.9c7.2,20.2,14.5,40.4,21.9,60.5c1.9,5.2,4.8,6.5,10.5,5.2c-0.9,4.6-3.3,8.3-6.6,11.4
			c-11.9,11.3-36.4,9.1-46.1-4.1c-3.2-4.3-5.2-9.3-7-14.2c-5.8-15.6-11.5-31.1-17.3-46.7c-0.4-1.1-1.1-2-1.6-3
			c-3-11.4-8.1-22.1-11.9-33.3c-2.7-7.9-5.5-15.7-8.4-23.4c-0.9-2.5-2.5-5.1-5.5-4.9c-2.6,0.1-3.7,2.5-4.4,4.9
			c-5.1,17-10.2,34-15.3,51c-1,3.3-2.5,6.6-1.6,10.2c4.4,17.2,8.7,34.4,13.4,51.5C96.7,188.4,99.2,189.5,107.7,187.5z"/>
		<path class="st1" d="M206.6,180.6c-5.7,1.3-8.6,0-10.5-5.2c-7.4-20.1-14.6-40.3-21.9-60.5c-0.4-1.2-0.5-2.6-0.7-3.9
			c3.9-22.6,7.8-45.2,11.6-67.9c1.1-6.2,1.3-12.6,3.5-18.6c4.3-12.2,14.1-17.7,26.7-14.9c10.6,2.4,17.8,13.5,15.8,24.3
			c-6.3,32.7-10.7,65.7-16.3,98.5C212,148.4,209.3,164.5,206.6,180.6z"/>
		<path class="st1" d="M107.7,187.5c-8.5,1.9-11,0.8-13.4-7.8c-4.8-17.1-9-34.3-13.4-51.5c-0.9-3.5,0.6-6.9,1.6-10.2
			c5.1-17,10.2-34,15.3-51c0.7-2.4,1.8-4.7,4.4-4.9c3-0.2,4.6,2.4,5.5,4.9c2.9,7.8,5.7,15.6,8.4,23.4c3.8,11.1,8.9,21.8,11.9,33.3
			c-6,19.6-12,39.2-18,58.8C109.4,184.4,109,186.2,107.7,187.5z"/>
	</g>
</g>
</svg>
