<?xml version="1.0" encoding="utf-8"?>
<!-- Generator: Adobe Illustrator 28.0.0, SVG Export Plug-In . SVG Version: 6.00 Build 0)  -->
<svg version="1.1" id="Layer_1" xmlns="http://www.w3.org/2000/svg" xmlns:xlink="http://www.w3.org/1999/xlink" x="0px" y="0px"
	 viewBox="0 0 24 24" style="enable-background:new 0 0 24 24;" xml:space="preserve">
<style type="text/css">
	.st0{fill:#2E76FF;}
</style>
<path class="st0" d="M6.4,1.5c-0.3,0-0.5,0.1-0.7,0.4l-5.6,9.7c-0.1,0.2-0.1,0.5,0,0.8l5.6,9.7c0.1,0.2,0.4,0.4,0.7,0.4h11.2
	c0.3,0,0.5-0.1,0.7-0.4l5.6-9.7c0.1-0.2,0.1-0.5,0-0.8l-5.6-9.7c-0.1-0.2-0.4-0.4-0.7-0.4L6.4,1.5z M6.4,2.4H17l-5.2,9.2H6l4.7-8.2
	c0-0.1,0-0.1,0-0.2c0,0,0,0-0.1,0l-3.1,0c-0.1,0-0.2,0-0.2,0.1l-4.8,8.2H1.1L6.4,2.4z M17.8,2.7l5.4,9.3l-5.4,9.3L12.5,12L17.8,2.7z
	 M17.9,5.5c0,0-0.1,0-0.1,0.1l-1.5,2.7c0,0.1,0,0.2,0,0.3l1.9,3.4c0,0.1,0,0.2,0,0.3l-1.9,3.3c0,0.1,0,0.2,0,0.3l1.5,2.7
	c0,0.1,0.2,0.1,0.2,0l3.6-6.1c0.1-0.2,0.1-0.4,0-0.5L18,5.6C18,5.5,18,5.5,17.9,5.5L17.9,5.5z M1.1,12.4h1.4l4.8,8.2
	c0,0.1,0.1,0.1,0.2,0.1l3.1,0c0.1,0,0.1-0.1,0.1-0.1c0,0,0,0,0-0.1L6,12.4h5.8l5.3,9.2H6.4L1.1,12.4z"/>
</svg>
