<?xml version="1.0" encoding="utf-8"?>
<!-- Generator: Adobe Illustrator 28.0.0, SVG Export Plug-In . SVG Version: 6.00 Build 0)  -->
<svg version="1.1" id="Layer_1" xmlns="http://www.w3.org/2000/svg" xmlns:xlink="http://www.w3.org/1999/xlink" x="0px" y="0px"
	 viewBox="0 0 25.4 23" style="enable-background:new 0 0 25.4 23;" xml:space="preserve">
<style type="text/css">
	.st0{fill-rule:evenodd;clip-rule:evenodd;fill:#8B44AC;}
	.st1{fill:#8B44AC;}
</style>
<path class="st0" d="M13.8,0C8.4,0,3.8,3.7,2.6,9c1.1,0.3,1.9,1.3,1.9,2.5c0,1.2-0.8,2.2-1.9,2.5c1.4,6.2,7.6,10.1,13.8,8.7
	c1-0.2,2.1-0.6,3-1.1v1.3h6V11.5C25.4,5.2,20.2,0,13.8,0C13.9,0,13.8,0,13.8,0z M8.3,11.5c0-3,2.4-5.5,5.5-5.5s5.5,2.4,5.5,5.5
	S16.9,17,13.9,17c0,0,0,0,0,0C10.8,17,8.3,14.5,8.3,11.5z"/>
<path class="st1" d="M3.7,11.5c0,1-0.8,1.8-1.8,1.8S0,12.5,0,11.5c0-1,0.8-1.8,1.8-1.8S3.7,10.5,3.7,11.5L3.7,11.5z"/>
</svg>
