<?xml version="1.0" encoding="utf-8"?>
<!-- Generator: Adobe Illustrator 28.0.0, SVG Export Plug-In . SVG Version: 6.00 Build 0)  -->
<svg version="1.1" id="Layer_1" xmlns="http://www.w3.org/2000/svg" xmlns:xlink="http://www.w3.org/1999/xlink" x="0px" y="0px"
	 viewBox="0 0 509 584.2" style="enable-background:new 0 0 509 584.2;" xml:space="preserve">
<style type="text/css">
	.st0{fill-rule:evenodd;clip-rule:evenodd;fill:#74BB11;}
	.st1{fill-rule:evenodd;clip-rule:evenodd;fill:#009CD9;}
	.st2{fill-rule:evenodd;clip-rule:evenodd;fill:#EB2084;}
</style>
<g>
	<path class="st0" d="M432.8,75.9c-3.6-7.6-11.2-12.1-20.4-12.1h-35.6c-10.4,0-18.1,4.2-22.2,11.7l-52.8,77.2l46.2,63.2l80.7-115.8
		C437.6,89.3,434.6,79.6,432.8,75.9"/>
	<path class="st1" d="M154.4,74.6L154.4,74.6c-8.1-10.8-18.8-10.8-22.3-10.8H97.2c-8.9,0-16.2,4.1-20.1,11.2
		c-3.9,7.3-3.1,16.1,2.3,24.3l129.1,179L60.1,485.4c-5.2,7.8-5.9,16.4-2,23.8c3.8,7.1,11.2,11.2,20.1,11.2h35.6
		c9.2,0,17.2-4.8,21.3-12.3l166.2-229L154.4,74.6z"/>
	<path class="st2" d="M450.6,487.3L347,345.1l-45.6,62.8l81.9,109.4l2.1,0.9c3.3,1.5,6.8,2.2,10.3,2.3h34.8
		c8.4,0,15.6-3.7,19.6-10.3C454.4,503.5,454.5,495.1,450.6,487.3"/>
</g>
</svg>
