<?xml version="1.0" encoding="utf-8"?>
<!-- Generator: Adobe Illustrator 28.0.0, SVG Export Plug-In . SVG Version: 6.00 Build 0)  -->
<svg version="1.1" id="Layer_1" xmlns="http://www.w3.org/2000/svg" xmlns:xlink="http://www.w3.org/1999/xlink" x="0px" y="0px"
	 viewBox="0 0 123.1 108.3" style="enable-background:new 0 0 123.1 108.3;" xml:space="preserve">
<style type="text/css">
	.st0{fill:#543828;}
	.st1{fill-rule:evenodd;clip-rule:evenodd;fill:#E95927;}
	.st2{fill-rule:evenodd;clip-rule:evenodd;fill:#FBCD00;}
	.st3{fill-rule:evenodd;clip-rule:evenodd;fill:#3DAF00;}
	.st4{fill-rule:evenodd;clip-rule:evenodd;fill:#25A7F0;}
	.st5{fill-rule:evenodd;clip-rule:evenodd;fill:#CBCBCA;}
	.st6{fill-rule:evenodd;clip-rule:evenodd;fill:#3EAE00;}
	.st7{fill-rule:evenodd;clip-rule:evenodd;fill:#25A5EC;}
	.st8{fill-rule:evenodd;clip-rule:evenodd;fill:#C9C8C7;}
	.st9{fill-rule:evenodd;clip-rule:evenodd;fill:#FBCB00;}
	.st10{fill-rule:evenodd;clip-rule:evenodd;fill:#543828;}
	.st11{fill-rule:evenodd;clip-rule:evenodd;fill:#553928;}
	.st12{fill-rule:evenodd;clip-rule:evenodd;fill:#FFFFFF;}
</style>
<path class="st0" d="M43.6,0H51c0.1,0.1,0.2,0.2,0.4,0.2c2.4,0.6,5,1,7.3,2c7.7,3.3,12.4,9.3,15.1,17c0.1,0.4,0.4,0.9,0.7,1
	c1.7,0.5,3.4,0.9,5,1.3l0.2-0.2c4.6-9,12.1-14.2,22-16.1c2.6-0.5,5.2-0.4,7.8,0.4c-0.2,0.3-0.4,0.5-0.5,0.7
	c-3.3,3.6-5.9,7.6-6.7,12.6c-0.2,1.6-0.5,3.2-0.8,4.8c-0.8,4.4-2.3,8.5-5.7,11.6c-4.3,4-9.6,5-15.3,4.9c-0.3,0-0.7-0.4-0.9-0.7
	c-0.5-0.9-0.8-1.8-1.2-2.7c-3.8,0.8-4.9,1.8-5.3,5c1.1,0.1,2.3,0.3,3.4,0.4c9.7,1.1,19.4,2.5,29,4.7c4.5,1,9,2.2,13.2,4.3
	c2.2,1.1,3.5,2.9,4.1,5.3c0.1,0.5,0.3,1,0.5,1.6v3.4c-0.2,0.4-0.3,0.8-0.5,1.2c-0.5,1.7-1.4,3.2-2.8,4.3c-1.7,1.4-3.8,2-6,2.1
	c0.5,2.8-1,4.6-3.2,5.8c-1.4,0.8-2.9,1.4-4.4,1.6c-2.2,0.3-4.4,0.1-6.6,0.1c-1.7,3.1-4.6,3.7-7.6,3.9c-3.1,0.2-5.9-0.6-8.5-2.4
	c-1,1.6-2.2,2.2-4.3,2.4c-3.2,0.3-6.2-0.4-9.1-1.8l-0.4-0.2l0.2,0.3c2,3.6,4,7.1,5.8,10.8c0.6,1.2,0.7,2.7,0.7,4.1
	c-0.1,2.5-1.4,4.2-3.6,4.8c-0.2,2.1-1.3,3.6-3,4.8c-2,1.4-4.3,1.8-6.7,1.6c-0.4,0-1.1-0.2-1.3,0c-1.2,1.7-3,2.4-4.9,3h-2.7
	c-1.7-0.4-3.2-2-5.1-0.6c-0.3,0.2-0.8,0.2-1.2,0.2c-2.1,0.1-5.6-1.2-6.6-4.1c-1-3-2.2-5.9-3.4-8.9l-0.2,0.4
	c-2.7,5.2-8.4,7.1-13.7,4.5c-2.9-1.4-5.3-3.4-7.4-5.7C3.1,78.2-2.6,60,1.1,39.3C4.6,20,19.6,4.9,38.8,0.9C40.4,0.6,42,0.3,43.6,0
	L43.6,0z M66.9,32.3c3,0.2,5.9,0.2,8.7-1c2.6-1.2,5.4-1.3,8.1-0.7c1.8,0.3,3.7,0.8,5.5,1.2c-0.8-0.9-1.8-1.7-2.7-2.4
	c-4.7-3.4-9.8-5.8-15.7-6.2c-0.5,0-1.3,0-1.5,0.3c-1.8,2.5-2.9,5.2-2.8,8.4c-0.3,2.1,0.3,4,1.1,5.8c3.3-1.5,6.5-2.9,9.8-4.4l-0.1-1
	c-1.7,0.4-3.3,0.9-4.9,1.1C70.4,33.6,68.5,33.7,66.9,32.3z M96.9,12.9l0.2,0.2c-3.9,3.8-6.5,8.4-8.9,13.1l6.4,5.4
	c1.9-2.5,2.7-5.4,3.3-8.3c1.2-5.1,1.4-10.5,5.3-14.7C95.9,8.3,85,15.9,82.6,23l3.8,2.1c0.2-0.4,0.4-0.7,0.6-1.1
	c1.2-1.9,2.3-3.9,3.7-5.7C92.3,16,94.3,14.1,96.9,12.9z M83.3,54.8c2.3,0.2,4.5,0.4,6.8,0.7l21.3,2.2c1,0.1,2,0.2,3.3,0.3
	c-0.6-1.8-1.3-3.2-3-3.7c-1.5-0.5-3.1-0.9-4.7-1.4c-6.2-1.2-12.3-2.6-18.5-3.6c-6.1-1-12.2-1.6-18.3-2.3c-0.4,0-0.9,0.1-1.2,0.3
	c-1.2,1.1-2.2,2.3-3.3,3.5c-6.2,4.5-13.2,5.7-20.6,5.7c1.9-0.7,3.8-1.2,5.6-1.9c5.9-2.2,11.1-5.5,14.8-10.7c0.6-0.8,0.7-1.4,0.2-2.3
	c-1.7-3.1-2.6-6.5-2.5-10.1c0.1-4.3,1.5-8,4.4-11.2c0.5-0.5,0.6-1,0.3-1.7c-2-4.4-5-8-9.2-10.5c-5.1-3.1-10.7-3.3-16.4-2.5
	C29.4,7.6,19.5,14.2,12.6,25C6.2,35,4.2,46,5.8,57.6c0.5,3.6,1.4,7.1,3.1,10.4c0.4,0.9,0.7,1.7,1.1,2.6c7.8,14.1,19.7,22,35.8,23.2
	c9.5,0.7,17.7-4.7,20.6-13.5c0.7-2,1.4-4,0.3-6.1c2.1,1.8,4.6,2.6,7.4,2.9c2.8,0.3,5-0.7,6.2-2.9c0.3,0.1,0.7,0.2,1,0.4
	c2.2,1,4.6,1.3,7,1.1c3.2-0.2,4.6-1.6,5-4.6c1.6,0.1,3.1,0.4,4.7,0.4c4.5-0.1,6.7-2.7,5.7-6.3c1.8-0.1,3.6,0,5.4-0.3
	c1.8-0.3,3.3-1.3,4.5-3.1l-17.2-3.4C90.7,57.1,85,56,79.2,54.9l0-0.1L83.3,54.8z M80.4,31.5c0.4,1.7,0.8,3.1,1.1,4.5
	c0.2,0.7,0.6,0.9,1.3,0.9c2.7-0.2,5.4-0.8,7.8-2.1c0.3-0.2,0.6-0.4,1.3-0.8l-6.7-1.8l-0.9,1.6l-0.2,0v-1.8L80.4,31.5z"/>
<g>
	<path class="st1" d="M8.9,68c-1.7-3.3-2.6-6.8-3.1-10.4C4.2,46,6.2,35,12.6,25C19.5,14.2,29.4,7.6,42.2,5.7
		c5.7-0.8,11.3-0.6,16.4,2.5c4.2,2.5,7.2,6,9.2,10.5c0.3,0.7,0.2,1.2-0.3,1.7c-2.9,3.2-4.4,6.9-4.4,11.2c-0.1,3.6,0.8,6.9,2.5,10.1
		c0.5,0.9,0.4,1.5-0.2,2.3c-3.7,5.2-8.9,8.5-14.8,10.7c-1.8,0.7-3.8,1.2-5.6,1.9c7.4-0.1,14.5-1.3,20.6-5.7
		c-1.3,2.2-2.4,4.5-3.9,6.6C54.4,67,44.4,71.5,31.9,68c-1.3-0.4-2.4-0.5-3.5,0.4c-0.5,0.4-1.2,0.6-1.8,0.8
		C20.6,70.9,14.7,70.5,8.9,68L8.9,68z M47.5,17.1c-6.1,0-10.7,4.7-10.7,10.8c0,5.9,4.9,10.7,10.8,10.7c5.9,0,10.7-4.9,10.7-10.9
		C58.3,21.8,53.5,17.1,47.5,17.1z"/>
	<path class="st2" d="M8.9,68c5.8,2.6,11.7,2.9,17.7,1.2c0.6-0.2,1.3-0.4,1.8-0.8c1.1-0.9,2.2-0.8,3.5-0.4
		c12.5,3.5,22.5-1,29.8-10.6c1.5-2,2.6-4.4,3.9-6.6c1.1-1.2,2.2-2.4,3.3-3.5c0.3-0.3,0.8-0.4,1.2-0.3c6.1,0.7,12.2,1.3,18.3,2.3
		c6.2,1,12.4,2.4,18.5,3.6c-0.2,0.1-0.5,0.2-0.7,0.2c-7.7,0.6-15.3,1.2-23,1.8h-4l0,0.1c5.7,1.1,11.5,2.2,17.2,3.3
		c-0.2,0.7-0.2,1.6-0.7,2.1c-0.9,0.8-2.1,1.7-3.3,2c-1.4,0.3-2.9,0.1-4.4,0.1l0-0.1l0.1,0.1c0.2,1.5,0,2.9-1.2,3.9
		c-0.8,0.7-1.8,1.3-2.8,1.7c-2.6,1-5.2,1.1-7.7-0.4c-0.6,2.7-2.7,3.4-4.9,3.8c-2.3,0.4-4.4,0-6.3-1.5L65,70l1.8,4.1
		c1,2.1,0.4,4.1-0.3,6.1C63.5,89,55.3,94.4,45.9,93.7c-16.1-1.2-28-9-35.8-23.2C9.6,69.7,9.3,68.8,8.9,68L8.9,68z M65,69.5L65,69.5
		L65,69.5L65,69.5z"/>
	<path class="st3" d="M88.1,62.3c1.5,0,3,0.3,4.4-0.1c1.2-0.3,2.3-1.1,3.3-2c0.5-0.4,0.5-1.4,0.7-2.1l17.2,3.4
		c-1.2,1.8-2.7,2.9-4.5,3.1c-1.8,0.3-3.6,0.2-5.4,0.3c1,3.6-1.2,6.2-5.7,6.3c-1.6,0-3.1-0.3-4.7-0.4c-0.3,3-1.8,4.4-5,4.6
		c-2.4,0.2-4.8-0.1-7-1.1c-0.3-0.1-0.7-0.2-1-0.4c-1.2,2.2-3.5,3.1-6.2,2.9c-2.7-0.3-5.3-1-7.4-2.9L65,70l0.2-0.2
		c1.9,1.5,4,1.9,6.3,1.5c2.2-0.4,4.3-1.1,4.9-3.8c2.5,1.5,5.1,1.5,7.7,0.4c1-0.4,1.9-1,2.8-1.7C88.2,65.2,88.4,63.8,88.1,62.3
		L88.1,62.3z"/>
	<path class="st4" d="M96.9,12.9c-2.6,1.2-4.6,3.1-6.2,5.3c-1.4,1.8-2.5,3.8-3.7,5.7c-0.2,0.3-0.4,0.7-0.6,1.1L82.6,23
		C85,16,95.9,8.3,103.2,8.6c-3.9,4.2-4.1,9.6-5.3,14.7c-0.7,2.9-1.4,5.8-3.3,8.3l-6.4-5.4c2.4-4.7,5-9.3,8.9-13.1l0.2-0.3L96.9,12.9
		z"/>
	<path class="st5" d="M66.5,31.8c-0.1-3.1,0.9-5.9,2.8-8.4c0.2-0.3,1-0.4,1.5-0.3c5.9,0.4,11,2.8,15.7,6.2c1,0.7,1.9,1.5,2.7,2.4
		c-1.8-0.4-3.7-0.8-5.5-1.2c-2.8-0.5-5.5-0.4-8.1,0.7c-2.8,1.3-5.8,1.2-8.7,1L66.5,31.8z"/>
	<path class="st6" d="M83.3,54.8c7.7-0.6,15.3-1.2,23-1.8c0.2,0,0.5-0.1,0.7-0.2c1.6,0.4,3.1,0.8,4.7,1.4c1.6,0.6,2.4,1.9,3,3.7
		c-1.2-0.1-2.2-0.2-3.3-0.3L90,55.5C87.8,55.2,85.5,55,83.3,54.8z"/>
	<path class="st7" d="M80.4,31.5l3.8,0.5v1.8l0.2,0l0.9-1.6L92,34c-0.7,0.4-1,0.6-1.3,0.8c-2.4,1.3-5.1,1.9-7.8,2.1
		c-0.7,0.1-1.2-0.1-1.3-0.9C81.2,34.7,80.8,33.3,80.4,31.5z"/>
	<path class="st8" d="M66.5,31.8l0.3,0.5c1.6,1.5,3.6,1.4,5.5,1.1c1.6-0.2,3.2-0.7,4.9-1.1l0.1,1l-9.8,4.4
		C66.9,35.8,66.3,33.9,66.5,31.8z"/>
	<path class="st9" d="M47.5,17.1c6,0,10.8,4.7,10.8,10.6c0,6-4.8,10.9-10.7,10.9c-5.9,0-10.8-4.8-10.8-10.7
		C36.8,21.8,41.4,17.1,47.5,17.1z M53.9,27.8c0-3.6-2.8-6.5-6.4-6.5c-3.5,0-6.4,2.9-6.5,6.5c0,3.6,2.8,6.5,6.4,6.5
		C51.1,34.2,53.9,31.4,53.9,27.8z"/>
	<path class="st3" d="M88.1,62.3L88.1,62.3L88.1,62.3L88.1,62.3z M65,69.5L65,69.5L65,69.5L65,69.5z"/>
	<path class="st10" d="M96.9,12.9l0.4-0.1l-0.2,0.3L96.9,12.9z"/>
	<path class="st11" d="M53.9,27.8c0,3.6-2.8,6.4-6.4,6.4c-3.6,0-6.4-2.9-6.4-6.5c0-3.6,2.9-6.5,6.5-6.5
		C51.1,21.3,53.9,24.2,53.9,27.8z M47.5,27.6c1.1-0.4,2.1-0.7,3-1.2c1.1-0.7,1-2,0-2.9c-1.5-1.2-4.5-1.2-5.9,0c-1,0.8-1.1,2.2,0,2.9
		C45.4,26.9,46.4,27.1,47.5,27.6z"/>
	<path class="st12" d="M47.5,27.6c-1.1-0.4-2.1-0.7-3-1.2c-1.1-0.7-1-2,0-2.9c1.5-1.2,4.5-1.2,5.9,0c1,0.8,1.1,2.2,0,2.9
		C49.6,26.9,48.5,27.1,47.5,27.6z"/>
</g>
</svg>
