<?xml version="1.0" encoding="utf-8"?>
<!-- Generator: Adobe Illustrator 28.0.0, SVG Export Plug-In . SVG Version: 6.00 Build 0)  -->
<svg version="1.1" id="Layer_1" xmlns="http://www.w3.org/2000/svg" xmlns:xlink="http://www.w3.org/1999/xlink" x="0px" y="0px"
	 viewBox="0 0 170.9 192.8" style="enable-background:new 0 0 170.9 192.8;" xml:space="preserve">
<style type="text/css">
	.st0{fill:#6D5E54;}
	.st1{fill:#905623;}
	.st2{fill:#471E0F;}
	.st3{fill:#FCD864;}
	.st4{fill:#F7F8F8;}
	.st5{fill:#C4C4C1;}
</style>
<g>
	<g>
		<path class="st0" d="M84.4,0.3c0.4,0,0.8,0,1.3,0c0.5,0.7,0.8,1.5,1.4,2c9.7,7.6,19.3,15.2,29.1,22.6c12.9,9.7,8.7,22.7-1.5,30.7
			c-4.1,3.2-4.6,8.4-0.6,11.6c0.7,0.5,1-0.4,1.4-1c3.4,6.9,6.8,13.8,10.3,20.7c0.1,0.3,0.2,0.5,0.2,0.8c-1.6,1.7-0.7,3.4,0.2,5
			c5.6,10.9,10.9,22,16.9,32.8c8.1,14.7,15.1,30,22,45.3c2.7,6,1.2,11.3-3.6,14.4c-7.2,4.7-20.6,0.1-25.1-8.7
			c-12.3-24.4-24.4-48.8-36.5-73.2c-2.7-5.4-5.4-10.6-10.6-14.1c-0.1-1.2,0-2.6-1.1-3.4c-0.1-4.8-0.1-9.6-0.2-14.4
			c0-1.6,0.7-3.9-2.3-3.8c-4.6-1.3-9.4-2.1-13.9-3.9c-9.8-3.9-20.3-6.9-25.6-17.4c2.2-4.1,2.8-9.2,7.3-12c-2.6-8.8-2.7-17.8-2-27.2
			c4.3,0.4,6.4,2.5,7.8,5.8c2.2,5.2,4.8,10.3,7.8,15.1c1.3,2,2.7,3.4,5.2,3c2.6-1.1,5.1-2.1,7.7-3.2c1.4,2.3,3.2,4.3,6,2.5
			c2.6-1.7,0.5-3.9-0.4-5.6c-2.6-4.6-3.9-9.7-6-14.5C77.2,4.9,81.7,3,84.4,0.3z M98.8,45.8c-1.8-5.6-5.2-7.5-10.4-6.7
			c-3,0.4-6,0.5-8.9,1.1c-2.1,0.4-5.2-0.2-5.3,3.2c-0.1,3.4,2.5,5.9,5.2,5.8C85.9,48.9,92.5,48.6,98.8,45.8z"/>
		<path class="st1" d="M2,103.9c0-1,0-2,0-3C2,95,2,89,2.2,83c0.1-2.2-0.6-5.2,2.8-6c0,9.2,0,18.5,0,28.3c27.8-3.7,55.1-7.3,82.4-11
			c0.1,0.3,0.4,0.6,0.4,0.9c0.1,21.1,0.2,42.3,0.3,63.4c0,2-0.9,3-2.9,3.4c-2.9,0.5-5.8,1.4-8.7,1.9c-14.4,2.4-28.8,4.7-43.2,6.9
			c-9.8,1.5-19.6,2.7-29.2,4c-1.5-2-1-3.9-1-5.7c0-19.7,0-39.3-0.1-59C2.9,108.1,3.6,105.8,2,103.9z"/>
		<path class="st2" d="M2,103.9c1.6,1.9,1,4.1,1,6.2c0.1,19.7,0,39.3,0.1,59c0,1.8-0.5,3.7,1,5.7c9.6-1.3,19.5-2.5,29.2-4
			c14.4-2.2,28.8-4.5,43.2-6.9c2.9-0.5,5.8-1.4,8.7-1.9c2-0.4,2.9-1.4,2.9-3.4c-0.1-21.1-0.2-42.3-0.3-63.4c0-0.3-0.2-0.6-0.4-0.9
			c0.2-0.4,0.4-0.9,0.6-1.3c1.5-0.9,1-2.4,1.1-3.8c5.2,3.5,8,8.7,10.6,14.1c12.1,24.4,24.3,48.8,36.5,73.2
			c4.4,8.8,17.8,13.4,25.1,8.7c4.8-3.1,6.3-8.4,3.6-14.4c-6.9-15.3-13.9-30.6-22-45.3c-5.9-10.8-11.3-21.8-16.9-32.8
			c-0.8-1.6-1.8-3.3-0.2-5c10.6,18.8,19.2,38.7,30.6,57.4c2-2.1,1.4-3.9,1.4-5.4c0.1-11.6,0.1-23.3,0.1-34.9c0-2.2-0.3-4.4,2-5.7
			c1.5-0.7,1.4-2.1,1.4-3.4c0-11.6,0.1-23.2,0.1-34.7c0-1.7-0.3-3.3-1.5-4.5c-0.1-1.6-0.9-2.8-2-3.9c-9.5-9.3-20.9-15.5-32.9-21.3
			c0,2-0.5,3.8,0.1,4.9c4.2,8,1.5,14.1-4.9,19.4c-0.6,0.5-1.1,1.3-1.6,1.9c-4.5,1.7-5.6,4.7-3.3,8.9c-0.3,0.5-0.7,1.5-1.4,1
			c-4.1-3.2-3.5-8.4,0.6-11.6c10.2-8,14.4-21,1.5-30.7c-9.8-7.4-19.5-15-29.1-22.6c-0.6-0.5-0.9-1.3-1.4-2c2.4-0.8,4.2,0.3,6,1.7
			c9.1,7,18.2,13.9,27,21.2c3.7,3.1,8.1,4.2,12.4,5.7c13.1,4.7,24.1,12.3,32.8,23.2c1.8,2.2,2.4,4.6,2.4,7.4c-0.1,12,0,24-0.1,36
			c0,2,0.2,4.1-1.8,5.4c-1.1,0.7-1.3,1.9-1.3,3.1c-0.3,17.8-2.1,35.5,0,53.3c0.5,4.3,3,7.7,5,11.4c3.4,6.4,4.5,12.5-0.5,18.6
			c-5,6.1-11.3,6.4-18.5,5.1c-16.5-3-30.1-11.9-44.2-20.1c-2.7-1.6-5.4-3.4-8.2-4.7c-2.2-1.1-4.7-2.1-7.2-1
			c-7.8,3.2-16.2,3.3-24.4,4.4c-17.7,2.5-35.4,4.9-53.1,7.6c-12.6,1.9-11.8,5.2-11.8-9.3c0-18.7,0-37.3,0-56
			C0.1,109.9,0.4,106.8,2,103.9z"/>
		<path class="st2" d="M5.1,77c-0.9,0.3-1.6,0.8-2,1.1c-0.1,1-0.2,2-0.4,3C3,87.4,3.2,94,3.2,100.9c0,3.7-0.1,7.2-0.2,10.7
			c-0.9,1-1.9,2-2.8,3.1c0-11.3,0.1-22.6,0.1-33.9c-0.2-0.9-0.4-2.3,0-3.8c0.7-2.7,2.8-4.1,3.9-4.9c13-9.5,25.6-19.6,38.3-29.4
			c1.4-1.1,2.2-2.5,2.5-4.2c0.2-0.8-0.1-1.9,0.3-2.4c6-8.6,0.7-17.6,1.2-26.4c0.1-2.8,0.4-5.3,3.4-5.6c3.4-0.4,7.6-3.5,10,1.8
			c1.8,4.1,3.6,8.2,5.1,12.5c1,3,2.2,4.2,5.4,2.5c2.2-1.1,4.7-1.5,7.6-2.4c-1.3-4.3-3.6-8.3-3.4-12.7c0.2-7.3,5.9-4.8,9.9-5.5
			c-2.7,2.7-7.2,4.6-5,9.9c2,4.8,3.3,9.9,6,14.5c1,1.7,3,3.9,0.4,5.6c-2.7,1.8-4.6-0.2-6-2.5c-0.5-4.4-3.7-3.7-6.3-2.9
			c-3.4,1.1-2.6,3.6-1.4,6.1c-2.6,0.4-4-1-5.2-3c-3.1-4.8-5.6-9.9-7.8-15.1c-1.4-3.3-3.5-5.4-7.8-5.8c-0.8,9.4-0.6,18.4,2,27.2
			c-4.5,2.7-5.1,7.9-7.3,12c-1.2-0.2-1.8,0.6-2.6,1.2c-5.8,4.9-11.5,9.8-17.6,14.3c-6.7,4.9-13.2,10-19.8,15.1
			C5.8,76.8,5.4,76.8,5.1,77z"/>
		<path class="st3" d="M5.1,77c0.3-0.1,0.7-0.1,1-0.2c1.4,2,3.2,1.2,4.9,0.7c16.4-4.7,33.4-4.3,50.1-6.6c8.2-1.1,16.6-0.1,24.5-3.3
			c3-0.1,2.2,2.2,2.3,3.8C88,76.1,88,80.9,88,85.7c0,2.4,0,4.8,0,7.2c-0.2,0.4-0.4,0.9-0.6,1.3c-27.3,3.6-54.5,7.3-82.4,11
			C5.1,95.4,5.1,86.2,5.1,77z"/>
		<path class="st3" d="M115.5,66.2c-2.2-4.2-1.1-7.2,3.3-8.9c1.3,4.1,4.8,3.7,7.8,3.5c11.3-0.6,22.4-2.4,33.5-4.5
			c1.2,1.3,1.5,2.9,1.5,4.5c-0.1,11.6-0.1,23.2-0.1,34.7c0,1.3,0,2.7-1.4,3.4c-2.3-0.5-2.5-2.2-2.5-4.2c0-3.6,0-7.1,0-11.4
			c-11.3,1.2-21.5,2.3-31.8,3.4C122.4,80,118.9,73.1,115.5,66.2z"/>
		<path class="st1" d="M125.8,86.9c10.3-1.1,20.6-2.2,31.8-3.4c0,4.3,0,7.8,0,11.4c0,1.9,0.1,3.7,2.5,4.2c-2.3,1.4-2,3.6-2,5.7
			c0,11.6,0,23.3-0.1,34.9c0,1.6,0.6,3.3-1.4,5.4c-11.4-18.8-20.1-38.6-30.6-57.4C125.9,87.4,125.9,87.1,125.8,86.9z"/>
		<path class="st4" d="M85.6,67.5c-7.9,3.2-16.3,2.2-24.5,3.3c-16.7,2.3-33.7,1.9-50.1,6.6c-1.7,0.5-3.5,1.4-4.9-0.7
			c6.6-5,13.1-10.2,19.8-15.1c6.1-4.5,11.8-9.4,17.6-14.3c0.8-0.6,1.4-1.4,2.6-1.2c5.3,10.5,15.9,13.5,25.6,17.4
			C76.1,65.4,80.9,66.3,85.6,67.5z"/>
		<path class="st2" d="M98.8,45.8c-6.3,2.7-12.9,3.1-19.4,3.3c-2.7,0.1-5.3-2.4-5.2-5.8c0.1-3.3,3.2-2.8,5.3-3.2
			c2.9-0.5,5.9-0.6,8.9-1.1C93.6,38.3,97.1,40.3,98.8,45.8z"/>
		<path class="st5" d="M72.2,30.9c-1.2-2.4-2-5,1.4-6.1c2.6-0.8,5.8-1.5,6.3,2.9C77.3,28.8,74.8,29.8,72.2,30.9z"/>
		<path class="st1" d="M88,93c0-2.4,0-4.8,0-7.2c1.2,0.9,1,2.2,1.1,3.4C89.1,90.5,89.6,92,88,93z"/>
		<path class="st4" d="M160.2,56.3c-11.1,2.1-22.2,4-33.5,4.5c-3,0.2-6.5,0.5-7.8-3.5c0.5-0.6,1-1.4,1.6-1.9
			c6.4-5.3,9.1-11.4,4.9-19.4c-0.6-1.2-0.1-2.9-0.1-4.9c12,5.8,23.4,12.1,32.9,21.3C159.2,53.5,160.1,54.7,160.2,56.3z"/>
	</g>
</g>
<path class="st2" d="M46,46.2c1,1.8,2.6,4.3,5.2,6.8c0.9,0.9,3,2.9,7.7,5.4c1.9,1,5.4,2.9,14.8,5.9c3.1,1,7.3,2.3,12.3,3.6
	c0.7,8.7,1.4,17.3,2.1,26c0.6-0.1,1.3-0.2,1.9-0.2c-0.7-8.7-1.4-17.5-2.1-26.2c-0.6-0.6-1.5-1.5-2.8-2.3c-0.1-0.1-0.4-0.2-0.8-0.4
	c-1.7-0.9-3.6-1.1-15.9-6c-6.3-2.5-8.6-3.5-11.2-5.3c-4.9-3.3-8.1-7.2-9.9-9.9C46.8,44.5,46.4,45.3,46,46.2z"/>
<path class="st2" d="M126.5,88.7c-0.4,0.7-0.8,1.5-1.2,2.2c-3.6-7.8-7.3-15.6-10.9-23.3c0.4-0.5,0.8-0.9,1.1-1.4
	C119.2,73.7,122.8,81.2,126.5,88.7z"/>
</svg>
