<?xml version="1.0" encoding="utf-8"?>
<!-- Generator: Adobe Illustrator 28.0.0, SVG Export Plug-In . SVG Version: 6.00 Build 0)  -->
<svg version="1.1" id="Layer_1" xmlns="http://www.w3.org/2000/svg" xmlns:xlink="http://www.w3.org/1999/xlink" x="0px" y="0px"
	 viewBox="0 0 328.4 311.9" style="enable-background:new 0 0 328.4 311.9;" xml:space="preserve">
<style type="text/css">
	.st0{fill:#83C5A9;}
</style>
<path id="path4" class="st0" d="M32.8,0C14.7-0.1,0,14.6,0,32.6c0,0.1,0,0.1,0,0.2V197c0,18.1,14.7,32.8,32.8,32.8h131.4v82.1
	l49.3-49.3l49.3,49.3v-82.1h32.8c18.1,0,32.8-14.7,32.8-32.8V32.8c0-18.1-14.7-32.8-32.8-32.8H32.8 M164.2,32.8l49.3,32.8l49.3-32.8
	v57.5l49.3,24.7l-49.3,24.6v57.5l-49.3-32.8l-49.3,32.8v-57.5L114.9,115l49.3-24.7V32.8 M32.8,32.8h82.1v32.8H32.8V32.8 M32.8,98.5
	h49.3v32.8H32.8V98.5 M32.8,164.3h82.1v32.8H32.8V164.3z"/>
</svg>
