<?xml version="1.0" encoding="utf-8"?>
<!-- Generator: Adobe Illustrator 28.0.0, SVG Export Plug-In . SVG Version: 6.00 Build 0)  -->
<svg version="1.1" id="Layer_1" xmlns="http://www.w3.org/2000/svg" xmlns:xlink="http://www.w3.org/1999/xlink" x="0px" y="0px"
	 viewBox="0 0 29.1 29.1" style="enable-background:new 0 0 29.1 29.1;" xml:space="preserve">
<style type="text/css">
	.st0{fill:#8BC34A;}
</style>
<g>
	<g>
		<path class="st0" d="M14.5,0c-3.8,0-7.3,1.4-10,4C1.8,6.6,0.2,10.1,0,13.8c0,0.2,0.1,0.4,0.2,0.5c0.1,0.1,0.3,0.2,0.5,0.2h3.1
			c0.4,0,0.7-0.3,0.7-0.6c0.3-5.3,4.7-9.4,10-9.4c5.5,0,10,4.5,10,10s-4.5,10-10,10c-1.3,0-2.5-0.2-3.6-0.7l1.2-1.1
			c0.2-0.2,0.3-0.4,0.2-0.7c0-0.2-0.2-0.4-0.5-0.5l-7.8-2.3c-0.2-0.1-0.5,0-0.7,0.1c-0.2,0.2-0.3,0.4-0.2,0.7l1.7,7.7
			c0,0.2,0.2,0.4,0.5,0.5c0.2,0.1,0.5,0,0.7-0.1l1.3-1.1c2.2,1.3,4.7,2,7.3,2c8,0,14.6-6.5,14.6-14.6C29.1,6.5,22.6,0,14.5,0z"/>
		<path class="st0" d="M13.5,16.5h8.2c0.2,0,0.3-0.2,0.3-0.3V14c0-0.2-0.2-0.3-0.3-0.3h-5.8V7.4c0-0.2-0.2-0.3-0.3-0.3h-2.1
			c-0.2,0-0.3,0.2-0.3,0.3v8.7C13.1,16.3,13.3,16.5,13.5,16.5z"/>
	</g>
</g>
</svg>
