<?xml version="1.0" encoding="utf-8"?>
<!-- Generator: Adobe Illustrator 28.0.0, SVG Export Plug-In . SVG Version: 6.00 Build 0)  -->
<svg version="1.1" id="Layer_1" xmlns="http://www.w3.org/2000/svg" xmlns:xlink="http://www.w3.org/1999/xlink" x="0px" y="0px"
	 viewBox="0 0 33 31.7" style="enable-background:new 0 0 33 31.7;" xml:space="preserve">
<style type="text/css">
	.st0{fill:#5C8DBC;}
</style>
<g>
	<path class="st0" d="M23.6,15.6c0.1,0.1,0.1,0.2,0.1,0.2l0,0c0,0,0,0.1,0.1,0.2l-0.1,0c0,0,0,0,0,0c0,0,0,0.1,0,0.1
		c0,0-0.1,0-0.1,0c0,0-0.1,0-0.1,0c0,0,0,0,0,0s0,0,0,0l0,0l0,0.1c0,0,0,0.1,0,0.1c0,0.1,0,0.1-0.1,0.1c-0.3,0-0.5,0-0.7,0
		c-0.2,0-0.5,0-0.7,0c-0.3,0-0.6,0-0.9,0c-0.3,0-0.6,0-0.9,0c0.1,0.5,0.1,1.1,0.2,1.6c0.1,0.5,0.2,0.9,0.3,1.2c0,0.1,0,0.1,0,0.2
		c0,0.1,0,0.1,0,0.2c0,0.1,0,0.2-0.1,0.3c-0.1,0.1-0.1,0.1-0.2,0.2c-0.1,0-0.2,0.1-0.2,0.1c-0.1,0-0.2,0.1-0.2,0.1
		c0,0,0-0.1-0.1-0.1c0,0,0,0,0-0.1c0,0.1-0.1,0.2-0.1,0.3c-0.1,0-0.1,0.1-0.2,0.1c-0.1,0-0.1,0-0.2,0c-0.1,0-0.1,0-0.2,0.1
		c-0.1,0-0.1-0.1-0.2-0.1c-0.1,0-0.1-0.1-0.2-0.1c-0.1-0.6-0.1-1.3-0.2-1.9s-0.1-1.3-0.2-1.9c-0.1,0-0.3,0-0.4,0c-0.1,0-0.2,0-0.4,0
		c-0.3,0-0.6,0-0.9,0s-0.6,0-0.9,0c-0.1-0.1-0.2-0.2-0.2-0.3c-0.1-0.1-0.1-0.2-0.2-0.3c0,0,0,0,0,0c0,0,0,0,0,0
		c-0.1-0.1-0.2-0.2-0.2-0.2c0,0,0-0.1,0-0.1c0,0,0-0.1,0-0.1s0,0,0-0.1s0-0.1,0-0.2c0-0.1,0-0.1,0-0.2c0,0,0-0.1,0.1-0.1
		c0.1,0,0.2-0.1,0.3-0.1c0.1,0,0.3,0,0.4,0c0.2,0,0.3,0,0.5,0c0.2,0,0.5,0,0.8,0s0.6,0,1,0c-0.1-0.3-0.1-0.7-0.2-1.1
		c-0.1-0.4-0.1-0.7-0.1-1c0-0.1,0-0.2,0.1-0.3s0.2-0.2,0.4-0.2v-0.1C18.7,12,18.9,12,19,12c0.1,0,0.2-0.1,0.2-0.1
		c0.1,0,0.2,0,0.3,0.1c0.1,0,0.1,0.1,0.2,0.1s0.1,0.1,0.1,0.2c0,0.2,0,0.4,0.1,0.6c0,0.2,0,0.4,0.1,0.6c0,0.2,0.1,0.4,0.1,0.6
		c0,0.2,0.1,0.5,0.1,0.7c0.4,0,0.7,0.1,1.1,0.1c0.3,0,0.6,0,0.9,0.1c0.3,0,0.5,0,0.7,0c0.2,0,0.3,0,0.4,0l0.1,0.1
		c0.2,0,0.4,0,0.4,0.1c0,0,0,0.1,0,0.1c0,0,0,0.1,0,0.1C23.6,15.5,23.6,15.6,23.6,15.6z"/>
	<path class="st0" d="M32.9,15.6c0.1,0.1,0.1,0.2,0.1,0.2l0,0c0,0,0,0.1,0.1,0.2l-0.1,0c0,0,0,0,0,0c0,0,0,0.1,0,0.1
		c0,0-0.1,0-0.1,0c0,0-0.1,0-0.1,0c0,0,0,0,0,0s0,0,0,0l0,0l0,0.1c0,0,0,0.1,0,0.1c0,0.1,0,0.1-0.1,0.1c-0.3,0-0.5,0-0.7,0
		c-0.2,0-0.5,0-0.7,0c-0.3,0-0.6,0-0.9,0c-0.3,0-0.6,0-0.9,0c0.1,0.5,0.1,1.1,0.2,1.6c0.1,0.5,0.2,0.9,0.3,1.2c0,0.1,0,0.1,0,0.2
		c0,0.1,0,0.1,0,0.2c0,0.1,0,0.2-0.1,0.3c-0.1,0.1-0.1,0.1-0.2,0.2c-0.1,0-0.2,0.1-0.2,0.1c-0.1,0-0.2,0.1-0.2,0.1
		c0,0,0-0.1-0.1-0.1c0,0,0,0,0-0.1c0,0.1-0.1,0.2-0.1,0.3c-0.1,0-0.1,0.1-0.2,0.1c-0.1,0-0.1,0-0.2,0c-0.1,0-0.1,0-0.2,0.1
		c-0.1,0-0.1-0.1-0.2-0.1c-0.1,0-0.1-0.1-0.2-0.1c-0.1-0.6-0.1-1.3-0.2-1.9c-0.1-0.6-0.1-1.3-0.2-1.9c-0.1,0-0.3,0-0.4,0
		c-0.1,0-0.2,0-0.4,0c-0.3,0-0.6,0-0.9,0c-0.3,0-0.6,0-0.9,0c-0.1-0.1-0.2-0.2-0.2-0.3c-0.1-0.1-0.1-0.2-0.2-0.3c0,0,0,0,0,0
		c0,0,0,0,0,0c-0.1-0.1-0.2-0.2-0.2-0.2c0,0-0.1-0.1-0.1-0.1c0,0,0-0.1,0-0.1c0,0,0,0,0-0.1s0-0.1,0-0.2c0-0.1,0-0.1,0-0.2
		c0,0,0-0.1,0.1-0.1c0.1,0,0.2-0.1,0.3-0.1c0.1,0,0.3,0,0.4,0c0.2,0,0.3,0,0.5,0c0.3,0,0.5,0,0.8,0c0.3,0,0.6,0,1,0
		c-0.1-0.3-0.1-0.7-0.2-1.1c-0.1-0.4-0.1-0.7-0.1-1c0-0.1,0-0.2,0.1-0.3c0-0.1,0.2-0.2,0.4-0.2v-0.1C28,12,28.1,12,28.2,12
		c0.1,0,0.2-0.1,0.2-0.1c0.1,0,0.2,0,0.3,0.1c0.1,0,0.1,0.1,0.2,0.1c0.1,0.1,0.1,0.1,0.1,0.2c0,0.2,0,0.4,0.1,0.6s0,0.4,0.1,0.6
		c0,0.2,0.1,0.4,0.1,0.6c0,0.2,0.1,0.5,0.1,0.7c0.4,0,0.7,0.1,1.1,0.1c0.3,0,0.6,0,0.9,0.1c0.3,0,0.5,0,0.7,0c0.2,0,0.3,0,0.4,0
		l0.1,0.1c0.2,0,0.4,0,0.4,0.1c0,0,0,0.1,0,0.1c0,0,0,0.1,0,0.1C32.8,15.5,32.8,15.6,32.9,15.6z"/>
</g>
<g>
	<path class="st0" d="M11.8,32c-1.8,0-3.3-0.2-4.5-0.7S5,30.1,4.1,29.3c-0.9-0.8-1.6-1.7-2.1-2.6c-0.5-1-0.9-1.9-1.2-2.9
		c-0.3-1-0.5-1.9-0.6-2.7c-0.1-0.9-0.1-1.5-0.1-2.1c0-1.3,0.2-2.6,0.5-3.9c0.3-1.4,0.7-2.7,1.2-3.9s1-2.4,1.6-3.4s1.2-1.8,1.8-2.4
		c0.4-0.4,0.9-0.9,1.4-1.5S7.8,2.6,8.5,2c0.6-0.6,1.3-1,2-1.4C11.1,0.2,11.8,0,12.5,0c0.4,0,1.1,0.1,1.9,0.4
		c0.8,0.3,1.6,0.7,2.4,1.3c0.8,0.6,1.5,1.4,2.2,2.4s1.1,2.2,1.3,3.5c0,0-0.1,0.1-0.1,0.1c0,0-0.1,0.1-0.2,0.2c0,0.4,0,0.6,0,0.8
		c-0.1-0.1-0.2-0.3-0.2-0.4c-0.5,0.8-1.1,1.2-1.7,1.2c-0.5,0-0.9-0.2-1.4-0.7c0,0.2-0.1,0.3-0.2,0.5c-0.1,0.2-0.1,0.3-0.2,0.5
		c-1.6,0-3-1.3-4-3.9c-0.1-0.3-0.3-0.5-0.4-0.6c-0.2-0.1-0.3-0.2-0.5-0.2c-0.4,0-0.7,0.2-0.8,0.5c-0.4,0.8-0.9,1.6-1.3,2.4
		S8.4,9.8,8,10.7s-0.7,1.8-0.9,2.8c-0.2,1-0.4,2-0.4,3c0,0.9,0.1,1.9,0.3,2.8c0.2,1,0.5,2,1,3.2h0.4c0.3,1,0.8,1.8,1.3,2.4
		c0.5,0.6,1.1,1,1.7,1.3c0.6,0.3,1.2,0.4,1.9,0.5c0.7,0.1,1.3,0.1,2,0.1c0.6,0,1.2-0.1,1.8-0.3c0.6-0.2,1.2-0.4,1.8-0.7
		c0.6-0.3,1.1-0.7,1.6-1.1c0.5-0.4,0.9-0.8,1.3-1.2c0-0.1,0-0.2,0.1-0.2c0,0,0.1,0,0.1,0c0,0,0,0,0.1,0c0.1,0,0.1-0.1,0.2-0.2
		c0,0.1,0,0.2,0,0.3c0,0.1,0,0.3,0,0.4c0.1,0,0.2-0.1,0.4-0.1s0.3,0,0.4,0c0.4,0,0.8,0.1,1.1,0.4c0.3,0.2,0.6,0.8,0.8,1.6
		c-0.9,1.4-1.9,2.5-3,3.4c-1.1,0.8-2.2,1.5-3.4,1.9c-1.2,0.4-2.3,0.7-3.5,0.9S12.9,32,11.8,32z"/>
</g>
</svg>
