<?xml version="1.0" encoding="utf-8"?>
<!-- Generator: Adobe Illustrator 28.0.0, SVG Export Plug-In . SVG Version: 6.00 Build 0)  -->
<svg version="1.1" id="Layer_1" xmlns="http://www.w3.org/2000/svg" xmlns:xlink="http://www.w3.org/1999/xlink" x="0px" y="0px"
	 viewBox="0 0 76.3 161.2" style="enable-background:new 0 0 76.3 161.2;" xml:space="preserve">
<style type="text/css">
	.st0{fill:#999999;}
</style>
<g>
	<path class="st0" d="M18.5,128.7c-4.8-2.8-4.8-9.8,0-12.6c4.8-2.8,10.9,0.7,10.9,6.3C29.5,128,23.4,131.5,18.5,128.7z M30.4,36.6
		l2.4,0.7c-1.4,3.4-9.1,22.2-15.7,30.7c4,14.3,6.5,45.1,6.5,45.1l9.4-35c-2.5-1.3-3.1-4.7-1.1-6.9c2.3-2.4,6.4-1.4,7.4,1.8
		c0.8,2.9-1.5,5.7-4.3,5.6l-9.4,35c0,0,17.9-26.8,28.2-35.8c-1-11.2,1.4-30.9,1.8-34.5l2.4,0.7c3.4,0.9,4.7-4.2,1.4-5l-27.7-7.4
		C28.4,30.7,27.1,35.7,30.4,36.6z"/>
</g>
</svg>
