<?xml version="1.0" encoding="utf-8"?>
<!-- Generator: Adobe Illustrator 28.0.0, SVG Export Plug-In . SVG Version: 6.00 Build 0)  -->
<svg version="1.1" id="Layer_1" xmlns="http://www.w3.org/2000/svg" xmlns:xlink="http://www.w3.org/1999/xlink" x="0px" y="0px"
	 viewBox="0 0 201.2 201.1" style="enable-background:new 0 0 201.2 201.1;" xml:space="preserve">
<style type="text/css">
	.st0{fill:#82AAFF;}
	.st1{fill:#89DDFF;}
</style>
<path class="st0" d="M42,108.9V8.4C42,3.8,38.3,0,33.6,0s-8.4,3.7-8.4,8.4v100.5H42z"/>
<path class="st1" d="M58.7,125.6H8.4c-4.6,0-8.4,3.7-8.4,8.4v33.5c0,4.6,3.7,8.4,8.4,8.4h16.8v16.8c0,4.6,3.7,8.4,8.4,8.4
	c4.7,0,8.4-3.7,8.4-8.4v-16.8h16.8c4.6,0,8.4-3.7,8.4-8.4V134C67.1,129.4,63.3,125.6,58.7,125.6z"/>
<path class="st0" d="M109,25.1V8.4c0-4.6-3.7-8.4-8.4-8.4c-4.6,0-8.4,3.7-8.4,8.4v16.8H109V25.1z"/>
<path class="st1" d="M134.1,50.3c0-4.6-3.7-8.4-8.4-8.4H75.5c-4.6,0-8.4,3.7-8.4,8.4v33.5c0,4.6,3.7,8.4,8.4,8.4h16.7v100.5
	c0,4.6,3.7,8.4,8.4,8.4c4.6,0,8.4-3.7,8.4-8.4V92.1h16.8c4.6,0,8.4-3.7,8.4-8.4L134.1,50.3L134.1,50.3z"/>
<path class="st0" d="M176,108.9V8.4c0-4.6-3.7-8.4-8.4-8.4s-8.4,3.7-8.4,8.4v100.5H176z"/>
<path class="st1" d="M192.7,125.6h-50.2c-4.6,0-8.4,3.7-8.4,8.4v33.5c0,4.6,3.7,8.4,8.4,8.4h16.7v16.8c0,4.6,3.7,8.4,8.4,8.4
	s8.4-3.7,8.4-8.4v-16.8h16.8c4.6,0,8.4-3.7,8.4-8.4V134C201.1,129.4,197.3,125.6,192.7,125.6z"/>
</svg>
