<?xml version="1.0" encoding="utf-8"?>
<!-- Generator: Adobe Illustrator 28.0.0, SVG Export Plug-In . SVG Version: 6.00 Build 0)  -->
<svg version="1.1" id="Layer_1" xmlns="http://www.w3.org/2000/svg" xmlns:xlink="http://www.w3.org/1999/xlink" x="0px" y="0px"
	 viewBox="0 0 430.4 516.4" style="enable-background:new 0 0 430.4 516.4;" xml:space="preserve">
<style type="text/css">
	.st0{fill:#42A5F5;}
</style>
<path class="st0" d="M381.9,167.2c0-3.2-1.1-6.4-3.5-9L278,49.7c-2.5-3.2-6.3-5.3-10.7-5.3H107.5c-16.4,0-31.2,6.7-42,17.5
	C54.7,72.5,48,87.5,48,103.8v309.3c0,16.3,6.7,31.2,17.5,42s25.6,17.5,42,17.5h215c16.3,0,31.1-6.7,41.9-17.5l0.1-0.1
	c10.8-10.8,17.5-25.7,17.5-42L381.9,167.2z M274.9,85.5c0,0,75.2,81.4,75.2,81.5h-30.9c-14.5-0.3-25.4-3.7-32.6-9.9
	c-6.9-5.9-10.8-14.8-11.7-26.2V85.5z"/>
</svg>
