<?xml version="1.0" encoding="utf-8"?>
<!-- Generator: Adobe Illustrator 28.0.0, SVG Export Plug-In . SVG Version: 6.00 Build 0)  -->
<svg version="1.1" id="Layer_1" xmlns="http://www.w3.org/2000/svg" xmlns:xlink="http://www.w3.org/1999/xlink" x="0px" y="0px"
	 viewBox="0 0 28 26.4" style="enable-background:new 0 0 28 26.4;" xml:space="preserve">
<style type="text/css">
	.st0{fill:#478CBF;}
	.st1{fill:#FFFFFF;}
	.st2{fill:#414042;}
</style>
<path class="st0" d="M26.2,18.2v1.7c0,0.2-0.1,0.3-0.3,0.4l-2.6,0.8c-0.1,0-0.2,0-0.3-0.1c-0.1-0.1-0.2-0.2-0.2-0.3v-1.8l-2.4,0.5
	v1.8c0,0.2-0.1,0.3-0.3,0.4l-3.5,0.5c0,0,0,0-0.1,0c-0.2,0-0.4-0.2-0.4-0.4c0,0,0,0,0,0v-1.9l-1.8,0H14l-1.8,0v1.9
	c0,0.2-0.2,0.4-0.4,0.4c0,0,0,0,0,0c0,0,0,0-0.1,0l-3.5-0.5c-0.2,0-0.3-0.2-0.3-0.4v-1.8l-2.4-0.5v1.8c0,0.1-0.1,0.2-0.2,0.3
	c-0.1,0.1-0.2,0.1-0.3,0.1l-2.6-0.8c-0.2-0.1-0.3-0.2-0.3-0.4v-1.6l-1.6-0.5c-0.1,0.3-0.1,0.7-0.1,1c0,4.3,6.1,7.6,13.6,7.7h0
	c7.5,0,13.6-3.4,13.6-7.7c0-0.3,0-0.6-0.1-1L26.2,18.2z"/>
<path class="st0" d="M1.7,10.6v6.7l0.9,0.3c0.2,0.1,0.3,0.2,0.3,0.4v1.6l1.9,0.6v-1.7c0-0.2,0.2-0.4,0.4-0.4c0,0,0,0,0.1,0l3.2,0.6
	c0.2,0,0.3,0.2,0.3,0.4v1.8l2.8,0.4v-1.9c0-0.2,0.2-0.4,0.4-0.4c0,0,0,0,0,0l0,0l2.3,0l2.3,0c0.2,0,0.4,0.2,0.4,0.4c0,0,0,0,0,0v1.9
	l2.8-0.4v-1.8c0-0.2,0.1-0.3,0.3-0.4l3.2-0.6c0.2,0,0.4,0.1,0.4,0.3c0,0,0,0,0,0.1v1.7l1.9-0.6V18c0-0.2,0.1-0.3,0.3-0.4l0.6-0.2
	v-6.8h0C26.9,9.8,27.5,9,28,8.1c-0.7-1.2-1.6-2.3-2.5-3.3c-0.9,0.4-1.7,0.9-2.5,1.4c-0.4-0.4-0.8-0.7-1.3-1.1
	c-0.4-0.3-0.9-0.6-1.4-0.9c0.1-1,0.2-2,0.2-3.1c-1.2-0.6-2.4-1-3.7-1.3c-0.5,0.9-1,1.8-1.4,2.7c-0.5-0.1-1-0.1-1.5-0.1h0
	c-0.5,0-1,0-1.5,0.1c-0.4-0.9-0.9-1.8-1.4-2.7C9.9,0.3,8.6,0.7,7.4,1.3c0,1,0.1,2.1,0.2,3.1C7.2,4.6,6.7,4.9,6.3,5.2
	C5.8,5.6,5.4,5.9,5,6.3c-0.8-0.5-1.6-1-2.5-1.4c-1,1-1.8,2.1-2.5,3.3C0.5,9,1.1,9.8,1.7,10.6L1.7,10.6z"/>
<path class="st1" d="M10.5,13.8c0,1.5-1.2,2.7-2.7,2.7c-1.5,0-2.7-1.2-2.7-2.7c0-1.5,1.2-2.7,2.7-2.7l0,0
	C9.2,11.1,10.5,12.3,10.5,13.8"/>
<path class="st2" d="M9.8,14c0,1-0.8,1.8-1.8,1.8S6.2,15,6.2,14c0-1,0.8-1.8,1.8-1.8C9,12.1,9.8,13,9.8,14C9.8,14,9.8,14,9.8,14"/>
<path class="st1" d="M14.2,16.8c-0.5,0-0.9-0.3-0.9-0.8v-2.5c0-0.5,0.5-0.8,1-0.8c0.4,0,0.8,0.4,0.8,0.8V16
	C15,16.5,14.6,16.8,14.2,16.8"/>
<path class="st1" d="M17.9,13.8c0,1.5,1.2,2.7,2.7,2.7c1.5,0,2.7-1.2,2.7-2.7c0-1.5-1.2-2.7-2.7-2.7l0,0
	C19.1,11.1,17.9,12.3,17.9,13.8"/>
<path class="st2" d="M18.5,14c0,1,0.8,1.8,1.8,1.8s1.8-0.8,1.8-1.8s-0.8-1.8-1.8-1.8C19.3,12.1,18.5,13,18.5,14
	C18.5,14,18.5,14,18.5,14"/>
</svg>
