<?xml version="1.0" encoding="utf-8"?>
<!-- Generator: Adobe Illustrator 28.0.0, SVG Export Plug-In . SVG Version: 6.00 Build 0)  -->
<svg version="1.1" id="Layer_1" xmlns="http://www.w3.org/2000/svg" xmlns:xlink="http://www.w3.org/1999/xlink" x="0px" y="0px"
	 viewBox="0 0 126.6 288.6" style="enable-background:new 0 0 126.6 288.6;" xml:space="preserve">
<style type="text/css">
	.st0{fill:#E64A19;}
</style>
<path class="st0" d="M126.6,72C108.3,85.4,10.6,84.7,0,71.3c2.7-4.4,44.2-3.1,42.2-8.5c-2.8-9.8-3-20.2-10.5-28.1L5.7,5.9L13,0
	c0,0,13.6,13.8,18,17.9c11.6,10.9,20.4,23.2,22.5,39.4c0.7,7,4.2,7.7,9.8,8.5C93.7,67.9,123.4,67.3,126.6,72L126.6,72z M22.5,219.7
	c-5.6-1.4-7.7-4.9-7.7-10.6L0,77.7c45.6,12.4,91.4,10.7,126.6,0l-12.7,130.7c-0.7,7-4.9,10.5-11.3,12
	C68.4,226,49.1,226.7,22.5,219.7L22.5,219.7z M102,237.3c-1.4,11.3-2.1,23.2-2.8,35.2c-0.7,4.2-2.1,6.3-5.6,7.7l-25.3,8.4H54.5
	c0,0-16.4-7-22.7-9.8c-1.4-0.7-2.8-2.8-3.5-4.9c-3-25.3,1-41.3-7.7-50.6v-1.4c29.5,7.1,59.1,7.1,89.3-1.4
	C102.9,230.7,102.3,234.5,102,237.3L102,237.3z"/>
</svg>
