<?xml version="1.0" encoding="utf-8"?>
<!-- Generator: Adobe Illustrator 28.0.0, SVG Export Plug-In . SVG Version: 6.00 Build 0)  -->
<svg version="1.1" id="Layer_1" xmlns="http://www.w3.org/2000/svg" xmlns:xlink="http://www.w3.org/1999/xlink" x="0px" y="0px"
	 viewBox="0 0 15.8 19.6" style="enable-background:new 0 0 15.8 19.6;" xml:space="preserve">
<style type="text/css">
	.st0{fill:#06ADD9;}
</style>
<g>
	<path class="st0" d="M8.8,7.3h4.7L8.8,2.6V7.3 M2.8,1.3h6.8l5.1,5.1v10.1c0,1-0.8,1.7-1.7,1.7H2.8c-1,0-1.7-0.8-1.7-1.6l0,0V3
		C1.1,2.1,1.9,1.3,2.8,1.3 M2.8,16.6h10.1V9.8l-3.3,3.4l-1.7-1.7L2.8,16.6 M4.5,7.3c-1,0-1.7,0.8-1.7,1.7s0.8,1.7,1.7,1.7
		S6.3,10,6.3,9C6.2,8,5.5,7.3,4.5,7.3z"/>
</g>
</svg>
