<?xml version="1.0" encoding="utf-8"?>
<!-- Generator: Adobe Illustrator 28.0.0, SVG Export Plug-In . SVG Version: 6.00 Build 0)  -->
<svg version="1.1" id="Layer_1" xmlns="http://www.w3.org/2000/svg" xmlns:xlink="http://www.w3.org/1999/xlink" x="0px" y="0px"
	 viewBox="0 0 374.3 419.9" style="enable-background:new 0 0 374.3 419.9;" xml:space="preserve">
<style type="text/css">
	.st0{fill:#99425B;}
	.st1{fill:none;}
</style>
<path class="st0" d="M324.9,208.1c-0.5,0.3-18.3-2.7-40.7-4.2c-18.2-1.2-39.5-1.2-56.7,0c-14,0.9-32.4-6.1-34.6,2.3
	c-8.2,31.4-26,58.7-48.5,79.9c-17,16-36.4,28.1-57.4,35.6c-25-12.8-36.8-41.4-26.2-66.4c8.4-19.9,18.3-41.7,0.1-46.7
	c-13.2-3.6-20.5,9-25.5,22.5C25.7,257,7.2,283.8,1.9,315.6c-5.6,33.5,0,69.1,29,89.3c67.6,46.8,140.9-29,218.2-48.1
	c28-6.9,58.8-5.8,83.5-20.1c18.5-10.7,30.8-28.5,34.2-48.5C372.4,256,355.7,224.1,324.9,208.1z"/>
<path class="st1" d="M192.9,206.2c-8.2,31.4-26,58.7-48.5,79.9c-17,16-36.4,28.1-57.4,35.6c-25-12.8-36.8-41.4-26.2-66.4
	c8.4-19.9,18.3-41.7,0.1-46.7c-13.2-3.6-20.5,9-25.5,22.5C25.7,257,7.2,283.8,1.9,315.6c-5.6,33.5,0,69.1,29,89.3
	c67.6,46.8,140.9-29,218.2-48.1c28-6.9,58.8-5.8,83.5-20.1c18.5-10.7,30.8-28.5,34.2-48.5c5.6-32.1-11.1-64.1-41.9-80"/>
<path class="st0" d="M254.9,81.2L309.2,192L374.3,0h-239l65,191.6L254.9,81.2z"/>
<path class="st1" d="M254.9,81.2L309.2,192L374.3,0h-239l65,191.6L254.9,81.2z"/>
<circle class="st0" cx="189" cy="206.6" r="40.9"/>
<circle class="st1" cx="189" cy="206.6" r="40.9"/>
<circle class="st0" cx="322.4" cy="206.6" r="40.9"/>
<circle class="st1" cx="322.4" cy="206.6" r="40.9"/>
<circle class="st0" cx="55.1" cy="206.9" r="40.9"/>
<circle class="st1" cx="55.1" cy="206.9" r="40.9"/>
</svg>
