<?xml version="1.0" encoding="utf-8"?>
<!-- Generator: Adobe Illustrator 28.0.0, SVG Export Plug-In . SVG Version: 6.00 Build 0)  -->
<svg version="1.1" id="Layer_1" xmlns="http://www.w3.org/2000/svg" xmlns:xlink="http://www.w3.org/1999/xlink" x="0px" y="0px"
	 viewBox="0 0 749.7 708.1" style="enable-background:new 0 0 749.7 708.1;" xml:space="preserve">
<style type="text/css">
	.st0{fill:#F24949;}
</style>
<path class="st0" d="M228.6,474.8l48,0.2l0.5,93.6l-44.7,0.8l-2.4-29l-0.2-32.7L228.6,474.8z M587.7,472.4v101.7l-40.3,2.9
	l-1.6-53.8l-4.9-49.7L587.7,472.4z M107.3,472.1l67.5,3.5l-6.1,40.1v38.1l4.3,16.3l-65.3,3L107.3,472.1z M426.8,469.5l39.3,2.5
	l-1.6,60.5l5.7,48.1l-41.9-1.4L426.8,469.5L426.8,469.5z M301.4,203.9l-1.4,8.2l6.2,7.3l-0.5,12.1l5.5,8.4l-1.5,10.2l0.8,1.1
	l-57.7,2.3l0.6-4.8l-20.4-11.1l-0.7-10.8l9-0.4l0.9-18.7L301.4,203.9z M463.2,189.5l-0.3,16.4l12.7,0.5l-0.5,10l-24.6,16.2l-2.7,8
	l-58.1,2.8l0.3-5.7l3.5-5.6l0.3-4.8l0-7.1l2.1-4.9l1-5v-2.9l2.5-10.1L463.2,189.5z M741,0.1l-2.5,1.2c-74.3,36-160.6,64.7-251,81.8
	l-6.5,1c-57.9,7.5-142.3,15-217.6,19.4c-33.8,2.1-67.7,3.3-101.6,3.7c-3.6,0.2-7.9,0.2-12.3,0.2c-17.2,0-34-1.3-50.5-3.9l1.8,0.2
	c-30-7.2-55-15-79.3-24.3l4.3,1.5L18,77.8l10.8,36.6L0,139.7l7.8,13.6l13.7,1l32.9,4.1l5,16.1l19.8,1.8l9.9,33.7l2.9,0.2
	c0,0,41.8,3.6,55,3.6c11.4,0,29.1-1.2,33.5-1.6l0.7,12.4l9,1.7v9.9l-25,22.2l4.9,0.9c-4.4,0.3-7.1,0.6-15.6,0.9
	c-4.4,0.3-9.7,0.4-14.9,0.4c-8,0-15.9-0.3-23.7-1.1l1,0.1c-6.1-1.1-13.8-2.1-21.5-2.6l-0.7,0h-1.8l-3.8,4l-1.4,13.9h4.8l1.7,34.7
	l91.6-3.5l-6.4,115l-0.6,10.9l-70-4l-0.6-23.8h16.8l1.8-13.1l14.5-3.3l7-9.7l-66-15.9l-53.3,15.8l14.5,12.1h5.2l0.8,10.4l15.4,0.9
	V425l-19.1,4.9l5.9,12.6l3.3,2.1v25.8h10.7v103l-17.7,2.7l3,39l10.4,1.8L59.9,690l56.3,1l-10-72l61.9-1.5l-4.4,34l-7.8,32.2l81.5,1
	l0.9-71.2l41.3-3.8l-2.2,40.4l-2,30.9h51l-1.6-71.9l5.5,0.8l2.1-43.5h-7.6L323,556l-4.1-40.3l1.5-42.6h9.2v-36.9l-11.4,0.9l1.2-25.2
	l13.4-1.4l0.7-11l5.4-0.8l15.9-12.1l-57.1-11.7l-53.4,11.9l8.9,14.6l7.5-0.6l1.7-0.1l1,13.8l12.8-0.6l0.1,21.1l-47.7-1.1l1.6-27.4
	l1.9-28.9v-37.9l1.5-36l108.9-5.5l129.8-7.5l1,21l-4.8,60.9l-2,52.9l-41.2-0.7l-0.2-31.8l17.9-0.6l0.9-11.6l8.4-1.3l-0.4-1.8
	l4.8-0.3l9-12.1l-62.8-14.7l-62.1,13.3l8,14.1l4.4-0.3v2.8h7.7v12.6l16.4,0.2l-0.2,26.8H361l-0.4,15.8l5.9,0.7l-0.6,30.6l12.3,0.6
	l-1.4,112.9l-16.4,3.4l0.5,13.2h5.5v30.8h9l-2.2,37.7l-3.5,41l67.8,1.8l-2.2-36.6l-4.3-26.5l-0.7-18.5l41.4-0.8l-1.2,31.3l-0.3,41.5
	l32.3,2.5l39.1-1.5l16.7-4.9l-7.8-23.8l-1.6-31.2l-2.5-18.2l38.5-1.4l-1.8,23.2l-0.2,47.3l23,2.2l19.7-0.5l13-4.1l-5.8-44.5
	l-1.5-26.9l7.8-0.8l0.2-28l2.5-0.5l-0.9-13.4h-9.5l-1.5-16.5l-0.7-84.1l6.9-0.2V445l3,0.4V431l-10.4-0.9l0.2-26.1l17.8-1.6l-1-11.3
	l8.1-0.6l-0.8-3.7l18.1-9l-64.2-12.9l-58.7,11.9l7.2,13.5l7-0.6l0.4,2.4h6.3l0.3,13.3l17.1-0.2l1.1,24.1l-52.2-0.4l-6.6-45.5
	l-5.5-25.8l-4.5-45.9l2.3-23.3l120.2-9.1l0.4-41.1l6.3-1.6l-0.7-11.9l-7.5-4.3h-1.1l-11.1,1.6l-24.8,3.6
	c-16.9,2.5-33.8,4.7-50.8,6.8L546,233l-0.5-5.6L521,214.6l0.2-8.6l8.5-0.3l0.6-21c2.8-0.2,11-0.8,24.1-1.9c16.1-1.2,30.7-3.2,44.9-6
	l-2.4,0.4c18.7-4.4,45.3-8.8,45.3-8.8l2.4-0.4l12.8-34.6l25.2-7.3l2-5.8l55.6-15.4l9.5-7.9l-22.4-48.8l1.5-7.4l10.8-5.6L748.8,7
	L741,0L741,0.1z"/>
</svg>
