<?xml version="1.0" encoding="utf-8"?>
<!-- Generator: Adobe Illustrator 28.0.0, SVG Export Plug-In . SVG Version: 6.00 Build 0)  -->
<svg version="1.1" id="Layer_1" xmlns="http://www.w3.org/2000/svg" xmlns:xlink="http://www.w3.org/1999/xlink" x="0px" y="0px"
	 viewBox="0 0 240 235.8" style="enable-background:new 0 0 240 235.8;" xml:space="preserve">
<style type="text/css">
	.st0{fill:#F37726;}
</style>
<path class="st0" d="M120,198c-51.4,0-96.6-18.5-120-45.7c9.1,24.5,25.4,45.7,46.9,60.6c21.5,14.9,47,22.9,73.1,22.9
	s51.7-8,73.1-22.9c21.5-14.9,37.8-36.1,46.9-60.6C216.7,179.6,171.7,198,120,198z"/>
<path class="st0" d="M120,37.8c51.4,0,96.6,18.5,120,45.7c-9.1-24.5-25.4-45.7-46.9-60.6S146.1,0,120,0S68.3,8,46.9,22.9
	C25.4,37.8,9.1,59,0,83.5C23.4,56.2,68.3,37.8,120,37.8z"/>
</svg>
