<?xml version="1.0" encoding="utf-8"?>
<!-- Generator: Adobe Illustrator 28.0.0, SVG Export Plug-In . SVG Version: 6.00 Build 0)  -->
<svg version="1.1" id="Layer_1" xmlns="http://www.w3.org/2000/svg" xmlns:xlink="http://www.w3.org/1999/xlink" x="0px" y="0px"
	 viewBox="0 0 15 14.8" style="enable-background:new 0 0 15 14.8;" xml:space="preserve">
<style type="text/css">
	.st0{fill-rule:evenodd;clip-rule:evenodd;fill:#CB3837;}
	.st1{fill:#EAEA2D;}
</style>
<g>
	<path class="st0" d="M2.1,3.3c0-0.7,0.5-1.2,1.2-1.2h6c0.7,0,1.2,0.5,1.2,1.2v1.5c0.7-0.3,1.4-0.3,2.1,0V1.2c0-0.7-0.5-1.2-1.2-1.2
		H1.2C0.5,0,0,0.5,0,1.2v10.3c0,0.7,0.5,1.2,1.2,1.2H7v-4c0-0.6,0.5-1.1,1.1-1.1h0.4V5.2c0-0.6-0.5-1.1-1.1-1.1S6.3,4.7,6.3,5.2v4.1
		c0,0.7-0.5,1.2-1.2,1.2H3.3c-0.7,0-1.2-0.5-1.2-1.2V3.3z"/>
	<path class="st1" d="M14.2,9.2c0.2,0,0.4,0.1,0.6,0.2C15,9.6,15,9.7,15,10v4c0,0.2-0.1,0.4-0.2,0.6c-0.2,0.2-0.3,0.2-0.6,0.2H8.7
		c-0.2,0-0.4-0.1-0.6-0.2c-0.2-0.2-0.2-0.3-0.2-0.6v-4c0-0.2,0.1-0.4,0.2-0.6c0.2-0.1,0.4-0.2,0.6-0.2h0.8V8.1c0-0.5,0.2-1,0.6-1.4
		s0.9-0.6,1.4-0.6s1,0.2,1.4,0.6s0.6,0.9,0.6,1.4v1.2h0.7V9.2z M10.3,8.1v1.2h2.4V8.1c0-0.3-0.1-0.6-0.3-0.8S11.9,7,11.6,7
		S11,7.1,10.8,7.3C10.4,7.4,10.3,7.7,10.3,8.1z M11.9,13.1c0.2-0.1,0.4-0.2,0.6-0.4s0.2-0.4,0.2-0.7s-0.1-0.6-0.3-0.8
		s-0.5-0.3-0.8-0.3S11,11,10.8,11.2s-0.3,0.5-0.3,0.8c0,0.2,0.1,0.5,0.2,0.7s0.3,0.4,0.6,0.4V14h0.8v-0.9H11.9z"/>
</g>
</svg>
