<?xml version="1.0" encoding="utf-8"?>
<!-- Generator: Adobe Illustrator 28.0.0, SVG Export Plug-In . SVG Version: 6.00 Build 0)  -->
<svg version="1.1" id="Layer_1" xmlns="http://www.w3.org/2000/svg" xmlns:xlink="http://www.w3.org/1999/xlink" x="0px" y="0px"
	 viewBox="0 0 34.4 32" style="enable-background:new 0 0 34.4 32;" xml:space="preserve">
<style type="text/css">
	.st0{fill:#ED6C47;}
	.st1{fill:#FF8F6B;}
	.st2{fill:#D35230;}
	.st3{opacity:0.1;enable-background:new    ;}
	.st4{opacity:0.2;enable-background:new    ;}
	.st5{fill:url(#SVGID_1_);}
	.st6{fill:#FFFFFF;}
</style>
<g>
	<path class="st0" d="M20.8,17.6L18.4,0h-0.2C9.5,0,2.4,7.1,2.4,15.8V16L20.8,17.6z"/>
	<path class="st1" d="M18.6,0h-0.2v16l8,3.2l8-3.2v-0.2C34.4,7.1,27.3,0,18.6,0z"/>
	<path class="st2" d="M34.4,16v0.2c0,8.7-7.1,15.8-15.8,15.8h-0.4C9.5,32,2.4,24.9,2.4,16.2V16H34.4z"/>
	<path class="st3" d="M19.2,7.9v17.1c0,0.6-0.4,1.1-0.9,1.4c-0.2,0.1-0.4,0.1-0.6,0.1H6.2c-0.2-0.3-0.4-0.5-0.6-0.8
		c-2-2.7-3.1-6-3.1-9.4v-0.4c0-3.1,0.9-6.1,2.6-8.6c0.2-0.3,0.4-0.5,0.6-0.8h12.2C18.5,6.4,19.2,7.1,19.2,7.9z"/>
	<path class="st4" d="M18.4,8.7v17.1c0,0.2,0,0.4-0.1,0.6c-0.2,0.5-0.8,0.9-1.4,0.9h-10c-0.3-0.3-0.5-0.5-0.7-0.8
		c-0.2-0.3-0.4-0.5-0.6-0.8c-2-2.7-3.1-6-3.1-9.4v-0.4c0-3.1,0.9-6.1,2.6-8.6h12C17.7,7.2,18.4,7.9,18.4,8.7z"/>
	<path class="st4" d="M18.4,8.7v15.5c0,0.8-0.7,1.5-1.5,1.5H5.5c-2-2.7-3.1-6-3.1-9.4v-0.4c0-3.1,0.9-6.1,2.6-8.6h12
		C17.7,7.2,18.4,7.9,18.4,8.7z"/>
	<path class="st4" d="M17.6,8.7v15.5c0,0.8-0.7,1.5-1.5,1.5H5.5c-2-2.7-3.1-6-3.1-9.4v-0.4c0-3.1,0.9-6.1,2.6-8.6h11.2
		C16.9,7.2,17.6,7.9,17.6,8.7z"/>
	
		<linearGradient id="SVGID_1_" gradientUnits="userSpaceOnUse" x1="3.0575" y1="218.0542" x2="14.5425" y2="237.9458" gradientTransform="matrix(1 0 0 1 0 -212)">
		<stop  offset="0" style="stop-color:#CA4C28"/>
		<stop  offset="0.5" style="stop-color:#C5401E"/>
		<stop  offset="1" style="stop-color:#B62F14"/>
	</linearGradient>
	<path class="st5" d="M1.5,7.2h14.7c0.8,0,1.5,0.7,1.5,1.5v14.7c0,0.8-0.7,1.5-1.5,1.5H1.5c-0.8,0-1.5-0.7-1.5-1.5V8.7
		C0,7.9,0.7,7.2,1.5,7.2z"/>
	<path class="st6" d="M9,11.1c1-0.1,1.9,0.2,2.7,0.8c0.6,0.6,1,1.4,0.9,2.3c0,0.6-0.1,1.2-0.5,1.7c-0.3,0.5-0.8,0.9-1.3,1.2
		c-0.6,0.3-1.3,0.4-2,0.4H7v3.4H5.1v-9.8H9z M7,15.9h1.6c0.5,0,1-0.1,1.4-0.4c0.3-0.3,0.5-0.8,0.5-1.3c0-1.1-0.6-1.6-1.9-1.6H7
		L7,15.9L7,15.9z"/>
</g>
</svg>
