<?xml version="1.0" encoding="utf-8"?>
<!-- Generator: Adobe Illustrator 28.0.0, SVG Export Plug-In . SVG Version: 6.00 Build 0)  -->
<svg version="1.1" id="Layer_1" xmlns="http://www.w3.org/2000/svg" xmlns:xlink="http://www.w3.org/1999/xlink" x="0px" y="0px"
	 viewBox="0 0 159.9 186.5" style="enable-background:new 0 0 159.9 186.5;" xml:space="preserve">
<style type="text/css">
	.st0{fill:#56B3B4;}
	.st1{fill:#EA5E5E;}
	.st2{fill:#BF85BF;}
	.st3{fill:#F7BA3E;}
</style>
<g>
	<path class="st0" d="M137.8,35.5h8.9c2.5,0,4.4,2,4.4,4.4s-2,4.4-4.4,4.4h-8.9c-2.5,0-4.4-2-4.4-4.4S135.3,35.5,137.8,35.5z"/>
	<path class="st1" d="M4.4,177.7h44.4c2.5,0,4.4,2,4.4,4.4s-2,4.4-4.4,4.4H4.4c-2.5,0-4.4-2-4.4-4.4S2,177.7,4.4,177.7z"/>
	<path class="st2" d="M111.1,106.6h26.7c2.5,0,4.4,2,4.4,4.4s-2,4.4-4.4,4.4h-26.7c-2.5,0-4.4-2-4.4-4.4S108.6,106.6,111.1,106.6z"
		/>
	<path class="st1" d="M57.8,106.6h35.6c2.5,0,4.4,2,4.4,4.4s-2,4.4-4.4,4.4H57.8c-2.5,0-4.4-2-4.4-4.4S55.3,106.6,57.8,106.6z"/>
	<path class="st0" d="M4.4,106.6H40c2.5,0,4.4,2,4.4,4.4s-2,4.4-4.4,4.4H4.4c-2.5,0-4.4-2-4.4-4.4S2,106.6,4.4,106.6z"/>
	<path class="st2" d="M4.4,142.2h44.4c2.5,0,4.4,2,4.4,4.4s-2,4.4-4.4,4.4H4.4c-2.5,0-4.4-2-4.4-4.4S2,142.2,4.4,142.2z"/>
	<path class="st2" d="M4.4,71.1h44.4c2.5,0,4.4,2,4.4,4.4s-2,4.4-4.4,4.4H4.4c-2.5,0-4.4-2-4.4-4.4S2,71.1,4.4,71.1z"/>
	<path class="st3" d="M48.9,17.7h88.9c2.5,0,4.4,2,4.4,4.4s-2,4.4-4.4,4.4H48.9c-2.5,0-4.4-2-4.4-4.4S46.4,17.7,48.9,17.7z"/>
	<path class="st1" d="M4.4,17.7h26.7c2.5,0,4.4,2,4.4,4.4s-2,4.4-4.4,4.4H4.4c-2.5,0-4.4-2-4.4-4.4S2,17.7,4.4,17.7z"/>
	<path class="st3" d="M40,160h8.9c2.5,0,4.4,2,4.4,4.4s-2,4.4-4.4,4.4H40c-2.5,0-4.4-2-4.4-4.4S37.5,160,40,160z"/>
	<path class="st0" d="M40,53.3h8.9c2.5,0,4.4,2,4.4,4.4c0,2.5-2,4.4-4.4,4.4H40c-2.5,0-4.4-2-4.4-4.4S37.5,53.3,40,53.3z"/>
	<path class="st0" d="M4.4,160h17.8c2.5,0,4.4,2,4.4,4.4s-2,4.4-4.4,4.4H4.4c-2.5,0-4.4-2-4.4-4.4S2,160,4.4,160z"/>
	<path class="st3" d="M4.4,53.3h17.8c2.5,0,4.4,2,4.4,4.4c0,2.5-2,4.4-4.4,4.4H4.4c-2.5,0-4.4-2-4.4-4.4S2,53.3,4.4,53.3z"/>
	<path class="st0" d="M75.6,88.9h71.1c2.5,0,4.4,2,4.4,4.4s-2,4.4-4.4,4.4H75.6c-2.5,0-4.4-2-4.4-4.4S73.1,88.9,75.6,88.9z"/>
	<path class="st3" d="M31.1,88.9h26.7c2.5,0,4.4,2,4.4,4.4s-2,4.4-4.4,4.4H31.1c-2.5,0-4.4-2-4.4-4.4S28.6,88.9,31.1,88.9z"/>
	<path class="st1" d="M4.4,88.9h8.9c2.5,0,4.4,2,4.4,4.4s-2,4.4-4.4,4.4H4.4c-2.5,0-4.4-2-4.4-4.4S2,88.9,4.4,88.9z"/>
	<path class="st2" d="M84.4,35.5H120c2.5,0,4.4,2,4.4,4.4s-2,4.4-4.4,4.4H84.4c-2.5,0-4.4-2-4.4-4.4S82,35.5,84.4,35.5z"/>
	<path class="st0" d="M4.4,35.5h62.2c2.5,0,4.4,2,4.4,4.4s-2,4.4-4.4,4.4H4.4c-2.5,0-4.4-2-4.4-4.4S2,35.5,4.4,35.5z"/>
	<path class="st3" d="M31.1,124.4h80c2.5,0,4.4,2,4.4,4.4s-2,4.4-4.4,4.4h-80c-2.5,0-4.4-2-4.4-4.4S28.6,124.4,31.1,124.4z"/>
	<path class="st2" d="M4.4,124.4h8.9c2.5,0,4.4,2,4.4,4.4s-2,4.4-4.4,4.4H4.4c-2.5,0-4.4-2-4.4-4.4S2,124.4,4.4,124.4z"/>
	<path class="st1" d="M111.1,53.3h44.4c2.5,0,4.4,2,4.4,4.4c0,2.5-2,4.4-4.4,4.4h-44.4c-2.5,0-4.4-2-4.4-4.4S108.6,53.3,111.1,53.3z
		"/>
	<path class="st3" d="M111.1,71.1h44.4c2.5,0,4.4,2,4.4,4.4s-2,4.4-4.4,4.4h-44.4c-2.5,0-4.4-2-4.4-4.4S108.6,71.1,111.1,71.1z"/>
	<path class="st0" d="M4.4,0h106.7c2.5,0,4.4,2,4.4,4.4s-2,4.4-4.4,4.4H4.4C1.9,8.8,0,6.8,0,4.4S2,0,4.4,0z"/>
</g>
</svg>
