<?xml version="1.0" encoding="utf-8"?>
<!-- Generator: Adobe Illustrator 28.0.0, SVG Export Plug-In . SVG Version: 6.00 Build 0)  -->
<svg version="1.1" id="Layer_1" xmlns="http://www.w3.org/2000/svg" xmlns:xlink="http://www.w3.org/1999/xlink" x="0px" y="0px"
	 viewBox="0 0 506.2 506.2" style="enable-background:new 0 0 506.2 506.2;" xml:space="preserve">
<style type="text/css">
	.st0{fill:#FFFFFF;}
	.st1{fill:#3E5BA9;}
	.st2{fill:#9F1D20;}
</style>
<circle class="st0" cx="253.1" cy="253.1" r="253.1"/>
<path class="st1" d="M452.2,409.3c33.8-43,53.9-97.3,53.9-156.2C506.2,113.3,392.9,0,253.1,0c-30.4,0-59.6,5.4-86.6,15.2
	C269.3,69.1,405.2,244.9,452.2,409.3L452.2,409.3z"/>
<path class="st2" d="M216.8,161.4c-39.5-42.5-83.7-76.3-130.5-98.7C33.4,109.1,0,177.2,0,253.1c0,63.8,23.6,122.1,62.6,166.6
	C97,316.5,161.5,217,216.8,161.4z M263.5,218.8c-54.8,59.1-109.4,162.4-129.2,257.8c35.4,18.9,75.8,29.6,118.8,29.6
	c44.1,0,85.6-11.3,121.7-31.2C354,378.8,314.7,290.7,263.5,218.8L263.5,218.8z"/>
</svg>
