<?xml version="1.0" encoding="utf-8"?>
<!-- Generator: Adobe Illustrator 28.0.0, SVG Export Plug-In . SVG Version: 6.00 Build 0)  -->
<svg version="1.1" id="Layer_1" xmlns="http://www.w3.org/2000/svg" xmlns:xlink="http://www.w3.org/1999/xlink" x="0px" y="0px"
	 viewBox="0 0 93.2 112" style="enable-background:new 0 0 93.2 112;" xml:space="preserve">
<style type="text/css">
	.st0{fill:#FF3E00;}
	.st1{fill:#FFFFFF;}
</style>
<path class="st0" d="M87.3,14.8C76.9-0.1,56.3-4.5,41.5,5L15.4,21.6c-7.1,4.5-12,11.7-13.5,20c-1.2,6.9-0.2,14,3.1,20.2
	C2.7,65.2,1.2,69,0.5,73C-1,81.5,1,90.2,5.9,97.1c10.4,14.9,30.9,19.3,45.8,9.8l26.1-16.6c7.1-4.5,12-11.7,13.5-20
	c1.2-6.9,0.1-14-3.1-20.2C90.5,46.8,92,43,92.7,39C94.2,30.6,92.2,21.9,87.3,14.8"/>
<path class="st1" d="M38.9,98.6c-8.4,2.2-17.3-1.1-22.2-8.2c-3-4.2-4.2-9.4-3.3-14.5c0.1-0.8,0.4-1.6,0.6-2.4l0.5-1.5l1.3,1
	c3.1,2.2,6.5,4,10.2,5.1l1,0.3l-0.1,1c-0.1,1.4,0.3,2.7,1.1,3.8c1.5,2.1,4.2,3.1,6.7,2.5c0.6-0.2,1.1-0.4,1.6-0.7l26-16.6
	c1.3-0.8,2.2-2.1,2.4-3.6c0.3-1.5-0.1-3.1-1-4.4c-1.5-2.1-4.2-3.1-6.7-2.5c-0.6,0.2-1.1,0.4-1.6,0.7l-10,6.3c-1.6,1-3.4,1.8-5.3,2.3
	C31.8,69.3,23,66,18,58.9c-3-4.2-4.2-9.4-3.2-14.5c0.9-5,3.8-9.4,8.1-12.1L49,15.7c1.6-1,3.4-1.8,5.3-2.3c8.4-2.2,17.3,1.1,22.2,8.2
	c3,4.2,4.2,9.4,3.3,14.5c-0.2,0.8-0.4,1.6-0.6,2.4l-0.5,1.5l-1.3-1c-3.1-2.3-6.5-4-10.2-5.1l-1-0.3l0.1-1c0.1-1.4-0.3-2.8-1.1-3.9
	c-1.5-2.1-4.2-3.1-6.7-2.4c-0.6,0.2-1.1,0.4-1.6,0.7L30.8,43.7c-1.3,0.8-2.2,2.1-2.5,3.6c-0.3,1.5,0.1,3.1,1,4.4
	c1.5,2.1,4.1,3.1,6.7,2.5c0.6-0.2,1.1-0.4,1.6-0.7l10-6.3c1.6-1,3.4-1.8,5.3-2.3c8.4-2.2,17.3,1.1,22.2,8.2c3,4.2,4.2,9.4,3.3,14.5
	c-0.9,5-3.8,9.4-8.1,12.1L44.2,96.3C42.6,97.3,40.8,98.1,38.9,98.6"/>
</svg>
