<?xml version="1.0" encoding="utf-8"?>
<!-- Generator: Adobe Illustrator 28.0.0, SVG Export Plug-In . SVG Version: 6.00 Build 0)  -->
<svg version="1.1" id="Layer_1" xmlns="http://www.w3.org/2000/svg" xmlns:xlink="http://www.w3.org/1999/xlink" x="0px" y="0px"
	 viewBox="0 0 256 256" style="enable-background:new 0 0 256 256;" xml:space="preserve">
<style type="text/css">
	.st0{fill:#FFB13B;}
</style>
<path class="st0" d="M64.4,116.1H99L74.5,91.6c-9.3,0-16.9-7.6-16.9-17c0-9.3,7.6-16.9,16.9-16.9c9.4,0,17,7.6,17,16.9L116,99.1
	V64.5c-6.5-6.6-6.5-17.3,0-24c6.5-6.6,17.1-6.7,23.7-0.2c0.1,0.1,0.2,0.2,0.2,0.2c6.5,6.5,6.5,17.3,0,24v34.6l24.6-24.5
	c0-9.3,7.6-16.9,16.9-16.9c9.3,0,16.9,7.6,16.9,16.9c0,9.4-7.6,17-16.9,17l-24.5,24.5h34.6c6.6-6.5,17.3-6.5,24,0s6.7,17.3,0,23.8
	c-6.5,6.5-17.3,6.5-24,0h-34.6l24.5,24.6c9.3,0,16.9,7.5,16.9,16.9c0,9.3-7.6,16.9-16.9,16.9c-9.4,0-16.9-7.6-16.9-16.9l-24.6-24.5
	v34.6c6.5,6.7,6.5,17.4,0,24c-6.5,6.7-17.3,6.7-23.8,0c-6.5-6.6-6.5-17.3,0-24v-34.6l-24.5,24.5c0,9.3-7.6,16.9-17,16.9
	c-9.3,0-16.9-7.6-16.9-16.9s7.6-16.9,16.9-16.9l24.5-24.6H64.5c-6.7,6.5-17.4,6.5-24,0c-6.6-6.5-6.7-17.1-0.2-23.7
	c0.1-0.1,0.2-0.2,0.2-0.2C47.1,109.5,57.8,109.5,64.4,116.1z"/>
</svg>
