<?xml version="1.0" encoding="utf-8"?>
<!-- Generator: Adobe Illustrator 28.0.0, SVG Export Plug-In . SVG Version: 6.00 Build 0)  -->
<svg version="1.1" id="Layer_1" xmlns="http://www.w3.org/2000/svg" xmlns:xlink="http://www.w3.org/1999/xlink" x="0px" y="0px"
	 viewBox="0 0 28 16.8" style="enable-background:new 0 0 28 16.8;" xml:space="preserve">
<style type="text/css">
	.st0{fill:#44A8B3;}
</style>
<path class="st0" d="M7,5.6C7.9,1.9,10.3,0,14,0c5.6,0,6.3,4.2,9.1,4.9C25,5.4,26.6,4.7,28,2.8c-0.9,3.7-3.3,5.6-7,5.6
	c-5.6,0-6.3-4.2-9.1-4.9C10,3,8.4,3.7,7,5.6z M0,14c0.9-3.7,3.3-5.6,7-5.6c5.6,0,6.3,4.2,9.1,4.9c1.9,0.5,3.5-0.2,4.9-2.1
	c-0.9,3.7-3.3,5.6-7,5.6c-5.6,0-6.3-4.2-9.1-4.9C3,11.4,1.4,12.1,0,14z"/>
</svg>
