<?xml version="1.0" encoding="utf-8"?>
<!-- Generator: Adobe Illustrator 28.0.0, SVG Export Plug-In . SVG Version: 6.00 Build 0)  -->
<svg version="1.1" id="Layer_1" xmlns="http://www.w3.org/2000/svg" xmlns:xlink="http://www.w3.org/1999/xlink" x="0px" y="0px"
	 viewBox="0 0 985.4 974.8" style="enable-background:new 0 0 985.4 974.8;" xml:space="preserve">
<style type="text/css">
	.st0{fill:#2489CA;}
	.st1{fill:#1070B3;}
	.st2{fill:#0877B9;}
	.st3{fill:#3C99D4;}
</style>
<path class="st0" d="M9.4,339.9c0,0-24-17.3,4.8-40.4l67.1-60c0,0,19.2-20.2,39.5-2.6L740,705.7v224.8c0,0-0.3,35.3-45.6,31.4
	L9.4,339.9z"/>
<path class="st1" d="M169,484.8L9.4,629.9c0,0-16.4,12.2,0,34l74.1,67.4c0,0,17.6,18.9,43.6-2.6l169.2-128.3L169,484.8z"/>
<path class="st2" d="M449.2,486l292.7-223.5L740,38.9c0,0-12.5-48.8-54.2-23.4L296.3,370L449.2,486z"/>
<path class="st3" d="M694.4,962.2c17,17.4,37.6,11.7,37.6,11.7l228.1-112.4c29.2-19.9,25.1-44.6,25.1-44.6V145.7
	c0-29.5-30.2-39.7-30.2-39.7L757.3,10.7c-43.2-26.7-71.5,4.8-71.5,4.8s36.4-26.2,54.2,23.4v887.5c0,6.1-1.3,12.1-3.9,17.5
	c-5.2,10.5-16.5,20.3-43.6,16.2L694.4,962.2z"/>
</svg>
