<?xml version="1.0" encoding="utf-8"?>
<!-- Generator: Adobe Illustrator 28.0.0, SVG Export Plug-In . SVG Version: 6.00 Build 0)  -->
<svg version="1.1" id="Layer_1" xmlns="http://www.w3.org/2000/svg" xmlns:xlink="http://www.w3.org/1999/xlink" x="0px" y="0px"
	 viewBox="0 0 430.4 516.4" style="enable-background:new 0 0 430.4 516.4;" xml:space="preserve">
<style type="text/css">
	.st0{fill:#F4BF75;}
</style>
<path class="st0" d="M286.6,157c7.2,6.2,18.1,9.6,32.6,9.9h30.9c0-0.1-75.2-81.5-75.2-81.5v45.4C275.8,142.2,279.7,151.2,286.6,157z
	"/>
<path class="st0" d="M219.5,321.3c-2.7-0.6-5.5-0.4-8.3-0.5c-4.8-0.1-9.6,0.2-14.4-0.1c-4.2-0.2-7.2,2.3-7.2,6.5c0,4.8,0,9.6,0,14.4
	c0,5,0,10.1,0,15.1c0,4.3,2.8,7.1,7.1,7.1c6.4,0,12.9,0,19.3,0c4.8,0,7.4-2.4,7.5-7.2c0.2-9.9,0.2-19.8,0.2-29.7
	C223.8,324,222.4,321.9,219.5,321.3z"/>
<path class="st0" d="M319,193.5c-21.1-0.3-37.7-6-49.7-16.3c-12.5-10.7-19.5-25.8-21-44.5l-0.1-1.9V71h-45.1
	c2.3,0.8,3.6,2.7,3.6,5.7c0.1,7.3,0.1,14.5,0,21.8c-0.1,4.4-2.4,6.3-6.7,6.4c-3.5,0-6.9,0-10.4,0c-3.8,0-7.6,0-11.4,0
	c-3.7,0-6-2.3-6-6c0-7.3,0-14.7,0-22c0-2.9,1.2-4.9,3.4-5.8h-68.2c-9,0-17.2,3.7-23.2,9.6c-5.9,5.9-9.6,14.2-9.6,23.2v309.3
	c0,9,3.7,17.2,9.6,23.1c6,6,14.2,9.7,23.2,9.7h215c9,0,17.2-3.7,23.1-9.6c6-6,9.7-14.2,9.7-23.2V193.5h0H319z M172.3,145.1
	c0-3.7,2.3-6,6-6c7.1,0,14.2,0.2,21.3-0.1c4.7-0.2,7.3,2.5,7.3,7.5c-0.1,5.2,0,10.4-0.1,15.6c0,2.2-0.1,4.5-0.3,6.7
	c-0.3,2.7-2.3,4.5-5,4.6c-7.8,0.1-15.7,0.2-23.5,0.1c-3.6,0-5.7-2.4-5.7-6.1c0-3.7,0-7.4,0-11.1
	C172.3,152.5,172.2,148.8,172.3,145.1z M212.5,173.3c7.4,0,14.9,0,22.3,0c3.5,0,6.1,2.2,6.2,5.7c0.2,7.6,0.2,15.2,0,22.8
	c-0.1,3.7-2.6,5.9-6.3,6c-7.4,0.1-14.7,0.1-22.1,0c-3.9,0-6.2-2.5-6.3-6.4c0-3.6,0-7.3,0-10.9c0-3.7,0-7.4,0-11.2
	C206.5,175.7,208.8,173.4,212.5,173.3z M172.2,235c0.3-3.4,0-6.8,0-10.2c0,0,0,0,0,0c0-3.8,0-7.6,0-11.4c0-3.5,2.4-5.9,5.9-5.9
	c7.5,0,15,0,22.5,0c3.2,0,5.4,1.8,5.7,4.9c0.3,3.2,0.3,6.4,0.3,9.6c0.1,4.2,0.1,8.4,0,12.6c-0.1,5.1-2.4,7.4-7.5,7.4
	c-6.7,0-13.4-0.1-20.1,0C175,242.2,171.9,239.5,172.2,235z M241.1,389.3c0,6.9-3.5,11.9-9.5,13.4c-0.9,0.2-1.8,0.3-2.7,0.3
	c-15,0-29.9,0.1-44.9,0c-6.5,0-11.8-5.5-11.8-12.1c0-23.5,0.1-46.9,0.1-70.4c0-12.5-0.1-25-0.1-37.4c0-4.7,2.2-7,6.9-7
	c6.9,0,13.7,0,20.6,0c4.8,0,7.1,2.3,7.1,7.2c0,6,0,12.1,0,18.1c0,1.1,0,2.1,0,3.5c8.7,0,17,0,25.4,0c6.7,0,8.9,2.3,8.9,8.9
	C241.1,338.9,241.1,364.1,241.1,389.3z M241.1,270.5c-0.1,3.5-2.6,5.8-6.1,5.9c-7.4,0.1-14.9,0.1-22.3,0c-3.8-0.1-6.1-2.6-6.1-6.3
	c0-3.7,0-7.4,0-11.2c0-3.6,0-7.3,0-10.9c0-3.7,2.5-6.2,6.2-6.2c7.4,0,14.7,0,22.1,0c3.6,0,6.2,2.3,6.3,5.9
	C241.2,255.3,241.2,262.9,241.1,270.5z M241.1,132.9c-0.1,4.2-2.4,6.2-6.6,6.3c-3.6,0-7.3,0-10.9,0c0,0,0,0,0,0c-3.8,0-7.6,0-11.4,0
	c-3.3,0-5.6-2.3-5.6-5.6c-0.1-7.7-0.1-15.4,0-23c0-3.3,2.4-5.6,5.6-5.6c7.6-0.1,15.2-0.1,22.8,0c3.7,0,6.1,2.3,6.1,6
	C241.2,118.2,241.2,125.6,241.1,132.9z"/>
<path class="st0" d="M378.4,158.2L278,49.7c-2.5-3.2-6.3-5.3-10.7-5.3H107.5c-16.4,0-31.2,6.7-42,17.5C54.7,72.5,48,87.5,48,103.8
	v309.3c0,16.3,6.7,31.2,17.5,42s25.6,17.5,42,17.5h215c16.3,0,31.1-6.7,41.9-17.5l0.1-0.1c10.8-10.8,17.5-25.7,17.5-42l-0.1-245.8
	C381.9,164,380.8,160.9,378.4,158.2z M274.9,85.5c0,0,75.2,81.4,75.2,81.5h-30.9c-14.5-0.3-25.4-3.7-32.6-9.9
	c-6.9-5.9-10.8-14.8-11.7-26.2V85.5z M355.3,413.2c0,9-3.7,17.2-9.7,23.2c-5.9,5.9-14.1,9.6-23.1,9.6h-215c-9,0-17.2-3.7-23.2-9.7
	c-5.9-5.9-9.6-14.1-9.6-23.1V103.8c0-9,3.7-17.3,9.6-23.2c6-5.9,14.2-9.6,23.2-9.6h68.2c0.8-0.3,1.6-0.4,2.6-0.4
	c7.3-0.1,14.7-0.1,22,0c1.1,0,2,0.2,2.8,0.4h45.1v59.8l0.1,1.9c1.5,18.7,8.5,33.8,21,44.5c12,10.3,28.6,16,49.7,16.3h36.3h0V413.2z"
	/>
<path class="st0" d="M200.3,70.6c-7.3,0-14.7,0-22,0c-1,0-1.8,0.2-2.6,0.4h27.4C202.3,70.8,201.4,70.6,200.3,70.6z"/>
</svg>
